M48
; DRILL file {KiCad 9.0.0} date 2025-04-24T12:01:31-0400
; FORMAT={-:-/ absolute / metric / decimal}
; #@! TF.CreationDate,2025-04-24T12:01:31-04:00
; #@! TF.GenerationSoftware,Kicad,Pcbnew,9.0.0
; #@! TF.FileFunction,Plated,1,4,PTH
FMAT,2
METRIC
; #@! TA.AperFunction,Plated,PTH,ViaDrill
T1C0.300
; #@! TA.AperFunction,Plated,PTH,ComponentDrill
T2C0.300
; #@! TA.AperFunction,Plated,PTH,ComponentDrill
T3C0.600
; #@! TA.AperFunction,Plated,PTH,ComponentDrill
T4C1.000
%
G90
G05
T1
X135.927Y-119.587
X135.927Y-121.376
X136.127Y-67.231
X136.127Y-77.965
X137.527Y-121.376
X138.05Y-73.75
X138.927Y-119.676
X139.8Y-124.95
X140.4Y-115.5
X140.527Y-64.076
X141.375Y-74.35
X141.4Y-109.8
X141.527Y-66.576
X141.6Y-97.3
X142.327Y-68.276
X142.5Y-93.7
X143.3Y-86.0
X143.727Y-72.876
X144.127Y-66.276
X144.127Y-74.676
X144.727Y-110.976
X144.727Y-111.676
X144.727Y-112.376
X145.127Y-117.276
X145.327Y-99.776
X145.327Y-100.476
X145.327Y-101.176
X145.327Y-101.876
X145.327Y-102.576
X145.627Y-71.876
X146.227Y-84.076
X146.227Y-115.876
X146.927Y-105.876
X147.427Y-71.876
X147.527Y-65.376
X148.127Y-66.376
X148.127Y-124.276
X148.327Y-84.676
X148.527Y-86.276
X148.527Y-98.076
X148.627Y-96.666
X148.708Y-97.362
X148.727Y-65.376
X149.0Y-92.9
X149.01Y-124.276
X149.427Y-71.876
X149.427Y-97.676
X149.527Y-96.876
X149.727Y-65.376
X149.752Y-114.648
X149.8Y-82.8
X149.894Y-124.276
X150.318Y-114.082
X150.527Y-92.3
X150.777Y-124.276
X150.8Y-103.2
X150.827Y-65.676
X151.125Y-93.416
X151.176Y-91.675
X151.567Y-94.083
X151.66Y-124.276
X151.827Y-105.976
X151.827Y-106.676
X151.927Y-65.376
X152.227Y-114.176
X152.327Y-86.876
X152.427Y-82.176
X152.442Y-91.158
X152.544Y-124.276
X152.627Y-73.276
X152.627Y-73.976
X152.827Y-67.001
X153.107Y-100.031
X153.427Y-124.276
X153.488Y-97.888
X153.5Y-102.6
X153.8Y-90.125
X154.25Y-112.4
X154.327Y-115.876
X154.527Y-67.776
X155.1Y-87.6
X155.4Y-110.55
X155.6Y-89.5
X155.8Y-93.575
X155.979Y-68.427
X157.527Y-71.676
X158.602Y-69.199
X161.527Y-66.631
X161.527Y-68.42
X161.527Y-70.209
X161.527Y-73.787
X161.527Y-75.576
X161.527Y-77.365
T2
X148.602Y-105.676
X148.602Y-106.676
X149.102Y-106.176
X149.602Y-105.676
X149.602Y-106.676
T4
X136.5Y-80.26
X136.5Y-82.8
X136.5Y-85.34
X136.5Y-87.88
X136.5Y-90.42
X136.5Y-92.96
X136.5Y-95.5
X136.5Y-98.04
X136.5Y-100.58
X136.5Y-103.12
X136.5Y-105.66
X136.5Y-108.2
X136.5Y-110.74
X136.5Y-113.28
X136.5Y-115.82
X139.597Y-103.361
X139.597Y-105.901
X139.597Y-108.441
X139.597Y-110.981
X139.641Y-77.523
X139.641Y-80.063
X139.641Y-82.603
X144.607Y-79.076
X147.147Y-79.076
X149.687Y-79.076
X152.227Y-79.076
X157.727Y-101.741
X157.727Y-104.281
X157.727Y-106.821
X157.727Y-109.361
X157.727Y-113.176
X157.727Y-115.716
X157.727Y-118.256
X157.727Y-120.796
X157.727Y-123.336
X157.747Y-77.731
X157.747Y-80.271
X157.747Y-82.811
X157.747Y-85.351
X157.747Y-87.891
X157.747Y-90.431
X157.747Y-92.971
X157.747Y-95.511
X157.747Y-98.051
X161.0Y-80.26
X161.0Y-82.8
X161.0Y-85.34
X161.0Y-87.88
X161.0Y-90.42
X161.0Y-92.96
X161.0Y-95.5
X161.0Y-98.04
X161.0Y-100.58
X161.0Y-103.12
X161.0Y-105.66
X161.0Y-108.2
X161.0Y-110.74
X161.0Y-113.28
X161.0Y-115.82
X161.0Y-120.075
X161.0Y-122.615
X161.0Y-125.155
T3
G00X146.307Y-119.521
M15
G01X146.307Y-120.621
M16
G05
G00X146.307Y-123.851
M15
G01X146.307Y-124.651
M16
G05
G00X154.947Y-119.521
M15
G01X154.947Y-120.621
M16
G05
G00X154.947Y-123.851
M15
G01X154.947Y-124.651
M16
G05
M30
