%TF.GenerationSoftware,KiCad,Pcbnew,9.0.0*%
%TF.CreationDate,2025-04-24T12:01:06-04:00*%
%TF.ProjectId,Tiny4FSKGeneralShield,54696e79-3446-4534-9b47-656e6572616c,rev?*%
%TF.SameCoordinates,Original*%
%TF.FileFunction,Legend,Top*%
%TF.FilePolarity,Positive*%
%FSLAX46Y46*%
G04 Gerber Fmt 4.6, Leading zero omitted, Abs format (unit mm)*
G04 Created by KiCad (PCBNEW 9.0.0) date 2025-04-24 12:01:06*
%MOMM*%
%LPD*%
G01*
G04 APERTURE LIST*
%ADD10C,0.200000*%
%ADD11C,0.150000*%
%ADD12C,0.120000*%
%ADD13C,0.127000*%
G04 APERTURE END LIST*
D10*
X142127000Y-76875772D02*
X154627000Y-76875772D01*
X154627000Y-112875772D01*
X142127000Y-112875772D01*
X142127000Y-76875772D01*
X152605680Y-105875772D02*
G75*
G02*
X149605680Y-108875780I-2999980J-28D01*
G01*
X149605680Y-84275772D02*
G75*
G02*
X152605628Y-87275772I20J-2999928D01*
G01*
X147405680Y-108875772D02*
G75*
G02*
X144405628Y-105875772I20J3000072D01*
G01*
X149605680Y-108875772D02*
X147405680Y-108875772D01*
X147405680Y-84275772D02*
X149605680Y-84275772D01*
X144405680Y-105875772D02*
X144405680Y-87275772D01*
X144405680Y-87275772D02*
G75*
G02*
X147405680Y-84275780I3000020J-28D01*
G01*
X152605680Y-87275772D02*
X152605680Y-105875772D01*
D11*
X155863274Y-100181952D02*
X155896608Y-100215285D01*
X155896608Y-100215285D02*
X155929941Y-100315285D01*
X155929941Y-100315285D02*
X155929941Y-100381952D01*
X155929941Y-100381952D02*
X155896608Y-100481952D01*
X155896608Y-100481952D02*
X155829941Y-100548619D01*
X155829941Y-100548619D02*
X155763274Y-100581952D01*
X155763274Y-100581952D02*
X155629941Y-100615285D01*
X155629941Y-100615285D02*
X155529941Y-100615285D01*
X155529941Y-100615285D02*
X155396608Y-100581952D01*
X155396608Y-100581952D02*
X155329941Y-100548619D01*
X155329941Y-100548619D02*
X155263274Y-100481952D01*
X155263274Y-100481952D02*
X155229941Y-100381952D01*
X155229941Y-100381952D02*
X155229941Y-100315285D01*
X155229941Y-100315285D02*
X155263274Y-100215285D01*
X155263274Y-100215285D02*
X155296608Y-100181952D01*
X155463274Y-99581952D02*
X155929941Y-99581952D01*
X155196608Y-99748619D02*
X155696608Y-99915285D01*
X155696608Y-99915285D02*
X155696608Y-99481952D01*
X155443033Y-68742438D02*
X155943033Y-68742438D01*
X155943033Y-68742438D02*
X156043033Y-68775771D01*
X156043033Y-68775771D02*
X156109700Y-68842438D01*
X156109700Y-68842438D02*
X156143033Y-68942438D01*
X156143033Y-68942438D02*
X156143033Y-69009105D01*
X156143033Y-68042438D02*
X156143033Y-68442438D01*
X156143033Y-68242438D02*
X155443033Y-68242438D01*
X155443033Y-68242438D02*
X155543033Y-68309105D01*
X155543033Y-68309105D02*
X155609700Y-68375772D01*
X155609700Y-68375772D02*
X155643033Y-68442438D01*
X155443033Y-67609105D02*
X155443033Y-67542438D01*
X155443033Y-67542438D02*
X155476366Y-67475771D01*
X155476366Y-67475771D02*
X155509700Y-67442438D01*
X155509700Y-67442438D02*
X155576366Y-67409105D01*
X155576366Y-67409105D02*
X155709700Y-67375771D01*
X155709700Y-67375771D02*
X155876366Y-67375771D01*
X155876366Y-67375771D02*
X156009700Y-67409105D01*
X156009700Y-67409105D02*
X156076366Y-67442438D01*
X156076366Y-67442438D02*
X156109700Y-67475771D01*
X156109700Y-67475771D02*
X156143033Y-67542438D01*
X156143033Y-67542438D02*
X156143033Y-67609105D01*
X156143033Y-67609105D02*
X156109700Y-67675771D01*
X156109700Y-67675771D02*
X156076366Y-67709105D01*
X156076366Y-67709105D02*
X156009700Y-67742438D01*
X156009700Y-67742438D02*
X155876366Y-67775771D01*
X155876366Y-67775771D02*
X155709700Y-67775771D01*
X155709700Y-67775771D02*
X155576366Y-67742438D01*
X155576366Y-67742438D02*
X155509700Y-67709105D01*
X155509700Y-67709105D02*
X155476366Y-67675771D01*
X155476366Y-67675771D02*
X155443033Y-67609105D01*
X149410333Y-110325138D02*
X149377000Y-110358472D01*
X149377000Y-110358472D02*
X149277000Y-110391805D01*
X149277000Y-110391805D02*
X149210333Y-110391805D01*
X149210333Y-110391805D02*
X149110333Y-110358472D01*
X149110333Y-110358472D02*
X149043667Y-110291805D01*
X149043667Y-110291805D02*
X149010333Y-110225138D01*
X149010333Y-110225138D02*
X148977000Y-110091805D01*
X148977000Y-110091805D02*
X148977000Y-109991805D01*
X148977000Y-109991805D02*
X149010333Y-109858472D01*
X149010333Y-109858472D02*
X149043667Y-109791805D01*
X149043667Y-109791805D02*
X149110333Y-109725138D01*
X149110333Y-109725138D02*
X149210333Y-109691805D01*
X149210333Y-109691805D02*
X149277000Y-109691805D01*
X149277000Y-109691805D02*
X149377000Y-109725138D01*
X149377000Y-109725138D02*
X149410333Y-109758472D01*
X150010333Y-109691805D02*
X149877000Y-109691805D01*
X149877000Y-109691805D02*
X149810333Y-109725138D01*
X149810333Y-109725138D02*
X149777000Y-109758472D01*
X149777000Y-109758472D02*
X149710333Y-109858472D01*
X149710333Y-109858472D02*
X149677000Y-109991805D01*
X149677000Y-109991805D02*
X149677000Y-110258472D01*
X149677000Y-110258472D02*
X149710333Y-110325138D01*
X149710333Y-110325138D02*
X149743667Y-110358472D01*
X149743667Y-110358472D02*
X149810333Y-110391805D01*
X149810333Y-110391805D02*
X149943667Y-110391805D01*
X149943667Y-110391805D02*
X150010333Y-110358472D01*
X150010333Y-110358472D02*
X150043667Y-110325138D01*
X150043667Y-110325138D02*
X150077000Y-110258472D01*
X150077000Y-110258472D02*
X150077000Y-110091805D01*
X150077000Y-110091805D02*
X150043667Y-110025138D01*
X150043667Y-110025138D02*
X150010333Y-109991805D01*
X150010333Y-109991805D02*
X149943667Y-109958472D01*
X149943667Y-109958472D02*
X149810333Y-109958472D01*
X149810333Y-109958472D02*
X149743667Y-109991805D01*
X149743667Y-109991805D02*
X149710333Y-110025138D01*
X149710333Y-110025138D02*
X149677000Y-110091805D01*
X146510333Y-95425138D02*
X146477000Y-95458472D01*
X146477000Y-95458472D02*
X146377000Y-95491805D01*
X146377000Y-95491805D02*
X146310333Y-95491805D01*
X146310333Y-95491805D02*
X146210333Y-95458472D01*
X146210333Y-95458472D02*
X146143667Y-95391805D01*
X146143667Y-95391805D02*
X146110333Y-95325138D01*
X146110333Y-95325138D02*
X146077000Y-95191805D01*
X146077000Y-95191805D02*
X146077000Y-95091805D01*
X146077000Y-95091805D02*
X146110333Y-94958472D01*
X146110333Y-94958472D02*
X146143667Y-94891805D01*
X146143667Y-94891805D02*
X146210333Y-94825138D01*
X146210333Y-94825138D02*
X146310333Y-94791805D01*
X146310333Y-94791805D02*
X146377000Y-94791805D01*
X146377000Y-94791805D02*
X146477000Y-94825138D01*
X146477000Y-94825138D02*
X146510333Y-94858472D01*
X146843667Y-95491805D02*
X146977000Y-95491805D01*
X146977000Y-95491805D02*
X147043667Y-95458472D01*
X147043667Y-95458472D02*
X147077000Y-95425138D01*
X147077000Y-95425138D02*
X147143667Y-95325138D01*
X147143667Y-95325138D02*
X147177000Y-95191805D01*
X147177000Y-95191805D02*
X147177000Y-94925138D01*
X147177000Y-94925138D02*
X147143667Y-94858472D01*
X147143667Y-94858472D02*
X147110333Y-94825138D01*
X147110333Y-94825138D02*
X147043667Y-94791805D01*
X147043667Y-94791805D02*
X146910333Y-94791805D01*
X146910333Y-94791805D02*
X146843667Y-94825138D01*
X146843667Y-94825138D02*
X146810333Y-94858472D01*
X146810333Y-94858472D02*
X146777000Y-94925138D01*
X146777000Y-94925138D02*
X146777000Y-95091805D01*
X146777000Y-95091805D02*
X146810333Y-95158472D01*
X146810333Y-95158472D02*
X146843667Y-95191805D01*
X146843667Y-95191805D02*
X146910333Y-95225138D01*
X146910333Y-95225138D02*
X147043667Y-95225138D01*
X147043667Y-95225138D02*
X147110333Y-95191805D01*
X147110333Y-95191805D02*
X147143667Y-95158472D01*
X147143667Y-95158472D02*
X147177000Y-95091805D01*
X135690476Y-77384819D02*
X135690476Y-78099104D01*
X135690476Y-78099104D02*
X135642857Y-78241961D01*
X135642857Y-78241961D02*
X135547619Y-78337200D01*
X135547619Y-78337200D02*
X135404762Y-78384819D01*
X135404762Y-78384819D02*
X135309524Y-78384819D01*
X136690476Y-78384819D02*
X136119048Y-78384819D01*
X136404762Y-78384819D02*
X136404762Y-77384819D01*
X136404762Y-77384819D02*
X136309524Y-77527676D01*
X136309524Y-77527676D02*
X136214286Y-77622914D01*
X136214286Y-77622914D02*
X136119048Y-77670533D01*
X137023810Y-77384819D02*
X137690476Y-77384819D01*
X137690476Y-77384819D02*
X137261905Y-78384819D01*
X153976366Y-103692438D02*
X154009700Y-103725771D01*
X154009700Y-103725771D02*
X154043033Y-103825771D01*
X154043033Y-103825771D02*
X154043033Y-103892438D01*
X154043033Y-103892438D02*
X154009700Y-103992438D01*
X154009700Y-103992438D02*
X153943033Y-104059105D01*
X153943033Y-104059105D02*
X153876366Y-104092438D01*
X153876366Y-104092438D02*
X153743033Y-104125771D01*
X153743033Y-104125771D02*
X153643033Y-104125771D01*
X153643033Y-104125771D02*
X153509700Y-104092438D01*
X153509700Y-104092438D02*
X153443033Y-104059105D01*
X153443033Y-104059105D02*
X153376366Y-103992438D01*
X153376366Y-103992438D02*
X153343033Y-103892438D01*
X153343033Y-103892438D02*
X153343033Y-103825771D01*
X153343033Y-103825771D02*
X153376366Y-103725771D01*
X153376366Y-103725771D02*
X153409700Y-103692438D01*
X153343033Y-103459105D02*
X153343033Y-103025771D01*
X153343033Y-103025771D02*
X153609700Y-103259105D01*
X153609700Y-103259105D02*
X153609700Y-103159105D01*
X153609700Y-103159105D02*
X153643033Y-103092438D01*
X153643033Y-103092438D02*
X153676366Y-103059105D01*
X153676366Y-103059105D02*
X153743033Y-103025771D01*
X153743033Y-103025771D02*
X153909700Y-103025771D01*
X153909700Y-103025771D02*
X153976366Y-103059105D01*
X153976366Y-103059105D02*
X154009700Y-103092438D01*
X154009700Y-103092438D02*
X154043033Y-103159105D01*
X154043033Y-103159105D02*
X154043033Y-103359105D01*
X154043033Y-103359105D02*
X154009700Y-103425771D01*
X154009700Y-103425771D02*
X153976366Y-103459105D01*
X146910333Y-119251805D02*
X146677000Y-118918472D01*
X146510333Y-119251805D02*
X146510333Y-118551805D01*
X146510333Y-118551805D02*
X146777000Y-118551805D01*
X146777000Y-118551805D02*
X146843667Y-118585138D01*
X146843667Y-118585138D02*
X146877000Y-118618472D01*
X146877000Y-118618472D02*
X146910333Y-118685138D01*
X146910333Y-118685138D02*
X146910333Y-118785138D01*
X146910333Y-118785138D02*
X146877000Y-118851805D01*
X146877000Y-118851805D02*
X146843667Y-118885138D01*
X146843667Y-118885138D02*
X146777000Y-118918472D01*
X146777000Y-118918472D02*
X146510333Y-118918472D01*
X147577000Y-119251805D02*
X147177000Y-119251805D01*
X147377000Y-119251805D02*
X147377000Y-118551805D01*
X147377000Y-118551805D02*
X147310333Y-118651805D01*
X147310333Y-118651805D02*
X147243667Y-118718472D01*
X147243667Y-118718472D02*
X147177000Y-118751805D01*
X149510333Y-112525138D02*
X149477000Y-112558472D01*
X149477000Y-112558472D02*
X149377000Y-112591805D01*
X149377000Y-112591805D02*
X149310333Y-112591805D01*
X149310333Y-112591805D02*
X149210333Y-112558472D01*
X149210333Y-112558472D02*
X149143667Y-112491805D01*
X149143667Y-112491805D02*
X149110333Y-112425138D01*
X149110333Y-112425138D02*
X149077000Y-112291805D01*
X149077000Y-112291805D02*
X149077000Y-112191805D01*
X149077000Y-112191805D02*
X149110333Y-112058472D01*
X149110333Y-112058472D02*
X149143667Y-111991805D01*
X149143667Y-111991805D02*
X149210333Y-111925138D01*
X149210333Y-111925138D02*
X149310333Y-111891805D01*
X149310333Y-111891805D02*
X149377000Y-111891805D01*
X149377000Y-111891805D02*
X149477000Y-111925138D01*
X149477000Y-111925138D02*
X149510333Y-111958472D01*
X150143667Y-111891805D02*
X149810333Y-111891805D01*
X149810333Y-111891805D02*
X149777000Y-112225138D01*
X149777000Y-112225138D02*
X149810333Y-112191805D01*
X149810333Y-112191805D02*
X149877000Y-112158472D01*
X149877000Y-112158472D02*
X150043667Y-112158472D01*
X150043667Y-112158472D02*
X150110333Y-112191805D01*
X150110333Y-112191805D02*
X150143667Y-112225138D01*
X150143667Y-112225138D02*
X150177000Y-112291805D01*
X150177000Y-112291805D02*
X150177000Y-112458472D01*
X150177000Y-112458472D02*
X150143667Y-112525138D01*
X150143667Y-112525138D02*
X150110333Y-112558472D01*
X150110333Y-112558472D02*
X150043667Y-112591805D01*
X150043667Y-112591805D02*
X149877000Y-112591805D01*
X149877000Y-112591805D02*
X149810333Y-112558472D01*
X149810333Y-112558472D02*
X149777000Y-112525138D01*
X140343033Y-70309105D02*
X140843033Y-70309105D01*
X140843033Y-70309105D02*
X140943033Y-70342438D01*
X140943033Y-70342438D02*
X141009700Y-70409105D01*
X141009700Y-70409105D02*
X141043033Y-70509105D01*
X141043033Y-70509105D02*
X141043033Y-70575772D01*
X140343033Y-69642439D02*
X140343033Y-69975772D01*
X140343033Y-69975772D02*
X140676366Y-70009105D01*
X140676366Y-70009105D02*
X140643033Y-69975772D01*
X140643033Y-69975772D02*
X140609700Y-69909105D01*
X140609700Y-69909105D02*
X140609700Y-69742439D01*
X140609700Y-69742439D02*
X140643033Y-69675772D01*
X140643033Y-69675772D02*
X140676366Y-69642439D01*
X140676366Y-69642439D02*
X140743033Y-69609105D01*
X140743033Y-69609105D02*
X140909700Y-69609105D01*
X140909700Y-69609105D02*
X140976366Y-69642439D01*
X140976366Y-69642439D02*
X141009700Y-69675772D01*
X141009700Y-69675772D02*
X141043033Y-69742439D01*
X141043033Y-69742439D02*
X141043033Y-69909105D01*
X141043033Y-69909105D02*
X141009700Y-69975772D01*
X141009700Y-69975772D02*
X140976366Y-70009105D01*
X147843666Y-85391805D02*
X147843666Y-85958472D01*
X147843666Y-85958472D02*
X147877000Y-86025138D01*
X147877000Y-86025138D02*
X147910333Y-86058472D01*
X147910333Y-86058472D02*
X147977000Y-86091805D01*
X147977000Y-86091805D02*
X148110333Y-86091805D01*
X148110333Y-86091805D02*
X148177000Y-86058472D01*
X148177000Y-86058472D02*
X148210333Y-86025138D01*
X148210333Y-86025138D02*
X148243666Y-85958472D01*
X148243666Y-85958472D02*
X148243666Y-85391805D01*
X148943666Y-86091805D02*
X148543666Y-86091805D01*
X148743666Y-86091805D02*
X148743666Y-85391805D01*
X148743666Y-85391805D02*
X148676999Y-85491805D01*
X148676999Y-85491805D02*
X148610333Y-85558472D01*
X148610333Y-85558472D02*
X148543666Y-85591805D01*
X143689117Y-92676403D02*
X143455784Y-92343070D01*
X143289117Y-92676403D02*
X143289117Y-91976403D01*
X143289117Y-91976403D02*
X143555784Y-91976403D01*
X143555784Y-91976403D02*
X143622451Y-92009736D01*
X143622451Y-92009736D02*
X143655784Y-92043070D01*
X143655784Y-92043070D02*
X143689117Y-92109736D01*
X143689117Y-92109736D02*
X143689117Y-92209736D01*
X143689117Y-92209736D02*
X143655784Y-92276403D01*
X143655784Y-92276403D02*
X143622451Y-92309736D01*
X143622451Y-92309736D02*
X143555784Y-92343070D01*
X143555784Y-92343070D02*
X143289117Y-92343070D01*
X144289117Y-92209736D02*
X144289117Y-92676403D01*
X144122451Y-91943070D02*
X143955784Y-92443070D01*
X143955784Y-92443070D02*
X144389117Y-92443070D01*
X154210333Y-115841805D02*
X153977000Y-115508472D01*
X153810333Y-115841805D02*
X153810333Y-115141805D01*
X153810333Y-115141805D02*
X154077000Y-115141805D01*
X154077000Y-115141805D02*
X154143667Y-115175138D01*
X154143667Y-115175138D02*
X154177000Y-115208472D01*
X154177000Y-115208472D02*
X154210333Y-115275138D01*
X154210333Y-115275138D02*
X154210333Y-115375138D01*
X154210333Y-115375138D02*
X154177000Y-115441805D01*
X154177000Y-115441805D02*
X154143667Y-115475138D01*
X154143667Y-115475138D02*
X154077000Y-115508472D01*
X154077000Y-115508472D02*
X153810333Y-115508472D01*
X154477000Y-115208472D02*
X154510333Y-115175138D01*
X154510333Y-115175138D02*
X154577000Y-115141805D01*
X154577000Y-115141805D02*
X154743667Y-115141805D01*
X154743667Y-115141805D02*
X154810333Y-115175138D01*
X154810333Y-115175138D02*
X154843667Y-115208472D01*
X154843667Y-115208472D02*
X154877000Y-115275138D01*
X154877000Y-115275138D02*
X154877000Y-115341805D01*
X154877000Y-115341805D02*
X154843667Y-115441805D01*
X154843667Y-115441805D02*
X154443667Y-115841805D01*
X154443667Y-115841805D02*
X154877000Y-115841805D01*
X146310333Y-98425138D02*
X146277000Y-98458472D01*
X146277000Y-98458472D02*
X146177000Y-98491805D01*
X146177000Y-98491805D02*
X146110333Y-98491805D01*
X146110333Y-98491805D02*
X146010333Y-98458472D01*
X146010333Y-98458472D02*
X145943667Y-98391805D01*
X145943667Y-98391805D02*
X145910333Y-98325138D01*
X145910333Y-98325138D02*
X145877000Y-98191805D01*
X145877000Y-98191805D02*
X145877000Y-98091805D01*
X145877000Y-98091805D02*
X145910333Y-97958472D01*
X145910333Y-97958472D02*
X145943667Y-97891805D01*
X145943667Y-97891805D02*
X146010333Y-97825138D01*
X146010333Y-97825138D02*
X146110333Y-97791805D01*
X146110333Y-97791805D02*
X146177000Y-97791805D01*
X146177000Y-97791805D02*
X146277000Y-97825138D01*
X146277000Y-97825138D02*
X146310333Y-97858472D01*
X146710333Y-98091805D02*
X146643667Y-98058472D01*
X146643667Y-98058472D02*
X146610333Y-98025138D01*
X146610333Y-98025138D02*
X146577000Y-97958472D01*
X146577000Y-97958472D02*
X146577000Y-97925138D01*
X146577000Y-97925138D02*
X146610333Y-97858472D01*
X146610333Y-97858472D02*
X146643667Y-97825138D01*
X146643667Y-97825138D02*
X146710333Y-97791805D01*
X146710333Y-97791805D02*
X146843667Y-97791805D01*
X146843667Y-97791805D02*
X146910333Y-97825138D01*
X146910333Y-97825138D02*
X146943667Y-97858472D01*
X146943667Y-97858472D02*
X146977000Y-97925138D01*
X146977000Y-97925138D02*
X146977000Y-97958472D01*
X146977000Y-97958472D02*
X146943667Y-98025138D01*
X146943667Y-98025138D02*
X146910333Y-98058472D01*
X146910333Y-98058472D02*
X146843667Y-98091805D01*
X146843667Y-98091805D02*
X146710333Y-98091805D01*
X146710333Y-98091805D02*
X146643667Y-98125138D01*
X146643667Y-98125138D02*
X146610333Y-98158472D01*
X146610333Y-98158472D02*
X146577000Y-98225138D01*
X146577000Y-98225138D02*
X146577000Y-98358472D01*
X146577000Y-98358472D02*
X146610333Y-98425138D01*
X146610333Y-98425138D02*
X146643667Y-98458472D01*
X146643667Y-98458472D02*
X146710333Y-98491805D01*
X146710333Y-98491805D02*
X146843667Y-98491805D01*
X146843667Y-98491805D02*
X146910333Y-98458472D01*
X146910333Y-98458472D02*
X146943667Y-98425138D01*
X146943667Y-98425138D02*
X146977000Y-98358472D01*
X146977000Y-98358472D02*
X146977000Y-98225138D01*
X146977000Y-98225138D02*
X146943667Y-98158472D01*
X146943667Y-98158472D02*
X146910333Y-98125138D01*
X146910333Y-98125138D02*
X146843667Y-98091805D01*
X149910333Y-102525138D02*
X149877000Y-102558472D01*
X149877000Y-102558472D02*
X149777000Y-102591805D01*
X149777000Y-102591805D02*
X149710333Y-102591805D01*
X149710333Y-102591805D02*
X149610333Y-102558472D01*
X149610333Y-102558472D02*
X149543667Y-102491805D01*
X149543667Y-102491805D02*
X149510333Y-102425138D01*
X149510333Y-102425138D02*
X149477000Y-102291805D01*
X149477000Y-102291805D02*
X149477000Y-102191805D01*
X149477000Y-102191805D02*
X149510333Y-102058472D01*
X149510333Y-102058472D02*
X149543667Y-101991805D01*
X149543667Y-101991805D02*
X149610333Y-101925138D01*
X149610333Y-101925138D02*
X149710333Y-101891805D01*
X149710333Y-101891805D02*
X149777000Y-101891805D01*
X149777000Y-101891805D02*
X149877000Y-101925138D01*
X149877000Y-101925138D02*
X149910333Y-101958472D01*
X150143667Y-101891805D02*
X150610333Y-101891805D01*
X150610333Y-101891805D02*
X150310333Y-102591805D01*
X150393666Y-117291805D02*
X150393666Y-117791805D01*
X150393666Y-117791805D02*
X150360333Y-117891805D01*
X150360333Y-117891805D02*
X150293666Y-117958472D01*
X150293666Y-117958472D02*
X150193666Y-117991805D01*
X150193666Y-117991805D02*
X150127000Y-117991805D01*
X150693666Y-117358472D02*
X150726999Y-117325138D01*
X150726999Y-117325138D02*
X150793666Y-117291805D01*
X150793666Y-117291805D02*
X150960333Y-117291805D01*
X150960333Y-117291805D02*
X151026999Y-117325138D01*
X151026999Y-117325138D02*
X151060333Y-117358472D01*
X151060333Y-117358472D02*
X151093666Y-117425138D01*
X151093666Y-117425138D02*
X151093666Y-117491805D01*
X151093666Y-117491805D02*
X151060333Y-117591805D01*
X151060333Y-117591805D02*
X150660333Y-117991805D01*
X150660333Y-117991805D02*
X151093666Y-117991805D01*
X155343033Y-64809105D02*
X155843033Y-64809105D01*
X155843033Y-64809105D02*
X155943033Y-64842438D01*
X155943033Y-64842438D02*
X156009700Y-64909105D01*
X156009700Y-64909105D02*
X156043033Y-65009105D01*
X156043033Y-65009105D02*
X156043033Y-65075772D01*
X156043033Y-64109105D02*
X156043033Y-64509105D01*
X156043033Y-64309105D02*
X155343033Y-64309105D01*
X155343033Y-64309105D02*
X155443033Y-64375772D01*
X155443033Y-64375772D02*
X155509700Y-64442439D01*
X155509700Y-64442439D02*
X155543033Y-64509105D01*
X160190476Y-77384819D02*
X160190476Y-78099104D01*
X160190476Y-78099104D02*
X160142857Y-78241961D01*
X160142857Y-78241961D02*
X160047619Y-78337200D01*
X160047619Y-78337200D02*
X159904762Y-78384819D01*
X159904762Y-78384819D02*
X159809524Y-78384819D01*
X161190476Y-78384819D02*
X160619048Y-78384819D01*
X160904762Y-78384819D02*
X160904762Y-77384819D01*
X160904762Y-77384819D02*
X160809524Y-77527676D01*
X160809524Y-77527676D02*
X160714286Y-77622914D01*
X160714286Y-77622914D02*
X160619048Y-77670533D01*
X162047619Y-77384819D02*
X161857143Y-77384819D01*
X161857143Y-77384819D02*
X161761905Y-77432438D01*
X161761905Y-77432438D02*
X161714286Y-77480057D01*
X161714286Y-77480057D02*
X161619048Y-77622914D01*
X161619048Y-77622914D02*
X161571429Y-77813390D01*
X161571429Y-77813390D02*
X161571429Y-78194342D01*
X161571429Y-78194342D02*
X161619048Y-78289580D01*
X161619048Y-78289580D02*
X161666667Y-78337200D01*
X161666667Y-78337200D02*
X161761905Y-78384819D01*
X161761905Y-78384819D02*
X161952381Y-78384819D01*
X161952381Y-78384819D02*
X162047619Y-78337200D01*
X162047619Y-78337200D02*
X162095238Y-78289580D01*
X162095238Y-78289580D02*
X162142857Y-78194342D01*
X162142857Y-78194342D02*
X162142857Y-77956247D01*
X162142857Y-77956247D02*
X162095238Y-77861009D01*
X162095238Y-77861009D02*
X162047619Y-77813390D01*
X162047619Y-77813390D02*
X161952381Y-77765771D01*
X161952381Y-77765771D02*
X161761905Y-77765771D01*
X161761905Y-77765771D02*
X161666667Y-77813390D01*
X161666667Y-77813390D02*
X161619048Y-77861009D01*
X161619048Y-77861009D02*
X161571429Y-77956247D01*
X140289117Y-97726403D02*
X140055784Y-97393070D01*
X139889117Y-97726403D02*
X139889117Y-97026403D01*
X139889117Y-97026403D02*
X140155784Y-97026403D01*
X140155784Y-97026403D02*
X140222451Y-97059736D01*
X140222451Y-97059736D02*
X140255784Y-97093070D01*
X140255784Y-97093070D02*
X140289117Y-97159736D01*
X140289117Y-97159736D02*
X140289117Y-97259736D01*
X140289117Y-97259736D02*
X140255784Y-97326403D01*
X140255784Y-97326403D02*
X140222451Y-97359736D01*
X140222451Y-97359736D02*
X140155784Y-97393070D01*
X140155784Y-97393070D02*
X139889117Y-97393070D01*
X140922451Y-97026403D02*
X140589117Y-97026403D01*
X140589117Y-97026403D02*
X140555784Y-97359736D01*
X140555784Y-97359736D02*
X140589117Y-97326403D01*
X140589117Y-97326403D02*
X140655784Y-97293070D01*
X140655784Y-97293070D02*
X140822451Y-97293070D01*
X140822451Y-97293070D02*
X140889117Y-97326403D01*
X140889117Y-97326403D02*
X140922451Y-97359736D01*
X140922451Y-97359736D02*
X140955784Y-97426403D01*
X140955784Y-97426403D02*
X140955784Y-97593070D01*
X140955784Y-97593070D02*
X140922451Y-97659736D01*
X140922451Y-97659736D02*
X140889117Y-97693070D01*
X140889117Y-97693070D02*
X140822451Y-97726403D01*
X140822451Y-97726403D02*
X140655784Y-97726403D01*
X140655784Y-97726403D02*
X140589117Y-97693070D01*
X140589117Y-97693070D02*
X140555784Y-97659736D01*
X147853033Y-107168439D02*
X147853033Y-107501772D01*
X147853033Y-107501772D02*
X147153033Y-107501772D01*
X147853033Y-106568438D02*
X147853033Y-106968438D01*
X147853033Y-106768438D02*
X147153033Y-106768438D01*
X147153033Y-106768438D02*
X147253033Y-106835105D01*
X147253033Y-106835105D02*
X147319700Y-106901772D01*
X147319700Y-106901772D02*
X147353033Y-106968438D01*
X140489117Y-93926403D02*
X140255784Y-93593070D01*
X140089117Y-93926403D02*
X140089117Y-93226403D01*
X140089117Y-93226403D02*
X140355784Y-93226403D01*
X140355784Y-93226403D02*
X140422451Y-93259736D01*
X140422451Y-93259736D02*
X140455784Y-93293070D01*
X140455784Y-93293070D02*
X140489117Y-93359736D01*
X140489117Y-93359736D02*
X140489117Y-93459736D01*
X140489117Y-93459736D02*
X140455784Y-93526403D01*
X140455784Y-93526403D02*
X140422451Y-93559736D01*
X140422451Y-93559736D02*
X140355784Y-93593070D01*
X140355784Y-93593070D02*
X140089117Y-93593070D01*
X140722451Y-93226403D02*
X141155784Y-93226403D01*
X141155784Y-93226403D02*
X140922451Y-93493070D01*
X140922451Y-93493070D02*
X141022451Y-93493070D01*
X141022451Y-93493070D02*
X141089117Y-93526403D01*
X141089117Y-93526403D02*
X141122451Y-93559736D01*
X141122451Y-93559736D02*
X141155784Y-93626403D01*
X141155784Y-93626403D02*
X141155784Y-93793070D01*
X141155784Y-93793070D02*
X141122451Y-93859736D01*
X141122451Y-93859736D02*
X141089117Y-93893070D01*
X141089117Y-93893070D02*
X141022451Y-93926403D01*
X141022451Y-93926403D02*
X140822451Y-93926403D01*
X140822451Y-93926403D02*
X140755784Y-93893070D01*
X140755784Y-93893070D02*
X140722451Y-93859736D01*
X151983333Y-99716033D02*
X151750000Y-99382700D01*
X151583333Y-99716033D02*
X151583333Y-99016033D01*
X151583333Y-99016033D02*
X151850000Y-99016033D01*
X151850000Y-99016033D02*
X151916667Y-99049366D01*
X151916667Y-99049366D02*
X151950000Y-99082700D01*
X151950000Y-99082700D02*
X151983333Y-99149366D01*
X151983333Y-99149366D02*
X151983333Y-99249366D01*
X151983333Y-99249366D02*
X151950000Y-99316033D01*
X151950000Y-99316033D02*
X151916667Y-99349366D01*
X151916667Y-99349366D02*
X151850000Y-99382700D01*
X151850000Y-99382700D02*
X151583333Y-99382700D01*
X152316667Y-99716033D02*
X152450000Y-99716033D01*
X152450000Y-99716033D02*
X152516667Y-99682700D01*
X152516667Y-99682700D02*
X152550000Y-99649366D01*
X152550000Y-99649366D02*
X152616667Y-99549366D01*
X152616667Y-99549366D02*
X152650000Y-99416033D01*
X152650000Y-99416033D02*
X152650000Y-99149366D01*
X152650000Y-99149366D02*
X152616667Y-99082700D01*
X152616667Y-99082700D02*
X152583333Y-99049366D01*
X152583333Y-99049366D02*
X152516667Y-99016033D01*
X152516667Y-99016033D02*
X152383333Y-99016033D01*
X152383333Y-99016033D02*
X152316667Y-99049366D01*
X152316667Y-99049366D02*
X152283333Y-99082700D01*
X152283333Y-99082700D02*
X152250000Y-99149366D01*
X152250000Y-99149366D02*
X152250000Y-99316033D01*
X152250000Y-99316033D02*
X152283333Y-99382700D01*
X152283333Y-99382700D02*
X152316667Y-99416033D01*
X152316667Y-99416033D02*
X152383333Y-99449366D01*
X152383333Y-99449366D02*
X152516667Y-99449366D01*
X152516667Y-99449366D02*
X152583333Y-99416033D01*
X152583333Y-99416033D02*
X152616667Y-99382700D01*
X152616667Y-99382700D02*
X152650000Y-99316033D01*
X160190476Y-117199819D02*
X160190476Y-117914104D01*
X160190476Y-117914104D02*
X160142857Y-118056961D01*
X160142857Y-118056961D02*
X160047619Y-118152200D01*
X160047619Y-118152200D02*
X159904762Y-118199819D01*
X159904762Y-118199819D02*
X159809524Y-118199819D01*
X161190476Y-118199819D02*
X160619048Y-118199819D01*
X160904762Y-118199819D02*
X160904762Y-117199819D01*
X160904762Y-117199819D02*
X160809524Y-117342676D01*
X160809524Y-117342676D02*
X160714286Y-117437914D01*
X160714286Y-117437914D02*
X160619048Y-117485533D01*
X162095238Y-117199819D02*
X161619048Y-117199819D01*
X161619048Y-117199819D02*
X161571429Y-117676009D01*
X161571429Y-117676009D02*
X161619048Y-117628390D01*
X161619048Y-117628390D02*
X161714286Y-117580771D01*
X161714286Y-117580771D02*
X161952381Y-117580771D01*
X161952381Y-117580771D02*
X162047619Y-117628390D01*
X162047619Y-117628390D02*
X162095238Y-117676009D01*
X162095238Y-117676009D02*
X162142857Y-117771247D01*
X162142857Y-117771247D02*
X162142857Y-118009342D01*
X162142857Y-118009342D02*
X162095238Y-118104580D01*
X162095238Y-118104580D02*
X162047619Y-118152200D01*
X162047619Y-118152200D02*
X161952381Y-118199819D01*
X161952381Y-118199819D02*
X161714286Y-118199819D01*
X161714286Y-118199819D02*
X161619048Y-118152200D01*
X161619048Y-118152200D02*
X161571429Y-118104580D01*
X143521817Y-100777036D02*
X143188484Y-101010369D01*
X143521817Y-101177036D02*
X142821817Y-101177036D01*
X142821817Y-101177036D02*
X142821817Y-100910369D01*
X142821817Y-100910369D02*
X142855150Y-100843703D01*
X142855150Y-100843703D02*
X142888484Y-100810369D01*
X142888484Y-100810369D02*
X142955150Y-100777036D01*
X142955150Y-100777036D02*
X143055150Y-100777036D01*
X143055150Y-100777036D02*
X143121817Y-100810369D01*
X143121817Y-100810369D02*
X143155150Y-100843703D01*
X143155150Y-100843703D02*
X143188484Y-100910369D01*
X143188484Y-100910369D02*
X143188484Y-101177036D01*
X142821817Y-100177036D02*
X142821817Y-100310369D01*
X142821817Y-100310369D02*
X142855150Y-100377036D01*
X142855150Y-100377036D02*
X142888484Y-100410369D01*
X142888484Y-100410369D02*
X142988484Y-100477036D01*
X142988484Y-100477036D02*
X143121817Y-100510369D01*
X143121817Y-100510369D02*
X143388484Y-100510369D01*
X143388484Y-100510369D02*
X143455150Y-100477036D01*
X143455150Y-100477036D02*
X143488484Y-100443703D01*
X143488484Y-100443703D02*
X143521817Y-100377036D01*
X143521817Y-100377036D02*
X143521817Y-100243703D01*
X143521817Y-100243703D02*
X143488484Y-100177036D01*
X143488484Y-100177036D02*
X143455150Y-100143703D01*
X143455150Y-100143703D02*
X143388484Y-100110369D01*
X143388484Y-100110369D02*
X143221817Y-100110369D01*
X143221817Y-100110369D02*
X143155150Y-100143703D01*
X143155150Y-100143703D02*
X143121817Y-100177036D01*
X143121817Y-100177036D02*
X143088484Y-100243703D01*
X143088484Y-100243703D02*
X143088484Y-100377036D01*
X143088484Y-100377036D02*
X143121817Y-100443703D01*
X143121817Y-100443703D02*
X143155150Y-100477036D01*
X143155150Y-100477036D02*
X143221817Y-100510369D01*
X140343033Y-76142438D02*
X140843033Y-76142438D01*
X140843033Y-76142438D02*
X140943033Y-76175771D01*
X140943033Y-76175771D02*
X141009700Y-76242438D01*
X141009700Y-76242438D02*
X141043033Y-76342438D01*
X141043033Y-76342438D02*
X141043033Y-76409105D01*
X141043033Y-75442438D02*
X141043033Y-75842438D01*
X141043033Y-75642438D02*
X140343033Y-75642438D01*
X140343033Y-75642438D02*
X140443033Y-75709105D01*
X140443033Y-75709105D02*
X140509700Y-75775772D01*
X140509700Y-75775772D02*
X140543033Y-75842438D01*
X141043033Y-74775771D02*
X141043033Y-75175771D01*
X141043033Y-74975771D02*
X140343033Y-74975771D01*
X140343033Y-74975771D02*
X140443033Y-75042438D01*
X140443033Y-75042438D02*
X140509700Y-75109105D01*
X140509700Y-75109105D02*
X140543033Y-75175771D01*
X148593666Y-103091805D02*
X148593666Y-103658472D01*
X148593666Y-103658472D02*
X148627000Y-103725138D01*
X148627000Y-103725138D02*
X148660333Y-103758472D01*
X148660333Y-103758472D02*
X148727000Y-103791805D01*
X148727000Y-103791805D02*
X148860333Y-103791805D01*
X148860333Y-103791805D02*
X148927000Y-103758472D01*
X148927000Y-103758472D02*
X148960333Y-103725138D01*
X148960333Y-103725138D02*
X148993666Y-103658472D01*
X148993666Y-103658472D02*
X148993666Y-103091805D01*
X149260333Y-103091805D02*
X149693666Y-103091805D01*
X149693666Y-103091805D02*
X149460333Y-103358472D01*
X149460333Y-103358472D02*
X149560333Y-103358472D01*
X149560333Y-103358472D02*
X149626999Y-103391805D01*
X149626999Y-103391805D02*
X149660333Y-103425138D01*
X149660333Y-103425138D02*
X149693666Y-103491805D01*
X149693666Y-103491805D02*
X149693666Y-103658472D01*
X149693666Y-103658472D02*
X149660333Y-103725138D01*
X149660333Y-103725138D02*
X149626999Y-103758472D01*
X149626999Y-103758472D02*
X149560333Y-103791805D01*
X149560333Y-103791805D02*
X149360333Y-103791805D01*
X149360333Y-103791805D02*
X149293666Y-103758472D01*
X149293666Y-103758472D02*
X149260333Y-103725138D01*
X139368666Y-118991805D02*
X139368666Y-119491805D01*
X139368666Y-119491805D02*
X139335333Y-119591805D01*
X139335333Y-119591805D02*
X139268666Y-119658472D01*
X139268666Y-119658472D02*
X139168666Y-119691805D01*
X139168666Y-119691805D02*
X139102000Y-119691805D01*
X139735333Y-119691805D02*
X139868666Y-119691805D01*
X139868666Y-119691805D02*
X139935333Y-119658472D01*
X139935333Y-119658472D02*
X139968666Y-119625138D01*
X139968666Y-119625138D02*
X140035333Y-119525138D01*
X140035333Y-119525138D02*
X140068666Y-119391805D01*
X140068666Y-119391805D02*
X140068666Y-119125138D01*
X140068666Y-119125138D02*
X140035333Y-119058472D01*
X140035333Y-119058472D02*
X140001999Y-119025138D01*
X140001999Y-119025138D02*
X139935333Y-118991805D01*
X139935333Y-118991805D02*
X139801999Y-118991805D01*
X139801999Y-118991805D02*
X139735333Y-119025138D01*
X139735333Y-119025138D02*
X139701999Y-119058472D01*
X139701999Y-119058472D02*
X139668666Y-119125138D01*
X139668666Y-119125138D02*
X139668666Y-119291805D01*
X139668666Y-119291805D02*
X139701999Y-119358472D01*
X139701999Y-119358472D02*
X139735333Y-119391805D01*
X139735333Y-119391805D02*
X139801999Y-119425138D01*
X139801999Y-119425138D02*
X139935333Y-119425138D01*
X139935333Y-119425138D02*
X140001999Y-119391805D01*
X140001999Y-119391805D02*
X140035333Y-119358472D01*
X140035333Y-119358472D02*
X140068666Y-119291805D01*
X148560333Y-75691805D02*
X148560333Y-76191805D01*
X148560333Y-76191805D02*
X148527000Y-76291805D01*
X148527000Y-76291805D02*
X148460333Y-76358472D01*
X148460333Y-76358472D02*
X148360333Y-76391805D01*
X148360333Y-76391805D02*
X148293667Y-76391805D01*
X149260333Y-76391805D02*
X148860333Y-76391805D01*
X149060333Y-76391805D02*
X149060333Y-75691805D01*
X149060333Y-75691805D02*
X148993666Y-75791805D01*
X148993666Y-75791805D02*
X148927000Y-75858472D01*
X148927000Y-75858472D02*
X148860333Y-75891805D01*
X149527000Y-75758472D02*
X149560333Y-75725138D01*
X149560333Y-75725138D02*
X149627000Y-75691805D01*
X149627000Y-75691805D02*
X149793667Y-75691805D01*
X149793667Y-75691805D02*
X149860333Y-75725138D01*
X149860333Y-75725138D02*
X149893667Y-75758472D01*
X149893667Y-75758472D02*
X149927000Y-75825138D01*
X149927000Y-75825138D02*
X149927000Y-75891805D01*
X149927000Y-75891805D02*
X149893667Y-75991805D01*
X149893667Y-75991805D02*
X149493667Y-76391805D01*
X149493667Y-76391805D02*
X149927000Y-76391805D01*
X152499941Y-98281952D02*
X152166608Y-98515285D01*
X152499941Y-98681952D02*
X151799941Y-98681952D01*
X151799941Y-98681952D02*
X151799941Y-98415285D01*
X151799941Y-98415285D02*
X151833274Y-98348619D01*
X151833274Y-98348619D02*
X151866608Y-98315285D01*
X151866608Y-98315285D02*
X151933274Y-98281952D01*
X151933274Y-98281952D02*
X152033274Y-98281952D01*
X152033274Y-98281952D02*
X152099941Y-98315285D01*
X152099941Y-98315285D02*
X152133274Y-98348619D01*
X152133274Y-98348619D02*
X152166608Y-98415285D01*
X152166608Y-98415285D02*
X152166608Y-98681952D01*
X151799941Y-98048619D02*
X151799941Y-97581952D01*
X151799941Y-97581952D02*
X152499941Y-97881952D01*
D12*
%TO.C,C4*%
X153198908Y-99804034D02*
X153198908Y-100326538D01*
X154668908Y-99804034D02*
X154668908Y-100326538D01*
%TO.C,J10*%
X157742000Y-63965772D02*
X157742000Y-65015772D01*
X157742000Y-71135772D02*
X156752000Y-71135772D01*
X157742000Y-72185772D02*
X157742000Y-71135772D01*
X160242000Y-63965772D02*
X157742000Y-63965772D01*
X160242000Y-72185772D02*
X157742000Y-72185772D01*
X162212000Y-71015772D02*
X162212000Y-65135772D01*
%TO.C,C6*%
X147263252Y-109241772D02*
X146740748Y-109241772D01*
X147263252Y-110711772D02*
X146740748Y-110711772D01*
%TO.C,C9*%
X147938252Y-95930772D02*
X147415748Y-95930772D01*
X147938252Y-97400772D02*
X147415748Y-97400772D01*
%TO.C,J17*%
X135170000Y-78930000D02*
X136500000Y-78930000D01*
X135170000Y-80260000D02*
X135170000Y-78930000D01*
X135170000Y-81530000D02*
X135170000Y-117150000D01*
X135170000Y-81530000D02*
X137830000Y-81530000D01*
X135170000Y-117150000D02*
X137830000Y-117150000D01*
X137830000Y-81530000D02*
X137830000Y-117150000D01*
%TO.C,C3*%
X151492000Y-103837024D02*
X151492000Y-103314520D01*
X152962000Y-103837024D02*
X152962000Y-103314520D01*
%TO.C,R1*%
X147254064Y-116550772D02*
X146799936Y-116550772D01*
X147254064Y-118020772D02*
X146799936Y-118020772D01*
%TO.C,C5*%
X147263252Y-111541772D02*
X146740748Y-111541772D01*
X147263252Y-113011772D02*
X146740748Y-113011772D01*
%TO.C,J5*%
X135342000Y-65135772D02*
X135342000Y-69015772D01*
X137312000Y-63965772D02*
X139812000Y-63965772D01*
X137312000Y-70185772D02*
X139812000Y-70185772D01*
X139812000Y-63965772D02*
X139812000Y-65015772D01*
X139812000Y-65015772D02*
X140802000Y-65015772D01*
X139812000Y-70185772D02*
X139812000Y-69135772D01*
%TO.C,U1*%
X147017000Y-92135772D02*
X147017000Y-91905772D01*
X147747000Y-87415772D02*
X147317000Y-87415772D01*
X147747000Y-92135772D02*
X147017000Y-92135772D01*
X149007000Y-87415772D02*
X149737000Y-87415772D01*
X149007000Y-92135772D02*
X149737000Y-92135772D01*
X149737000Y-87415772D02*
X149737000Y-87645772D01*
X149737000Y-92135772D02*
X149737000Y-91905772D01*
X147017000Y-87415772D02*
X146777000Y-87085772D01*
X147257000Y-87085772D01*
X147017000Y-87415772D01*
G36*
X147017000Y-87415772D02*
G01*
X146777000Y-87085772D01*
X147257000Y-87085772D01*
X147017000Y-87415772D01*
G37*
%TO.C,R4*%
X143170784Y-94787434D02*
X143170784Y-94333306D01*
X144640784Y-94787434D02*
X144640784Y-94333306D01*
%TO.C,R2*%
X154099936Y-116440772D02*
X154554064Y-116440772D01*
X154099936Y-117910772D02*
X154554064Y-117910772D01*
%TO.C,C8*%
X147938252Y-98940772D02*
X147415748Y-98940772D01*
X147938252Y-100410772D02*
X147415748Y-100410772D01*
%TO.C,C7*%
X147938252Y-101140772D02*
X147415748Y-101140772D01*
X147938252Y-102610772D02*
X147415748Y-102610772D01*
%TO.C,J2*%
X145957000Y-123075772D02*
X145957000Y-121375772D01*
X155297000Y-123075772D02*
X155297000Y-121375772D01*
%TO.C,J1*%
X142042000Y-71375772D02*
X142042000Y-65075772D01*
X142042000Y-75085772D02*
X142042000Y-73275772D01*
X142152000Y-75085772D02*
X142042000Y-75085772D01*
X154912000Y-70675772D02*
X154912000Y-65075772D01*
X154912000Y-73925772D02*
X154912000Y-75085772D01*
X154912000Y-75085772D02*
X143652000Y-75085772D01*
%TO.C,J16*%
X159670000Y-78930000D02*
X161000000Y-78930000D01*
X159670000Y-80260000D02*
X159670000Y-78930000D01*
X159670000Y-81530000D02*
X159670000Y-117150000D01*
X159670000Y-81530000D02*
X162330000Y-81530000D01*
X159670000Y-117150000D02*
X162330000Y-117150000D01*
X162330000Y-81530000D02*
X162330000Y-117150000D01*
%TO.C,R5*%
X140178720Y-98325370D02*
X140632848Y-98325370D01*
X140178720Y-99795370D02*
X140632848Y-99795370D01*
D13*
%TO.C,L1*%
X142352000Y-104126772D02*
X146452000Y-104126772D01*
X142352000Y-104156772D02*
X142352000Y-104126772D01*
X142352000Y-106556772D02*
X142352000Y-105796772D01*
X142352000Y-108226772D02*
X142352000Y-108196772D01*
X146452000Y-104126772D02*
X146452000Y-104156772D01*
X146452000Y-105796772D02*
X146452000Y-106556772D01*
X146452000Y-108196772D02*
X146452000Y-108226772D01*
X146452000Y-108226772D02*
X142352000Y-108226772D01*
D12*
%TO.C,R3*%
X140978720Y-94525370D02*
X141432848Y-94525370D01*
X140978720Y-95995370D02*
X141432848Y-95995370D01*
%TO.C,R9*%
X151006844Y-100130286D02*
X151460972Y-100130286D01*
X151006844Y-101600286D02*
X151460972Y-101600286D01*
%TO.C,J15*%
X159670000Y-118745000D02*
X161000000Y-118745000D01*
X159670000Y-120075000D02*
X159670000Y-118745000D01*
X159670000Y-121345000D02*
X159670000Y-126485000D01*
X159670000Y-121345000D02*
X162330000Y-121345000D01*
X159670000Y-126485000D02*
X162330000Y-126485000D01*
X162330000Y-121345000D02*
X162330000Y-126485000D01*
%TO.C,R6*%
X142383284Y-98487434D02*
X142383284Y-98033306D01*
X143853284Y-98487434D02*
X143853284Y-98033306D01*
%TO.C,J11*%
X135317000Y-73035772D02*
X135317000Y-74915772D01*
X137287000Y-71865772D02*
X139787000Y-71865772D01*
X137287000Y-76085772D02*
X139787000Y-76085772D01*
X139787000Y-71865772D02*
X139787000Y-72915772D01*
X139787000Y-72915772D02*
X140777000Y-72915772D01*
X139787000Y-76085772D02*
X139787000Y-75035772D01*
%TO.C,U3*%
X147452000Y-105190772D02*
X147452000Y-104525772D01*
X147452000Y-107475772D02*
X147452000Y-107160772D01*
X147702000Y-104525772D02*
X147452000Y-104525772D01*
X150502000Y-104525772D02*
X150752000Y-104525772D01*
X150752000Y-105190772D02*
X150752000Y-104525772D01*
X150752000Y-107825772D02*
X150502000Y-107825772D01*
X150752000Y-107825772D02*
X150752000Y-107160772D01*
X147682000Y-107985772D02*
X147352000Y-108225772D01*
X147352000Y-107745772D01*
X147682000Y-107985772D01*
G36*
X147682000Y-107985772D02*
G01*
X147352000Y-108225772D01*
X147352000Y-107745772D01*
X147682000Y-107985772D01*
G37*
%TO.C,J9*%
X137367000Y-122065772D02*
X138317000Y-122065772D01*
X137367000Y-122515772D02*
X137367000Y-122065772D01*
X137367000Y-126035772D02*
X137367000Y-126485772D01*
X137367000Y-126485772D02*
X141837000Y-126485772D01*
X138317000Y-122065772D02*
X138317000Y-120575772D01*
X141837000Y-122065772D02*
X140887000Y-122065772D01*
X141837000Y-122515772D02*
X141837000Y-122065772D01*
X141837000Y-126485772D02*
X141837000Y-126035772D01*
%TO.C,J12*%
X143277000Y-77745772D02*
X143277000Y-80405772D01*
X150957000Y-77745772D02*
X143277000Y-77745772D01*
X150957000Y-77745772D02*
X150957000Y-80405772D01*
X150957000Y-80405772D02*
X143277000Y-80405772D01*
X152227000Y-77745772D02*
X153557000Y-77745772D01*
X153557000Y-77745772D02*
X153557000Y-79075772D01*
%TO.C,R7*%
X149798908Y-97938222D02*
X149798908Y-98392350D01*
X151268908Y-97938222D02*
X151268908Y-98392350D01*
%TD*%
M02*
