%TF.GenerationSoftware,KiCad,Pcbnew,9.0.0*%
%TF.CreationDate,2025-04-24T12:01:06-04:00*%
%TF.ProjectId,Tiny4FSKGeneralShield,54696e79-3446-4534-9b47-656e6572616c,rev?*%
%TF.SameCoordinates,Original*%
%TF.FileFunction,Legend,Bot*%
%TF.FilePolarity,Positive*%
%FSLAX46Y46*%
G04 Gerber Fmt 4.6, Leading zero omitted, Abs format (unit mm)*
G04 Created by KiCad (PCBNEW 9.0.0) date 2025-04-24 12:01:06*
%MOMM*%
%LPD*%
G01*
G04 APERTURE LIST*
%ADD10C,0.150000*%
%ADD11C,0.120000*%
G04 APERTURE END LIST*
D10*
X142260333Y-79991805D02*
X142260333Y-80491805D01*
X142260333Y-80491805D02*
X142293666Y-80591805D01*
X142293666Y-80591805D02*
X142360333Y-80658472D01*
X142360333Y-80658472D02*
X142460333Y-80691805D01*
X142460333Y-80691805D02*
X142527000Y-80691805D01*
X141993667Y-79991805D02*
X141527000Y-79991805D01*
X141527000Y-79991805D02*
X141827000Y-80691805D01*
X139860333Y-100591805D02*
X139860333Y-101091805D01*
X139860333Y-101091805D02*
X139893666Y-101191805D01*
X139893666Y-101191805D02*
X139960333Y-101258472D01*
X139960333Y-101258472D02*
X140060333Y-101291805D01*
X140060333Y-101291805D02*
X140127000Y-101291805D01*
X139427000Y-100891805D02*
X139493667Y-100858472D01*
X139493667Y-100858472D02*
X139527000Y-100825138D01*
X139527000Y-100825138D02*
X139560333Y-100758472D01*
X139560333Y-100758472D02*
X139560333Y-100725138D01*
X139560333Y-100725138D02*
X139527000Y-100658472D01*
X139527000Y-100658472D02*
X139493667Y-100625138D01*
X139493667Y-100625138D02*
X139427000Y-100591805D01*
X139427000Y-100591805D02*
X139293667Y-100591805D01*
X139293667Y-100591805D02*
X139227000Y-100625138D01*
X139227000Y-100625138D02*
X139193667Y-100658472D01*
X139193667Y-100658472D02*
X139160333Y-100725138D01*
X139160333Y-100725138D02*
X139160333Y-100758472D01*
X139160333Y-100758472D02*
X139193667Y-100825138D01*
X139193667Y-100825138D02*
X139227000Y-100858472D01*
X139227000Y-100858472D02*
X139293667Y-100891805D01*
X139293667Y-100891805D02*
X139427000Y-100891805D01*
X139427000Y-100891805D02*
X139493667Y-100925138D01*
X139493667Y-100925138D02*
X139527000Y-100958472D01*
X139527000Y-100958472D02*
X139560333Y-101025138D01*
X139560333Y-101025138D02*
X139560333Y-101158472D01*
X139560333Y-101158472D02*
X139527000Y-101225138D01*
X139527000Y-101225138D02*
X139493667Y-101258472D01*
X139493667Y-101258472D02*
X139427000Y-101291805D01*
X139427000Y-101291805D02*
X139293667Y-101291805D01*
X139293667Y-101291805D02*
X139227000Y-101258472D01*
X139227000Y-101258472D02*
X139193667Y-101225138D01*
X139193667Y-101225138D02*
X139160333Y-101158472D01*
X139160333Y-101158472D02*
X139160333Y-101025138D01*
X139160333Y-101025138D02*
X139193667Y-100958472D01*
X139193667Y-100958472D02*
X139227000Y-100925138D01*
X139227000Y-100925138D02*
X139293667Y-100891805D01*
X157980333Y-74891805D02*
X157980333Y-75391805D01*
X157980333Y-75391805D02*
X158013666Y-75491805D01*
X158013666Y-75491805D02*
X158080333Y-75558472D01*
X158080333Y-75558472D02*
X158180333Y-75591805D01*
X158180333Y-75591805D02*
X158247000Y-75591805D01*
X157347000Y-75125138D02*
X157347000Y-75591805D01*
X157513667Y-74858472D02*
X157680333Y-75358472D01*
X157680333Y-75358472D02*
X157247000Y-75358472D01*
X155760333Y-113191805D02*
X155760333Y-113691805D01*
X155760333Y-113691805D02*
X155793666Y-113791805D01*
X155793666Y-113791805D02*
X155860333Y-113858472D01*
X155860333Y-113858472D02*
X155960333Y-113891805D01*
X155960333Y-113891805D02*
X156027000Y-113891805D01*
X155127000Y-113191805D02*
X155260333Y-113191805D01*
X155260333Y-113191805D02*
X155327000Y-113225138D01*
X155327000Y-113225138D02*
X155360333Y-113258472D01*
X155360333Y-113258472D02*
X155427000Y-113358472D01*
X155427000Y-113358472D02*
X155460333Y-113491805D01*
X155460333Y-113491805D02*
X155460333Y-113758472D01*
X155460333Y-113758472D02*
X155427000Y-113825138D01*
X155427000Y-113825138D02*
X155393667Y-113858472D01*
X155393667Y-113858472D02*
X155327000Y-113891805D01*
X155327000Y-113891805D02*
X155193667Y-113891805D01*
X155193667Y-113891805D02*
X155127000Y-113858472D01*
X155127000Y-113858472D02*
X155093667Y-113825138D01*
X155093667Y-113825138D02*
X155060333Y-113758472D01*
X155060333Y-113758472D02*
X155060333Y-113591805D01*
X155060333Y-113591805D02*
X155093667Y-113525138D01*
X155093667Y-113525138D02*
X155127000Y-113491805D01*
X155127000Y-113491805D02*
X155193667Y-113458472D01*
X155193667Y-113458472D02*
X155327000Y-113458472D01*
X155327000Y-113458472D02*
X155393667Y-113491805D01*
X155393667Y-113491805D02*
X155427000Y-113525138D01*
X155427000Y-113525138D02*
X155460333Y-113591805D01*
X155960333Y-102991805D02*
X155960333Y-103491805D01*
X155960333Y-103491805D02*
X155993666Y-103591805D01*
X155993666Y-103591805D02*
X156060333Y-103658472D01*
X156060333Y-103658472D02*
X156160333Y-103691805D01*
X156160333Y-103691805D02*
X156227000Y-103691805D01*
X155693667Y-102991805D02*
X155260333Y-102991805D01*
X155260333Y-102991805D02*
X155493667Y-103258472D01*
X155493667Y-103258472D02*
X155393667Y-103258472D01*
X155393667Y-103258472D02*
X155327000Y-103291805D01*
X155327000Y-103291805D02*
X155293667Y-103325138D01*
X155293667Y-103325138D02*
X155260333Y-103391805D01*
X155260333Y-103391805D02*
X155260333Y-103558472D01*
X155260333Y-103558472D02*
X155293667Y-103625138D01*
X155293667Y-103625138D02*
X155327000Y-103658472D01*
X155327000Y-103658472D02*
X155393667Y-103691805D01*
X155393667Y-103691805D02*
X155593667Y-103691805D01*
X155593667Y-103691805D02*
X155660333Y-103658472D01*
X155660333Y-103658472D02*
X155693667Y-103625138D01*
D11*
%TO.C,J7*%
X138311431Y-76192929D02*
X140971431Y-76192929D01*
X138311431Y-81332929D02*
X138311431Y-76192929D01*
X138311431Y-81332929D02*
X140971431Y-81332929D01*
X139641431Y-83932929D02*
X140971431Y-83932929D01*
X140971431Y-81332929D02*
X140971431Y-76192929D01*
X140971431Y-83932929D02*
X140971431Y-82602929D01*
%TO.C,J8*%
X138267000Y-102030772D02*
X138267000Y-103360772D01*
X138267000Y-104630772D02*
X138267000Y-112310772D01*
X139597000Y-102030772D02*
X138267000Y-102030772D01*
X140927000Y-104630772D02*
X138267000Y-104630772D01*
X140927000Y-104630772D02*
X140927000Y-112310772D01*
X140927000Y-112310772D02*
X138267000Y-112310772D01*
%TO.C,J4*%
X156417000Y-76400772D02*
X156417000Y-77730772D01*
X156417000Y-79000772D02*
X156417000Y-99380772D01*
X157747000Y-76400772D02*
X156417000Y-76400772D01*
X159077000Y-79000772D02*
X156417000Y-79000772D01*
X159077000Y-79000772D02*
X159077000Y-99380772D01*
X159077000Y-99380772D02*
X156417000Y-99380772D01*
%TO.C,J6*%
X156397000Y-111845772D02*
X156397000Y-113175772D01*
X156397000Y-114445772D02*
X156397000Y-124665772D01*
X157727000Y-111845772D02*
X156397000Y-111845772D01*
X159057000Y-114445772D02*
X156397000Y-114445772D01*
X159057000Y-114445772D02*
X159057000Y-124665772D01*
X159057000Y-124665772D02*
X156397000Y-124665772D01*
%TO.C,J3*%
X156397000Y-100410772D02*
X156397000Y-101740772D01*
X156397000Y-103010772D02*
X156397000Y-110690772D01*
X157727000Y-100410772D02*
X156397000Y-100410772D01*
X159057000Y-103010772D02*
X156397000Y-103010772D01*
X159057000Y-103010772D02*
X159057000Y-110690772D01*
X159057000Y-110690772D02*
X156397000Y-110690772D01*
%TD*%
M02*
