%TF.GenerationSoftware,KiCad,Pcbnew,9.0.0*%
%TF.CreationDate,2025-04-24T12:01:06-04:00*%
%TF.ProjectId,Tiny4FSKGeneralShield,54696e79-3446-4534-9b47-656e6572616c,rev?*%
%TF.SameCoordinates,Original*%
%TF.FileFunction,Copper,L4,Bot*%
%TF.FilePolarity,Positive*%
%FSLAX46Y46*%
G04 Gerber Fmt 4.6, Leading zero omitted, Abs format (unit mm)*
G04 Created by KiCad (PCBNEW 9.0.0) date 2025-04-24 12:01:06*
%MOMM*%
%LPD*%
G01*
G04 APERTURE LIST*
%TA.AperFunction,ComponentPad*%
%ADD10R,1.700000X1.700000*%
%TD*%
%TA.AperFunction,ComponentPad*%
%ADD11O,1.700000X1.700000*%
%TD*%
%TA.AperFunction,HeatsinkPad*%
%ADD12O,1.000000X2.100000*%
%TD*%
%TA.AperFunction,HeatsinkPad*%
%ADD13O,1.000000X1.800000*%
%TD*%
%TA.AperFunction,ComponentPad*%
%ADD14C,0.600000*%
%TD*%
%TA.AperFunction,SMDPad,CuDef*%
%ADD15R,2.300000X2.300000*%
%TD*%
%TA.AperFunction,ViaPad*%
%ADD16C,0.600000*%
%TD*%
%TA.AperFunction,Conductor*%
%ADD17C,0.500000*%
%TD*%
%TA.AperFunction,Conductor*%
%ADD18C,0.750000*%
%TD*%
%TA.AperFunction,Conductor*%
%ADD19C,1.000000*%
%TD*%
%TA.AperFunction,Conductor*%
%ADD20C,0.250000*%
%TD*%
%TA.AperFunction,Conductor*%
%ADD21C,0.200000*%
%TD*%
G04 APERTURE END LIST*
D10*
%TO.P,J17,1,Pin_1*%
%TO.N,Earth*%
X136500000Y-80260000D03*
D11*
%TO.P,J17,2,Pin_2*%
%TO.N,SDA_5*%
X136500000Y-82800000D03*
%TO.P,J17,3,Pin_3*%
%TO.N,SCL_5*%
X136500000Y-85340000D03*
%TO.P,J17,4,Pin_4*%
%TO.N,Earth*%
X136500000Y-87880000D03*
%TO.P,J17,5,Pin_5*%
%TO.N,MOSI_5*%
X136500000Y-90420000D03*
%TO.P,J17,6,Pin_6*%
%TO.N,MISO_5*%
X136500000Y-92960000D03*
%TO.P,J17,7,Pin_7*%
%TO.N,SCK_5*%
X136500000Y-95500000D03*
%TO.P,J17,8,Pin_8*%
%TO.N,Earth*%
X136500000Y-98040000D03*
%TO.P,J17,9,Pin_9*%
%TO.N,D12_5*%
X136500000Y-100580000D03*
%TO.P,J17,10,Pin_10*%
%TO.N,D13_5*%
X136500000Y-103120000D03*
%TO.P,J17,11,Pin_11*%
%TO.N,D38_5*%
X136500000Y-105660000D03*
%TO.P,J17,12,Pin_12*%
%TO.N,Earth*%
X136500000Y-108200000D03*
%TO.P,J17,13,Pin_13*%
%TO.N,A1_5*%
X136500000Y-110740000D03*
%TO.P,J17,14,Pin_14*%
%TO.N,A2_5*%
X136500000Y-113280000D03*
%TO.P,J17,15,Pin_15*%
%TO.N,GNDA*%
X136500000Y-115820000D03*
%TD*%
D12*
%TO.P,J2,S1,SHIELD*%
%TO.N,Earth*%
X146307000Y-120070772D03*
D13*
X146307000Y-124250772D03*
D12*
X154947000Y-120070772D03*
D13*
X154947000Y-124250772D03*
%TD*%
D10*
%TO.P,J16,1,Pin_1*%
%TO.N,Earth*%
X161000000Y-80260000D03*
D11*
%TO.P,J16,2,Pin_2*%
%TO.N,SDA*%
X161000000Y-82800000D03*
%TO.P,J16,3,Pin_3*%
%TO.N,SCL*%
X161000000Y-85340000D03*
%TO.P,J16,4,Pin_4*%
%TO.N,Earth*%
X161000000Y-87880000D03*
%TO.P,J16,5,Pin_5*%
%TO.N,MOSI*%
X161000000Y-90420000D03*
%TO.P,J16,6,Pin_6*%
%TO.N,MISO*%
X161000000Y-92960000D03*
%TO.P,J16,7,Pin_7*%
%TO.N,SCK*%
X161000000Y-95500000D03*
%TO.P,J16,8,Pin_8*%
%TO.N,Earth*%
X161000000Y-98040000D03*
%TO.P,J16,9,Pin_9*%
%TO.N,D12*%
X161000000Y-100580000D03*
%TO.P,J16,10,Pin_10*%
%TO.N,D13*%
X161000000Y-103120000D03*
%TO.P,J16,11,Pin_11*%
%TO.N,D38*%
X161000000Y-105660000D03*
%TO.P,J16,12,Pin_12*%
%TO.N,Earth*%
X161000000Y-108200000D03*
%TO.P,J16,13,Pin_13*%
%TO.N,A1*%
X161000000Y-110740000D03*
%TO.P,J16,14,Pin_14*%
%TO.N,A2*%
X161000000Y-113280000D03*
%TO.P,J16,15,Pin_15*%
%TO.N,GNDA*%
X161000000Y-115820000D03*
%TD*%
D10*
%TO.P,J15,1,Pin_1*%
%TO.N,+5V*%
X161000000Y-120075000D03*
D11*
%TO.P,J15,2,Pin_2*%
%TO.N,+3.3V*%
X161000000Y-122615000D03*
%TO.P,J15,3,Pin_3*%
%TO.N,Earth*%
X161000000Y-125155000D03*
%TD*%
D14*
%TO.P,U3,11,PGND*%
%TO.N,Earth*%
X148602000Y-106675772D03*
X149602000Y-106675772D03*
D15*
X149102000Y-106176772D03*
D14*
X149102000Y-106175772D03*
X148602000Y-105675772D03*
X149602000Y-105675772D03*
%TD*%
D10*
%TO.P,J12,1,Pin_1*%
%TO.N,+3.3V*%
X152227000Y-79075772D03*
D11*
%TO.P,J12,2,Pin_2*%
%TO.N,Earth*%
X149687000Y-79075772D03*
%TO.P,J12,3,Pin_3*%
%TO.N,SCL*%
X147147000Y-79075772D03*
%TO.P,J12,4,Pin_4*%
%TO.N,SDA*%
X144607000Y-79075772D03*
%TD*%
D10*
%TO.P,J7,1,Pin_1*%
%TO.N,+5V*%
X139641431Y-82602929D03*
D11*
%TO.P,J7,2,Pin_2*%
%TO.N,Earth*%
X139641431Y-80062929D03*
%TO.P,J7,3,Pin_3*%
%TO.N,+3.3V*%
X139641431Y-77522929D03*
%TD*%
D10*
%TO.P,J8,1,Pin_1*%
%TO.N,D+*%
X139597000Y-103360772D03*
D11*
%TO.P,J8,2,Pin_2*%
%TO.N,D-*%
X139597000Y-105900772D03*
%TO.P,J8,3,Pin_3*%
%TO.N,+3.3V*%
X139597000Y-108440772D03*
%TO.P,J8,4,Pin_4*%
%TO.N,Earth*%
X139597000Y-110980772D03*
%TD*%
D10*
%TO.P,J4,1,Pin_1*%
%TO.N,D38*%
X157747000Y-77730772D03*
D11*
%TO.P,J4,2,Pin_2*%
%TO.N,Earth*%
X157747000Y-80270772D03*
%TO.P,J4,3,Pin_3*%
%TO.N,D12*%
X157747000Y-82810772D03*
%TO.P,J4,4,Pin_4*%
%TO.N,Earth*%
X157747000Y-85350772D03*
%TO.P,J4,5,Pin_5*%
%TO.N,D13*%
X157747000Y-87890772D03*
%TO.P,J4,6,Pin_6*%
%TO.N,Earth*%
X157747000Y-90430772D03*
%TO.P,J4,7,Pin_7*%
%TO.N,A1*%
X157747000Y-92970772D03*
%TO.P,J4,8,Pin_8*%
%TO.N,GNDA*%
X157747000Y-95510772D03*
%TO.P,J4,9,Pin_9*%
%TO.N,A2*%
X157747000Y-98050772D03*
%TD*%
D10*
%TO.P,J6,1,Pin_1*%
%TO.N,+3.3V*%
X157727000Y-113175772D03*
D11*
%TO.P,J6,2,Pin_2*%
%TO.N,MOSI*%
X157727000Y-115715772D03*
%TO.P,J6,3,Pin_3*%
%TO.N,MISO*%
X157727000Y-118255772D03*
%TO.P,J6,4,Pin_4*%
%TO.N,SCK*%
X157727000Y-120795772D03*
%TO.P,J6,5,Pin_5*%
%TO.N,Earth*%
X157727000Y-123335772D03*
%TD*%
D10*
%TO.P,J3,1,Pin_1*%
%TO.N,+3.3V*%
X157727000Y-101740772D03*
D11*
%TO.P,J3,2,Pin_2*%
%TO.N,SDA*%
X157727000Y-104280772D03*
%TO.P,J3,3,Pin_3*%
%TO.N,SCL*%
X157727000Y-106820772D03*
%TO.P,J3,4,Pin_4*%
%TO.N,Earth*%
X157727000Y-109360772D03*
%TD*%
D16*
%TO.N,Earth*%
X161527000Y-75575772D03*
X152627000Y-73975772D03*
X151827000Y-105975772D03*
X145127000Y-117275772D03*
X143300000Y-86000000D03*
X137527000Y-121375772D03*
X152543667Y-124275772D03*
X141600000Y-97300000D03*
X161527000Y-70209106D03*
X136127000Y-77964661D03*
X142327000Y-68275772D03*
X148127000Y-124275772D03*
X145327000Y-102575772D03*
X149800000Y-82800000D03*
X135927000Y-121375772D03*
X151660333Y-124275772D03*
X161527000Y-73786883D03*
X153500000Y-102600000D03*
X136127000Y-67231328D03*
X145327000Y-101175772D03*
X140527000Y-64075772D03*
X146927000Y-105875772D03*
X157527000Y-71675772D03*
X149893667Y-124275772D03*
X161527000Y-66631328D03*
X145327000Y-99775772D03*
X149000000Y-92900000D03*
X144727000Y-110975772D03*
X145627000Y-71875772D03*
X147427000Y-71875772D03*
X144127000Y-74675772D03*
X144727000Y-111675772D03*
X145327000Y-100475772D03*
X151827000Y-106675772D03*
X149427000Y-71875772D03*
X138927000Y-119675772D03*
X150827000Y-65675772D03*
X153107234Y-100031385D03*
X153427000Y-124275772D03*
X150777000Y-124275772D03*
X146227000Y-84075772D03*
X154250000Y-112400000D03*
X150800000Y-103200000D03*
X145327000Y-101875772D03*
X149010333Y-124275772D03*
X161527000Y-68420217D03*
X143727000Y-72875772D03*
X152627000Y-73275772D03*
X146227000Y-115875772D03*
X161527000Y-77364661D03*
X144727000Y-112375772D03*
X139800000Y-124950000D03*
X140400000Y-115500000D03*
X152227000Y-114175772D03*
X152427000Y-82175772D03*
X154327000Y-115875772D03*
X144127000Y-66275772D03*
X142500000Y-93700000D03*
X135927000Y-119586883D03*
%TO.N,+5V*%
X149527000Y-96875772D03*
X148708325Y-97361558D03*
X155400000Y-110550000D03*
X148527000Y-98075772D03*
X148627000Y-96665772D03*
X149427000Y-97675772D03*
%TO.N,D38*%
X151175518Y-91675000D03*
X148127000Y-66375772D03*
%TO.N,SCK*%
X149727000Y-65375772D03*
X153800000Y-90125000D03*
X155800000Y-93575000D03*
%TO.N,MOSI*%
X147527000Y-65375772D03*
%TO.N,+3.3V*%
X141527000Y-66575772D03*
X158602000Y-69198792D03*
X148527000Y-86275772D03*
X148727000Y-65375772D03*
%TO.N,MISO*%
X151125000Y-93416209D03*
X155600000Y-89500000D03*
X151927000Y-65375772D03*
%TO.N,D-*%
X149752427Y-114647573D03*
%TO.N,D+*%
X150318114Y-114081886D03*
%TO.N,SCL*%
X151566942Y-94083058D03*
X155978596Y-68427368D03*
X155100000Y-87600000D03*
%TO.N,D13*%
X152827000Y-67000772D03*
%TO.N,A1*%
X150527000Y-92300000D03*
X148327000Y-84675772D03*
%TO.N,D12*%
X152441942Y-91158058D03*
X152327000Y-86875772D03*
X154527000Y-67775772D03*
%TO.N,A2*%
X153487765Y-97888007D03*
%TO.N,A1_5*%
X141400000Y-109800000D03*
%TO.N,GNDA*%
X138050000Y-73750000D03*
X141375000Y-74350000D03*
%TD*%
D17*
%TO.N,+5V*%
X149775772Y-97675772D02*
X149427000Y-97675772D01*
X152376000Y-100276000D02*
X149775772Y-97675772D01*
X152376000Y-100376361D02*
X152376000Y-100276000D01*
X152815925Y-100816286D02*
X152376000Y-100376361D01*
X155400000Y-103300000D02*
X152916286Y-100816286D01*
X155400000Y-110550000D02*
X155400000Y-103300000D01*
X152916286Y-100816286D02*
X152815925Y-100816286D01*
D18*
X148527000Y-96765772D02*
X148627000Y-96665772D01*
X148527000Y-98075772D02*
X148527000Y-96765772D01*
X149427000Y-97675772D02*
X149427000Y-96975772D01*
X149317000Y-96665772D02*
X149527000Y-96875772D01*
X148627000Y-96665772D02*
X149317000Y-96665772D01*
X148527000Y-97875772D02*
X149527000Y-96875772D01*
X148527000Y-98075772D02*
X148527000Y-97875772D01*
X149427000Y-97675772D02*
X149427000Y-97465772D01*
X149427000Y-97465772D02*
X148627000Y-96665772D01*
D19*
X148708325Y-97361558D02*
X139641431Y-88294664D01*
D18*
X148927000Y-97675772D02*
X148527000Y-98075772D01*
X149427000Y-96975772D02*
X149527000Y-96875772D01*
D19*
X139641431Y-88294664D02*
X139641431Y-82602929D01*
D18*
X149427000Y-97675772D02*
X148927000Y-97675772D01*
D20*
%TO.N,D38*%
X151152000Y-91600772D02*
X151051000Y-91499772D01*
X151152000Y-91651482D02*
X151152000Y-91600772D01*
X151051000Y-69299772D02*
X148127000Y-66375772D01*
X151175518Y-91675000D02*
X151152000Y-91651482D01*
X151051000Y-91499772D02*
X151051000Y-69299772D01*
D21*
%TO.N,SCK*%
X152800000Y-98048772D02*
X154027000Y-99275772D01*
D20*
X153627000Y-89875772D02*
X153627000Y-70875772D01*
D21*
X156191942Y-95410830D02*
X154902772Y-96700000D01*
X158900000Y-100748772D02*
X158900000Y-119362772D01*
D20*
X153627000Y-70875772D02*
X149727000Y-66975772D01*
X153800000Y-90048772D02*
X153627000Y-89875772D01*
D21*
X155800000Y-93575000D02*
X156191942Y-93966942D01*
X154902772Y-96700000D02*
X153300000Y-96700000D01*
D20*
X149727000Y-66975772D02*
X149727000Y-65375772D01*
D21*
X157427000Y-99275772D02*
X158900000Y-100748772D01*
X156191942Y-93966942D02*
X156191942Y-95410830D01*
X157727000Y-120535772D02*
X157727000Y-120795772D01*
D20*
X153800000Y-90125000D02*
X153800000Y-90048772D01*
D21*
X154027000Y-99275772D02*
X157427000Y-99275772D01*
X153300000Y-96700000D02*
X152800000Y-97200000D01*
X158900000Y-119362772D02*
X157727000Y-120535772D01*
X152800000Y-97200000D02*
X152800000Y-98048772D01*
D20*
%TO.N,MOSI*%
X157467000Y-115355772D02*
X155329000Y-115355772D01*
X153727000Y-68275772D02*
X155127000Y-69675772D01*
X153727000Y-65575772D02*
X153727000Y-68275772D01*
X155127000Y-69675772D02*
X155127000Y-82275772D01*
X152827000Y-64675772D02*
X153727000Y-65575772D01*
X158351312Y-84175772D02*
X159227000Y-85051460D01*
X147501000Y-67249000D02*
X147501000Y-65401772D01*
X147527000Y-65375772D02*
X148227000Y-64675772D01*
X155329000Y-115355772D02*
X138431155Y-98457927D01*
X138431155Y-76318845D02*
X147501000Y-67249000D01*
X138431155Y-98457927D02*
X138431155Y-76318845D01*
X159227000Y-85051460D02*
X159227000Y-88647000D01*
X157727000Y-115615772D02*
X157467000Y-115355772D01*
X155127000Y-82275772D02*
X157027000Y-84175772D01*
X157027000Y-84175772D02*
X158351312Y-84175772D01*
X148227000Y-64675772D02*
X152827000Y-64675772D01*
X159227000Y-88647000D02*
X161000000Y-90420000D01*
X157727000Y-115715772D02*
X157727000Y-115615772D01*
X147501000Y-65401772D02*
X147527000Y-65375772D01*
%TO.N,MISO*%
X151125000Y-93416209D02*
X151330362Y-93210847D01*
X155600000Y-89500000D02*
X154551228Y-89500000D01*
X154127000Y-89075772D02*
X154127000Y-70675772D01*
X151889153Y-93210847D02*
X155600000Y-89500000D01*
X151330362Y-93210847D02*
X151889153Y-93210847D01*
X151927000Y-68475772D02*
X151927000Y-65375772D01*
X154127000Y-70675772D02*
X151927000Y-68475772D01*
X154551228Y-89500000D02*
X154127000Y-89075772D01*
%TO.N,D-*%
X141052000Y-105900772D02*
X139597000Y-105900772D01*
X149752427Y-114647573D02*
X149752427Y-114601199D01*
X149752427Y-114601199D02*
X141052000Y-105900772D01*
%TO.N,D+*%
X150318114Y-114081886D02*
X139597000Y-103360772D01*
%TO.N,SCL*%
X159627000Y-75675772D02*
X159627000Y-84103855D01*
X156627000Y-72675772D02*
X159627000Y-75675772D01*
X159627000Y-84103855D02*
X161044718Y-85521573D01*
X156227000Y-90273000D02*
X156227000Y-88275772D01*
X155978596Y-68427368D02*
X156627000Y-69075772D01*
X151566942Y-94083058D02*
X152416942Y-94083058D01*
X152416942Y-94083058D02*
X156227000Y-90273000D01*
X156227000Y-88275772D02*
X155551228Y-87600000D01*
X156627000Y-69075772D02*
X156627000Y-72675772D01*
X155551228Y-87600000D02*
X155100000Y-87600000D01*
%TO.N,SDA*%
X147027000Y-81495772D02*
X144607000Y-79075772D01*
X147027000Y-92878227D02*
X147027000Y-81495772D01*
X155927000Y-102275772D02*
X155927000Y-100475772D01*
X157727000Y-104280772D02*
X157727000Y-104075772D01*
X157727000Y-104075772D02*
X155927000Y-102275772D01*
X155927000Y-100475772D02*
X155153000Y-99701772D01*
X153850545Y-99701772D02*
X147027000Y-92878227D01*
X155153000Y-99701772D02*
X153850545Y-99701772D01*
%TO.N,D13*%
X154578000Y-84721772D02*
X157747000Y-87890772D01*
X152827000Y-67000772D02*
X152827000Y-68737962D01*
X154578000Y-70488962D02*
X154578000Y-84721772D01*
X159777000Y-101897000D02*
X161000000Y-103120000D01*
X159777000Y-89920772D02*
X159777000Y-101897000D01*
X152827000Y-68737962D02*
X154578000Y-70488962D01*
X157747000Y-87890772D02*
X159777000Y-89920772D01*
%TO.N,A1*%
X150500000Y-92327000D02*
X150500000Y-93900000D01*
X150527000Y-92300000D02*
X150500000Y-92327000D01*
X151350000Y-94750000D02*
X152700000Y-94750000D01*
X150500000Y-93900000D02*
X151350000Y-94750000D01*
X150527000Y-86875772D02*
X148327000Y-84675772D01*
X154950000Y-92500000D02*
X157276228Y-92500000D01*
X157276228Y-92500000D02*
X157747000Y-92970772D01*
X150527000Y-92300000D02*
X150527000Y-86875772D01*
X152700000Y-94750000D02*
X154950000Y-92500000D01*
%TO.N,D12*%
X152305837Y-90096935D02*
X152327000Y-90075772D01*
X155627000Y-80690772D02*
X157747000Y-82810772D01*
X152441942Y-90341942D02*
X152305837Y-90205837D01*
X154527000Y-67775772D02*
X154527000Y-68437962D01*
X154527000Y-68437962D02*
X155627000Y-69537962D01*
X152441942Y-91158058D02*
X152441942Y-90341942D01*
X155627000Y-69537962D02*
X155627000Y-80690772D01*
X152305837Y-90205837D02*
X152305837Y-90096935D01*
X152327000Y-90075772D02*
X152327000Y-86875772D01*
%TO.N,A2*%
X153487765Y-97888007D02*
X153575530Y-97975772D01*
X159326000Y-100572317D02*
X157800000Y-99046317D01*
X157672000Y-97975772D02*
X157747000Y-98050772D01*
X161000000Y-113280000D02*
X159326000Y-111606000D01*
X157800000Y-99046317D02*
X157800000Y-98103772D01*
X153575530Y-97975772D02*
X157672000Y-97975772D01*
X159326000Y-111606000D02*
X159326000Y-100572317D01*
X157800000Y-98103772D02*
X157747000Y-98050772D01*
%TO.N,A1_5*%
X141400000Y-109800000D02*
X137440000Y-109800000D01*
X137440000Y-109800000D02*
X136500000Y-110740000D01*
%TO.N,GNDA*%
X157747000Y-94697000D02*
X157747000Y-95510772D01*
X145850000Y-79680962D02*
X147700000Y-81530962D01*
X156150000Y-92950000D02*
X156400000Y-93200000D01*
X151163190Y-95201000D02*
X153149000Y-95201000D01*
X153149000Y-95201000D02*
X155400000Y-92950000D01*
X142026000Y-110294000D02*
X142026000Y-109076000D01*
X159326000Y-120859888D02*
X159326000Y-117494000D01*
X142651772Y-121971772D02*
X158214116Y-121971772D01*
X149626000Y-93663810D02*
X151163190Y-95201000D01*
X137980155Y-105947043D02*
X137980155Y-73819845D01*
X137980155Y-73819845D02*
X138050000Y-73750000D01*
X156400000Y-93200000D02*
X156400000Y-93350000D01*
X147700000Y-81530962D02*
X147700000Y-88600000D01*
X140026772Y-107076772D02*
X139109884Y-107076772D01*
X136500000Y-115820000D02*
X142026000Y-110294000D01*
X159326000Y-117494000D02*
X161000000Y-115820000D01*
X155400000Y-92950000D02*
X156150000Y-92950000D01*
X142026000Y-109076000D02*
X140026772Y-107076772D01*
X156400000Y-93350000D02*
X157747000Y-94697000D01*
X136500000Y-115820000D02*
X142651772Y-121971772D01*
X139109884Y-107076772D02*
X137980155Y-105947043D01*
X149626000Y-90526000D02*
X149626000Y-93663810D01*
X158214116Y-121971772D02*
X159326000Y-120859888D01*
X141950000Y-74350000D02*
X145850000Y-78250000D01*
X141375000Y-74350000D02*
X141950000Y-74350000D01*
X145850000Y-78250000D02*
X145850000Y-79680962D01*
X147700000Y-88600000D02*
X149626000Y-90526000D01*
%TD*%
%TA.AperFunction,Conductor*%
%TO.N,Earth*%
G36*
X135582703Y-116813045D02*
G01*
X135589181Y-116819077D01*
X135620213Y-116850109D01*
X135792179Y-116975048D01*
X135792181Y-116975049D01*
X135792184Y-116975051D01*
X135981588Y-117071557D01*
X136183757Y-117137246D01*
X136393713Y-117170500D01*
X136393714Y-117170500D01*
X136606286Y-117170500D01*
X136606287Y-117170500D01*
X136816243Y-117137246D01*
X136831837Y-117132178D01*
X136901676Y-117130182D01*
X136957837Y-117162428D01*
X142253034Y-122457626D01*
X142253037Y-122457629D01*
X142304262Y-122491856D01*
X142355486Y-122526083D01*
X142469320Y-122573235D01*
X142590160Y-122597271D01*
X142590164Y-122597272D01*
X156385794Y-122597272D01*
X156452833Y-122616957D01*
X156498588Y-122669761D01*
X156508532Y-122738919D01*
X156496279Y-122777566D01*
X156475905Y-122817551D01*
X156410242Y-123019642D01*
X156410242Y-123019645D01*
X156399769Y-123085772D01*
X157293988Y-123085772D01*
X157261075Y-123142779D01*
X157227000Y-123269946D01*
X157227000Y-123401598D01*
X157261075Y-123528765D01*
X157293988Y-123585772D01*
X156399769Y-123585772D01*
X156410242Y-123651898D01*
X156410242Y-123651901D01*
X156475904Y-123853989D01*
X156572379Y-124043329D01*
X156697272Y-124215231D01*
X156697276Y-124215236D01*
X156847535Y-124365495D01*
X156847540Y-124365499D01*
X157019442Y-124490392D01*
X157208782Y-124586867D01*
X157410871Y-124652529D01*
X157477000Y-124663003D01*
X157477000Y-123768784D01*
X157534007Y-123801697D01*
X157661174Y-123835772D01*
X157792826Y-123835772D01*
X157919993Y-123801697D01*
X157977000Y-123768784D01*
X157977000Y-124663002D01*
X158043126Y-124652529D01*
X158043129Y-124652529D01*
X158245217Y-124586867D01*
X158434557Y-124490392D01*
X158606459Y-124365499D01*
X158606464Y-124365495D01*
X158756723Y-124215236D01*
X158756727Y-124215231D01*
X158881620Y-124043329D01*
X158978095Y-123853989D01*
X159043757Y-123651901D01*
X159043757Y-123651898D01*
X159054231Y-123585772D01*
X158160012Y-123585772D01*
X158192925Y-123528765D01*
X158227000Y-123401598D01*
X158227000Y-123269946D01*
X158192925Y-123142779D01*
X158160012Y-123085772D01*
X159054231Y-123085772D01*
X159043757Y-123019645D01*
X159043757Y-123019642D01*
X158978095Y-122817554D01*
X158881620Y-122628214D01*
X158758985Y-122459420D01*
X158735505Y-122393614D01*
X158751331Y-122325560D01*
X158771618Y-122298858D01*
X159713894Y-121356583D01*
X159775213Y-121323101D01*
X159844905Y-121328085D01*
X159853584Y-121331703D01*
X159865433Y-121337178D01*
X159907669Y-121368796D01*
X160042517Y-121419091D01*
X160042761Y-121419117D01*
X160047762Y-121421428D01*
X160070660Y-121441449D01*
X160095016Y-121459681D01*
X160096711Y-121464225D01*
X160100362Y-121467418D01*
X160108802Y-121496642D01*
X160119433Y-121525145D01*
X160118402Y-121529883D01*
X160119748Y-121534544D01*
X160111048Y-121563692D01*
X160104582Y-121593418D01*
X160100580Y-121598763D01*
X160099765Y-121601495D01*
X160096323Y-121604450D01*
X160083431Y-121621673D01*
X159969889Y-121735215D01*
X159844951Y-121907179D01*
X159748444Y-122096585D01*
X159682753Y-122298760D01*
X159649500Y-122508713D01*
X159649500Y-122721286D01*
X159674781Y-122880908D01*
X159682754Y-122931243D01*
X159729146Y-123074023D01*
X159748444Y-123133414D01*
X159844951Y-123322820D01*
X159969890Y-123494786D01*
X160120213Y-123645109D01*
X160292179Y-123770048D01*
X160292181Y-123770049D01*
X160292184Y-123770051D01*
X160301493Y-123774794D01*
X160352290Y-123822766D01*
X160369087Y-123890587D01*
X160346552Y-123956722D01*
X160301502Y-123995762D01*
X160292443Y-124000378D01*
X160120540Y-124125272D01*
X160120535Y-124125276D01*
X159970276Y-124275535D01*
X159970272Y-124275540D01*
X159845379Y-124447442D01*
X159748904Y-124636782D01*
X159683242Y-124838870D01*
X159683242Y-124838873D01*
X159672769Y-124905000D01*
X160566988Y-124905000D01*
X160534075Y-124962007D01*
X160500000Y-125089174D01*
X160500000Y-125220826D01*
X160534075Y-125347993D01*
X160566988Y-125405000D01*
X159672769Y-125405000D01*
X159683242Y-125471126D01*
X159683242Y-125471129D01*
X159748904Y-125673217D01*
X159845379Y-125862557D01*
X159970272Y-126034459D01*
X159970276Y-126034464D01*
X160099403Y-126163591D01*
X160132888Y-126224914D01*
X160127904Y-126294606D01*
X160086032Y-126350539D01*
X160020568Y-126374956D01*
X160011722Y-126375272D01*
X135501500Y-126375272D01*
X135434461Y-126355587D01*
X135388706Y-126302783D01*
X135377500Y-126251272D01*
X135377500Y-123752276D01*
X145307000Y-123752276D01*
X145307000Y-124000772D01*
X146007000Y-124000772D01*
X146007000Y-124500772D01*
X145307000Y-124500772D01*
X145307000Y-124749267D01*
X145345427Y-124942453D01*
X145345430Y-124942465D01*
X145420807Y-125124443D01*
X145420814Y-125124456D01*
X145530248Y-125288234D01*
X145530251Y-125288238D01*
X145669533Y-125427520D01*
X145669537Y-125427523D01*
X145833315Y-125536957D01*
X145833328Y-125536964D01*
X146015308Y-125612341D01*
X146057000Y-125620634D01*
X146057000Y-124817760D01*
X146066940Y-124834977D01*
X146122795Y-124890832D01*
X146191204Y-124930328D01*
X146267504Y-124950772D01*
X146346496Y-124950772D01*
X146422796Y-124930328D01*
X146491205Y-124890832D01*
X146547060Y-124834977D01*
X146557000Y-124817760D01*
X146557000Y-125620634D01*
X146598690Y-125612341D01*
X146598692Y-125612341D01*
X146780671Y-125536964D01*
X146780684Y-125536957D01*
X146944462Y-125427523D01*
X146944466Y-125427520D01*
X147083748Y-125288238D01*
X147083751Y-125288234D01*
X147193185Y-125124456D01*
X147193192Y-125124443D01*
X147268569Y-124942465D01*
X147268572Y-124942453D01*
X147306999Y-124749267D01*
X147307000Y-124749264D01*
X147307000Y-124500772D01*
X146607000Y-124500772D01*
X146607000Y-124000772D01*
X147307000Y-124000772D01*
X147307000Y-123752280D01*
X147306999Y-123752276D01*
X153947000Y-123752276D01*
X153947000Y-124000772D01*
X154647000Y-124000772D01*
X154647000Y-124500772D01*
X153947000Y-124500772D01*
X153947000Y-124749267D01*
X153985427Y-124942453D01*
X153985430Y-124942465D01*
X154060807Y-125124443D01*
X154060814Y-125124456D01*
X154170248Y-125288234D01*
X154170251Y-125288238D01*
X154309533Y-125427520D01*
X154309537Y-125427523D01*
X154473315Y-125536957D01*
X154473328Y-125536964D01*
X154655308Y-125612341D01*
X154697000Y-125620634D01*
X154697000Y-124817760D01*
X154706940Y-124834977D01*
X154762795Y-124890832D01*
X154831204Y-124930328D01*
X154907504Y-124950772D01*
X154986496Y-124950772D01*
X155062796Y-124930328D01*
X155131205Y-124890832D01*
X155187060Y-124834977D01*
X155197000Y-124817760D01*
X155197000Y-125620634D01*
X155238690Y-125612341D01*
X155238692Y-125612341D01*
X155420671Y-125536964D01*
X155420684Y-125536957D01*
X155584462Y-125427523D01*
X155584466Y-125427520D01*
X155723748Y-125288238D01*
X155723751Y-125288234D01*
X155833185Y-125124456D01*
X155833192Y-125124443D01*
X155908569Y-124942465D01*
X155908572Y-124942453D01*
X155946999Y-124749267D01*
X155947000Y-124749264D01*
X155947000Y-124500772D01*
X155247000Y-124500772D01*
X155247000Y-124000772D01*
X155947000Y-124000772D01*
X155947000Y-123752280D01*
X155946999Y-123752276D01*
X155911320Y-123572899D01*
X155908572Y-123559087D01*
X155908569Y-123559078D01*
X155833192Y-123377100D01*
X155833185Y-123377087D01*
X155723751Y-123213309D01*
X155723748Y-123213305D01*
X155584466Y-123074023D01*
X155584462Y-123074020D01*
X155420684Y-122964586D01*
X155420671Y-122964579D01*
X155238691Y-122889201D01*
X155238683Y-122889199D01*
X155197000Y-122880907D01*
X155197000Y-123683783D01*
X155187060Y-123666567D01*
X155131205Y-123610712D01*
X155062796Y-123571216D01*
X154986496Y-123550772D01*
X154907504Y-123550772D01*
X154831204Y-123571216D01*
X154762795Y-123610712D01*
X154706940Y-123666567D01*
X154697000Y-123683783D01*
X154697000Y-122880908D01*
X154696999Y-122880907D01*
X154655316Y-122889199D01*
X154655308Y-122889201D01*
X154473328Y-122964579D01*
X154473315Y-122964586D01*
X154309537Y-123074020D01*
X154309533Y-123074023D01*
X154170251Y-123213305D01*
X154170248Y-123213309D01*
X154060814Y-123377087D01*
X154060807Y-123377100D01*
X153985430Y-123559078D01*
X153985427Y-123559090D01*
X153947000Y-123752276D01*
X147306999Y-123752276D01*
X147268572Y-123559090D01*
X147268569Y-123559078D01*
X147193192Y-123377100D01*
X147193185Y-123377087D01*
X147083751Y-123213309D01*
X147083748Y-123213305D01*
X146944466Y-123074023D01*
X146944462Y-123074020D01*
X146780684Y-122964586D01*
X146780671Y-122964579D01*
X146598691Y-122889201D01*
X146598683Y-122889199D01*
X146557000Y-122880907D01*
X146557000Y-123683783D01*
X146547060Y-123666567D01*
X146491205Y-123610712D01*
X146422796Y-123571216D01*
X146346496Y-123550772D01*
X146267504Y-123550772D01*
X146191204Y-123571216D01*
X146122795Y-123610712D01*
X146066940Y-123666567D01*
X146057000Y-123683783D01*
X146057000Y-122880908D01*
X146056999Y-122880907D01*
X146015316Y-122889199D01*
X146015308Y-122889201D01*
X145833328Y-122964579D01*
X145833315Y-122964586D01*
X145669537Y-123074020D01*
X145669533Y-123074023D01*
X145530251Y-123213305D01*
X145530248Y-123213309D01*
X145420814Y-123377087D01*
X145420807Y-123377100D01*
X145345430Y-123559078D01*
X145345427Y-123559090D01*
X145307000Y-123752276D01*
X135377500Y-123752276D01*
X135377500Y-116906758D01*
X135397185Y-116839719D01*
X135449989Y-116793964D01*
X135519147Y-116784020D01*
X135582703Y-116813045D01*
G37*
%TD.AperFunction*%
%TA.AperFunction,Conductor*%
G36*
X138810858Y-99722666D02*
G01*
X138817336Y-99728698D01*
X154923072Y-115834436D01*
X154923074Y-115834437D01*
X154930267Y-115841630D01*
X155032715Y-115910084D01*
X155099397Y-115937704D01*
X155146548Y-115957235D01*
X155166597Y-115961223D01*
X155200196Y-115967906D01*
X155267392Y-115981273D01*
X155267394Y-115981273D01*
X155396721Y-115981273D01*
X155396741Y-115981272D01*
X156303176Y-115981272D01*
X156370215Y-116000957D01*
X156415970Y-116053761D01*
X156421103Y-116066945D01*
X156475443Y-116234184D01*
X156475444Y-116234186D01*
X156571951Y-116423592D01*
X156696890Y-116595558D01*
X156847213Y-116745881D01*
X157019182Y-116870822D01*
X157027946Y-116875288D01*
X157078742Y-116923263D01*
X157095536Y-116991084D01*
X157072998Y-117057219D01*
X157027946Y-117096256D01*
X157019182Y-117100721D01*
X156847213Y-117225662D01*
X156696890Y-117375985D01*
X156571951Y-117547951D01*
X156475444Y-117737357D01*
X156409753Y-117939532D01*
X156376500Y-118149485D01*
X156376500Y-118362058D01*
X156406410Y-118550907D01*
X156409754Y-118572015D01*
X156440264Y-118665916D01*
X156475444Y-118774186D01*
X156571951Y-118963592D01*
X156696890Y-119135558D01*
X156847213Y-119285881D01*
X157019182Y-119410822D01*
X157027946Y-119415288D01*
X157078742Y-119463263D01*
X157095536Y-119531084D01*
X157072998Y-119597219D01*
X157027946Y-119636256D01*
X157019182Y-119640721D01*
X156847213Y-119765662D01*
X156696890Y-119915985D01*
X156571951Y-120087951D01*
X156475444Y-120277357D01*
X156409753Y-120479532D01*
X156376500Y-120689485D01*
X156376500Y-120902058D01*
X156409718Y-121111791D01*
X156409754Y-121112015D01*
X156419194Y-121141069D01*
X156433129Y-121183954D01*
X156435124Y-121253795D01*
X156399044Y-121313628D01*
X156336343Y-121344456D01*
X156315198Y-121346272D01*
X155896915Y-121346272D01*
X155829876Y-121326587D01*
X155784121Y-121273783D01*
X155774177Y-121204625D01*
X155793813Y-121153381D01*
X155833185Y-121094456D01*
X155833192Y-121094443D01*
X155908569Y-120912465D01*
X155908572Y-120912453D01*
X155946999Y-120719267D01*
X155947000Y-120719264D01*
X155947000Y-120320772D01*
X155247000Y-120320772D01*
X155247000Y-119820772D01*
X155947000Y-119820772D01*
X155947000Y-119422280D01*
X155946999Y-119422276D01*
X155908572Y-119229090D01*
X155908569Y-119229078D01*
X155833192Y-119047100D01*
X155833185Y-119047087D01*
X155723751Y-118883309D01*
X155723748Y-118883305D01*
X155584466Y-118744023D01*
X155584462Y-118744020D01*
X155420684Y-118634586D01*
X155420671Y-118634579D01*
X155238691Y-118559201D01*
X155238683Y-118559199D01*
X155197000Y-118550907D01*
X155197000Y-119353783D01*
X155187060Y-119336567D01*
X155131205Y-119280712D01*
X155062796Y-119241216D01*
X154986496Y-119220772D01*
X154907504Y-119220772D01*
X154831204Y-119241216D01*
X154762795Y-119280712D01*
X154706940Y-119336567D01*
X154697000Y-119353783D01*
X154697000Y-118550908D01*
X154696999Y-118550907D01*
X154655316Y-118559199D01*
X154655308Y-118559201D01*
X154473328Y-118634579D01*
X154473315Y-118634586D01*
X154309537Y-118744020D01*
X154309533Y-118744023D01*
X154170251Y-118883305D01*
X154170248Y-118883309D01*
X154060814Y-119047087D01*
X154060807Y-119047100D01*
X153985430Y-119229078D01*
X153985427Y-119229090D01*
X153947000Y-119422276D01*
X153947000Y-119820772D01*
X154647000Y-119820772D01*
X154647000Y-120320772D01*
X154108784Y-120320772D01*
X154041745Y-120301087D01*
X154001397Y-120258772D01*
X153977515Y-120217407D01*
X153870365Y-120110257D01*
X153804750Y-120072374D01*
X153739136Y-120034491D01*
X153665950Y-120014881D01*
X153592766Y-119995272D01*
X153441234Y-119995272D01*
X153294863Y-120034491D01*
X153163635Y-120110257D01*
X153163632Y-120110259D01*
X153056487Y-120217404D01*
X153056485Y-120217407D01*
X152980719Y-120348635D01*
X152945647Y-120479529D01*
X152941500Y-120495006D01*
X152941500Y-120646538D01*
X152960987Y-120719264D01*
X152980719Y-120792908D01*
X153018602Y-120858522D01*
X153056485Y-120924137D01*
X153163635Y-121031287D01*
X153294865Y-121107053D01*
X153294867Y-121107054D01*
X153296448Y-121107709D01*
X153297577Y-121108618D01*
X153301904Y-121111117D01*
X153301514Y-121111791D01*
X153350854Y-121151547D01*
X153372922Y-121217840D01*
X153355646Y-121285540D01*
X153304511Y-121333153D01*
X153249001Y-121346272D01*
X148004999Y-121346272D01*
X147937960Y-121326587D01*
X147892205Y-121273783D01*
X147882261Y-121204625D01*
X147911286Y-121141069D01*
X147952310Y-121111488D01*
X147952096Y-121111117D01*
X147955756Y-121109003D01*
X147957552Y-121107709D01*
X147959132Y-121107054D01*
X147959132Y-121107053D01*
X147959135Y-121107053D01*
X148090365Y-121031287D01*
X148197515Y-120924137D01*
X148273281Y-120792907D01*
X148312500Y-120646538D01*
X148312500Y-120495006D01*
X148273281Y-120348637D01*
X148197515Y-120217407D01*
X148090365Y-120110257D01*
X148024750Y-120072374D01*
X147959136Y-120034491D01*
X147885950Y-120014881D01*
X147812766Y-119995272D01*
X147661234Y-119995272D01*
X147514863Y-120034491D01*
X147383635Y-120110257D01*
X147383632Y-120110259D01*
X147276487Y-120217404D01*
X147276483Y-120217410D01*
X147252603Y-120258772D01*
X147202036Y-120306988D01*
X147145216Y-120320772D01*
X146607000Y-120320772D01*
X146607000Y-119820772D01*
X147307000Y-119820772D01*
X147307000Y-119422280D01*
X147306999Y-119422276D01*
X147268572Y-119229090D01*
X147268569Y-119229078D01*
X147193192Y-119047100D01*
X147193185Y-119047087D01*
X147083751Y-118883309D01*
X147083748Y-118883305D01*
X146944466Y-118744023D01*
X146944462Y-118744020D01*
X146780684Y-118634586D01*
X146780671Y-118634579D01*
X146598691Y-118559201D01*
X146598683Y-118559199D01*
X146557000Y-118550907D01*
X146557000Y-119353783D01*
X146547060Y-119336567D01*
X146491205Y-119280712D01*
X146422796Y-119241216D01*
X146346496Y-119220772D01*
X146267504Y-119220772D01*
X146191204Y-119241216D01*
X146122795Y-119280712D01*
X146066940Y-119336567D01*
X146057000Y-119353783D01*
X146057000Y-118550908D01*
X146056999Y-118550907D01*
X146015316Y-118559199D01*
X146015308Y-118559201D01*
X145833328Y-118634579D01*
X145833315Y-118634586D01*
X145669537Y-118744020D01*
X145669533Y-118744023D01*
X145530251Y-118883305D01*
X145530248Y-118883309D01*
X145420814Y-119047087D01*
X145420807Y-119047100D01*
X145345430Y-119229078D01*
X145345427Y-119229090D01*
X145307000Y-119422276D01*
X145307000Y-119820772D01*
X146007000Y-119820772D01*
X146007000Y-120320772D01*
X145307000Y-120320772D01*
X145307000Y-120719267D01*
X145345427Y-120912453D01*
X145345430Y-120912465D01*
X145420807Y-121094443D01*
X145420814Y-121094456D01*
X145460187Y-121153381D01*
X145481065Y-121220058D01*
X145462581Y-121287439D01*
X145410602Y-121334129D01*
X145357085Y-121346272D01*
X142962225Y-121346272D01*
X142895186Y-121326587D01*
X142874544Y-121309953D01*
X137842428Y-116277837D01*
X137808943Y-116216514D01*
X137812178Y-116151837D01*
X137817246Y-116136243D01*
X137850500Y-115926287D01*
X137850500Y-115713713D01*
X137817246Y-115503757D01*
X137812179Y-115488162D01*
X137810182Y-115418321D01*
X137842426Y-115362162D01*
X142424729Y-110779860D01*
X142424733Y-110779858D01*
X142511858Y-110692733D01*
X142564419Y-110614071D01*
X142564420Y-110614070D01*
X142580309Y-110590290D01*
X142580312Y-110590286D01*
X142613818Y-110509394D01*
X142627463Y-110476452D01*
X142651500Y-110355606D01*
X142651500Y-109014394D01*
X142650011Y-109006911D01*
X142648537Y-108999497D01*
X142648536Y-108999496D01*
X142640518Y-108959184D01*
X142627463Y-108893549D01*
X142580311Y-108779714D01*
X142539220Y-108718217D01*
X142511857Y-108677265D01*
X142511854Y-108677262D01*
X140696962Y-106862371D01*
X140680642Y-106832483D01*
X140663866Y-106802777D01*
X140663918Y-106801856D01*
X140663477Y-106801048D01*
X140665909Y-106767037D01*
X140667854Y-106733021D01*
X140668418Y-106731951D01*
X140668461Y-106731356D01*
X140684320Y-106701812D01*
X140718548Y-106654699D01*
X140773875Y-106612037D01*
X140843488Y-106606058D01*
X140905284Y-106638663D01*
X140906545Y-106639907D01*
X148916060Y-114649422D01*
X148949545Y-114710745D01*
X148951781Y-114724941D01*
X148951926Y-114726414D01*
X148982688Y-114881062D01*
X148982691Y-114881074D01*
X149043029Y-115026745D01*
X149043036Y-115026758D01*
X149130637Y-115157861D01*
X149130640Y-115157865D01*
X149242134Y-115269359D01*
X149242138Y-115269362D01*
X149373241Y-115356963D01*
X149373254Y-115356970D01*
X149518925Y-115417308D01*
X149518930Y-115417310D01*
X149673580Y-115448072D01*
X149673583Y-115448073D01*
X149673585Y-115448073D01*
X149831271Y-115448073D01*
X149831272Y-115448072D01*
X149985924Y-115417310D01*
X150131606Y-115356967D01*
X150262716Y-115269362D01*
X150374216Y-115157862D01*
X150461821Y-115026752D01*
X150461822Y-115026749D01*
X150461824Y-115026746D01*
X150511133Y-114907701D01*
X150554973Y-114853297D01*
X150578242Y-114840592D01*
X150697287Y-114791283D01*
X150697290Y-114791281D01*
X150697293Y-114791280D01*
X150828403Y-114703675D01*
X150939903Y-114592175D01*
X151027508Y-114461065D01*
X151087851Y-114315383D01*
X151118614Y-114160728D01*
X151118614Y-114003044D01*
X151118614Y-114003041D01*
X151118613Y-114003039D01*
X151087852Y-113848396D01*
X151087851Y-113848389D01*
X151067150Y-113798412D01*
X151027511Y-113702713D01*
X151027504Y-113702700D01*
X150939903Y-113571597D01*
X150939900Y-113571593D01*
X150828406Y-113460099D01*
X150828402Y-113460096D01*
X150697299Y-113372495D01*
X150697286Y-113372488D01*
X150551615Y-113312150D01*
X150551603Y-113312147D01*
X150440399Y-113290027D01*
X150378488Y-113257642D01*
X150376909Y-113256091D01*
X140983818Y-103863000D01*
X140950333Y-103801677D01*
X140947499Y-103775319D01*
X140947499Y-102462901D01*
X140947498Y-102462895D01*
X140941091Y-102403288D01*
X140890797Y-102268443D01*
X140890793Y-102268436D01*
X140804547Y-102153227D01*
X140804544Y-102153224D01*
X140689335Y-102066978D01*
X140689328Y-102066974D01*
X140554482Y-102016680D01*
X140554483Y-102016680D01*
X140494883Y-102010273D01*
X140494881Y-102010272D01*
X140494873Y-102010272D01*
X140494865Y-102010272D01*
X138729655Y-102010272D01*
X138662616Y-101990587D01*
X138616861Y-101937783D01*
X138605655Y-101886272D01*
X138605655Y-99816379D01*
X138625340Y-99749340D01*
X138678144Y-99703585D01*
X138747302Y-99693641D01*
X138810858Y-99722666D01*
G37*
%TD.AperFunction*%
%TA.AperFunction,Conductor*%
G36*
X139261858Y-89330457D02*
G01*
X139268336Y-89336489D01*
X147615181Y-97683334D01*
X147648666Y-97744657D01*
X147651500Y-97771015D01*
X147651500Y-98162005D01*
X147685143Y-98331138D01*
X147685146Y-98331150D01*
X147751138Y-98490470D01*
X147751145Y-98490483D01*
X147846954Y-98633870D01*
X147846957Y-98633874D01*
X147968897Y-98755814D01*
X147968901Y-98755817D01*
X148112288Y-98851626D01*
X148112301Y-98851633D01*
X148243237Y-98905868D01*
X148271626Y-98917627D01*
X148440766Y-98951271D01*
X148440769Y-98951272D01*
X148440771Y-98951272D01*
X148613231Y-98951272D01*
X148613232Y-98951271D01*
X148782374Y-98917627D01*
X148941705Y-98851630D01*
X149085099Y-98755817D01*
X149253325Y-98587591D01*
X149279669Y-98573205D01*
X149304749Y-98556691D01*
X149311860Y-98555628D01*
X149314648Y-98554106D01*
X149339626Y-98551280D01*
X149340345Y-98551272D01*
X149340771Y-98551272D01*
X149513229Y-98551272D01*
X149523473Y-98549234D01*
X149534988Y-98549106D01*
X149557964Y-98555575D01*
X149581742Y-98557698D01*
X149593980Y-98565716D01*
X149602243Y-98568043D01*
X149608765Y-98575403D01*
X149624049Y-98585417D01*
X151651350Y-100612718D01*
X151678230Y-100652946D01*
X151710915Y-100731855D01*
X151742229Y-100778719D01*
X151742230Y-100778722D01*
X151793046Y-100854775D01*
X151793052Y-100854782D01*
X152337509Y-101399238D01*
X152337511Y-101399240D01*
X152365825Y-101418157D01*
X152411195Y-101448472D01*
X152460430Y-101481370D01*
X152544090Y-101516023D01*
X152548663Y-101518378D01*
X152555362Y-101524761D01*
X152579566Y-101540934D01*
X154613181Y-103574549D01*
X154646666Y-103635872D01*
X154649500Y-103662230D01*
X154649500Y-110245396D01*
X154640062Y-110292844D01*
X154630263Y-110316503D01*
X154630262Y-110316506D01*
X154630260Y-110316511D01*
X154599500Y-110471153D01*
X154599500Y-110628846D01*
X154630261Y-110783489D01*
X154630264Y-110783501D01*
X154690602Y-110929172D01*
X154690609Y-110929185D01*
X154778210Y-111060288D01*
X154778213Y-111060292D01*
X154889707Y-111171786D01*
X154889711Y-111171789D01*
X155020814Y-111259390D01*
X155020827Y-111259397D01*
X155137175Y-111307589D01*
X155166503Y-111319737D01*
X155321153Y-111350499D01*
X155321156Y-111350500D01*
X155321158Y-111350500D01*
X155478844Y-111350500D01*
X155478845Y-111350499D01*
X155633497Y-111319737D01*
X155779179Y-111259394D01*
X155910289Y-111171789D01*
X156021789Y-111060289D01*
X156109394Y-110929179D01*
X156115290Y-110914946D01*
X156143729Y-110846286D01*
X156169737Y-110783497D01*
X156200500Y-110628842D01*
X156200500Y-110471158D01*
X156200500Y-110471155D01*
X156200499Y-110471153D01*
X156169739Y-110316511D01*
X156169738Y-110316508D01*
X156169737Y-110316503D01*
X156159937Y-110292844D01*
X156150500Y-110245396D01*
X156150500Y-109612520D01*
X156170185Y-109545481D01*
X156222989Y-109499726D01*
X156292147Y-109489782D01*
X156355703Y-109518807D01*
X156393477Y-109577585D01*
X156396973Y-109593122D01*
X156410242Y-109676899D01*
X156410242Y-109676902D01*
X156475904Y-109878989D01*
X156572379Y-110068329D01*
X156697272Y-110240231D01*
X156697276Y-110240236D01*
X156847535Y-110390495D01*
X156847540Y-110390499D01*
X157019442Y-110515392D01*
X157208782Y-110611867D01*
X157410871Y-110677529D01*
X157477000Y-110688003D01*
X157477000Y-109793784D01*
X157534007Y-109826697D01*
X157661174Y-109860772D01*
X157792826Y-109860772D01*
X157919993Y-109826697D01*
X157977000Y-109793784D01*
X157977000Y-110688002D01*
X158043125Y-110677530D01*
X158137181Y-110646969D01*
X158207022Y-110644974D01*
X158266855Y-110681054D01*
X158297684Y-110743754D01*
X158299500Y-110764900D01*
X158299500Y-111701272D01*
X158279815Y-111768311D01*
X158227011Y-111814066D01*
X158175500Y-111825272D01*
X156829129Y-111825272D01*
X156829123Y-111825273D01*
X156769516Y-111831680D01*
X156634671Y-111881974D01*
X156634664Y-111881978D01*
X156519455Y-111968224D01*
X156519452Y-111968227D01*
X156433206Y-112083436D01*
X156433202Y-112083443D01*
X156382908Y-112218289D01*
X156376501Y-112277888D01*
X156376500Y-112277907D01*
X156376500Y-114073642D01*
X156376501Y-114073648D01*
X156382908Y-114133255D01*
X156433202Y-114268100D01*
X156433206Y-114268107D01*
X156519452Y-114383316D01*
X156519455Y-114383319D01*
X156634664Y-114469565D01*
X156634671Y-114469569D01*
X156689690Y-114490090D01*
X156745624Y-114531961D01*
X156770041Y-114597426D01*
X156755189Y-114665699D01*
X156705784Y-114715104D01*
X156646357Y-114730272D01*
X155639453Y-114730272D01*
X155572414Y-114710587D01*
X155551772Y-114693953D01*
X148855976Y-107998157D01*
X148822491Y-107936834D01*
X148827475Y-107867142D01*
X148852000Y-107828981D01*
X148852000Y-107279325D01*
X148851999Y-107279324D01*
X149352000Y-107279324D01*
X149352000Y-107826772D01*
X150299828Y-107826772D01*
X150299844Y-107826771D01*
X150359372Y-107820370D01*
X150359379Y-107820368D01*
X150494086Y-107770126D01*
X150494093Y-107770122D01*
X150609187Y-107683962D01*
X150609190Y-107683959D01*
X150695350Y-107568865D01*
X150695354Y-107568858D01*
X150745596Y-107434151D01*
X150745598Y-107434144D01*
X150751999Y-107374616D01*
X150752000Y-107374599D01*
X150752000Y-106426772D01*
X150204552Y-106426772D01*
X149778777Y-106852549D01*
X149352000Y-107279324D01*
X148851999Y-107279324D01*
X148425223Y-106852549D01*
X148218609Y-106645935D01*
X148452000Y-106645935D01*
X148452000Y-106705609D01*
X148474836Y-106760740D01*
X148517032Y-106802936D01*
X148572163Y-106825772D01*
X148631837Y-106825772D01*
X148686968Y-106802936D01*
X148729164Y-106760740D01*
X148752000Y-106705609D01*
X148752000Y-106645935D01*
X149452000Y-106645935D01*
X149452000Y-106705609D01*
X149474836Y-106760740D01*
X149517032Y-106802936D01*
X149572163Y-106825772D01*
X149631837Y-106825772D01*
X149686968Y-106802936D01*
X149729164Y-106760740D01*
X149752000Y-106705609D01*
X149752000Y-106645935D01*
X149729164Y-106590804D01*
X149686968Y-106548608D01*
X149631837Y-106525772D01*
X149572163Y-106525772D01*
X149517032Y-106548608D01*
X149474836Y-106590804D01*
X149452000Y-106645935D01*
X148752000Y-106645935D01*
X148729164Y-106590804D01*
X148686968Y-106548608D01*
X148631837Y-106525772D01*
X148572163Y-106525772D01*
X148517032Y-106548608D01*
X148474836Y-106590804D01*
X148452000Y-106645935D01*
X148218609Y-106645935D01*
X147999447Y-106426772D01*
X147448695Y-106426772D01*
X147394651Y-106456281D01*
X147324960Y-106451295D01*
X147280614Y-106422795D01*
X147003754Y-106145935D01*
X148952000Y-106145935D01*
X148952000Y-106205609D01*
X148974836Y-106260740D01*
X149017032Y-106302936D01*
X149072163Y-106325772D01*
X149131837Y-106325772D01*
X149186968Y-106302936D01*
X149229164Y-106260740D01*
X149252000Y-106205609D01*
X149252000Y-106145935D01*
X149229164Y-106090804D01*
X149186968Y-106048608D01*
X149131837Y-106025772D01*
X149072163Y-106025772D01*
X149017032Y-106048608D01*
X148974836Y-106090804D01*
X148952000Y-106145935D01*
X147003754Y-106145935D01*
X145836746Y-104978927D01*
X147452000Y-104978927D01*
X147452000Y-105926772D01*
X147997447Y-105926772D01*
X147997447Y-105926771D01*
X148278283Y-105645935D01*
X148452000Y-105645935D01*
X148452000Y-105705609D01*
X148474836Y-105760740D01*
X148517032Y-105802936D01*
X148572163Y-105825772D01*
X148631837Y-105825772D01*
X148686968Y-105802936D01*
X148729164Y-105760740D01*
X148752000Y-105705609D01*
X148752000Y-105645935D01*
X149452000Y-105645935D01*
X149452000Y-105705609D01*
X149474836Y-105760740D01*
X149517032Y-105802936D01*
X149572163Y-105825772D01*
X149631837Y-105825772D01*
X149686968Y-105802936D01*
X149729164Y-105760740D01*
X149752000Y-105705609D01*
X149752000Y-105645935D01*
X149729164Y-105590804D01*
X149686968Y-105548608D01*
X149631837Y-105525772D01*
X149572163Y-105525772D01*
X149517032Y-105548608D01*
X149474836Y-105590804D01*
X149452000Y-105645935D01*
X148752000Y-105645935D01*
X148729164Y-105590804D01*
X148686968Y-105548608D01*
X148631837Y-105525772D01*
X148572163Y-105525772D01*
X148517032Y-105548608D01*
X148474836Y-105590804D01*
X148452000Y-105645935D01*
X148278283Y-105645935D01*
X148425223Y-105498995D01*
X148851999Y-105072218D01*
X149352000Y-105072218D01*
X149778777Y-105498995D01*
X150206552Y-105926771D01*
X150206553Y-105926772D01*
X150752000Y-105926772D01*
X150752000Y-104978944D01*
X150751999Y-104978927D01*
X150745598Y-104919399D01*
X150745596Y-104919392D01*
X150695354Y-104784685D01*
X150695350Y-104784678D01*
X150609190Y-104669584D01*
X150609187Y-104669581D01*
X150494093Y-104583421D01*
X150494086Y-104583417D01*
X150359379Y-104533175D01*
X150359372Y-104533173D01*
X150299844Y-104526772D01*
X149352000Y-104526772D01*
X149352000Y-105072218D01*
X148851999Y-105072218D01*
X148852000Y-105072217D01*
X148852000Y-104526772D01*
X147904155Y-104526772D01*
X147844627Y-104533173D01*
X147844620Y-104533175D01*
X147709913Y-104583417D01*
X147709906Y-104583421D01*
X147594812Y-104669581D01*
X147594809Y-104669584D01*
X147508649Y-104784678D01*
X147508645Y-104784685D01*
X147458403Y-104919392D01*
X147458401Y-104919399D01*
X147452000Y-104978927D01*
X145836746Y-104978927D01*
X139092974Y-98235155D01*
X139059489Y-98173832D01*
X139056655Y-98147474D01*
X139056655Y-89424170D01*
X139076340Y-89357131D01*
X139129144Y-89311376D01*
X139198302Y-89301432D01*
X139261858Y-89330457D01*
G37*
%TD.AperFunction*%
%TA.AperFunction,Conductor*%
G36*
X138214260Y-110433424D02*
G01*
X138241984Y-110438222D01*
X138247340Y-110443137D01*
X138254312Y-110445185D01*
X138272729Y-110466439D01*
X138293460Y-110485466D01*
X138295308Y-110492496D01*
X138300067Y-110497989D01*
X138304070Y-110525833D01*
X138311222Y-110553040D01*
X138309452Y-110563264D01*
X138310011Y-110567147D01*
X138305204Y-110587817D01*
X138280243Y-110664638D01*
X138280242Y-110664645D01*
X138269769Y-110730772D01*
X139163988Y-110730772D01*
X139131075Y-110787779D01*
X139097000Y-110914946D01*
X139097000Y-111046598D01*
X139131075Y-111173765D01*
X139163988Y-111230772D01*
X138269769Y-111230772D01*
X138280242Y-111296898D01*
X138280242Y-111296901D01*
X138345904Y-111498989D01*
X138442379Y-111688329D01*
X138567272Y-111860231D01*
X138567276Y-111860236D01*
X138717535Y-112010495D01*
X138717540Y-112010499D01*
X138889446Y-112135395D01*
X138889447Y-112135396D01*
X139009360Y-112196496D01*
X139060156Y-112244470D01*
X139076951Y-112312291D01*
X139054413Y-112378426D01*
X139040746Y-112394661D01*
X138062181Y-113373227D01*
X138000858Y-113406712D01*
X137931167Y-113401728D01*
X137875233Y-113359856D01*
X137850816Y-113294392D01*
X137850500Y-113285546D01*
X137850500Y-113173713D01*
X137817246Y-112963760D01*
X137817246Y-112963757D01*
X137751557Y-112761588D01*
X137655051Y-112572184D01*
X137655049Y-112572181D01*
X137655048Y-112572179D01*
X137530109Y-112400213D01*
X137379786Y-112249890D01*
X137207820Y-112124951D01*
X137207115Y-112124591D01*
X137199054Y-112120485D01*
X137148259Y-112072512D01*
X137131463Y-112004692D01*
X137153999Y-111938556D01*
X137199054Y-111899515D01*
X137207816Y-111895051D01*
X137295038Y-111831681D01*
X137379786Y-111770109D01*
X137379788Y-111770106D01*
X137379792Y-111770104D01*
X137530104Y-111619792D01*
X137530106Y-111619788D01*
X137530109Y-111619786D01*
X137655048Y-111447820D01*
X137655047Y-111447820D01*
X137655051Y-111447816D01*
X137751557Y-111258412D01*
X137817246Y-111056243D01*
X137850500Y-110846287D01*
X137850500Y-110633713D01*
X137840234Y-110568897D01*
X137849188Y-110499605D01*
X137894185Y-110446153D01*
X137960936Y-110425513D01*
X137962707Y-110425500D01*
X138187273Y-110425500D01*
X138214260Y-110433424D01*
G37*
%TD.AperFunction*%
%TA.AperFunction,Conductor*%
G36*
X137652543Y-106519867D02*
G01*
X137696890Y-106548368D01*
X138552018Y-107403496D01*
X138585503Y-107464819D01*
X138580519Y-107534511D01*
X138564656Y-107564062D01*
X138441948Y-107732956D01*
X138345444Y-107922357D01*
X138279753Y-108124532D01*
X138246500Y-108334485D01*
X138246500Y-108547058D01*
X138270723Y-108700000D01*
X138279754Y-108757015D01*
X138328668Y-108907557D01*
X138345444Y-108959186D01*
X138363287Y-108994205D01*
X138376183Y-109062874D01*
X138349907Y-109127615D01*
X138292800Y-109167872D01*
X138252802Y-109174500D01*
X137704040Y-109174500D01*
X137637001Y-109154815D01*
X137591246Y-109102011D01*
X137581302Y-109032853D01*
X137603722Y-108977615D01*
X137654620Y-108907557D01*
X137751095Y-108718217D01*
X137816757Y-108516129D01*
X137816757Y-108516126D01*
X137827231Y-108450000D01*
X136933012Y-108450000D01*
X136965925Y-108392993D01*
X137000000Y-108265826D01*
X137000000Y-108134174D01*
X136965925Y-108007007D01*
X136933012Y-107950000D01*
X137827231Y-107950000D01*
X137816757Y-107883873D01*
X137816757Y-107883870D01*
X137751095Y-107681782D01*
X137654620Y-107492442D01*
X137529727Y-107320540D01*
X137529723Y-107320535D01*
X137379464Y-107170276D01*
X137379459Y-107170272D01*
X137207555Y-107045377D01*
X137198500Y-107040763D01*
X137147706Y-106992788D01*
X137130912Y-106924966D01*
X137153451Y-106858832D01*
X137198508Y-106819793D01*
X137207816Y-106815051D01*
X137301814Y-106746758D01*
X137379786Y-106690109D01*
X137379788Y-106690106D01*
X137379792Y-106690104D01*
X137521528Y-106548368D01*
X137582851Y-106514883D01*
X137652543Y-106519867D01*
G37*
%TD.AperFunction*%
%TA.AperFunction,Conductor*%
G36*
X140807089Y-74930014D02*
G01*
X140851436Y-74958515D01*
X140864707Y-74971786D01*
X140864711Y-74971789D01*
X140995814Y-75059390D01*
X140995827Y-75059397D01*
X141115255Y-75108865D01*
X141141503Y-75119737D01*
X141296153Y-75150499D01*
X141296156Y-75150500D01*
X141296158Y-75150500D01*
X141453844Y-75150500D01*
X141453845Y-75150499D01*
X141608497Y-75119737D01*
X141692218Y-75085058D01*
X141761684Y-75077590D01*
X141824163Y-75108865D01*
X141827349Y-75111939D01*
X144285931Y-77570521D01*
X144319416Y-77631844D01*
X144314432Y-77701536D01*
X144272560Y-77757469D01*
X144236569Y-77776132D01*
X144205139Y-77786345D01*
X144088583Y-77824216D01*
X143899179Y-77920723D01*
X143727213Y-78045662D01*
X143576890Y-78195985D01*
X143451951Y-78367951D01*
X143355444Y-78557357D01*
X143289753Y-78759532D01*
X143256500Y-78969485D01*
X143256500Y-79182058D01*
X143289642Y-79391313D01*
X143289754Y-79392015D01*
X143345380Y-79563214D01*
X143355444Y-79594186D01*
X143451951Y-79783592D01*
X143576890Y-79955558D01*
X143727213Y-80105881D01*
X143899179Y-80230820D01*
X143899181Y-80230821D01*
X143899184Y-80230823D01*
X144088588Y-80327329D01*
X144290757Y-80393018D01*
X144500713Y-80426272D01*
X144500714Y-80426272D01*
X144713286Y-80426272D01*
X144713287Y-80426272D01*
X144923243Y-80393018D01*
X144938840Y-80387949D01*
X145008679Y-80385955D01*
X145064838Y-80418200D01*
X146365181Y-81718543D01*
X146398666Y-81779866D01*
X146401500Y-81806224D01*
X146401500Y-92816620D01*
X146401500Y-92939834D01*
X146404161Y-92953211D01*
X146425537Y-93060679D01*
X146429284Y-93069724D01*
X146433243Y-93079282D01*
X146433244Y-93079286D01*
X146472685Y-93174507D01*
X146472690Y-93174516D01*
X146506914Y-93225734D01*
X146506915Y-93225736D01*
X146541141Y-93276960D01*
X146632586Y-93368405D01*
X146632608Y-93368425D01*
X148842774Y-95578591D01*
X148853386Y-95598027D01*
X148867887Y-95614761D01*
X148869803Y-95628092D01*
X148876259Y-95639914D01*
X148874679Y-95662000D01*
X148877831Y-95683919D01*
X148872235Y-95696170D01*
X148871275Y-95709606D01*
X148858004Y-95727332D01*
X148848806Y-95747475D01*
X148837474Y-95754757D01*
X148829403Y-95765539D01*
X148808657Y-95773276D01*
X148790028Y-95785249D01*
X148768109Y-95788400D01*
X148763939Y-95789956D01*
X148755093Y-95790272D01*
X148603322Y-95790272D01*
X148536283Y-95770587D01*
X148515641Y-95753953D01*
X140678250Y-87916562D01*
X140644765Y-87855239D01*
X140641931Y-87828881D01*
X140641931Y-84017070D01*
X140661616Y-83950031D01*
X140714420Y-83904276D01*
X140722580Y-83900895D01*
X140733762Y-83896725D01*
X140757249Y-83879143D01*
X140822749Y-83830109D01*
X140848977Y-83810475D01*
X140935227Y-83695260D01*
X140985522Y-83560412D01*
X140991931Y-83500802D01*
X140991930Y-81705057D01*
X140986627Y-81655721D01*
X140985522Y-81645445D01*
X140935228Y-81510600D01*
X140935224Y-81510593D01*
X140848978Y-81395384D01*
X140848975Y-81395381D01*
X140733766Y-81309135D01*
X140733759Y-81309131D01*
X140601832Y-81259926D01*
X140545898Y-81218055D01*
X140521481Y-81152591D01*
X140536333Y-81084318D01*
X140557484Y-81056062D01*
X140671159Y-80942387D01*
X140796051Y-80770486D01*
X140892526Y-80581146D01*
X140958188Y-80379058D01*
X140958188Y-80379055D01*
X140968662Y-80312929D01*
X140074443Y-80312929D01*
X140107356Y-80255922D01*
X140141431Y-80128755D01*
X140141431Y-79997103D01*
X140107356Y-79869936D01*
X140074443Y-79812929D01*
X140968662Y-79812929D01*
X140958188Y-79746802D01*
X140958188Y-79746799D01*
X140892526Y-79544711D01*
X140796051Y-79355371D01*
X140671158Y-79183469D01*
X140671154Y-79183464D01*
X140520895Y-79033205D01*
X140520890Y-79033201D01*
X140348986Y-78908306D01*
X140339931Y-78903692D01*
X140289137Y-78855717D01*
X140272343Y-78787895D01*
X140294882Y-78721761D01*
X140339939Y-78682722D01*
X140349247Y-78677980D01*
X140443025Y-78609847D01*
X140521217Y-78553038D01*
X140521219Y-78553035D01*
X140521223Y-78553033D01*
X140671535Y-78402721D01*
X140671537Y-78402717D01*
X140671540Y-78402715D01*
X140796479Y-78230749D01*
X140796478Y-78230749D01*
X140796482Y-78230745D01*
X140892988Y-78041341D01*
X140958677Y-77839172D01*
X140991931Y-77629216D01*
X140991931Y-77416642D01*
X140958677Y-77206686D01*
X140892988Y-77004517D01*
X140796482Y-76815113D01*
X140796480Y-76815110D01*
X140796479Y-76815108D01*
X140671540Y-76643142D01*
X140521217Y-76492819D01*
X140349251Y-76367880D01*
X140159845Y-76271373D01*
X140159844Y-76271372D01*
X140159843Y-76271372D01*
X139957674Y-76205683D01*
X139957672Y-76205682D01*
X139957671Y-76205682D01*
X139790975Y-76179280D01*
X139747718Y-76172429D01*
X139747717Y-76172429D01*
X139742906Y-76171667D01*
X139743220Y-76169682D01*
X139685843Y-76147808D01*
X139644378Y-76091572D01*
X139639898Y-76021847D01*
X139673189Y-75961400D01*
X140020426Y-75614163D01*
X140676076Y-74958513D01*
X140737397Y-74925030D01*
X140807089Y-74930014D01*
G37*
%TD.AperFunction*%
%TA.AperFunction,Conductor*%
G36*
X147857703Y-89642739D02*
G01*
X147864181Y-89648771D01*
X148964181Y-90748771D01*
X148997666Y-90810094D01*
X149000500Y-90836452D01*
X149000500Y-93667775D01*
X148980815Y-93734814D01*
X148928011Y-93780569D01*
X148858853Y-93790513D01*
X148795297Y-93761488D01*
X148788819Y-93755456D01*
X147688819Y-92655456D01*
X147655334Y-92594133D01*
X147652500Y-92567775D01*
X147652500Y-89736452D01*
X147672185Y-89669413D01*
X147724989Y-89623658D01*
X147794147Y-89613714D01*
X147857703Y-89642739D01*
G37*
%TD.AperFunction*%
%TA.AperFunction,Conductor*%
G36*
X152944539Y-80445956D02*
G01*
X152990294Y-80498760D01*
X153001500Y-80550271D01*
X153001500Y-86131717D01*
X152981815Y-86198756D01*
X152929011Y-86244511D01*
X152859853Y-86254455D01*
X152808609Y-86234819D01*
X152706185Y-86166381D01*
X152706172Y-86166374D01*
X152560501Y-86106036D01*
X152560489Y-86106033D01*
X152405845Y-86075272D01*
X152405842Y-86075272D01*
X152248158Y-86075272D01*
X152248155Y-86075272D01*
X152093510Y-86106033D01*
X152093498Y-86106036D01*
X151947827Y-86166374D01*
X151947816Y-86166380D01*
X151869390Y-86218783D01*
X151802713Y-86239660D01*
X151735333Y-86221175D01*
X151688643Y-86169196D01*
X151676500Y-86115680D01*
X151676500Y-80550271D01*
X151696185Y-80483232D01*
X151748989Y-80437477D01*
X151800500Y-80426271D01*
X152877500Y-80426271D01*
X152944539Y-80445956D01*
G37*
%TD.AperFunction*%
%TA.AperFunction,Conductor*%
G36*
X149937000Y-80403002D02*
G01*
X150003126Y-80392529D01*
X150003129Y-80392529D01*
X150205219Y-80326866D01*
X150245204Y-80306493D01*
X150313873Y-80293596D01*
X150378613Y-80319871D01*
X150418871Y-80376977D01*
X150425500Y-80416977D01*
X150425500Y-85590320D01*
X150405815Y-85657359D01*
X150353011Y-85703114D01*
X150283853Y-85713058D01*
X150220297Y-85684033D01*
X150213819Y-85678001D01*
X149152793Y-84616975D01*
X149119308Y-84555652D01*
X149118887Y-84553636D01*
X149096737Y-84442275D01*
X149066561Y-84369424D01*
X149036397Y-84296599D01*
X149036390Y-84296586D01*
X148948789Y-84165483D01*
X148948786Y-84165479D01*
X148837292Y-84053985D01*
X148837288Y-84053982D01*
X148706185Y-83966381D01*
X148706172Y-83966374D01*
X148560501Y-83906036D01*
X148560491Y-83906033D01*
X148425308Y-83879143D01*
X148363397Y-83846758D01*
X148328823Y-83786042D01*
X148325500Y-83757526D01*
X148325500Y-81469357D01*
X148321550Y-81449500D01*
X148318500Y-81434166D01*
X148317672Y-81430004D01*
X148301464Y-81348516D01*
X148301463Y-81348515D01*
X148301463Y-81348511D01*
X148301460Y-81348505D01*
X148301459Y-81348500D01*
X148254314Y-81234681D01*
X148254313Y-81234679D01*
X148254312Y-81234676D01*
X148215526Y-81176630D01*
X148185858Y-81132229D01*
X148098733Y-81045104D01*
X148098729Y-81045101D01*
X147593798Y-80540170D01*
X147560313Y-80478847D01*
X147565297Y-80409155D01*
X147607169Y-80353222D01*
X147643156Y-80334560D01*
X147665412Y-80327329D01*
X147854816Y-80230823D01*
X147893058Y-80203039D01*
X148026786Y-80105881D01*
X148026788Y-80105878D01*
X148026792Y-80105876D01*
X148177104Y-79955564D01*
X148177106Y-79955560D01*
X148177109Y-79955558D01*
X148279399Y-79814766D01*
X148302051Y-79783588D01*
X148306793Y-79774280D01*
X148354763Y-79723483D01*
X148422583Y-79706683D01*
X148488719Y-79729217D01*
X148527763Y-79774272D01*
X148532377Y-79783327D01*
X148657272Y-79955231D01*
X148657276Y-79955236D01*
X148807535Y-80105495D01*
X148807540Y-80105499D01*
X148979442Y-80230392D01*
X149168782Y-80326867D01*
X149370871Y-80392529D01*
X149437000Y-80403003D01*
X149437000Y-79508784D01*
X149494007Y-79541697D01*
X149621174Y-79575772D01*
X149752826Y-79575772D01*
X149879993Y-79541697D01*
X149937000Y-79508784D01*
X149937000Y-80403002D01*
G37*
%TD.AperFunction*%
%TA.AperFunction,Conductor*%
G36*
X155408703Y-83442511D02*
G01*
X155415181Y-83448543D01*
X156534572Y-84567934D01*
X156568057Y-84629257D01*
X156563073Y-84698949D01*
X156557376Y-84711910D01*
X156495904Y-84832554D01*
X156430242Y-85034642D01*
X156430242Y-85034645D01*
X156419769Y-85100772D01*
X157313988Y-85100772D01*
X157281075Y-85157779D01*
X157247000Y-85284946D01*
X157247000Y-85416598D01*
X157281075Y-85543765D01*
X157313988Y-85600772D01*
X156392952Y-85600772D01*
X156325913Y-85581087D01*
X156305271Y-85564453D01*
X155239819Y-84499001D01*
X155206334Y-84437678D01*
X155203500Y-84411320D01*
X155203500Y-83536224D01*
X155223185Y-83469185D01*
X155275989Y-83423430D01*
X155345147Y-83413486D01*
X155408703Y-83442511D01*
G37*
%TD.AperFunction*%
%TA.AperFunction,Conductor*%
G36*
X162169539Y-63495957D02*
G01*
X162215294Y-63548761D01*
X162226500Y-63600272D01*
X162226500Y-78838185D01*
X162206815Y-78905224D01*
X162154011Y-78950979D01*
X162084853Y-78960923D01*
X162059167Y-78954367D01*
X161957380Y-78916403D01*
X161957372Y-78916401D01*
X161897844Y-78910000D01*
X161250000Y-78910000D01*
X161250000Y-79826988D01*
X161192993Y-79794075D01*
X161065826Y-79760000D01*
X160934174Y-79760000D01*
X160807007Y-79794075D01*
X160750000Y-79826988D01*
X160750000Y-78910000D01*
X160376500Y-78910000D01*
X160309461Y-78890315D01*
X160263706Y-78837511D01*
X160252500Y-78786000D01*
X160252500Y-75743513D01*
X160252501Y-75743492D01*
X160252501Y-75614163D01*
X160228464Y-75493327D01*
X160228463Y-75493321D01*
X160181312Y-75379487D01*
X160112858Y-75277039D01*
X160112855Y-75277035D01*
X157288819Y-72452999D01*
X157255334Y-72391676D01*
X157252500Y-72365318D01*
X157252500Y-69119945D01*
X157801500Y-69119945D01*
X157801500Y-69277638D01*
X157832261Y-69432281D01*
X157832264Y-69432293D01*
X157892602Y-69577964D01*
X157892609Y-69577977D01*
X157980210Y-69709080D01*
X157980213Y-69709084D01*
X158091707Y-69820578D01*
X158091711Y-69820581D01*
X158222814Y-69908182D01*
X158222827Y-69908189D01*
X158368498Y-69968527D01*
X158368503Y-69968529D01*
X158508770Y-69996430D01*
X158523153Y-69999291D01*
X158523156Y-69999292D01*
X158523158Y-69999292D01*
X158680844Y-69999292D01*
X158680845Y-69999291D01*
X158835497Y-69968529D01*
X158981179Y-69908186D01*
X159112289Y-69820581D01*
X159223789Y-69709081D01*
X159311394Y-69577971D01*
X159371737Y-69432289D01*
X159402500Y-69277634D01*
X159402500Y-69119950D01*
X159402500Y-69119947D01*
X159402499Y-69119945D01*
X159371738Y-68965302D01*
X159371737Y-68965295D01*
X159341924Y-68893320D01*
X159311397Y-68819619D01*
X159311390Y-68819606D01*
X159223789Y-68688503D01*
X159223786Y-68688499D01*
X159112292Y-68577005D01*
X159112288Y-68577002D01*
X158981185Y-68489401D01*
X158981172Y-68489394D01*
X158835501Y-68429056D01*
X158835489Y-68429053D01*
X158680845Y-68398292D01*
X158680842Y-68398292D01*
X158523158Y-68398292D01*
X158523155Y-68398292D01*
X158368510Y-68429053D01*
X158368498Y-68429056D01*
X158222827Y-68489394D01*
X158222814Y-68489401D01*
X158091711Y-68577002D01*
X158091707Y-68577005D01*
X157980213Y-68688499D01*
X157980210Y-68688503D01*
X157892609Y-68819606D01*
X157892602Y-68819619D01*
X157832264Y-68965290D01*
X157832261Y-68965302D01*
X157801500Y-69119945D01*
X157252500Y-69119945D01*
X157252500Y-69014165D01*
X157252499Y-69014161D01*
X157228463Y-68893320D01*
X157200620Y-68826101D01*
X157200620Y-68826100D01*
X157181315Y-68779493D01*
X157181308Y-68779480D01*
X157112859Y-68677040D01*
X157112858Y-68677039D01*
X156804387Y-68368569D01*
X156770904Y-68307248D01*
X156770483Y-68305232D01*
X156748333Y-68193871D01*
X156724195Y-68135598D01*
X156687993Y-68048195D01*
X156687986Y-68048182D01*
X156600385Y-67917079D01*
X156600382Y-67917075D01*
X156488888Y-67805581D01*
X156488884Y-67805578D01*
X156357781Y-67717977D01*
X156357768Y-67717970D01*
X156212097Y-67657632D01*
X156212085Y-67657629D01*
X156057441Y-67626868D01*
X156057438Y-67626868D01*
X155899754Y-67626868D01*
X155899751Y-67626868D01*
X155745106Y-67657629D01*
X155745094Y-67657632D01*
X155599423Y-67717970D01*
X155599410Y-67717977D01*
X155517399Y-67772776D01*
X155450721Y-67793654D01*
X155383341Y-67775169D01*
X155336651Y-67723191D01*
X155326891Y-67693865D01*
X155297336Y-67545286D01*
X155296737Y-67542275D01*
X155270575Y-67479114D01*
X155236397Y-67396599D01*
X155236390Y-67396586D01*
X155148789Y-67265483D01*
X155148786Y-67265479D01*
X155037292Y-67153985D01*
X155037288Y-67153982D01*
X154906185Y-67066381D01*
X154906172Y-67066374D01*
X154760501Y-67006036D01*
X154760489Y-67006033D01*
X154605845Y-66975272D01*
X154605842Y-66975272D01*
X154476500Y-66975272D01*
X154409461Y-66955587D01*
X154363706Y-66902783D01*
X154352500Y-66851272D01*
X154352500Y-65514165D01*
X154352499Y-65514161D01*
X154341691Y-65459825D01*
X154328463Y-65393320D01*
X154281311Y-65279486D01*
X154281310Y-65279485D01*
X154281307Y-65279479D01*
X154212858Y-65177039D01*
X154212855Y-65177035D01*
X154122637Y-65086817D01*
X154122606Y-65086788D01*
X153320150Y-64284332D01*
X153312860Y-64277042D01*
X153312858Y-64277039D01*
X153225733Y-64189914D01*
X153174509Y-64155687D01*
X153123286Y-64121460D01*
X153123283Y-64121458D01*
X153123280Y-64121457D01*
X153049603Y-64090940D01*
X153049601Y-64090939D01*
X153042792Y-64088119D01*
X153009452Y-64074309D01*
X152949029Y-64062290D01*
X152944306Y-64061350D01*
X152944304Y-64061350D01*
X152888610Y-64050272D01*
X152888607Y-64050272D01*
X152888606Y-64050272D01*
X148288606Y-64050272D01*
X148165393Y-64050272D01*
X148165388Y-64050272D01*
X148044555Y-64074307D01*
X148044547Y-64074309D01*
X147930716Y-64121459D01*
X147828265Y-64189914D01*
X147828262Y-64189917D01*
X147468203Y-64549977D01*
X147406880Y-64583462D01*
X147404714Y-64583913D01*
X147293508Y-64606033D01*
X147293498Y-64606036D01*
X147147827Y-64666374D01*
X147147814Y-64666381D01*
X147016711Y-64753982D01*
X147016707Y-64753985D01*
X146905213Y-64865479D01*
X146905210Y-64865483D01*
X146817609Y-64996586D01*
X146817602Y-64996599D01*
X146757264Y-65142270D01*
X146757261Y-65142282D01*
X146726500Y-65296925D01*
X146726500Y-65454618D01*
X146757261Y-65609261D01*
X146757264Y-65609273D01*
X146817602Y-65754944D01*
X146817610Y-65754959D01*
X146854601Y-65810318D01*
X146875480Y-65876995D01*
X146875500Y-65879210D01*
X146875500Y-66938548D01*
X146855815Y-67005587D01*
X146839181Y-67026229D01*
X138817336Y-75048074D01*
X138756013Y-75081559D01*
X138686321Y-75076575D01*
X138630388Y-75034703D01*
X138605971Y-74969239D01*
X138605655Y-74960393D01*
X138605655Y-74377785D01*
X138625340Y-74310746D01*
X138641970Y-74290107D01*
X138671789Y-74260289D01*
X138759394Y-74129179D01*
X138819737Y-73983497D01*
X138850500Y-73828842D01*
X138850500Y-73671158D01*
X138850500Y-73671155D01*
X138850499Y-73671153D01*
X138819738Y-73516510D01*
X138819737Y-73516503D01*
X138767964Y-73391511D01*
X138759397Y-73370827D01*
X138759390Y-73370814D01*
X138671789Y-73239711D01*
X138671786Y-73239707D01*
X138560292Y-73128213D01*
X138560288Y-73128210D01*
X138429185Y-73040609D01*
X138429172Y-73040602D01*
X138283501Y-72980264D01*
X138283489Y-72980261D01*
X138128845Y-72949500D01*
X138128842Y-72949500D01*
X137971158Y-72949500D01*
X137971155Y-72949500D01*
X137816510Y-72980261D01*
X137816498Y-72980264D01*
X137670827Y-73040602D01*
X137670814Y-73040609D01*
X137539711Y-73128210D01*
X137539707Y-73128213D01*
X137428213Y-73239707D01*
X137428210Y-73239711D01*
X137340609Y-73370814D01*
X137340602Y-73370827D01*
X137280264Y-73516498D01*
X137280261Y-73516510D01*
X137249500Y-73671153D01*
X137249500Y-73828846D01*
X137280261Y-73983489D01*
X137280264Y-73983501D01*
X137342937Y-74134808D01*
X137341815Y-74135272D01*
X137354655Y-74186523D01*
X137354655Y-78786000D01*
X137334970Y-78853039D01*
X137282166Y-78898794D01*
X137230655Y-78910000D01*
X136750000Y-78910000D01*
X136750000Y-79826988D01*
X136692993Y-79794075D01*
X136565826Y-79760000D01*
X136434174Y-79760000D01*
X136307007Y-79794075D01*
X136250000Y-79826988D01*
X136250000Y-78910000D01*
X135602155Y-78910000D01*
X135542627Y-78916401D01*
X135535070Y-78918187D01*
X135534626Y-78916310D01*
X135475123Y-78920557D01*
X135413805Y-78887062D01*
X135380330Y-78825734D01*
X135377500Y-78799395D01*
X135377500Y-66496925D01*
X140726500Y-66496925D01*
X140726500Y-66654618D01*
X140757261Y-66809261D01*
X140757264Y-66809273D01*
X140817602Y-66954944D01*
X140817609Y-66954957D01*
X140905210Y-67086060D01*
X140905213Y-67086064D01*
X141016707Y-67197558D01*
X141016711Y-67197561D01*
X141147814Y-67285162D01*
X141147827Y-67285169D01*
X141209241Y-67310607D01*
X141293503Y-67345509D01*
X141448153Y-67376271D01*
X141448156Y-67376272D01*
X141448158Y-67376272D01*
X141605844Y-67376272D01*
X141605845Y-67376271D01*
X141760497Y-67345509D01*
X141906179Y-67285166D01*
X142037289Y-67197561D01*
X142148789Y-67086061D01*
X142236394Y-66954951D01*
X142296737Y-66809269D01*
X142327500Y-66654614D01*
X142327500Y-66496930D01*
X142327500Y-66496927D01*
X142327499Y-66496925D01*
X142296738Y-66342282D01*
X142296737Y-66342275D01*
X142257695Y-66248018D01*
X142236397Y-66196599D01*
X142236390Y-66196586D01*
X142148789Y-66065483D01*
X142148786Y-66065479D01*
X142037292Y-65953985D01*
X142037288Y-65953982D01*
X141906185Y-65866381D01*
X141906172Y-65866374D01*
X141760501Y-65806036D01*
X141760489Y-65806033D01*
X141605845Y-65775272D01*
X141605842Y-65775272D01*
X141448158Y-65775272D01*
X141448155Y-65775272D01*
X141293510Y-65806033D01*
X141293498Y-65806036D01*
X141147827Y-65866374D01*
X141147814Y-65866381D01*
X141016711Y-65953982D01*
X141016707Y-65953985D01*
X140905213Y-66065479D01*
X140905210Y-66065483D01*
X140817609Y-66196586D01*
X140817602Y-66196599D01*
X140757264Y-66342270D01*
X140757261Y-66342282D01*
X140726500Y-66496925D01*
X135377500Y-66496925D01*
X135377500Y-63600272D01*
X135397185Y-63533233D01*
X135449989Y-63487478D01*
X135501500Y-63476272D01*
X162102500Y-63476272D01*
X162169539Y-63495957D01*
G37*
%TD.AperFunction*%
%TA.AperFunction,Conductor*%
G36*
X148233954Y-67397058D02*
G01*
X148266574Y-67405384D01*
X148268070Y-67406546D01*
X148268839Y-67406760D01*
X148269952Y-67408008D01*
X148290984Y-67424346D01*
X150389181Y-69522543D01*
X150422666Y-69583866D01*
X150425500Y-69610224D01*
X150425500Y-77734566D01*
X150405815Y-77801605D01*
X150353011Y-77847360D01*
X150283853Y-77857304D01*
X150245206Y-77845051D01*
X150205220Y-77824677D01*
X150205216Y-77824675D01*
X150003124Y-77759013D01*
X149937000Y-77748540D01*
X149937000Y-78642760D01*
X149879993Y-78609847D01*
X149752826Y-78575772D01*
X149621174Y-78575772D01*
X149494007Y-78609847D01*
X149437000Y-78642760D01*
X149437000Y-77748540D01*
X149436999Y-77748540D01*
X149370875Y-77759013D01*
X149168784Y-77824675D01*
X148979442Y-77921151D01*
X148807540Y-78046044D01*
X148807535Y-78046048D01*
X148657276Y-78196307D01*
X148657272Y-78196312D01*
X148532378Y-78368215D01*
X148527762Y-78377274D01*
X148479784Y-78428067D01*
X148411963Y-78444859D01*
X148345829Y-78422318D01*
X148306794Y-78377265D01*
X148302051Y-78367956D01*
X148302049Y-78367953D01*
X148302048Y-78367951D01*
X148177109Y-78195985D01*
X148026786Y-78045662D01*
X147854820Y-77920723D01*
X147665414Y-77824216D01*
X147665413Y-77824215D01*
X147665412Y-77824215D01*
X147463243Y-77758526D01*
X147463241Y-77758525D01*
X147463240Y-77758525D01*
X147301957Y-77732980D01*
X147253287Y-77725272D01*
X147040713Y-77725272D01*
X146992042Y-77732980D01*
X146830760Y-77758525D01*
X146628582Y-77824217D01*
X146494900Y-77892331D01*
X146426231Y-77905227D01*
X146361491Y-77878950D01*
X146349626Y-77868209D01*
X146341770Y-77860114D01*
X146335858Y-77851267D01*
X146248733Y-77764142D01*
X146248729Y-77764139D01*
X142440198Y-73955608D01*
X142440178Y-73955586D01*
X142348736Y-73864144D01*
X142348728Y-73864138D01*
X142280984Y-73818873D01*
X142280982Y-73818872D01*
X142273794Y-73814069D01*
X142246286Y-73795688D01*
X142155872Y-73758238D01*
X142152602Y-73756883D01*
X142152599Y-73756882D01*
X142129673Y-73747386D01*
X142075270Y-73703545D01*
X142053205Y-73637251D01*
X142070484Y-73569551D01*
X142089441Y-73545148D01*
X147899729Y-67734860D01*
X147899733Y-67734858D01*
X147986858Y-67647733D01*
X148055311Y-67545286D01*
X148055312Y-67545285D01*
X148089265Y-67463313D01*
X148089781Y-67462140D01*
X148111464Y-67436377D01*
X148132581Y-67410172D01*
X148133886Y-67409737D01*
X148134773Y-67408684D01*
X148166939Y-67398735D01*
X148198875Y-67388106D01*
X148200208Y-67388446D01*
X148201523Y-67388040D01*
X148233954Y-67397058D01*
G37*
%TD.AperFunction*%
%TA.AperFunction,Conductor*%
G36*
X151881703Y-70015511D02*
G01*
X151888181Y-70021543D01*
X152965181Y-71098543D01*
X152998666Y-71159866D01*
X153001500Y-71186224D01*
X153001500Y-77601272D01*
X152981815Y-77668311D01*
X152929011Y-77714066D01*
X152877500Y-77725272D01*
X151800500Y-77725272D01*
X151733461Y-77705587D01*
X151687706Y-77652783D01*
X151676500Y-77601272D01*
X151676500Y-70109224D01*
X151696185Y-70042185D01*
X151748989Y-69996430D01*
X151818147Y-69986486D01*
X151881703Y-70015511D01*
G37*
%TD.AperFunction*%
%TA.AperFunction,Conductor*%
G36*
X151069539Y-65320957D02*
G01*
X151115294Y-65373761D01*
X151126500Y-65425272D01*
X151126500Y-65454618D01*
X151157261Y-65609261D01*
X151157264Y-65609273D01*
X151217602Y-65754944D01*
X151217609Y-65754956D01*
X151280602Y-65849231D01*
X151301480Y-65915908D01*
X151301500Y-65918122D01*
X151301500Y-67366320D01*
X151281815Y-67433359D01*
X151229011Y-67479114D01*
X151159853Y-67489058D01*
X151096297Y-67460033D01*
X151089819Y-67454001D01*
X150388819Y-66753001D01*
X150355334Y-66691678D01*
X150352500Y-66665320D01*
X150352500Y-65918122D01*
X150372185Y-65851083D01*
X150373398Y-65849231D01*
X150382999Y-65834862D01*
X150436394Y-65754951D01*
X150496737Y-65609269D01*
X150527500Y-65454614D01*
X150527500Y-65425272D01*
X150547185Y-65358233D01*
X150599989Y-65312478D01*
X150651500Y-65301272D01*
X151002500Y-65301272D01*
X151069539Y-65320957D01*
G37*
%TD.AperFunction*%
%TD*%
M02*
