%TF.GenerationSoftware,KiCad,Pcbnew,9.0.0*%
%TF.CreationDate,2025-04-24T12:01:06-04:00*%
%TF.ProjectId,Tiny4FSKGeneralShield,54696e79-3446-4534-9b47-656e6572616c,rev?*%
%TF.SameCoordinates,Original*%
%TF.FileFunction,Copper,L3,Inr*%
%TF.FilePolarity,Positive*%
%FSLAX46Y46*%
G04 Gerber Fmt 4.6, Leading zero omitted, Abs format (unit mm)*
G04 Created by KiCad (PCBNEW 9.0.0) date 2025-04-24 12:01:06*
%MOMM*%
%LPD*%
G01*
G04 APERTURE LIST*
%TA.AperFunction,ComponentPad*%
%ADD10R,1.700000X1.700000*%
%TD*%
%TA.AperFunction,ComponentPad*%
%ADD11O,1.700000X1.700000*%
%TD*%
%TA.AperFunction,HeatsinkPad*%
%ADD12O,1.000000X2.100000*%
%TD*%
%TA.AperFunction,HeatsinkPad*%
%ADD13O,1.000000X1.800000*%
%TD*%
%TA.AperFunction,ComponentPad*%
%ADD14C,0.600000*%
%TD*%
%TA.AperFunction,ViaPad*%
%ADD15C,0.600000*%
%TD*%
G04 APERTURE END LIST*
D10*
%TO.N,Earth*%
%TO.C,J17*%
X136500000Y-80260000D03*
D11*
%TO.N,SDA_5*%
X136500000Y-82800000D03*
%TO.N,SCL_5*%
X136500000Y-85340000D03*
%TO.N,Earth*%
X136500000Y-87880000D03*
%TO.N,MOSI_5*%
X136500000Y-90420000D03*
%TO.N,MISO_5*%
X136500000Y-92960000D03*
%TO.N,SCK_5*%
X136500000Y-95500000D03*
%TO.N,Earth*%
X136500000Y-98040000D03*
%TO.N,D12_5*%
X136500000Y-100580000D03*
%TO.N,D13_5*%
X136500000Y-103120000D03*
%TO.N,D38_5*%
X136500000Y-105660000D03*
%TO.N,Earth*%
X136500000Y-108200000D03*
%TO.N,A1_5*%
X136500000Y-110740000D03*
%TO.N,A2_5*%
X136500000Y-113280000D03*
%TO.N,GNDA*%
X136500000Y-115820000D03*
%TD*%
D12*
%TO.N,Earth*%
%TO.C,J2*%
X146307000Y-120070772D03*
D13*
X146307000Y-124250772D03*
D12*
X154947000Y-120070772D03*
D13*
X154947000Y-124250772D03*
%TD*%
D10*
%TO.N,Earth*%
%TO.C,J16*%
X161000000Y-80260000D03*
D11*
%TO.N,SDA*%
X161000000Y-82800000D03*
%TO.N,SCL*%
X161000000Y-85340000D03*
%TO.N,Earth*%
X161000000Y-87880000D03*
%TO.N,MOSI*%
X161000000Y-90420000D03*
%TO.N,MISO*%
X161000000Y-92960000D03*
%TO.N,SCK*%
X161000000Y-95500000D03*
%TO.N,Earth*%
X161000000Y-98040000D03*
%TO.N,D12*%
X161000000Y-100580000D03*
%TO.N,D13*%
X161000000Y-103120000D03*
%TO.N,D38*%
X161000000Y-105660000D03*
%TO.N,Earth*%
X161000000Y-108200000D03*
%TO.N,A1*%
X161000000Y-110740000D03*
%TO.N,A2*%
X161000000Y-113280000D03*
%TO.N,GNDA*%
X161000000Y-115820000D03*
%TD*%
D10*
%TO.N,+5V*%
%TO.C,J15*%
X161000000Y-120075000D03*
D11*
%TO.N,+3.3V*%
X161000000Y-122615000D03*
%TO.N,Earth*%
X161000000Y-125155000D03*
%TD*%
D14*
%TO.N,Earth*%
%TO.C,U3*%
X148602000Y-106675772D03*
X149602000Y-106675772D03*
X149102000Y-106175772D03*
X148602000Y-105675772D03*
X149602000Y-105675772D03*
%TD*%
D10*
%TO.N,+3.3V*%
%TO.C,J12*%
X152227000Y-79075772D03*
D11*
%TO.N,Earth*%
X149687000Y-79075772D03*
%TO.N,SCL*%
X147147000Y-79075772D03*
%TO.N,SDA*%
X144607000Y-79075772D03*
%TD*%
D10*
%TO.N,+5V*%
%TO.C,J7*%
X139641431Y-82602929D03*
D11*
%TO.N,Earth*%
X139641431Y-80062929D03*
%TO.N,+3.3V*%
X139641431Y-77522929D03*
%TD*%
D10*
%TO.N,D+*%
%TO.C,J8*%
X139597000Y-103360772D03*
D11*
%TO.N,D-*%
X139597000Y-105900772D03*
%TO.N,+3.3V*%
X139597000Y-108440772D03*
%TO.N,Earth*%
X139597000Y-110980772D03*
%TD*%
D10*
%TO.N,D38*%
%TO.C,J4*%
X157747000Y-77730772D03*
D11*
%TO.N,Earth*%
X157747000Y-80270772D03*
%TO.N,D12*%
X157747000Y-82810772D03*
%TO.N,Earth*%
X157747000Y-85350772D03*
%TO.N,D13*%
X157747000Y-87890772D03*
%TO.N,Earth*%
X157747000Y-90430772D03*
%TO.N,A1*%
X157747000Y-92970772D03*
%TO.N,GNDA*%
X157747000Y-95510772D03*
%TO.N,A2*%
X157747000Y-98050772D03*
%TD*%
D10*
%TO.N,+3.3V*%
%TO.C,J6*%
X157727000Y-113175772D03*
D11*
%TO.N,MOSI*%
X157727000Y-115715772D03*
%TO.N,MISO*%
X157727000Y-118255772D03*
%TO.N,SCK*%
X157727000Y-120795772D03*
%TO.N,Earth*%
X157727000Y-123335772D03*
%TD*%
D10*
%TO.N,+3.3V*%
%TO.C,J3*%
X157727000Y-101740772D03*
D11*
%TO.N,SDA*%
X157727000Y-104280772D03*
%TO.N,SCL*%
X157727000Y-106820772D03*
%TO.N,Earth*%
X157727000Y-109360772D03*
%TD*%
D15*
%TO.N,Earth*%
X161527000Y-75575772D03*
X152627000Y-73975772D03*
X151827000Y-105975772D03*
X145127000Y-117275772D03*
X143300000Y-86000000D03*
X137527000Y-121375772D03*
X152543667Y-124275772D03*
X141600000Y-97300000D03*
X161527000Y-70209106D03*
X136127000Y-77964661D03*
X142327000Y-68275772D03*
X148127000Y-124275772D03*
X145327000Y-102575772D03*
X149800000Y-82800000D03*
X135927000Y-121375772D03*
X151660333Y-124275772D03*
X161527000Y-73786883D03*
X153500000Y-102600000D03*
X136127000Y-67231328D03*
X145327000Y-101175772D03*
X140527000Y-64075772D03*
X146927000Y-105875772D03*
X157527000Y-71675772D03*
X149893667Y-124275772D03*
X161527000Y-66631328D03*
X145327000Y-99775772D03*
X149000000Y-92900000D03*
X144727000Y-110975772D03*
X145627000Y-71875772D03*
X147427000Y-71875772D03*
X144127000Y-74675772D03*
X144727000Y-111675772D03*
X145327000Y-100475772D03*
X151827000Y-106675772D03*
X149427000Y-71875772D03*
X138927000Y-119675772D03*
X150827000Y-65675772D03*
X153107234Y-100031385D03*
X153427000Y-124275772D03*
X150777000Y-124275772D03*
X146227000Y-84075772D03*
X154250000Y-112400000D03*
X150800000Y-103200000D03*
X145327000Y-101875772D03*
X149010333Y-124275772D03*
X161527000Y-68420217D03*
X143727000Y-72875772D03*
X152627000Y-73275772D03*
X146227000Y-115875772D03*
X161527000Y-77364661D03*
X144727000Y-112375772D03*
X139800000Y-124950000D03*
X140400000Y-115500000D03*
X152227000Y-114175772D03*
X152427000Y-82175772D03*
X154327000Y-115875772D03*
X144127000Y-66275772D03*
X142500000Y-93700000D03*
X135927000Y-119586883D03*
%TO.N,+5V*%
X149527000Y-96875772D03*
X148708325Y-97361558D03*
X155400000Y-110550000D03*
X148527000Y-98075772D03*
X148627000Y-96665772D03*
X149427000Y-97675772D03*
%TO.N,D38*%
X151175518Y-91675000D03*
X148127000Y-66375772D03*
%TO.N,SCK*%
X149727000Y-65375772D03*
X153800000Y-90125000D03*
X155800000Y-93575000D03*
%TO.N,MOSI*%
X147527000Y-65375772D03*
%TO.N,+3.3V*%
X141527000Y-66575772D03*
X158602000Y-69198792D03*
X148527000Y-86275772D03*
X148727000Y-65375772D03*
%TO.N,MISO*%
X151125000Y-93416209D03*
X155600000Y-89500000D03*
X151927000Y-65375772D03*
%TO.N,D-*%
X149752427Y-114647573D03*
%TO.N,D+*%
X150318114Y-114081886D03*
%TO.N,SCL*%
X151566942Y-94083058D03*
X155978596Y-68427368D03*
X155100000Y-87600000D03*
%TO.N,D13*%
X152827000Y-67000772D03*
%TO.N,A1*%
X150527000Y-92300000D03*
X148327000Y-84675772D03*
%TO.N,D12*%
X152441942Y-91158058D03*
X152327000Y-86875772D03*
X154527000Y-67775772D03*
%TO.N,A2*%
X153487765Y-97888007D03*
%TO.N,A1_5*%
X141400000Y-109800000D03*
%TO.N,GNDA*%
X138050000Y-73750000D03*
X141375000Y-74350000D03*
%TD*%
%TA.AperFunction,Conductor*%
%TO.N,+3.3V*%
G36*
X139799871Y-63495957D02*
G01*
X139845626Y-63548761D01*
X139855570Y-63617919D01*
X139835933Y-63669164D01*
X139817610Y-63696584D01*
X139817602Y-63696599D01*
X139757264Y-63842270D01*
X139757261Y-63842282D01*
X139726500Y-63996925D01*
X139726500Y-64154618D01*
X139757261Y-64309261D01*
X139757264Y-64309273D01*
X139817602Y-64454944D01*
X139817609Y-64454957D01*
X139905210Y-64586060D01*
X139905213Y-64586064D01*
X140016707Y-64697558D01*
X140016711Y-64697561D01*
X140147814Y-64785162D01*
X140147827Y-64785169D01*
X140293498Y-64845507D01*
X140293503Y-64845509D01*
X140443131Y-64875272D01*
X140448153Y-64876271D01*
X140448156Y-64876272D01*
X140448158Y-64876272D01*
X140605844Y-64876272D01*
X140605845Y-64876271D01*
X140760497Y-64845509D01*
X140906179Y-64785166D01*
X141037289Y-64697561D01*
X141148789Y-64586061D01*
X141236394Y-64454951D01*
X141296737Y-64309269D01*
X141327500Y-64154614D01*
X141327500Y-63996930D01*
X141327500Y-63996927D01*
X141327499Y-63996925D01*
X141296738Y-63842282D01*
X141296737Y-63842275D01*
X141296735Y-63842270D01*
X141236397Y-63696599D01*
X141236389Y-63696584D01*
X141218067Y-63669164D01*
X141197188Y-63602487D01*
X141215672Y-63535106D01*
X141267650Y-63488416D01*
X141321168Y-63476272D01*
X162102500Y-63476272D01*
X162169539Y-63495957D01*
X162215294Y-63548761D01*
X162226500Y-63600272D01*
X162226500Y-65903977D01*
X162206815Y-65971016D01*
X162154011Y-66016771D01*
X162084853Y-66026715D01*
X162033609Y-66007079D01*
X161906185Y-65921937D01*
X161906172Y-65921930D01*
X161760501Y-65861592D01*
X161760489Y-65861589D01*
X161605845Y-65830828D01*
X161605842Y-65830828D01*
X161448158Y-65830828D01*
X161448155Y-65830828D01*
X161293510Y-65861589D01*
X161293498Y-65861592D01*
X161147827Y-65921930D01*
X161147814Y-65921937D01*
X161016711Y-66009538D01*
X161016707Y-66009541D01*
X160905213Y-66121035D01*
X160905210Y-66121039D01*
X160817609Y-66252142D01*
X160817602Y-66252155D01*
X160757264Y-66397826D01*
X160757261Y-66397838D01*
X160726500Y-66552481D01*
X160726500Y-66710174D01*
X160757261Y-66864817D01*
X160757264Y-66864829D01*
X160817602Y-67010500D01*
X160817609Y-67010513D01*
X160905210Y-67141616D01*
X160905213Y-67141620D01*
X161016707Y-67253114D01*
X161016711Y-67253117D01*
X161147814Y-67340718D01*
X161147827Y-67340725D01*
X161282721Y-67396599D01*
X161293503Y-67401065D01*
X161309036Y-67404154D01*
X161370947Y-67436538D01*
X161405522Y-67497253D01*
X161401783Y-67567023D01*
X161360918Y-67623696D01*
X161309040Y-67647389D01*
X161293506Y-67650479D01*
X161293498Y-67650481D01*
X161147827Y-67710819D01*
X161147814Y-67710826D01*
X161016711Y-67798427D01*
X161016707Y-67798430D01*
X160905213Y-67909924D01*
X160905210Y-67909928D01*
X160817609Y-68041031D01*
X160817602Y-68041044D01*
X160757264Y-68186715D01*
X160757261Y-68186727D01*
X160726500Y-68341370D01*
X160726500Y-68499063D01*
X160757261Y-68653706D01*
X160757264Y-68653718D01*
X160817602Y-68799389D01*
X160817609Y-68799402D01*
X160905210Y-68930505D01*
X160905213Y-68930509D01*
X161016707Y-69042003D01*
X161016711Y-69042006D01*
X161147814Y-69129607D01*
X161147827Y-69129614D01*
X161293498Y-69189952D01*
X161293503Y-69189954D01*
X161309036Y-69193043D01*
X161370947Y-69225427D01*
X161405522Y-69286142D01*
X161401783Y-69355912D01*
X161360918Y-69412585D01*
X161309040Y-69436278D01*
X161293506Y-69439368D01*
X161293498Y-69439370D01*
X161147827Y-69499708D01*
X161147814Y-69499715D01*
X161016711Y-69587316D01*
X161016707Y-69587319D01*
X160905213Y-69698813D01*
X160905210Y-69698817D01*
X160817609Y-69829920D01*
X160817602Y-69829933D01*
X160757264Y-69975604D01*
X160757261Y-69975616D01*
X160726500Y-70130259D01*
X160726500Y-70287952D01*
X160757261Y-70442595D01*
X160757264Y-70442607D01*
X160817602Y-70588278D01*
X160817609Y-70588291D01*
X160905210Y-70719394D01*
X160905213Y-70719398D01*
X161016707Y-70830892D01*
X161016711Y-70830895D01*
X161147814Y-70918496D01*
X161147827Y-70918503D01*
X161293498Y-70978841D01*
X161293503Y-70978843D01*
X161448153Y-71009605D01*
X161448156Y-71009606D01*
X161448158Y-71009606D01*
X161605844Y-71009606D01*
X161605845Y-71009605D01*
X161760497Y-70978843D01*
X161906179Y-70918500D01*
X162033609Y-70833354D01*
X162100286Y-70812476D01*
X162167666Y-70830960D01*
X162214357Y-70882939D01*
X162226500Y-70936456D01*
X162226500Y-73059532D01*
X162206815Y-73126571D01*
X162154011Y-73172326D01*
X162084853Y-73182270D01*
X162033609Y-73162634D01*
X161906185Y-73077492D01*
X161906172Y-73077485D01*
X161760501Y-73017147D01*
X161760489Y-73017144D01*
X161605845Y-72986383D01*
X161605842Y-72986383D01*
X161448158Y-72986383D01*
X161448155Y-72986383D01*
X161293510Y-73017144D01*
X161293498Y-73017147D01*
X161147827Y-73077485D01*
X161147814Y-73077492D01*
X161016711Y-73165093D01*
X161016707Y-73165096D01*
X160905213Y-73276590D01*
X160905210Y-73276594D01*
X160817609Y-73407697D01*
X160817602Y-73407710D01*
X160757264Y-73553381D01*
X160757261Y-73553393D01*
X160726500Y-73708036D01*
X160726500Y-73865729D01*
X160757261Y-74020372D01*
X160757264Y-74020384D01*
X160817602Y-74166055D01*
X160817609Y-74166068D01*
X160905210Y-74297171D01*
X160905213Y-74297175D01*
X161016707Y-74408669D01*
X161016711Y-74408672D01*
X161147814Y-74496273D01*
X161147827Y-74496280D01*
X161278725Y-74550499D01*
X161293503Y-74556620D01*
X161309036Y-74559709D01*
X161370947Y-74592093D01*
X161405522Y-74652808D01*
X161401783Y-74722578D01*
X161360918Y-74779251D01*
X161309040Y-74802944D01*
X161293506Y-74806034D01*
X161293498Y-74806036D01*
X161147827Y-74866374D01*
X161147814Y-74866381D01*
X161016711Y-74953982D01*
X161016707Y-74953985D01*
X160905213Y-75065479D01*
X160905210Y-75065483D01*
X160817609Y-75196586D01*
X160817602Y-75196599D01*
X160757264Y-75342270D01*
X160757261Y-75342282D01*
X160726500Y-75496925D01*
X160726500Y-75654618D01*
X160757261Y-75809261D01*
X160757264Y-75809273D01*
X160817602Y-75954944D01*
X160817609Y-75954957D01*
X160905210Y-76086060D01*
X160905213Y-76086064D01*
X161016707Y-76197558D01*
X161016711Y-76197561D01*
X161147814Y-76285162D01*
X161147827Y-76285169D01*
X161293498Y-76345507D01*
X161293503Y-76345509D01*
X161309036Y-76348598D01*
X161370947Y-76380982D01*
X161405522Y-76441697D01*
X161401783Y-76511467D01*
X161360918Y-76568140D01*
X161309040Y-76591833D01*
X161293506Y-76594923D01*
X161293498Y-76594925D01*
X161147827Y-76655263D01*
X161147814Y-76655270D01*
X161016711Y-76742871D01*
X161016707Y-76742874D01*
X160905213Y-76854368D01*
X160905210Y-76854372D01*
X160817609Y-76985475D01*
X160817602Y-76985488D01*
X160757264Y-77131159D01*
X160757261Y-77131171D01*
X160726500Y-77285814D01*
X160726500Y-77443507D01*
X160757261Y-77598150D01*
X160757264Y-77598162D01*
X160817602Y-77743833D01*
X160817609Y-77743846D01*
X160905210Y-77874949D01*
X160905213Y-77874953D01*
X161016707Y-77986447D01*
X161016711Y-77986450D01*
X161147814Y-78074051D01*
X161147827Y-78074058D01*
X161293498Y-78134396D01*
X161293503Y-78134398D01*
X161420151Y-78159590D01*
X161448153Y-78165160D01*
X161448156Y-78165161D01*
X161448158Y-78165161D01*
X161605844Y-78165161D01*
X161605845Y-78165160D01*
X161760497Y-78134398D01*
X161906179Y-78074055D01*
X162033609Y-77988909D01*
X162100286Y-77968031D01*
X162167666Y-77986515D01*
X162214357Y-78038494D01*
X162226500Y-78092011D01*
X162226500Y-78837652D01*
X162206815Y-78904691D01*
X162154011Y-78950446D01*
X162084853Y-78960390D01*
X162059167Y-78953834D01*
X161957482Y-78915908D01*
X161957483Y-78915908D01*
X161897883Y-78909501D01*
X161897881Y-78909500D01*
X161897873Y-78909500D01*
X161897864Y-78909500D01*
X160102129Y-78909500D01*
X160102123Y-78909501D01*
X160042516Y-78915908D01*
X159907671Y-78966202D01*
X159907664Y-78966206D01*
X159792455Y-79052452D01*
X159792452Y-79052455D01*
X159706206Y-79167664D01*
X159706202Y-79167671D01*
X159655908Y-79302517D01*
X159650254Y-79355113D01*
X159649501Y-79362123D01*
X159649500Y-79362135D01*
X159649500Y-81157870D01*
X159649501Y-81157876D01*
X159655908Y-81217483D01*
X159706202Y-81352328D01*
X159706206Y-81352335D01*
X159792452Y-81467544D01*
X159792455Y-81467547D01*
X159907664Y-81553793D01*
X159907671Y-81553797D01*
X160039082Y-81602810D01*
X160095016Y-81644681D01*
X160119433Y-81710145D01*
X160104582Y-81778418D01*
X160083431Y-81806673D01*
X159969889Y-81920215D01*
X159844951Y-82092179D01*
X159748444Y-82281585D01*
X159682753Y-82483760D01*
X159681047Y-82494532D01*
X159649500Y-82693713D01*
X159649500Y-82906287D01*
X159682754Y-83116243D01*
X159745803Y-83310288D01*
X159748444Y-83318414D01*
X159844951Y-83507820D01*
X159969890Y-83679786D01*
X160120213Y-83830109D01*
X160292182Y-83955050D01*
X160300946Y-83959516D01*
X160351742Y-84007491D01*
X160368536Y-84075312D01*
X160345998Y-84141447D01*
X160300946Y-84180484D01*
X160292182Y-84184949D01*
X160120213Y-84309890D01*
X159969890Y-84460213D01*
X159844951Y-84632179D01*
X159748444Y-84821585D01*
X159682753Y-85023760D01*
X159649500Y-85233713D01*
X159649500Y-85446286D01*
X159677144Y-85620827D01*
X159682754Y-85656243D01*
X159718578Y-85766498D01*
X159748444Y-85858414D01*
X159844951Y-86047820D01*
X159969890Y-86219786D01*
X160120213Y-86370109D01*
X160292182Y-86495050D01*
X160300946Y-86499516D01*
X160351742Y-86547491D01*
X160368536Y-86615312D01*
X160345998Y-86681447D01*
X160300946Y-86720484D01*
X160292182Y-86724949D01*
X160120213Y-86849890D01*
X159969890Y-87000213D01*
X159844951Y-87172179D01*
X159748444Y-87361585D01*
X159682753Y-87563760D01*
X159649500Y-87773713D01*
X159649500Y-87986286D01*
X159669140Y-88110292D01*
X159682754Y-88196243D01*
X159739126Y-88369738D01*
X159748444Y-88398414D01*
X159844951Y-88587820D01*
X159969890Y-88759786D01*
X160120213Y-88910109D01*
X160292182Y-89035050D01*
X160300946Y-89039516D01*
X160351742Y-89087491D01*
X160368536Y-89155312D01*
X160345998Y-89221447D01*
X160300946Y-89260484D01*
X160292182Y-89264949D01*
X160120213Y-89389890D01*
X159969890Y-89540213D01*
X159844951Y-89712179D01*
X159748444Y-89901585D01*
X159682753Y-90103760D01*
X159666022Y-90209397D01*
X159649500Y-90313713D01*
X159649500Y-90526287D01*
X159682754Y-90736243D01*
X159744247Y-90925499D01*
X159748444Y-90938414D01*
X159844951Y-91127820D01*
X159969890Y-91299786D01*
X160120213Y-91450109D01*
X160292182Y-91575050D01*
X160300946Y-91579516D01*
X160351742Y-91627491D01*
X160368536Y-91695312D01*
X160345998Y-91761447D01*
X160300946Y-91800484D01*
X160292182Y-91804949D01*
X160120213Y-91929890D01*
X159969890Y-92080213D01*
X159844951Y-92252179D01*
X159748444Y-92441585D01*
X159682753Y-92643760D01*
X159672766Y-92706818D01*
X159649500Y-92853713D01*
X159649500Y-93066287D01*
X159651389Y-93078211D01*
X159669048Y-93189711D01*
X159682754Y-93276243D01*
X159726309Y-93410292D01*
X159748444Y-93478414D01*
X159844951Y-93667820D01*
X159969890Y-93839786D01*
X160120213Y-93990109D01*
X160292182Y-94115050D01*
X160300946Y-94119516D01*
X160351742Y-94167491D01*
X160368536Y-94235312D01*
X160345998Y-94301447D01*
X160300946Y-94340484D01*
X160292182Y-94344949D01*
X160120213Y-94469890D01*
X159969890Y-94620213D01*
X159844951Y-94792179D01*
X159748444Y-94981585D01*
X159682753Y-95183760D01*
X159681047Y-95194532D01*
X159649500Y-95393713D01*
X159649500Y-95606287D01*
X159682754Y-95816243D01*
X159708680Y-95896036D01*
X159748444Y-96018414D01*
X159844951Y-96207820D01*
X159969890Y-96379786D01*
X160120213Y-96530109D01*
X160292182Y-96655050D01*
X160300946Y-96659516D01*
X160351742Y-96707491D01*
X160368536Y-96775312D01*
X160345998Y-96841447D01*
X160300946Y-96880484D01*
X160292182Y-96884949D01*
X160120213Y-97009890D01*
X159969890Y-97160213D01*
X159844951Y-97332179D01*
X159748444Y-97521585D01*
X159682753Y-97723760D01*
X159669048Y-97810292D01*
X159649500Y-97933713D01*
X159649500Y-98146287D01*
X159655800Y-98186061D01*
X159675314Y-98309273D01*
X159682754Y-98356243D01*
X159736949Y-98523038D01*
X159748444Y-98558414D01*
X159844951Y-98747820D01*
X159969890Y-98919786D01*
X160120213Y-99070109D01*
X160292182Y-99195050D01*
X160300946Y-99199516D01*
X160351742Y-99247491D01*
X160368536Y-99315312D01*
X160345998Y-99381447D01*
X160300946Y-99420484D01*
X160292182Y-99424949D01*
X160120213Y-99549890D01*
X159969890Y-99700213D01*
X159844951Y-99872179D01*
X159748444Y-100061585D01*
X159682753Y-100263760D01*
X159659503Y-100410557D01*
X159649500Y-100473713D01*
X159649500Y-100686287D01*
X159658130Y-100740773D01*
X159675079Y-100847790D01*
X159682754Y-100896243D01*
X159747961Y-101096930D01*
X159748444Y-101098414D01*
X159844951Y-101287820D01*
X159969890Y-101459786D01*
X160120213Y-101610109D01*
X160292182Y-101735050D01*
X160300946Y-101739516D01*
X160351742Y-101787491D01*
X160368536Y-101855312D01*
X160345998Y-101921447D01*
X160300946Y-101960484D01*
X160292182Y-101964949D01*
X160120213Y-102089890D01*
X159969890Y-102240213D01*
X159844951Y-102412179D01*
X159748444Y-102601585D01*
X159682753Y-102803760D01*
X159649500Y-103013713D01*
X159649500Y-103226286D01*
X159682319Y-103433501D01*
X159682754Y-103436243D01*
X159727173Y-103572951D01*
X159748444Y-103638414D01*
X159844951Y-103827820D01*
X159969890Y-103999786D01*
X160120213Y-104150109D01*
X160292182Y-104275050D01*
X160300946Y-104279516D01*
X160351742Y-104327491D01*
X160368536Y-104395312D01*
X160345998Y-104461447D01*
X160300946Y-104500484D01*
X160292182Y-104504949D01*
X160120213Y-104629890D01*
X159969890Y-104780213D01*
X159844951Y-104952179D01*
X159748444Y-105141585D01*
X159682753Y-105343760D01*
X159649500Y-105553713D01*
X159649500Y-105766286D01*
X159677169Y-105940985D01*
X159682754Y-105976243D01*
X159747585Y-106175772D01*
X159748444Y-106178414D01*
X159844951Y-106367820D01*
X159969890Y-106539786D01*
X160120213Y-106690109D01*
X160292182Y-106815050D01*
X160300946Y-106819516D01*
X160351742Y-106867491D01*
X160368536Y-106935312D01*
X160345998Y-107001447D01*
X160300946Y-107040484D01*
X160292182Y-107044949D01*
X160120213Y-107169890D01*
X159969890Y-107320213D01*
X159844951Y-107492179D01*
X159748444Y-107681585D01*
X159682753Y-107883760D01*
X159649500Y-108093713D01*
X159649500Y-108306286D01*
X159677169Y-108480985D01*
X159682754Y-108516243D01*
X159739462Y-108690772D01*
X159748444Y-108718414D01*
X159844951Y-108907820D01*
X159969890Y-109079786D01*
X160120213Y-109230109D01*
X160292182Y-109355050D01*
X160300946Y-109359516D01*
X160351742Y-109407491D01*
X160368536Y-109475312D01*
X160345998Y-109541447D01*
X160300946Y-109580484D01*
X160292182Y-109584949D01*
X160120213Y-109709890D01*
X159969890Y-109860213D01*
X159844951Y-110032179D01*
X159748444Y-110221585D01*
X159682753Y-110423760D01*
X159649500Y-110633713D01*
X159649500Y-110846286D01*
X159682496Y-111054618D01*
X159682754Y-111056243D01*
X159732475Y-111209269D01*
X159748444Y-111258414D01*
X159844951Y-111447820D01*
X159969890Y-111619786D01*
X160120213Y-111770109D01*
X160292182Y-111895050D01*
X160300946Y-111899516D01*
X160351742Y-111947491D01*
X160368536Y-112015312D01*
X160345998Y-112081447D01*
X160300946Y-112120484D01*
X160292182Y-112124949D01*
X160120213Y-112249890D01*
X159969890Y-112400213D01*
X159844951Y-112572179D01*
X159748444Y-112761585D01*
X159748443Y-112761587D01*
X159748443Y-112761588D01*
X159742730Y-112779172D01*
X159682753Y-112963760D01*
X159663524Y-113085169D01*
X159649500Y-113173713D01*
X159649500Y-113386287D01*
X159652628Y-113406035D01*
X159678849Y-113571593D01*
X159682754Y-113596243D01*
X159717348Y-113702713D01*
X159748444Y-113798414D01*
X159844951Y-113987820D01*
X159969890Y-114159786D01*
X160120213Y-114310109D01*
X160292182Y-114435050D01*
X160300946Y-114439516D01*
X160351742Y-114487491D01*
X160368536Y-114555312D01*
X160345998Y-114621447D01*
X160300946Y-114660484D01*
X160292182Y-114664949D01*
X160120213Y-114789890D01*
X159969890Y-114940213D01*
X159844951Y-115112179D01*
X159748444Y-115301585D01*
X159682753Y-115503760D01*
X159649500Y-115713713D01*
X159649500Y-115926286D01*
X159680464Y-116121789D01*
X159682754Y-116136243D01*
X159736124Y-116300499D01*
X159748444Y-116338414D01*
X159844951Y-116527820D01*
X159969890Y-116699786D01*
X160120213Y-116850109D01*
X160292179Y-116975048D01*
X160292181Y-116975049D01*
X160292184Y-116975051D01*
X160481588Y-117071557D01*
X160683757Y-117137246D01*
X160893713Y-117170500D01*
X160893714Y-117170500D01*
X161106286Y-117170500D01*
X161106287Y-117170500D01*
X161316243Y-117137246D01*
X161518412Y-117071557D01*
X161707816Y-116975051D01*
X161815805Y-116896593D01*
X161879786Y-116850109D01*
X161879788Y-116850106D01*
X161879792Y-116850104D01*
X162014819Y-116715077D01*
X162076142Y-116681592D01*
X162145834Y-116686576D01*
X162201767Y-116728448D01*
X162226184Y-116793912D01*
X162226500Y-116802758D01*
X162226500Y-118652652D01*
X162206815Y-118719691D01*
X162154011Y-118765446D01*
X162084853Y-118775390D01*
X162059167Y-118768834D01*
X161957482Y-118730908D01*
X161957483Y-118730908D01*
X161897883Y-118724501D01*
X161897881Y-118724500D01*
X161897873Y-118724500D01*
X161897864Y-118724500D01*
X160102129Y-118724500D01*
X160102123Y-118724501D01*
X160042516Y-118730908D01*
X159907671Y-118781202D01*
X159907664Y-118781206D01*
X159792455Y-118867452D01*
X159792452Y-118867455D01*
X159706206Y-118982664D01*
X159706202Y-118982671D01*
X159655908Y-119117517D01*
X159649501Y-119177116D01*
X159649500Y-119177135D01*
X159649500Y-120972870D01*
X159649501Y-120972876D01*
X159655908Y-121032483D01*
X159706202Y-121167328D01*
X159706206Y-121167335D01*
X159792452Y-121282544D01*
X159792455Y-121282547D01*
X159907664Y-121368793D01*
X159907671Y-121368797D01*
X159969902Y-121392007D01*
X160039598Y-121418002D01*
X160095531Y-121459873D01*
X160119949Y-121525337D01*
X160105098Y-121593610D01*
X160083947Y-121621865D01*
X159970271Y-121735541D01*
X159845379Y-121907442D01*
X159748904Y-122096782D01*
X159683242Y-122298870D01*
X159683242Y-122298873D01*
X159672769Y-122365000D01*
X160566988Y-122365000D01*
X160534075Y-122422007D01*
X160500000Y-122549174D01*
X160500000Y-122680826D01*
X160534075Y-122807993D01*
X160566988Y-122865000D01*
X159672769Y-122865000D01*
X159683242Y-122931126D01*
X159683242Y-122931129D01*
X159748904Y-123133217D01*
X159845379Y-123322557D01*
X159970272Y-123494459D01*
X159970276Y-123494464D01*
X160120535Y-123644723D01*
X160120540Y-123644727D01*
X160292444Y-123769622D01*
X160301495Y-123774234D01*
X160352292Y-123822208D01*
X160369087Y-123890029D01*
X160346550Y-123956164D01*
X160301499Y-123995202D01*
X160292182Y-123999949D01*
X160120213Y-124124890D01*
X159969890Y-124275213D01*
X159844951Y-124447179D01*
X159748444Y-124636585D01*
X159682753Y-124838760D01*
X159649500Y-125048713D01*
X159649500Y-125261286D01*
X159681019Y-125460292D01*
X159682754Y-125471243D01*
X159743889Y-125659397D01*
X159748444Y-125673414D01*
X159844951Y-125862820D01*
X159969890Y-126034786D01*
X160098695Y-126163591D01*
X160132180Y-126224914D01*
X160127196Y-126294606D01*
X160085324Y-126350539D01*
X160019860Y-126374956D01*
X160011014Y-126375272D01*
X135501500Y-126375272D01*
X135434461Y-126355587D01*
X135388706Y-126302783D01*
X135377500Y-126251272D01*
X135377500Y-124871153D01*
X138999500Y-124871153D01*
X138999500Y-125028846D01*
X139030261Y-125183489D01*
X139030264Y-125183501D01*
X139090602Y-125329172D01*
X139090609Y-125329185D01*
X139178210Y-125460288D01*
X139178213Y-125460292D01*
X139289707Y-125571786D01*
X139289711Y-125571789D01*
X139420814Y-125659390D01*
X139420827Y-125659397D01*
X139566498Y-125719735D01*
X139566503Y-125719737D01*
X139721153Y-125750499D01*
X139721156Y-125750500D01*
X139721158Y-125750500D01*
X139878844Y-125750500D01*
X139878845Y-125750499D01*
X140033497Y-125719737D01*
X140179179Y-125659394D01*
X140310289Y-125571789D01*
X140421789Y-125460289D01*
X140509394Y-125329179D01*
X140569737Y-125183497D01*
X140600500Y-125028842D01*
X140600500Y-124871158D01*
X140600500Y-124871155D01*
X140600499Y-124871153D01*
X140599331Y-124865282D01*
X140576264Y-124749315D01*
X145306499Y-124749315D01*
X145344947Y-124942601D01*
X145344950Y-124942611D01*
X145420364Y-125124679D01*
X145420371Y-125124692D01*
X145529860Y-125288553D01*
X145529863Y-125288557D01*
X145669214Y-125427908D01*
X145669218Y-125427911D01*
X145833079Y-125537400D01*
X145833092Y-125537407D01*
X145916099Y-125571789D01*
X146015165Y-125612823D01*
X146015169Y-125612823D01*
X146015170Y-125612824D01*
X146208456Y-125651272D01*
X146208459Y-125651272D01*
X146405543Y-125651272D01*
X146535582Y-125625404D01*
X146598835Y-125612823D01*
X146780914Y-125537404D01*
X146944782Y-125427911D01*
X147084139Y-125288554D01*
X147193632Y-125124686D01*
X147269051Y-124942607D01*
X147289040Y-124842118D01*
X147321425Y-124780207D01*
X147382140Y-124745633D01*
X147451910Y-124749372D01*
X147499749Y-124782907D01*
X147500903Y-124781754D01*
X147616707Y-124897558D01*
X147616711Y-124897561D01*
X147747814Y-124985162D01*
X147747827Y-124985169D01*
X147893498Y-125045507D01*
X147893503Y-125045509D01*
X148048153Y-125076271D01*
X148048156Y-125076272D01*
X148048158Y-125076272D01*
X148205844Y-125076272D01*
X148205845Y-125076271D01*
X148360497Y-125045509D01*
X148506179Y-124985166D01*
X148506194Y-124985155D01*
X148510200Y-124983015D01*
X148578601Y-124968766D01*
X148627122Y-124983010D01*
X148631148Y-124985162D01*
X148631154Y-124985166D01*
X148631160Y-124985168D01*
X148631161Y-124985169D01*
X148776831Y-125045507D01*
X148776836Y-125045509D01*
X148931486Y-125076271D01*
X148931489Y-125076272D01*
X148931491Y-125076272D01*
X149089177Y-125076272D01*
X149089178Y-125076271D01*
X149243830Y-125045509D01*
X149389512Y-124985166D01*
X149389517Y-124985162D01*
X149393539Y-124983013D01*
X149461941Y-124968766D01*
X149510461Y-124983013D01*
X149514494Y-124985169D01*
X149660165Y-125045507D01*
X149660170Y-125045509D01*
X149814820Y-125076271D01*
X149814823Y-125076272D01*
X149814825Y-125076272D01*
X149972511Y-125076272D01*
X149972512Y-125076271D01*
X150127164Y-125045509D01*
X150272846Y-124985166D01*
X150272861Y-124985155D01*
X150276867Y-124983015D01*
X150345268Y-124968766D01*
X150393789Y-124983010D01*
X150397815Y-124985162D01*
X150397821Y-124985166D01*
X150397827Y-124985168D01*
X150397828Y-124985169D01*
X150543498Y-125045507D01*
X150543503Y-125045509D01*
X150698153Y-125076271D01*
X150698156Y-125076272D01*
X150698158Y-125076272D01*
X150855844Y-125076272D01*
X150855845Y-125076271D01*
X151010497Y-125045509D01*
X151156179Y-124985166D01*
X151156194Y-124985155D01*
X151160200Y-124983015D01*
X151228601Y-124968766D01*
X151277122Y-124983010D01*
X151281148Y-124985162D01*
X151281154Y-124985166D01*
X151281160Y-124985168D01*
X151281161Y-124985169D01*
X151426831Y-125045507D01*
X151426836Y-125045509D01*
X151581486Y-125076271D01*
X151581489Y-125076272D01*
X151581491Y-125076272D01*
X151739177Y-125076272D01*
X151739178Y-125076271D01*
X151893830Y-125045509D01*
X152039512Y-124985166D01*
X152039517Y-124985162D01*
X152043539Y-124983013D01*
X152111941Y-124968766D01*
X152160461Y-124983013D01*
X152164494Y-124985169D01*
X152310165Y-125045507D01*
X152310170Y-125045509D01*
X152464820Y-125076271D01*
X152464823Y-125076272D01*
X152464825Y-125076272D01*
X152622511Y-125076272D01*
X152622512Y-125076271D01*
X152777164Y-125045509D01*
X152922846Y-124985166D01*
X152922861Y-124985155D01*
X152926867Y-124983015D01*
X152995268Y-124968766D01*
X153043789Y-124983010D01*
X153047815Y-124985162D01*
X153047821Y-124985166D01*
X153047827Y-124985168D01*
X153047828Y-124985169D01*
X153193498Y-125045507D01*
X153193503Y-125045509D01*
X153348153Y-125076271D01*
X153348156Y-125076272D01*
X153348158Y-125076272D01*
X153505844Y-125076272D01*
X153505845Y-125076271D01*
X153660497Y-125045509D01*
X153806179Y-124985166D01*
X153820485Y-124975606D01*
X153834371Y-124966329D01*
X153901048Y-124945450D01*
X153968428Y-124963934D01*
X154015119Y-125015912D01*
X154017824Y-125021977D01*
X154060366Y-125124682D01*
X154060371Y-125124692D01*
X154169860Y-125288553D01*
X154169863Y-125288557D01*
X154309214Y-125427908D01*
X154309218Y-125427911D01*
X154473079Y-125537400D01*
X154473092Y-125537407D01*
X154556099Y-125571789D01*
X154655165Y-125612823D01*
X154655169Y-125612823D01*
X154655170Y-125612824D01*
X154848456Y-125651272D01*
X154848459Y-125651272D01*
X155045543Y-125651272D01*
X155175582Y-125625404D01*
X155238835Y-125612823D01*
X155420914Y-125537404D01*
X155584782Y-125427911D01*
X155724139Y-125288554D01*
X155833632Y-125124686D01*
X155909051Y-124942607D01*
X155929708Y-124838757D01*
X155947500Y-124749315D01*
X155947500Y-123752228D01*
X155909052Y-123558942D01*
X155909051Y-123558941D01*
X155909051Y-123558937D01*
X155892396Y-123518728D01*
X155833635Y-123376864D01*
X155833628Y-123376851D01*
X155724139Y-123212990D01*
X155724136Y-123212986D01*
X155584785Y-123073635D01*
X155584781Y-123073632D01*
X155420920Y-122964143D01*
X155420907Y-122964136D01*
X155238839Y-122888722D01*
X155238829Y-122888719D01*
X155045543Y-122850272D01*
X155045541Y-122850272D01*
X154848459Y-122850272D01*
X154848457Y-122850272D01*
X154655170Y-122888719D01*
X154655160Y-122888722D01*
X154473092Y-122964136D01*
X154473079Y-122964143D01*
X154309218Y-123073632D01*
X154309214Y-123073635D01*
X154169863Y-123212986D01*
X154169860Y-123212990D01*
X154060371Y-123376851D01*
X154060366Y-123376861D01*
X154001603Y-123518728D01*
X153957762Y-123573131D01*
X153891468Y-123595196D01*
X153823768Y-123577917D01*
X153818150Y-123574377D01*
X153816285Y-123573131D01*
X153806179Y-123566378D01*
X153806172Y-123566374D01*
X153660501Y-123506036D01*
X153660489Y-123506033D01*
X153505845Y-123475272D01*
X153505842Y-123475272D01*
X153348158Y-123475272D01*
X153348155Y-123475272D01*
X153193510Y-123506033D01*
X153193498Y-123506036D01*
X153047825Y-123566376D01*
X153043780Y-123568538D01*
X152975376Y-123582776D01*
X152926881Y-123568535D01*
X152922851Y-123566381D01*
X152922846Y-123566378D01*
X152904870Y-123558932D01*
X152777168Y-123506036D01*
X152777156Y-123506033D01*
X152622512Y-123475272D01*
X152622509Y-123475272D01*
X152464825Y-123475272D01*
X152464822Y-123475272D01*
X152310177Y-123506033D01*
X152310165Y-123506036D01*
X152164492Y-123566376D01*
X152160447Y-123568538D01*
X152092043Y-123582776D01*
X152043553Y-123568538D01*
X152039517Y-123566381D01*
X152039512Y-123566378D01*
X152021536Y-123558932D01*
X151893834Y-123506036D01*
X151893822Y-123506033D01*
X151739178Y-123475272D01*
X151739175Y-123475272D01*
X151581491Y-123475272D01*
X151581488Y-123475272D01*
X151426843Y-123506033D01*
X151426831Y-123506036D01*
X151281158Y-123566376D01*
X151277113Y-123568538D01*
X151208709Y-123582776D01*
X151160214Y-123568535D01*
X151156184Y-123566381D01*
X151156179Y-123566378D01*
X151138203Y-123558932D01*
X151010501Y-123506036D01*
X151010489Y-123506033D01*
X150855845Y-123475272D01*
X150855842Y-123475272D01*
X150698158Y-123475272D01*
X150698155Y-123475272D01*
X150543510Y-123506033D01*
X150543498Y-123506036D01*
X150397825Y-123566376D01*
X150393780Y-123568538D01*
X150325376Y-123582776D01*
X150276881Y-123568535D01*
X150272851Y-123566381D01*
X150272846Y-123566378D01*
X150254870Y-123558932D01*
X150127168Y-123506036D01*
X150127156Y-123506033D01*
X149972512Y-123475272D01*
X149972509Y-123475272D01*
X149814825Y-123475272D01*
X149814822Y-123475272D01*
X149660177Y-123506033D01*
X149660165Y-123506036D01*
X149514492Y-123566376D01*
X149510447Y-123568538D01*
X149442043Y-123582776D01*
X149393553Y-123568538D01*
X149389517Y-123566381D01*
X149389512Y-123566378D01*
X149371536Y-123558932D01*
X149243834Y-123506036D01*
X149243822Y-123506033D01*
X149089178Y-123475272D01*
X149089175Y-123475272D01*
X148931491Y-123475272D01*
X148931488Y-123475272D01*
X148776843Y-123506033D01*
X148776831Y-123506036D01*
X148631158Y-123566376D01*
X148627113Y-123568538D01*
X148558709Y-123582776D01*
X148510214Y-123568535D01*
X148506184Y-123566381D01*
X148506179Y-123566378D01*
X148488203Y-123558932D01*
X148360501Y-123506036D01*
X148360489Y-123506033D01*
X148205845Y-123475272D01*
X148205842Y-123475272D01*
X148048158Y-123475272D01*
X148048155Y-123475272D01*
X147893510Y-123506033D01*
X147893498Y-123506036D01*
X147747827Y-123566374D01*
X147747814Y-123566381D01*
X147616711Y-123653982D01*
X147506540Y-123764153D01*
X147445217Y-123797637D01*
X147375525Y-123792653D01*
X147319592Y-123750781D01*
X147297242Y-123700662D01*
X147269051Y-123558937D01*
X147252396Y-123518728D01*
X147193635Y-123376864D01*
X147193628Y-123376851D01*
X147084139Y-123212990D01*
X147084136Y-123212986D01*
X146944785Y-123073635D01*
X146944781Y-123073632D01*
X146780920Y-122964143D01*
X146780907Y-122964136D01*
X146598839Y-122888722D01*
X146598829Y-122888719D01*
X146405543Y-122850272D01*
X146405541Y-122850272D01*
X146208459Y-122850272D01*
X146208457Y-122850272D01*
X146015170Y-122888719D01*
X146015160Y-122888722D01*
X145833092Y-122964136D01*
X145833079Y-122964143D01*
X145669218Y-123073632D01*
X145669214Y-123073635D01*
X145529863Y-123212986D01*
X145529860Y-123212990D01*
X145420371Y-123376851D01*
X145420364Y-123376864D01*
X145344950Y-123558932D01*
X145344947Y-123558942D01*
X145306500Y-123752228D01*
X145306500Y-123752231D01*
X145306500Y-124749313D01*
X145306500Y-124749315D01*
X145306499Y-124749315D01*
X140576264Y-124749315D01*
X140569737Y-124716503D01*
X140543441Y-124653018D01*
X140509397Y-124570827D01*
X140509390Y-124570814D01*
X140421789Y-124439711D01*
X140421786Y-124439707D01*
X140310292Y-124328213D01*
X140310288Y-124328210D01*
X140179185Y-124240609D01*
X140179172Y-124240602D01*
X140033501Y-124180264D01*
X140033489Y-124180261D01*
X139878845Y-124149500D01*
X139878842Y-124149500D01*
X139721158Y-124149500D01*
X139721155Y-124149500D01*
X139566510Y-124180261D01*
X139566498Y-124180264D01*
X139420827Y-124240602D01*
X139420814Y-124240609D01*
X139289711Y-124328210D01*
X139289707Y-124328213D01*
X139178213Y-124439707D01*
X139178210Y-124439711D01*
X139090609Y-124570814D01*
X139090602Y-124570827D01*
X139030264Y-124716498D01*
X139030261Y-124716510D01*
X138999500Y-124871153D01*
X135377500Y-124871153D01*
X135377500Y-122200196D01*
X135397185Y-122133157D01*
X135449989Y-122087402D01*
X135519147Y-122077458D01*
X135548952Y-122085635D01*
X135663682Y-122133157D01*
X135693503Y-122145509D01*
X135848078Y-122176256D01*
X135848153Y-122176271D01*
X135848156Y-122176272D01*
X135848158Y-122176272D01*
X136005844Y-122176272D01*
X136005845Y-122176271D01*
X136160497Y-122145509D01*
X136306179Y-122085166D01*
X136437289Y-121997561D01*
X136548789Y-121886061D01*
X136623898Y-121773653D01*
X136677510Y-121728848D01*
X136746835Y-121720141D01*
X136809863Y-121750295D01*
X136830102Y-121773653D01*
X136905210Y-121886060D01*
X136905213Y-121886064D01*
X137016707Y-121997558D01*
X137016711Y-121997561D01*
X137147814Y-122085162D01*
X137147827Y-122085169D01*
X137263682Y-122133157D01*
X137293503Y-122145509D01*
X137448078Y-122176256D01*
X137448153Y-122176271D01*
X137448156Y-122176272D01*
X137448158Y-122176272D01*
X137605844Y-122176272D01*
X137605845Y-122176271D01*
X137760497Y-122145509D01*
X137906179Y-122085166D01*
X138037289Y-121997561D01*
X138148789Y-121886061D01*
X138236394Y-121754951D01*
X138296737Y-121609269D01*
X138327500Y-121454614D01*
X138327500Y-121296930D01*
X138327500Y-121296927D01*
X138327499Y-121296925D01*
X138319602Y-121257226D01*
X138296737Y-121142275D01*
X138277025Y-121094685D01*
X138236397Y-120996599D01*
X138236390Y-120996586D01*
X138148789Y-120865483D01*
X138148786Y-120865479D01*
X138037292Y-120753985D01*
X138037288Y-120753982D01*
X137985406Y-120719315D01*
X145306499Y-120719315D01*
X145344947Y-120912601D01*
X145344950Y-120912611D01*
X145420364Y-121094679D01*
X145420371Y-121094692D01*
X145529860Y-121258553D01*
X145529863Y-121258557D01*
X145669214Y-121397908D01*
X145669218Y-121397911D01*
X145833079Y-121507400D01*
X145833092Y-121507407D01*
X146015160Y-121582821D01*
X146015165Y-121582823D01*
X146015169Y-121582823D01*
X146015170Y-121582824D01*
X146208456Y-121621272D01*
X146208459Y-121621272D01*
X146405543Y-121621272D01*
X146544606Y-121593610D01*
X146598835Y-121582823D01*
X146780914Y-121507404D01*
X146944782Y-121397911D01*
X147084139Y-121258554D01*
X147193632Y-121094686D01*
X147197540Y-121085250D01*
X147241376Y-121030846D01*
X147307669Y-121008776D01*
X147375369Y-121026051D01*
X147380028Y-121029204D01*
X147383633Y-121031285D01*
X147383635Y-121031287D01*
X147514865Y-121107053D01*
X147661234Y-121146272D01*
X147661236Y-121146272D01*
X147812764Y-121146272D01*
X147812766Y-121146272D01*
X147959135Y-121107053D01*
X148090365Y-121031287D01*
X148197515Y-120924137D01*
X148273281Y-120792907D01*
X148312500Y-120646538D01*
X148312500Y-120495006D01*
X152941500Y-120495006D01*
X152941500Y-120646538D01*
X152961000Y-120719313D01*
X152980719Y-120792908D01*
X153018602Y-120858522D01*
X153056485Y-120924137D01*
X153163635Y-121031287D01*
X153294865Y-121107053D01*
X153441234Y-121146272D01*
X153441236Y-121146272D01*
X153592764Y-121146272D01*
X153592766Y-121146272D01*
X153739135Y-121107053D01*
X153870365Y-121031287D01*
X153870366Y-121031285D01*
X153877403Y-121027223D01*
X153878749Y-121029555D01*
X153931553Y-121009129D01*
X154000001Y-121023153D01*
X154050001Y-121071957D01*
X154056458Y-121085246D01*
X154060367Y-121094685D01*
X154060371Y-121094692D01*
X154169860Y-121258553D01*
X154169863Y-121258557D01*
X154309214Y-121397908D01*
X154309218Y-121397911D01*
X154473079Y-121507400D01*
X154473092Y-121507407D01*
X154655160Y-121582821D01*
X154655165Y-121582823D01*
X154655169Y-121582823D01*
X154655170Y-121582824D01*
X154848456Y-121621272D01*
X154848459Y-121621272D01*
X155045543Y-121621272D01*
X155184606Y-121593610D01*
X155238835Y-121582823D01*
X155420914Y-121507404D01*
X155584782Y-121397911D01*
X155724139Y-121258554D01*
X155833632Y-121094686D01*
X155909051Y-120912607D01*
X155932861Y-120792907D01*
X155947500Y-120719315D01*
X155947500Y-119422228D01*
X155909052Y-119228942D01*
X155909051Y-119228941D01*
X155909051Y-119228937D01*
X155870375Y-119135564D01*
X155833635Y-119046864D01*
X155833628Y-119046851D01*
X155724139Y-118882990D01*
X155724136Y-118882986D01*
X155584785Y-118743635D01*
X155584781Y-118743632D01*
X155420920Y-118634143D01*
X155420907Y-118634136D01*
X155238839Y-118558722D01*
X155238829Y-118558719D01*
X155045543Y-118520272D01*
X155045541Y-118520272D01*
X154848459Y-118520272D01*
X154848457Y-118520272D01*
X154655170Y-118558719D01*
X154655160Y-118558722D01*
X154473092Y-118634136D01*
X154473079Y-118634143D01*
X154309218Y-118743632D01*
X154309214Y-118743635D01*
X154169863Y-118882986D01*
X154169860Y-118882990D01*
X154060371Y-119046851D01*
X154060364Y-119046864D01*
X153984950Y-119228932D01*
X153984947Y-119228942D01*
X153946500Y-119422228D01*
X153946500Y-119939438D01*
X153926815Y-120006477D01*
X153874011Y-120052232D01*
X153804853Y-120062176D01*
X153760501Y-120046826D01*
X153739137Y-120034491D01*
X153634584Y-120006477D01*
X153592766Y-119995272D01*
X153441234Y-119995272D01*
X153294863Y-120034491D01*
X153163635Y-120110257D01*
X153163632Y-120110259D01*
X153056487Y-120217404D01*
X153056485Y-120217407D01*
X152980719Y-120348635D01*
X152954762Y-120445510D01*
X152941500Y-120495006D01*
X148312500Y-120495006D01*
X148273281Y-120348637D01*
X148197515Y-120217407D01*
X148090365Y-120110257D01*
X147994573Y-120054951D01*
X147959136Y-120034491D01*
X147854584Y-120006477D01*
X147812766Y-119995272D01*
X147661234Y-119995272D01*
X147514862Y-120034491D01*
X147493499Y-120046826D01*
X147425598Y-120063297D01*
X147359572Y-120040445D01*
X147316382Y-119985523D01*
X147307500Y-119939438D01*
X147307500Y-119422228D01*
X147269052Y-119228942D01*
X147269051Y-119228941D01*
X147269051Y-119228937D01*
X147230375Y-119135564D01*
X147193635Y-119046864D01*
X147193628Y-119046851D01*
X147084139Y-118882990D01*
X147084136Y-118882986D01*
X146944785Y-118743635D01*
X146944781Y-118743632D01*
X146780920Y-118634143D01*
X146780907Y-118634136D01*
X146598839Y-118558722D01*
X146598829Y-118558719D01*
X146405543Y-118520272D01*
X146405541Y-118520272D01*
X146208459Y-118520272D01*
X146208457Y-118520272D01*
X146015170Y-118558719D01*
X146015160Y-118558722D01*
X145833092Y-118634136D01*
X145833079Y-118634143D01*
X145669218Y-118743632D01*
X145669214Y-118743635D01*
X145529863Y-118882986D01*
X145529860Y-118882990D01*
X145420371Y-119046851D01*
X145420364Y-119046864D01*
X145344950Y-119228932D01*
X145344947Y-119228942D01*
X145306500Y-119422228D01*
X145306500Y-119422231D01*
X145306500Y-120719313D01*
X145306500Y-120719315D01*
X145306499Y-120719315D01*
X137985406Y-120719315D01*
X137906185Y-120666381D01*
X137906172Y-120666374D01*
X137760501Y-120606036D01*
X137760489Y-120606033D01*
X137605845Y-120575272D01*
X137605842Y-120575272D01*
X137448158Y-120575272D01*
X137448155Y-120575272D01*
X137293510Y-120606033D01*
X137293498Y-120606036D01*
X137147827Y-120666374D01*
X137147814Y-120666381D01*
X137016711Y-120753982D01*
X137016707Y-120753985D01*
X136905213Y-120865479D01*
X136905210Y-120865483D01*
X136830102Y-120977890D01*
X136776490Y-121022695D01*
X136707165Y-121031402D01*
X136644137Y-121001247D01*
X136623898Y-120977890D01*
X136548789Y-120865483D01*
X136548786Y-120865479D01*
X136437292Y-120753985D01*
X136437288Y-120753982D01*
X136306185Y-120666381D01*
X136306172Y-120666374D01*
X136160501Y-120606036D01*
X136160492Y-120606033D01*
X136144960Y-120602944D01*
X136083049Y-120570558D01*
X136048476Y-120509841D01*
X136052217Y-120440072D01*
X136093084Y-120383401D01*
X136144962Y-120359709D01*
X136160497Y-120356620D01*
X136303079Y-120297561D01*
X136306172Y-120296280D01*
X136306172Y-120296279D01*
X136306179Y-120296277D01*
X136437289Y-120208672D01*
X136548789Y-120097172D01*
X136636394Y-119966062D01*
X136696737Y-119820380D01*
X136727500Y-119665725D01*
X136727500Y-119596925D01*
X138126500Y-119596925D01*
X138126500Y-119754618D01*
X138157261Y-119909261D01*
X138157264Y-119909273D01*
X138217602Y-120054944D01*
X138217609Y-120054957D01*
X138305210Y-120186060D01*
X138305213Y-120186064D01*
X138416707Y-120297558D01*
X138416711Y-120297561D01*
X138547814Y-120385162D01*
X138547827Y-120385169D01*
X138680377Y-120440072D01*
X138693503Y-120445509D01*
X138848153Y-120476271D01*
X138848156Y-120476272D01*
X138848158Y-120476272D01*
X139005844Y-120476272D01*
X139005845Y-120476271D01*
X139160497Y-120445509D01*
X139306179Y-120385166D01*
X139437289Y-120297561D01*
X139548789Y-120186061D01*
X139636394Y-120054951D01*
X139639760Y-120046826D01*
X139673213Y-119966062D01*
X139696737Y-119909269D01*
X139727500Y-119754614D01*
X139727500Y-119596930D01*
X139727500Y-119596927D01*
X139727499Y-119596925D01*
X139696740Y-119442285D01*
X139696735Y-119442270D01*
X139636397Y-119296599D01*
X139636390Y-119296586D01*
X139548789Y-119165483D01*
X139548786Y-119165479D01*
X139437292Y-119053985D01*
X139437288Y-119053982D01*
X139306185Y-118966381D01*
X139306172Y-118966374D01*
X139160501Y-118906036D01*
X139160489Y-118906033D01*
X139005845Y-118875272D01*
X139005842Y-118875272D01*
X138848158Y-118875272D01*
X138848155Y-118875272D01*
X138693510Y-118906033D01*
X138693498Y-118906036D01*
X138547827Y-118966374D01*
X138547814Y-118966381D01*
X138416711Y-119053982D01*
X138416707Y-119053985D01*
X138305213Y-119165479D01*
X138305210Y-119165483D01*
X138217609Y-119296586D01*
X138217602Y-119296599D01*
X138157264Y-119442270D01*
X138157261Y-119442282D01*
X138126500Y-119596925D01*
X136727500Y-119596925D01*
X136727500Y-119508041D01*
X136727500Y-119508038D01*
X136727499Y-119508036D01*
X136714420Y-119442285D01*
X136696737Y-119353386D01*
X136645187Y-119228932D01*
X136636397Y-119207710D01*
X136636390Y-119207697D01*
X136548789Y-119076594D01*
X136548786Y-119076590D01*
X136437292Y-118965096D01*
X136437288Y-118965093D01*
X136306185Y-118877492D01*
X136306172Y-118877485D01*
X136160501Y-118817147D01*
X136160489Y-118817144D01*
X136005845Y-118786383D01*
X136005842Y-118786383D01*
X135848158Y-118786383D01*
X135848155Y-118786383D01*
X135693510Y-118817144D01*
X135693507Y-118817145D01*
X135693506Y-118817145D01*
X135693503Y-118817146D01*
X135613372Y-118850337D01*
X135548952Y-118877020D01*
X135479482Y-118884488D01*
X135417003Y-118853212D01*
X135381351Y-118793123D01*
X135377500Y-118762458D01*
X135377500Y-117196925D01*
X144326500Y-117196925D01*
X144326500Y-117354618D01*
X144357261Y-117509261D01*
X144357264Y-117509273D01*
X144417602Y-117654944D01*
X144417609Y-117654957D01*
X144505210Y-117786060D01*
X144505213Y-117786064D01*
X144616707Y-117897558D01*
X144616711Y-117897561D01*
X144747814Y-117985162D01*
X144747827Y-117985169D01*
X144893498Y-118045507D01*
X144893503Y-118045509D01*
X145048153Y-118076271D01*
X145048156Y-118076272D01*
X145048158Y-118076272D01*
X145205844Y-118076272D01*
X145205845Y-118076271D01*
X145360497Y-118045509D01*
X145506179Y-117985166D01*
X145637289Y-117897561D01*
X145748789Y-117786061D01*
X145836394Y-117654951D01*
X145896737Y-117509269D01*
X145927500Y-117354614D01*
X145927500Y-117196930D01*
X145927500Y-117196927D01*
X145927499Y-117196925D01*
X145908363Y-117100723D01*
X145896737Y-117042275D01*
X145873333Y-116985772D01*
X145836397Y-116896599D01*
X145836395Y-116896595D01*
X145836394Y-116896593D01*
X145771401Y-116799325D01*
X145750524Y-116732649D01*
X145769008Y-116665269D01*
X145820987Y-116618578D01*
X145889957Y-116607402D01*
X145921956Y-116615874D01*
X145993498Y-116645507D01*
X145993503Y-116645509D01*
X146092843Y-116665269D01*
X146148153Y-116676271D01*
X146148156Y-116676272D01*
X146148158Y-116676272D01*
X146305844Y-116676272D01*
X146305845Y-116676271D01*
X146460497Y-116645509D01*
X146606179Y-116585166D01*
X146737289Y-116497561D01*
X146848789Y-116386061D01*
X146936394Y-116254951D01*
X146996737Y-116109269D01*
X147027500Y-115954614D01*
X147027500Y-115796930D01*
X147027500Y-115796927D01*
X147027499Y-115796925D01*
X153526500Y-115796925D01*
X153526500Y-115954618D01*
X153557261Y-116109261D01*
X153557264Y-116109273D01*
X153617602Y-116254944D01*
X153617609Y-116254957D01*
X153705210Y-116386060D01*
X153705213Y-116386064D01*
X153816707Y-116497558D01*
X153816711Y-116497561D01*
X153947814Y-116585162D01*
X153947827Y-116585169D01*
X154021957Y-116615874D01*
X154093503Y-116645509D01*
X154192843Y-116665269D01*
X154248153Y-116676271D01*
X154248156Y-116676272D01*
X154248158Y-116676272D01*
X154405844Y-116676272D01*
X154405845Y-116676271D01*
X154560497Y-116645509D01*
X154706179Y-116585166D01*
X154837289Y-116497561D01*
X154948789Y-116386061D01*
X155036394Y-116254951D01*
X155096737Y-116109269D01*
X155127500Y-115954614D01*
X155127500Y-115796930D01*
X155127500Y-115796927D01*
X155127499Y-115796925D01*
X155096738Y-115642279D01*
X155096736Y-115642273D01*
X155083155Y-115609485D01*
X156376500Y-115609485D01*
X156376500Y-115822058D01*
X156406312Y-116010288D01*
X156409754Y-116032015D01*
X156467389Y-116209397D01*
X156475444Y-116234186D01*
X156571951Y-116423592D01*
X156696890Y-116595558D01*
X156847213Y-116745881D01*
X157019182Y-116870822D01*
X157027946Y-116875288D01*
X157078742Y-116923263D01*
X157095536Y-116991084D01*
X157072998Y-117057219D01*
X157027946Y-117096256D01*
X157019182Y-117100721D01*
X156847213Y-117225662D01*
X156696890Y-117375985D01*
X156571951Y-117547951D01*
X156475444Y-117737357D01*
X156409753Y-117939532D01*
X156376500Y-118149485D01*
X156376500Y-118362058D01*
X156407648Y-118558722D01*
X156409754Y-118572015D01*
X156465516Y-118743633D01*
X156475444Y-118774186D01*
X156571951Y-118963592D01*
X156696890Y-119135558D01*
X156847213Y-119285881D01*
X157019182Y-119410822D01*
X157027946Y-119415288D01*
X157078742Y-119463263D01*
X157095536Y-119531084D01*
X157072998Y-119597219D01*
X157027946Y-119636256D01*
X157019182Y-119640721D01*
X156847213Y-119765662D01*
X156696890Y-119915985D01*
X156571951Y-120087951D01*
X156475444Y-120277357D01*
X156475443Y-120277359D01*
X156475443Y-120277360D01*
X156468880Y-120297558D01*
X156409753Y-120479532D01*
X156376500Y-120689485D01*
X156376500Y-120902058D01*
X156396693Y-121029555D01*
X156409754Y-121112015D01*
X156469835Y-121296925D01*
X156475444Y-121314186D01*
X156571951Y-121503592D01*
X156696890Y-121675558D01*
X156847213Y-121825881D01*
X157019182Y-121950822D01*
X157027946Y-121955288D01*
X157078742Y-122003263D01*
X157095536Y-122071084D01*
X157072998Y-122137219D01*
X157027946Y-122176256D01*
X157019182Y-122180721D01*
X156847213Y-122305662D01*
X156696890Y-122455985D01*
X156571951Y-122627951D01*
X156475444Y-122817357D01*
X156409753Y-123019532D01*
X156391747Y-123133217D01*
X156376500Y-123229485D01*
X156376500Y-123442059D01*
X156381857Y-123475884D01*
X156408599Y-123644727D01*
X156409754Y-123652015D01*
X156465053Y-123822208D01*
X156475444Y-123854186D01*
X156571951Y-124043592D01*
X156696890Y-124215558D01*
X156847213Y-124365881D01*
X157019179Y-124490820D01*
X157019181Y-124490821D01*
X157019184Y-124490823D01*
X157208588Y-124587329D01*
X157410757Y-124653018D01*
X157620713Y-124686272D01*
X157620714Y-124686272D01*
X157833286Y-124686272D01*
X157833287Y-124686272D01*
X158043243Y-124653018D01*
X158245412Y-124587329D01*
X158434816Y-124490823D01*
X158456789Y-124474858D01*
X158606786Y-124365881D01*
X158606788Y-124365878D01*
X158606792Y-124365876D01*
X158757104Y-124215564D01*
X158757106Y-124215560D01*
X158757109Y-124215558D01*
X158882048Y-124043592D01*
X158882047Y-124043592D01*
X158882051Y-124043588D01*
X158978557Y-123854184D01*
X159044246Y-123652015D01*
X159077500Y-123442059D01*
X159077500Y-123229485D01*
X159044246Y-123019529D01*
X158978557Y-122817360D01*
X158882051Y-122627956D01*
X158882049Y-122627953D01*
X158882048Y-122627951D01*
X158757109Y-122455985D01*
X158606786Y-122305662D01*
X158434820Y-122180723D01*
X158434115Y-122180363D01*
X158426054Y-122176257D01*
X158375259Y-122128284D01*
X158358463Y-122060464D01*
X158380999Y-121994328D01*
X158426054Y-121955287D01*
X158434816Y-121950823D01*
X158523954Y-121886061D01*
X158606786Y-121825881D01*
X158606788Y-121825878D01*
X158606792Y-121825876D01*
X158757104Y-121675564D01*
X158757106Y-121675560D01*
X158757109Y-121675558D01*
X158879276Y-121507407D01*
X158882051Y-121503588D01*
X158978557Y-121314184D01*
X159044246Y-121112015D01*
X159077500Y-120902059D01*
X159077500Y-120689485D01*
X159044246Y-120479529D01*
X158978557Y-120277360D01*
X158882051Y-120087956D01*
X158882049Y-120087953D01*
X158882048Y-120087951D01*
X158757109Y-119915985D01*
X158606786Y-119765662D01*
X158434820Y-119640723D01*
X158434115Y-119640363D01*
X158426054Y-119636257D01*
X158375259Y-119588284D01*
X158358463Y-119520464D01*
X158380999Y-119454328D01*
X158426054Y-119415287D01*
X158434816Y-119410823D01*
X158456789Y-119394858D01*
X158606786Y-119285881D01*
X158606788Y-119285878D01*
X158606792Y-119285876D01*
X158757104Y-119135564D01*
X158757106Y-119135560D01*
X158757109Y-119135558D01*
X158880957Y-118965094D01*
X158882051Y-118963588D01*
X158978557Y-118774184D01*
X159044246Y-118572015D01*
X159077500Y-118362059D01*
X159077500Y-118149485D01*
X159044246Y-117939529D01*
X158978557Y-117737360D01*
X158882051Y-117547956D01*
X158882049Y-117547953D01*
X158882048Y-117547951D01*
X158757109Y-117375985D01*
X158606786Y-117225662D01*
X158434820Y-117100723D01*
X158434115Y-117100363D01*
X158426054Y-117096257D01*
X158375259Y-117048284D01*
X158358463Y-116980464D01*
X158380999Y-116914328D01*
X158426054Y-116875287D01*
X158434816Y-116870823D01*
X158514341Y-116813045D01*
X158606786Y-116745881D01*
X158606788Y-116745878D01*
X158606792Y-116745876D01*
X158757104Y-116595564D01*
X158757106Y-116595560D01*
X158757109Y-116595558D01*
X158882048Y-116423592D01*
X158882047Y-116423592D01*
X158882051Y-116423588D01*
X158978557Y-116234184D01*
X159044246Y-116032015D01*
X159077500Y-115822059D01*
X159077500Y-115609485D01*
X159044246Y-115399529D01*
X158978557Y-115197360D01*
X158882051Y-115007956D01*
X158882049Y-115007953D01*
X158882048Y-115007951D01*
X158757109Y-114835985D01*
X158643181Y-114722057D01*
X158609696Y-114660734D01*
X158614680Y-114591042D01*
X158656552Y-114535109D01*
X158687529Y-114518194D01*
X158819086Y-114469126D01*
X158819093Y-114469122D01*
X158934187Y-114382962D01*
X158934190Y-114382959D01*
X159020350Y-114267865D01*
X159020354Y-114267858D01*
X159070596Y-114133151D01*
X159070598Y-114133144D01*
X159076999Y-114073616D01*
X159077000Y-114073599D01*
X159077000Y-113425772D01*
X158160012Y-113425772D01*
X158192925Y-113368765D01*
X158227000Y-113241598D01*
X158227000Y-113109946D01*
X158192925Y-112982779D01*
X158160012Y-112925772D01*
X159077000Y-112925772D01*
X159077000Y-112277944D01*
X159076999Y-112277927D01*
X159070598Y-112218399D01*
X159070596Y-112218392D01*
X159020354Y-112083685D01*
X159020350Y-112083678D01*
X158934190Y-111968584D01*
X158934187Y-111968581D01*
X158819093Y-111882421D01*
X158819086Y-111882417D01*
X158684379Y-111832175D01*
X158684372Y-111832173D01*
X158624844Y-111825772D01*
X157977000Y-111825772D01*
X157977000Y-112742760D01*
X157919993Y-112709847D01*
X157792826Y-112675772D01*
X157661174Y-112675772D01*
X157534007Y-112709847D01*
X157477000Y-112742760D01*
X157477000Y-111825772D01*
X156829155Y-111825772D01*
X156769627Y-111832173D01*
X156769620Y-111832175D01*
X156634913Y-111882417D01*
X156634906Y-111882421D01*
X156519812Y-111968581D01*
X156519809Y-111968584D01*
X156433649Y-112083678D01*
X156433645Y-112083685D01*
X156383403Y-112218392D01*
X156383401Y-112218399D01*
X156377000Y-112277927D01*
X156377000Y-112925772D01*
X157293988Y-112925772D01*
X157261075Y-112982779D01*
X157227000Y-113109946D01*
X157227000Y-113241598D01*
X157261075Y-113368765D01*
X157293988Y-113425772D01*
X156377000Y-113425772D01*
X156377000Y-114073616D01*
X156383401Y-114133144D01*
X156383403Y-114133151D01*
X156433645Y-114267858D01*
X156433649Y-114267865D01*
X156519809Y-114382959D01*
X156519812Y-114382962D01*
X156634906Y-114469122D01*
X156634913Y-114469126D01*
X156766470Y-114518194D01*
X156822404Y-114560065D01*
X156846821Y-114625530D01*
X156831969Y-114693803D01*
X156810819Y-114722057D01*
X156696889Y-114835987D01*
X156571951Y-115007951D01*
X156475444Y-115197357D01*
X156409753Y-115399532D01*
X156376500Y-115609485D01*
X155083155Y-115609485D01*
X155036397Y-115496599D01*
X155036390Y-115496586D01*
X154948789Y-115365483D01*
X154948786Y-115365479D01*
X154837292Y-115253985D01*
X154837288Y-115253982D01*
X154706185Y-115166381D01*
X154706172Y-115166374D01*
X154560501Y-115106036D01*
X154560489Y-115106033D01*
X154405845Y-115075272D01*
X154405842Y-115075272D01*
X154248158Y-115075272D01*
X154248155Y-115075272D01*
X154093510Y-115106033D01*
X154093498Y-115106036D01*
X153947827Y-115166374D01*
X153947814Y-115166381D01*
X153816711Y-115253982D01*
X153816707Y-115253985D01*
X153705213Y-115365479D01*
X153705210Y-115365483D01*
X153617609Y-115496586D01*
X153617602Y-115496599D01*
X153557264Y-115642270D01*
X153557261Y-115642282D01*
X153526500Y-115796925D01*
X147027499Y-115796925D01*
X146996738Y-115642282D01*
X146996737Y-115642275D01*
X146970463Y-115578844D01*
X146936397Y-115496599D01*
X146936390Y-115496586D01*
X146848789Y-115365483D01*
X146848786Y-115365479D01*
X146737292Y-115253985D01*
X146737288Y-115253982D01*
X146606185Y-115166381D01*
X146606172Y-115166374D01*
X146460501Y-115106036D01*
X146460489Y-115106033D01*
X146305845Y-115075272D01*
X146305842Y-115075272D01*
X146148158Y-115075272D01*
X146148155Y-115075272D01*
X145993510Y-115106033D01*
X145993498Y-115106036D01*
X145847827Y-115166374D01*
X145847814Y-115166381D01*
X145716711Y-115253982D01*
X145716707Y-115253985D01*
X145605213Y-115365479D01*
X145605210Y-115365483D01*
X145517609Y-115496586D01*
X145517602Y-115496599D01*
X145457264Y-115642270D01*
X145457261Y-115642282D01*
X145426500Y-115796925D01*
X145426500Y-115954618D01*
X145457261Y-116109261D01*
X145457264Y-116109273D01*
X145517602Y-116254944D01*
X145517609Y-116254957D01*
X145582597Y-116352217D01*
X145603475Y-116418894D01*
X145584991Y-116486274D01*
X145533012Y-116532965D01*
X145464042Y-116544141D01*
X145432044Y-116535670D01*
X145392502Y-116519291D01*
X145360497Y-116506035D01*
X145360493Y-116506034D01*
X145360489Y-116506033D01*
X145205845Y-116475272D01*
X145205842Y-116475272D01*
X145048158Y-116475272D01*
X145048155Y-116475272D01*
X144893510Y-116506033D01*
X144893498Y-116506036D01*
X144747827Y-116566374D01*
X144747814Y-116566381D01*
X144616711Y-116653982D01*
X144616707Y-116653985D01*
X144505213Y-116765479D01*
X144505210Y-116765483D01*
X144417609Y-116896586D01*
X144417602Y-116896599D01*
X144357264Y-117042270D01*
X144357261Y-117042282D01*
X144326500Y-117196925D01*
X135377500Y-117196925D01*
X135377500Y-116906758D01*
X135397185Y-116839719D01*
X135449989Y-116793964D01*
X135519147Y-116784020D01*
X135582703Y-116813045D01*
X135589181Y-116819077D01*
X135620213Y-116850109D01*
X135792179Y-116975048D01*
X135792181Y-116975049D01*
X135792184Y-116975051D01*
X135981588Y-117071557D01*
X136183757Y-117137246D01*
X136393713Y-117170500D01*
X136393714Y-117170500D01*
X136606286Y-117170500D01*
X136606287Y-117170500D01*
X136816243Y-117137246D01*
X137018412Y-117071557D01*
X137207816Y-116975051D01*
X137315805Y-116896593D01*
X137379786Y-116850109D01*
X137379788Y-116850106D01*
X137379792Y-116850104D01*
X137530104Y-116699792D01*
X137530106Y-116699788D01*
X137530109Y-116699786D01*
X137655048Y-116527820D01*
X137655047Y-116527820D01*
X137655051Y-116527816D01*
X137751557Y-116338412D01*
X137817246Y-116136243D01*
X137850500Y-115926287D01*
X137850500Y-115713713D01*
X137817246Y-115503757D01*
X137790406Y-115421153D01*
X139599500Y-115421153D01*
X139599500Y-115578846D01*
X139630261Y-115733489D01*
X139630264Y-115733501D01*
X139690602Y-115879172D01*
X139690609Y-115879185D01*
X139778210Y-116010288D01*
X139778213Y-116010292D01*
X139889707Y-116121786D01*
X139889711Y-116121789D01*
X140020814Y-116209390D01*
X140020827Y-116209397D01*
X140166498Y-116269735D01*
X140166503Y-116269737D01*
X140321153Y-116300499D01*
X140321156Y-116300500D01*
X140321158Y-116300500D01*
X140478844Y-116300500D01*
X140478845Y-116300499D01*
X140633497Y-116269737D01*
X140779179Y-116209394D01*
X140910289Y-116121789D01*
X141021789Y-116010289D01*
X141109394Y-115879179D01*
X141169737Y-115733497D01*
X141200500Y-115578842D01*
X141200500Y-115421158D01*
X141200500Y-115421155D01*
X141200499Y-115421153D01*
X141187732Y-115356970D01*
X141169737Y-115266503D01*
X141163900Y-115252410D01*
X141109397Y-115120827D01*
X141109390Y-115120814D01*
X141021789Y-114989711D01*
X141021786Y-114989707D01*
X140910292Y-114878213D01*
X140910288Y-114878210D01*
X140779185Y-114790609D01*
X140779172Y-114790602D01*
X140633501Y-114730264D01*
X140633489Y-114730261D01*
X140478845Y-114699500D01*
X140478842Y-114699500D01*
X140321158Y-114699500D01*
X140321155Y-114699500D01*
X140166510Y-114730261D01*
X140166498Y-114730264D01*
X140020827Y-114790602D01*
X140020814Y-114790609D01*
X139889711Y-114878210D01*
X139889707Y-114878213D01*
X139778213Y-114989707D01*
X139778210Y-114989711D01*
X139690609Y-115120814D01*
X139690602Y-115120827D01*
X139630264Y-115266498D01*
X139630261Y-115266510D01*
X139599500Y-115421153D01*
X137790406Y-115421153D01*
X137751557Y-115301588D01*
X137655051Y-115112184D01*
X137655049Y-115112181D01*
X137655048Y-115112179D01*
X137530109Y-114940213D01*
X137379786Y-114789890D01*
X137211032Y-114667285D01*
X137211028Y-114667283D01*
X137207816Y-114664949D01*
X137196929Y-114659402D01*
X137194847Y-114658238D01*
X137171992Y-114634926D01*
X137148259Y-114612512D01*
X137147664Y-114610112D01*
X137145933Y-114608346D01*
X137139309Y-114576376D01*
X137137415Y-114568726D01*
X148951927Y-114568726D01*
X148951927Y-114726419D01*
X148982688Y-114881062D01*
X148982691Y-114881074D01*
X149043029Y-115026745D01*
X149043036Y-115026758D01*
X149130637Y-115157861D01*
X149130640Y-115157865D01*
X149242134Y-115269359D01*
X149242138Y-115269362D01*
X149373241Y-115356963D01*
X149373254Y-115356970D01*
X149518925Y-115417308D01*
X149518930Y-115417310D01*
X149673580Y-115448072D01*
X149673583Y-115448073D01*
X149673585Y-115448073D01*
X149831271Y-115448073D01*
X149831272Y-115448072D01*
X149985924Y-115417310D01*
X150131606Y-115356967D01*
X150262716Y-115269362D01*
X150374216Y-115157862D01*
X150461821Y-115026752D01*
X150461822Y-115026749D01*
X150461824Y-115026746D01*
X150511133Y-114907701D01*
X150554973Y-114853297D01*
X150578242Y-114840592D01*
X150697287Y-114791283D01*
X150697290Y-114791281D01*
X150697293Y-114791280D01*
X150828403Y-114703675D01*
X150939903Y-114592175D01*
X151027508Y-114461065D01*
X151087851Y-114315383D01*
X151118614Y-114160728D01*
X151118614Y-114096925D01*
X151426500Y-114096925D01*
X151426500Y-114254618D01*
X151457261Y-114409261D01*
X151457264Y-114409273D01*
X151517602Y-114554944D01*
X151517609Y-114554957D01*
X151605210Y-114686060D01*
X151605213Y-114686064D01*
X151716707Y-114797558D01*
X151716711Y-114797561D01*
X151847814Y-114885162D01*
X151847827Y-114885169D01*
X151958366Y-114930955D01*
X151993503Y-114945509D01*
X152148153Y-114976271D01*
X152148156Y-114976272D01*
X152148158Y-114976272D01*
X152305844Y-114976272D01*
X152305845Y-114976271D01*
X152460497Y-114945509D01*
X152606179Y-114885166D01*
X152737289Y-114797561D01*
X152848789Y-114686061D01*
X152936394Y-114554951D01*
X152941614Y-114542350D01*
X152964337Y-114487491D01*
X152996737Y-114409269D01*
X153027500Y-114254614D01*
X153027500Y-114096930D01*
X153027500Y-114096927D01*
X153027499Y-114096925D01*
X152996737Y-113942275D01*
X152995040Y-113938177D01*
X152936397Y-113796599D01*
X152936390Y-113796586D01*
X152848789Y-113665483D01*
X152848786Y-113665479D01*
X152737292Y-113553985D01*
X152737288Y-113553982D01*
X152606185Y-113466381D01*
X152606172Y-113466374D01*
X152460501Y-113406036D01*
X152460489Y-113406033D01*
X152305845Y-113375272D01*
X152305842Y-113375272D01*
X152148158Y-113375272D01*
X152148155Y-113375272D01*
X151993510Y-113406033D01*
X151993498Y-113406036D01*
X151847827Y-113466374D01*
X151847814Y-113466381D01*
X151716711Y-113553982D01*
X151716707Y-113553985D01*
X151605213Y-113665479D01*
X151605210Y-113665483D01*
X151517609Y-113796586D01*
X151517602Y-113796599D01*
X151457264Y-113942270D01*
X151457261Y-113942282D01*
X151426500Y-114096925D01*
X151118614Y-114096925D01*
X151118614Y-114003044D01*
X151118614Y-114003041D01*
X151118613Y-114003039D01*
X151115585Y-113987816D01*
X151087851Y-113848389D01*
X151066394Y-113796586D01*
X151027511Y-113702713D01*
X151027504Y-113702700D01*
X150939903Y-113571597D01*
X150939900Y-113571593D01*
X150828406Y-113460099D01*
X150828402Y-113460096D01*
X150697299Y-113372495D01*
X150697286Y-113372488D01*
X150551615Y-113312150D01*
X150551603Y-113312147D01*
X150396959Y-113281386D01*
X150396956Y-113281386D01*
X150239272Y-113281386D01*
X150239269Y-113281386D01*
X150084624Y-113312147D01*
X150084612Y-113312150D01*
X149938941Y-113372488D01*
X149938928Y-113372495D01*
X149807825Y-113460096D01*
X149807821Y-113460099D01*
X149696327Y-113571593D01*
X149696324Y-113571597D01*
X149608723Y-113702700D01*
X149608718Y-113702710D01*
X149559407Y-113821758D01*
X149515566Y-113876161D01*
X149492299Y-113888866D01*
X149373251Y-113938177D01*
X149373241Y-113938182D01*
X149242138Y-114025783D01*
X149242134Y-114025786D01*
X149130640Y-114137280D01*
X149130637Y-114137284D01*
X149043036Y-114268387D01*
X149043029Y-114268400D01*
X148982691Y-114414071D01*
X148982688Y-114414083D01*
X148951927Y-114568726D01*
X137137415Y-114568726D01*
X137131463Y-114544692D01*
X137132260Y-114542350D01*
X137131759Y-114539929D01*
X137143468Y-114509460D01*
X137153999Y-114478556D01*
X137156016Y-114476807D01*
X137156823Y-114474710D01*
X137167320Y-114467012D01*
X137199054Y-114439515D01*
X137207816Y-114435051D01*
X137301814Y-114366758D01*
X137379786Y-114310109D01*
X137379788Y-114310106D01*
X137379792Y-114310104D01*
X137530104Y-114159792D01*
X137530106Y-114159788D01*
X137530109Y-114159786D01*
X137655048Y-113987820D01*
X137655047Y-113987820D01*
X137655051Y-113987816D01*
X137751557Y-113798412D01*
X137817246Y-113596243D01*
X137850500Y-113386287D01*
X137850500Y-113173713D01*
X137817246Y-112963757D01*
X137751557Y-112761588D01*
X137655051Y-112572184D01*
X137655049Y-112572181D01*
X137655048Y-112572179D01*
X137530109Y-112400213D01*
X137379786Y-112249890D01*
X137207820Y-112124951D01*
X137207115Y-112124591D01*
X137199054Y-112120485D01*
X137148259Y-112072512D01*
X137131463Y-112004692D01*
X137153999Y-111938556D01*
X137199054Y-111899515D01*
X137207816Y-111895051D01*
X137303171Y-111825772D01*
X137379786Y-111770109D01*
X137379788Y-111770106D01*
X137379792Y-111770104D01*
X137530104Y-111619792D01*
X137530106Y-111619788D01*
X137530109Y-111619786D01*
X137655048Y-111447820D01*
X137655047Y-111447820D01*
X137655051Y-111447816D01*
X137751557Y-111258412D01*
X137817246Y-111056243D01*
X137850500Y-110846287D01*
X137850500Y-110633713D01*
X137817246Y-110423757D01*
X137751557Y-110221588D01*
X137655051Y-110032184D01*
X137655049Y-110032181D01*
X137655048Y-110032179D01*
X137530109Y-109860213D01*
X137379786Y-109709890D01*
X137207820Y-109584951D01*
X137207115Y-109584591D01*
X137199054Y-109580485D01*
X137148259Y-109532512D01*
X137131463Y-109464692D01*
X137153999Y-109398556D01*
X137199054Y-109359515D01*
X137207816Y-109355051D01*
X137255742Y-109320231D01*
X137379786Y-109230109D01*
X137379788Y-109230106D01*
X137379792Y-109230104D01*
X137530104Y-109079792D01*
X137530106Y-109079788D01*
X137530109Y-109079786D01*
X137655048Y-108907820D01*
X137655047Y-108907820D01*
X137655051Y-108907816D01*
X137751557Y-108718412D01*
X137817246Y-108516243D01*
X137850500Y-108306287D01*
X137850500Y-108093713D01*
X137817246Y-107883757D01*
X137751557Y-107681588D01*
X137655051Y-107492184D01*
X137655049Y-107492181D01*
X137655048Y-107492179D01*
X137530109Y-107320213D01*
X137379786Y-107169890D01*
X137207820Y-107044951D01*
X137207115Y-107044591D01*
X137199054Y-107040485D01*
X137148259Y-106992512D01*
X137131463Y-106924692D01*
X137153999Y-106858556D01*
X137199054Y-106819515D01*
X137207816Y-106815051D01*
X137255292Y-106780558D01*
X137379786Y-106690109D01*
X137379788Y-106690106D01*
X137379792Y-106690104D01*
X137530104Y-106539792D01*
X137530106Y-106539788D01*
X137530109Y-106539786D01*
X137655048Y-106367820D01*
X137655047Y-106367820D01*
X137655051Y-106367816D01*
X137751557Y-106178412D01*
X137817246Y-105976243D01*
X137850500Y-105766287D01*
X137850500Y-105553713D01*
X137817246Y-105343757D01*
X137751557Y-105141588D01*
X137655051Y-104952184D01*
X137655049Y-104952181D01*
X137655048Y-104952179D01*
X137530109Y-104780213D01*
X137379786Y-104629890D01*
X137207820Y-104504951D01*
X137207115Y-104504591D01*
X137199054Y-104500485D01*
X137148259Y-104452512D01*
X137131463Y-104384692D01*
X137153999Y-104318556D01*
X137199054Y-104279515D01*
X137207816Y-104275051D01*
X137301814Y-104206758D01*
X137379786Y-104150109D01*
X137379788Y-104150106D01*
X137379792Y-104150104D01*
X137530104Y-103999792D01*
X137530106Y-103999788D01*
X137530109Y-103999786D01*
X137655048Y-103827820D01*
X137655047Y-103827820D01*
X137655051Y-103827816D01*
X137751557Y-103638412D01*
X137817246Y-103436243D01*
X137850500Y-103226287D01*
X137850500Y-103013713D01*
X137817246Y-102803757D01*
X137751557Y-102601588D01*
X137680896Y-102462907D01*
X138246500Y-102462907D01*
X138246500Y-104258642D01*
X138246501Y-104258648D01*
X138252908Y-104318255D01*
X138303202Y-104453100D01*
X138303206Y-104453107D01*
X138389452Y-104568316D01*
X138389455Y-104568319D01*
X138504664Y-104654565D01*
X138504671Y-104654569D01*
X138636082Y-104703582D01*
X138692016Y-104745453D01*
X138716433Y-104810917D01*
X138701582Y-104879190D01*
X138680431Y-104907445D01*
X138566889Y-105020987D01*
X138441951Y-105192951D01*
X138345444Y-105382357D01*
X138279753Y-105584532D01*
X138246500Y-105794485D01*
X138246500Y-106007058D01*
X138278526Y-106209265D01*
X138279754Y-106217015D01*
X138334680Y-106386060D01*
X138345444Y-106419186D01*
X138441951Y-106608592D01*
X138566890Y-106780558D01*
X138717213Y-106930881D01*
X138889179Y-107055820D01*
X138889181Y-107055821D01*
X138889184Y-107055823D01*
X138898493Y-107060566D01*
X138949290Y-107108538D01*
X138966087Y-107176359D01*
X138943552Y-107242494D01*
X138898502Y-107281534D01*
X138889443Y-107286150D01*
X138717540Y-107411044D01*
X138717535Y-107411048D01*
X138567276Y-107561307D01*
X138567272Y-107561312D01*
X138442379Y-107733214D01*
X138345904Y-107922554D01*
X138280242Y-108124642D01*
X138280242Y-108124645D01*
X138269769Y-108190772D01*
X139163988Y-108190772D01*
X139131075Y-108247779D01*
X139097000Y-108374946D01*
X139097000Y-108506598D01*
X139131075Y-108633765D01*
X139163988Y-108690772D01*
X138269769Y-108690772D01*
X138280242Y-108756898D01*
X138280242Y-108756901D01*
X138345904Y-108958989D01*
X138442379Y-109148329D01*
X138567272Y-109320231D01*
X138567276Y-109320236D01*
X138717535Y-109470495D01*
X138717540Y-109470499D01*
X138889444Y-109595394D01*
X138898495Y-109600006D01*
X138949292Y-109647980D01*
X138966087Y-109715801D01*
X138943550Y-109781936D01*
X138898499Y-109820974D01*
X138889182Y-109825721D01*
X138717213Y-109950662D01*
X138566890Y-110100985D01*
X138441951Y-110272951D01*
X138345444Y-110462357D01*
X138279753Y-110664532D01*
X138246500Y-110874485D01*
X138246500Y-111087058D01*
X138273794Y-111259390D01*
X138279754Y-111297015D01*
X138328752Y-111447816D01*
X138345444Y-111499186D01*
X138441951Y-111688592D01*
X138566890Y-111860558D01*
X138717213Y-112010881D01*
X138889179Y-112135820D01*
X138889181Y-112135821D01*
X138889184Y-112135823D01*
X139078588Y-112232329D01*
X139280757Y-112298018D01*
X139490713Y-112331272D01*
X139490714Y-112331272D01*
X139703286Y-112331272D01*
X139703287Y-112331272D01*
X139913243Y-112298018D01*
X140115412Y-112232329D01*
X140304816Y-112135823D01*
X140326789Y-112119858D01*
X140476786Y-112010881D01*
X140476788Y-112010878D01*
X140476792Y-112010876D01*
X140627104Y-111860564D01*
X140627106Y-111860560D01*
X140627109Y-111860558D01*
X140752048Y-111688592D01*
X140752047Y-111688592D01*
X140752051Y-111688588D01*
X140848557Y-111499184D01*
X140914246Y-111297015D01*
X140947500Y-111087059D01*
X140947500Y-110896925D01*
X143926500Y-110896925D01*
X143926500Y-111054618D01*
X143957260Y-111209260D01*
X143957262Y-111209265D01*
X143957263Y-111209269D01*
X143985864Y-111278319D01*
X143985865Y-111278321D01*
X143993333Y-111347790D01*
X143985865Y-111373219D01*
X143957263Y-111442275D01*
X143957262Y-111442278D01*
X143957260Y-111442283D01*
X143926500Y-111596925D01*
X143926500Y-111754618D01*
X143957260Y-111909260D01*
X143957262Y-111909265D01*
X143957263Y-111909269D01*
X143981832Y-111968584D01*
X143985865Y-111978321D01*
X143993333Y-112047790D01*
X143985865Y-112073219D01*
X143957263Y-112142275D01*
X143957262Y-112142278D01*
X143957260Y-112142283D01*
X143926500Y-112296925D01*
X143926500Y-112454618D01*
X143957261Y-112609261D01*
X143957264Y-112609273D01*
X144017602Y-112754944D01*
X144017609Y-112754957D01*
X144105210Y-112886060D01*
X144105213Y-112886064D01*
X144216707Y-112997558D01*
X144216711Y-112997561D01*
X144347814Y-113085162D01*
X144347827Y-113085169D01*
X144493498Y-113145507D01*
X144493503Y-113145509D01*
X144615295Y-113169735D01*
X144648153Y-113176271D01*
X144648156Y-113176272D01*
X144648158Y-113176272D01*
X144805844Y-113176272D01*
X144805845Y-113176271D01*
X144960497Y-113145509D01*
X145106179Y-113085166D01*
X145237289Y-112997561D01*
X145348789Y-112886061D01*
X145436394Y-112754951D01*
X145496737Y-112609269D01*
X145527500Y-112454614D01*
X145527500Y-112321153D01*
X153449500Y-112321153D01*
X153449500Y-112478846D01*
X153480261Y-112633489D01*
X153480264Y-112633501D01*
X153540602Y-112779172D01*
X153540609Y-112779185D01*
X153628210Y-112910288D01*
X153628213Y-112910292D01*
X153739707Y-113021786D01*
X153739711Y-113021789D01*
X153870814Y-113109390D01*
X153870827Y-113109397D01*
X153958013Y-113145510D01*
X154016503Y-113169737D01*
X154171153Y-113200499D01*
X154171156Y-113200500D01*
X154171158Y-113200500D01*
X154328844Y-113200500D01*
X154328845Y-113200499D01*
X154483497Y-113169737D01*
X154596166Y-113123067D01*
X154629172Y-113109397D01*
X154629172Y-113109396D01*
X154629179Y-113109394D01*
X154760289Y-113021789D01*
X154871789Y-112910289D01*
X154959394Y-112779179D01*
X154969430Y-112754951D01*
X155019735Y-112633501D01*
X155019737Y-112633497D01*
X155050500Y-112478842D01*
X155050500Y-112321158D01*
X155050500Y-112321155D01*
X155046056Y-112298815D01*
X155046056Y-112298814D01*
X155019738Y-112166510D01*
X155019737Y-112166503D01*
X155009705Y-112142283D01*
X154959397Y-112020827D01*
X154959390Y-112020814D01*
X154871789Y-111889711D01*
X154871786Y-111889707D01*
X154760292Y-111778213D01*
X154760288Y-111778210D01*
X154629185Y-111690609D01*
X154629172Y-111690602D01*
X154483501Y-111630264D01*
X154483489Y-111630261D01*
X154328845Y-111599500D01*
X154328842Y-111599500D01*
X154171158Y-111599500D01*
X154171155Y-111599500D01*
X154016510Y-111630261D01*
X154016498Y-111630264D01*
X153870827Y-111690602D01*
X153870814Y-111690609D01*
X153739711Y-111778210D01*
X153739707Y-111778213D01*
X153628213Y-111889707D01*
X153628210Y-111889711D01*
X153540609Y-112020814D01*
X153540602Y-112020827D01*
X153480264Y-112166498D01*
X153480261Y-112166510D01*
X153449500Y-112321153D01*
X145527500Y-112321153D01*
X145527500Y-112296930D01*
X145527500Y-112296927D01*
X145527499Y-112296925D01*
X145514650Y-112232329D01*
X145496737Y-112142275D01*
X145468134Y-112073222D01*
X145460666Y-112003756D01*
X145468133Y-111978324D01*
X145496737Y-111909269D01*
X145527500Y-111754614D01*
X145527500Y-111596930D01*
X145527500Y-111596927D01*
X145527499Y-111596925D01*
X145497839Y-111447816D01*
X145496737Y-111442275D01*
X145468134Y-111373222D01*
X145460666Y-111303756D01*
X145468133Y-111278324D01*
X145496737Y-111209269D01*
X145527500Y-111054614D01*
X145527500Y-110896930D01*
X145527500Y-110896927D01*
X145527499Y-110896925D01*
X145504937Y-110783501D01*
X145496737Y-110742275D01*
X145452020Y-110634317D01*
X145436397Y-110596599D01*
X145436395Y-110596595D01*
X145436394Y-110596593D01*
X145389602Y-110526564D01*
X145352578Y-110471153D01*
X154599500Y-110471153D01*
X154599500Y-110628846D01*
X154630261Y-110783489D01*
X154630264Y-110783501D01*
X154690602Y-110929172D01*
X154690609Y-110929185D01*
X154778210Y-111060288D01*
X154778213Y-111060292D01*
X154889707Y-111171786D01*
X154889711Y-111171789D01*
X155020814Y-111259390D01*
X155020827Y-111259397D01*
X155127921Y-111303756D01*
X155166503Y-111319737D01*
X155307534Y-111347790D01*
X155321153Y-111350499D01*
X155321156Y-111350500D01*
X155321158Y-111350500D01*
X155478844Y-111350500D01*
X155478845Y-111350499D01*
X155633497Y-111319737D01*
X155779179Y-111259394D01*
X155910289Y-111171789D01*
X156021789Y-111060289D01*
X156109394Y-110929179D01*
X156169737Y-110783497D01*
X156200500Y-110628842D01*
X156200500Y-110471158D01*
X156200500Y-110471155D01*
X156200499Y-110471153D01*
X156184531Y-110390876D01*
X156169737Y-110316503D01*
X156167163Y-110310288D01*
X156109397Y-110170827D01*
X156109390Y-110170814D01*
X156021789Y-110039711D01*
X156021786Y-110039707D01*
X155910292Y-109928213D01*
X155910288Y-109928210D01*
X155779185Y-109840609D01*
X155779172Y-109840602D01*
X155633501Y-109780264D01*
X155633489Y-109780261D01*
X155478845Y-109749500D01*
X155478842Y-109749500D01*
X155321158Y-109749500D01*
X155321155Y-109749500D01*
X155166510Y-109780261D01*
X155166498Y-109780264D01*
X155020827Y-109840602D01*
X155020814Y-109840609D01*
X154889711Y-109928210D01*
X154889707Y-109928213D01*
X154778213Y-110039707D01*
X154778210Y-110039711D01*
X154690609Y-110170814D01*
X154690602Y-110170827D01*
X154630264Y-110316498D01*
X154630261Y-110316510D01*
X154599500Y-110471153D01*
X145352578Y-110471153D01*
X145348789Y-110465482D01*
X145237292Y-110353985D01*
X145237288Y-110353982D01*
X145106185Y-110266381D01*
X145106172Y-110266374D01*
X144960501Y-110206036D01*
X144960489Y-110206033D01*
X144805845Y-110175272D01*
X144805842Y-110175272D01*
X144648158Y-110175272D01*
X144648155Y-110175272D01*
X144493510Y-110206033D01*
X144493498Y-110206036D01*
X144347827Y-110266374D01*
X144347814Y-110266381D01*
X144216711Y-110353982D01*
X144216707Y-110353985D01*
X144105213Y-110465479D01*
X144105210Y-110465483D01*
X144017609Y-110596586D01*
X144017602Y-110596599D01*
X143957264Y-110742270D01*
X143957261Y-110742282D01*
X143926500Y-110896925D01*
X140947500Y-110896925D01*
X140947500Y-110874485D01*
X140914938Y-110668899D01*
X140914795Y-110667885D01*
X140919708Y-110634317D01*
X140924058Y-110600656D01*
X140924756Y-110599825D01*
X140924914Y-110598752D01*
X140947212Y-110573151D01*
X140969055Y-110547204D01*
X140970090Y-110546883D01*
X140970804Y-110546065D01*
X141003418Y-110536578D01*
X141035806Y-110526564D01*
X141037037Y-110526799D01*
X141037893Y-110526551D01*
X141041826Y-110527716D01*
X141085029Y-110535990D01*
X141166498Y-110569735D01*
X141166503Y-110569737D01*
X141312370Y-110598752D01*
X141321153Y-110600499D01*
X141321156Y-110600500D01*
X141321158Y-110600500D01*
X141478844Y-110600500D01*
X141478845Y-110600499D01*
X141633497Y-110569737D01*
X141779179Y-110509394D01*
X141910289Y-110421789D01*
X142021789Y-110310289D01*
X142109394Y-110179179D01*
X142112854Y-110170827D01*
X142167163Y-110039711D01*
X142169737Y-110033497D01*
X142200500Y-109878842D01*
X142200500Y-109721158D01*
X142200500Y-109721155D01*
X142200499Y-109721153D01*
X142191719Y-109677015D01*
X142169737Y-109566503D01*
X142131965Y-109475312D01*
X142109397Y-109420827D01*
X142109390Y-109420814D01*
X142021789Y-109289711D01*
X142021786Y-109289707D01*
X141910292Y-109178213D01*
X141910288Y-109178210D01*
X141779185Y-109090609D01*
X141779172Y-109090602D01*
X141633501Y-109030264D01*
X141633489Y-109030261D01*
X141478845Y-108999500D01*
X141478842Y-108999500D01*
X141321158Y-108999500D01*
X141321155Y-108999500D01*
X141166510Y-109030261D01*
X141166498Y-109030264D01*
X141020319Y-109090813D01*
X140950850Y-109098282D01*
X140888371Y-109067006D01*
X140852719Y-109006917D01*
X140854936Y-108937934D01*
X140913757Y-108756901D01*
X140913757Y-108756898D01*
X140924231Y-108690772D01*
X140030012Y-108690772D01*
X140062925Y-108633765D01*
X140097000Y-108506598D01*
X140097000Y-108374946D01*
X140062925Y-108247779D01*
X140030012Y-108190772D01*
X140924231Y-108190772D01*
X140913757Y-108124645D01*
X140913757Y-108124642D01*
X140848095Y-107922554D01*
X140751620Y-107733214D01*
X140626727Y-107561312D01*
X140626723Y-107561307D01*
X140476464Y-107411048D01*
X140476459Y-107411044D01*
X140304555Y-107286149D01*
X140295500Y-107281535D01*
X140244706Y-107233560D01*
X140227912Y-107165738D01*
X140250451Y-107099604D01*
X140295508Y-107060565D01*
X140304816Y-107055823D01*
X140391957Y-106992512D01*
X140476786Y-106930881D01*
X140476788Y-106930878D01*
X140476792Y-106930876D01*
X140627104Y-106780564D01*
X140627106Y-106780560D01*
X140627109Y-106780558D01*
X140752048Y-106608592D01*
X140752047Y-106608592D01*
X140752051Y-106608588D01*
X140848557Y-106419184D01*
X140914246Y-106217015D01*
X140947500Y-106007059D01*
X140947500Y-105796925D01*
X146126500Y-105796925D01*
X146126500Y-105954618D01*
X146157261Y-106109261D01*
X146157264Y-106109273D01*
X146217602Y-106254944D01*
X146217609Y-106254957D01*
X146305210Y-106386060D01*
X146305213Y-106386064D01*
X146416707Y-106497558D01*
X146416711Y-106497561D01*
X146547814Y-106585162D01*
X146547827Y-106585169D01*
X146686861Y-106642758D01*
X146693503Y-106645509D01*
X146848153Y-106676271D01*
X146848156Y-106676272D01*
X146848158Y-106676272D01*
X147005844Y-106676272D01*
X147005845Y-106676271D01*
X147160497Y-106645509D01*
X147306179Y-106585166D01*
X147437289Y-106497561D01*
X147548789Y-106386061D01*
X147636394Y-106254951D01*
X147696737Y-106109269D01*
X147696738Y-106109261D01*
X147696802Y-106109108D01*
X147740643Y-106054704D01*
X147806937Y-106032638D01*
X147874636Y-106049916D01*
X147914466Y-106087667D01*
X147927304Y-106106880D01*
X147948182Y-106173557D01*
X147929698Y-106240938D01*
X147927304Y-106244663D01*
X147892609Y-106296586D01*
X147892602Y-106296599D01*
X147832264Y-106442270D01*
X147832261Y-106442282D01*
X147801500Y-106596925D01*
X147801500Y-106754618D01*
X147832261Y-106909261D01*
X147832264Y-106909273D01*
X147892602Y-107054944D01*
X147892609Y-107054957D01*
X147980210Y-107186060D01*
X147980213Y-107186064D01*
X148091707Y-107297558D01*
X148091711Y-107297561D01*
X148222814Y-107385162D01*
X148222827Y-107385169D01*
X148368498Y-107445507D01*
X148368503Y-107445509D01*
X148523153Y-107476271D01*
X148523156Y-107476272D01*
X148523158Y-107476272D01*
X148680844Y-107476272D01*
X148680845Y-107476271D01*
X148835497Y-107445509D01*
X148981179Y-107385166D01*
X149033110Y-107350466D01*
X149099785Y-107329588D01*
X149167165Y-107348072D01*
X149170863Y-107350448D01*
X149222821Y-107385166D01*
X149222823Y-107385167D01*
X149222825Y-107385168D01*
X149285296Y-107411044D01*
X149368503Y-107445509D01*
X149523153Y-107476271D01*
X149523156Y-107476272D01*
X149523158Y-107476272D01*
X149680844Y-107476272D01*
X149680845Y-107476271D01*
X149835497Y-107445509D01*
X149981179Y-107385166D01*
X150112289Y-107297561D01*
X150223789Y-107186061D01*
X150311394Y-107054951D01*
X150371737Y-106909269D01*
X150402500Y-106754614D01*
X150402500Y-106596930D01*
X150402500Y-106596927D01*
X150402499Y-106596925D01*
X150400159Y-106585162D01*
X150371737Y-106442275D01*
X150362173Y-106419186D01*
X150311396Y-106296597D01*
X150311394Y-106296594D01*
X150311394Y-106296593D01*
X150276694Y-106244661D01*
X150255816Y-106177987D01*
X150274300Y-106110607D01*
X150276676Y-106106908D01*
X150311394Y-106054951D01*
X150371737Y-105909269D01*
X150374192Y-105896925D01*
X151026500Y-105896925D01*
X151026500Y-106054618D01*
X151057260Y-106209260D01*
X151057262Y-106209265D01*
X151057263Y-106209269D01*
X151085864Y-106278319D01*
X151085865Y-106278321D01*
X151093333Y-106347790D01*
X151085865Y-106373219D01*
X151057263Y-106442275D01*
X151057262Y-106442278D01*
X151057260Y-106442283D01*
X151026500Y-106596925D01*
X151026500Y-106754618D01*
X151057261Y-106909261D01*
X151057264Y-106909273D01*
X151117602Y-107054944D01*
X151117609Y-107054957D01*
X151205210Y-107186060D01*
X151205213Y-107186064D01*
X151316707Y-107297558D01*
X151316711Y-107297561D01*
X151447814Y-107385162D01*
X151447827Y-107385169D01*
X151593498Y-107445507D01*
X151593503Y-107445509D01*
X151748153Y-107476271D01*
X151748156Y-107476272D01*
X151748158Y-107476272D01*
X151905844Y-107476272D01*
X151905845Y-107476271D01*
X152060497Y-107445509D01*
X152206179Y-107385166D01*
X152337289Y-107297561D01*
X152448789Y-107186061D01*
X152536394Y-107054951D01*
X152596737Y-106909269D01*
X152627500Y-106754614D01*
X152627500Y-106596930D01*
X152627500Y-106596927D01*
X152627499Y-106596925D01*
X152625159Y-106585162D01*
X152596737Y-106442275D01*
X152568134Y-106373222D01*
X152560666Y-106303756D01*
X152568133Y-106278324D01*
X152596737Y-106209269D01*
X152627500Y-106054614D01*
X152627500Y-105896930D01*
X152627500Y-105896927D01*
X152627499Y-105896925D01*
X152621476Y-105866645D01*
X152596737Y-105742275D01*
X152596735Y-105742270D01*
X152536397Y-105596599D01*
X152536390Y-105596586D01*
X152448789Y-105465483D01*
X152448786Y-105465479D01*
X152337292Y-105353985D01*
X152337288Y-105353982D01*
X152206185Y-105266381D01*
X152206172Y-105266374D01*
X152060501Y-105206036D01*
X152060489Y-105206033D01*
X151905845Y-105175272D01*
X151905842Y-105175272D01*
X151748158Y-105175272D01*
X151748155Y-105175272D01*
X151593510Y-105206033D01*
X151593498Y-105206036D01*
X151447827Y-105266374D01*
X151447814Y-105266381D01*
X151316711Y-105353982D01*
X151316707Y-105353985D01*
X151205213Y-105465479D01*
X151205210Y-105465483D01*
X151117609Y-105596586D01*
X151117602Y-105596599D01*
X151057264Y-105742270D01*
X151057261Y-105742282D01*
X151026500Y-105896925D01*
X150374192Y-105896925D01*
X150380216Y-105866646D01*
X150380216Y-105866645D01*
X150402499Y-105754618D01*
X150402500Y-105754616D01*
X150402500Y-105596927D01*
X150402499Y-105596925D01*
X150394375Y-105556084D01*
X150371737Y-105442275D01*
X150346920Y-105382360D01*
X150311397Y-105296599D01*
X150311390Y-105296586D01*
X150223789Y-105165483D01*
X150223786Y-105165479D01*
X150112292Y-105053985D01*
X150112288Y-105053982D01*
X149981185Y-104966381D01*
X149981172Y-104966374D01*
X149835501Y-104906036D01*
X149835489Y-104906033D01*
X149680845Y-104875272D01*
X149680842Y-104875272D01*
X149523158Y-104875272D01*
X149523155Y-104875272D01*
X149368510Y-104906033D01*
X149368498Y-104906036D01*
X149222827Y-104966374D01*
X149222814Y-104966381D01*
X149170891Y-105001076D01*
X149104214Y-105021954D01*
X149036833Y-105003470D01*
X149033109Y-105001076D01*
X148981185Y-104966381D01*
X148981172Y-104966374D01*
X148835501Y-104906036D01*
X148835489Y-104906033D01*
X148680845Y-104875272D01*
X148680842Y-104875272D01*
X148523158Y-104875272D01*
X148523155Y-104875272D01*
X148368510Y-104906033D01*
X148368498Y-104906036D01*
X148222827Y-104966374D01*
X148222814Y-104966381D01*
X148091711Y-105053982D01*
X148091707Y-105053985D01*
X147980213Y-105165479D01*
X147980210Y-105165483D01*
X147892609Y-105296586D01*
X147892604Y-105296595D01*
X147832196Y-105442436D01*
X147788355Y-105496839D01*
X147722061Y-105518904D01*
X147654362Y-105501625D01*
X147614533Y-105463874D01*
X147548789Y-105365483D01*
X147548786Y-105365479D01*
X147437292Y-105253985D01*
X147437288Y-105253982D01*
X147306185Y-105166381D01*
X147306172Y-105166374D01*
X147160501Y-105106036D01*
X147160489Y-105106033D01*
X147005845Y-105075272D01*
X147005842Y-105075272D01*
X146848158Y-105075272D01*
X146848155Y-105075272D01*
X146693510Y-105106033D01*
X146693498Y-105106036D01*
X146547827Y-105166374D01*
X146547814Y-105166381D01*
X146416711Y-105253982D01*
X146416707Y-105253985D01*
X146305213Y-105365479D01*
X146305210Y-105365483D01*
X146217609Y-105496586D01*
X146217602Y-105496599D01*
X146157264Y-105642270D01*
X146157261Y-105642282D01*
X146126500Y-105796925D01*
X140947500Y-105796925D01*
X140947500Y-105794485D01*
X140914246Y-105584529D01*
X140848557Y-105382360D01*
X140752051Y-105192956D01*
X140752049Y-105192953D01*
X140752048Y-105192951D01*
X140627109Y-105020985D01*
X140513569Y-104907445D01*
X140480084Y-104846122D01*
X140485068Y-104776430D01*
X140526940Y-104720497D01*
X140557915Y-104703582D01*
X140689331Y-104654568D01*
X140804546Y-104568318D01*
X140890796Y-104453103D01*
X140941091Y-104318255D01*
X140947500Y-104258645D01*
X140947500Y-104174485D01*
X156376500Y-104174485D01*
X156376500Y-104387058D01*
X156407389Y-104582088D01*
X156409754Y-104597015D01*
X156469277Y-104780208D01*
X156475444Y-104799186D01*
X156571951Y-104988592D01*
X156696890Y-105160558D01*
X156847213Y-105310881D01*
X157019182Y-105435822D01*
X157027946Y-105440288D01*
X157078742Y-105488263D01*
X157095536Y-105556084D01*
X157072998Y-105622219D01*
X157027946Y-105661256D01*
X157019182Y-105665721D01*
X156847213Y-105790662D01*
X156696890Y-105940985D01*
X156571951Y-106112951D01*
X156475444Y-106302357D01*
X156409753Y-106504532D01*
X156376500Y-106714485D01*
X156376500Y-106927058D01*
X156407389Y-107122088D01*
X156409754Y-107137015D01*
X156469277Y-107320208D01*
X156475444Y-107339186D01*
X156571951Y-107528592D01*
X156696890Y-107700558D01*
X156847213Y-107850881D01*
X157019182Y-107975822D01*
X157027946Y-107980288D01*
X157078742Y-108028263D01*
X157095536Y-108096084D01*
X157072998Y-108162219D01*
X157027946Y-108201256D01*
X157019182Y-108205721D01*
X156847213Y-108330662D01*
X156696890Y-108480985D01*
X156571951Y-108652951D01*
X156475444Y-108842357D01*
X156409753Y-109044532D01*
X156376500Y-109254485D01*
X156376500Y-109467058D01*
X156407617Y-109663526D01*
X156409754Y-109677015D01*
X156475333Y-109878846D01*
X156475444Y-109879186D01*
X156571951Y-110068592D01*
X156696890Y-110240558D01*
X156847213Y-110390881D01*
X157019179Y-110515820D01*
X157019181Y-110515821D01*
X157019184Y-110515823D01*
X157208588Y-110612329D01*
X157410757Y-110678018D01*
X157620713Y-110711272D01*
X157620714Y-110711272D01*
X157833286Y-110711272D01*
X157833287Y-110711272D01*
X158043243Y-110678018D01*
X158245412Y-110612329D01*
X158434816Y-110515823D01*
X158496297Y-110471155D01*
X158606786Y-110390881D01*
X158606788Y-110390878D01*
X158606792Y-110390876D01*
X158757104Y-110240564D01*
X158757106Y-110240560D01*
X158757109Y-110240558D01*
X158882048Y-110068592D01*
X158882047Y-110068592D01*
X158882051Y-110068588D01*
X158978557Y-109879184D01*
X159044246Y-109677015D01*
X159077500Y-109467059D01*
X159077500Y-109254485D01*
X159044246Y-109044529D01*
X158978557Y-108842360D01*
X158882051Y-108652956D01*
X158882049Y-108652953D01*
X158882048Y-108652951D01*
X158757109Y-108480985D01*
X158606786Y-108330662D01*
X158434820Y-108205723D01*
X158434115Y-108205363D01*
X158426054Y-108201257D01*
X158375259Y-108153284D01*
X158358463Y-108085464D01*
X158380999Y-108019328D01*
X158426054Y-107980287D01*
X158434816Y-107975823D01*
X158561535Y-107883757D01*
X158606786Y-107850881D01*
X158606788Y-107850878D01*
X158606792Y-107850876D01*
X158757104Y-107700564D01*
X158757106Y-107700560D01*
X158757109Y-107700558D01*
X158882048Y-107528592D01*
X158882047Y-107528592D01*
X158882051Y-107528588D01*
X158978557Y-107339184D01*
X159044246Y-107137015D01*
X159077500Y-106927059D01*
X159077500Y-106714485D01*
X159044246Y-106504529D01*
X158978557Y-106302360D01*
X158882051Y-106112956D01*
X158882049Y-106112953D01*
X158882048Y-106112951D01*
X158757109Y-105940985D01*
X158606786Y-105790662D01*
X158434820Y-105665723D01*
X158434115Y-105665363D01*
X158426054Y-105661257D01*
X158375259Y-105613284D01*
X158358463Y-105545464D01*
X158380999Y-105479328D01*
X158426054Y-105440287D01*
X158434816Y-105435823D01*
X158508406Y-105382357D01*
X158606786Y-105310881D01*
X158606788Y-105310878D01*
X158606792Y-105310876D01*
X158757104Y-105160564D01*
X158757106Y-105160560D01*
X158757109Y-105160558D01*
X158882048Y-104988592D01*
X158882047Y-104988592D01*
X158882051Y-104988588D01*
X158978557Y-104799184D01*
X159044246Y-104597015D01*
X159077500Y-104387059D01*
X159077500Y-104174485D01*
X159044246Y-103964529D01*
X158978557Y-103762360D01*
X158882051Y-103572956D01*
X158882049Y-103572953D01*
X158882048Y-103572951D01*
X158757109Y-103400985D01*
X158643181Y-103287057D01*
X158609696Y-103225734D01*
X158614680Y-103156042D01*
X158656552Y-103100109D01*
X158687529Y-103083194D01*
X158819086Y-103034126D01*
X158819093Y-103034122D01*
X158934187Y-102947962D01*
X158934190Y-102947959D01*
X159020350Y-102832865D01*
X159020354Y-102832858D01*
X159070596Y-102698151D01*
X159070598Y-102698144D01*
X159076999Y-102638616D01*
X159077000Y-102638599D01*
X159077000Y-101990772D01*
X158160012Y-101990772D01*
X158192925Y-101933765D01*
X158227000Y-101806598D01*
X158227000Y-101674946D01*
X158192925Y-101547779D01*
X158160012Y-101490772D01*
X159077000Y-101490772D01*
X159077000Y-100842944D01*
X159076999Y-100842927D01*
X159070598Y-100783399D01*
X159070596Y-100783392D01*
X159020354Y-100648685D01*
X159020350Y-100648678D01*
X158934190Y-100533584D01*
X158934187Y-100533581D01*
X158819093Y-100447421D01*
X158819086Y-100447417D01*
X158684379Y-100397175D01*
X158684372Y-100397173D01*
X158624844Y-100390772D01*
X157977000Y-100390772D01*
X157977000Y-101307760D01*
X157919993Y-101274847D01*
X157792826Y-101240772D01*
X157661174Y-101240772D01*
X157534007Y-101274847D01*
X157477000Y-101307760D01*
X157477000Y-100390772D01*
X156829155Y-100390772D01*
X156769627Y-100397173D01*
X156769620Y-100397175D01*
X156634913Y-100447417D01*
X156634906Y-100447421D01*
X156519812Y-100533581D01*
X156519809Y-100533584D01*
X156433649Y-100648678D01*
X156433645Y-100648685D01*
X156383403Y-100783392D01*
X156383401Y-100783399D01*
X156377000Y-100842927D01*
X156377000Y-101490772D01*
X157293988Y-101490772D01*
X157261075Y-101547779D01*
X157227000Y-101674946D01*
X157227000Y-101806598D01*
X157261075Y-101933765D01*
X157293988Y-101990772D01*
X156377000Y-101990772D01*
X156377000Y-102638616D01*
X156383401Y-102698144D01*
X156383403Y-102698151D01*
X156433645Y-102832858D01*
X156433649Y-102832865D01*
X156519809Y-102947959D01*
X156519812Y-102947962D01*
X156634906Y-103034122D01*
X156634913Y-103034126D01*
X156766470Y-103083194D01*
X156822404Y-103125065D01*
X156846821Y-103190530D01*
X156831969Y-103258803D01*
X156810819Y-103287057D01*
X156696889Y-103400987D01*
X156571951Y-103572951D01*
X156475444Y-103762357D01*
X156409753Y-103964532D01*
X156376500Y-104174485D01*
X140947500Y-104174485D01*
X140947499Y-103345510D01*
X140947499Y-102462901D01*
X140947498Y-102462895D01*
X140947497Y-102462888D01*
X140941091Y-102403289D01*
X140927698Y-102367381D01*
X140890797Y-102268443D01*
X140890793Y-102268436D01*
X140804547Y-102153227D01*
X140804544Y-102153224D01*
X140689335Y-102066978D01*
X140689328Y-102066974D01*
X140554482Y-102016680D01*
X140554483Y-102016680D01*
X140494883Y-102010273D01*
X140494881Y-102010272D01*
X140494873Y-102010272D01*
X140494864Y-102010272D01*
X138699129Y-102010272D01*
X138699123Y-102010273D01*
X138639516Y-102016680D01*
X138504671Y-102066974D01*
X138504664Y-102066978D01*
X138389455Y-102153224D01*
X138389452Y-102153227D01*
X138303206Y-102268436D01*
X138303202Y-102268443D01*
X138252908Y-102403289D01*
X138246501Y-102462888D01*
X138246501Y-102462895D01*
X138246500Y-102462907D01*
X137680896Y-102462907D01*
X137655051Y-102412184D01*
X137655049Y-102412181D01*
X137655048Y-102412179D01*
X137530109Y-102240213D01*
X137379786Y-102089890D01*
X137207820Y-101964951D01*
X137207115Y-101964591D01*
X137199054Y-101960485D01*
X137148259Y-101912512D01*
X137131463Y-101844692D01*
X137153999Y-101778556D01*
X137199054Y-101739515D01*
X137207816Y-101735051D01*
X137301814Y-101666758D01*
X137379786Y-101610109D01*
X137379788Y-101610106D01*
X137379792Y-101610104D01*
X137530104Y-101459792D01*
X137530106Y-101459788D01*
X137530109Y-101459786D01*
X137655048Y-101287820D01*
X137655047Y-101287820D01*
X137655051Y-101287816D01*
X137751557Y-101098412D01*
X137817246Y-100896243D01*
X137850500Y-100686287D01*
X137850500Y-100473713D01*
X137817246Y-100263757D01*
X137751557Y-100061588D01*
X137655051Y-99872184D01*
X137655049Y-99872181D01*
X137655048Y-99872179D01*
X137576251Y-99763723D01*
X137530109Y-99700214D01*
X137530105Y-99700209D01*
X137526821Y-99696925D01*
X144526500Y-99696925D01*
X144526500Y-99854618D01*
X144557260Y-100009260D01*
X144557262Y-100009265D01*
X144557263Y-100009269D01*
X144578934Y-100061588D01*
X144585865Y-100078321D01*
X144593333Y-100147790D01*
X144585865Y-100173219D01*
X144557263Y-100242275D01*
X144557262Y-100242278D01*
X144557260Y-100242283D01*
X144526500Y-100396925D01*
X144526500Y-100554618D01*
X144557260Y-100709260D01*
X144557262Y-100709265D01*
X144557263Y-100709269D01*
X144570313Y-100740775D01*
X144585865Y-100778321D01*
X144593333Y-100847790D01*
X144585865Y-100873219D01*
X144557263Y-100942275D01*
X144557262Y-100942278D01*
X144557260Y-100942283D01*
X144526500Y-101096925D01*
X144526500Y-101254618D01*
X144557260Y-101409260D01*
X144557262Y-101409265D01*
X144557263Y-101409269D01*
X144578190Y-101459792D01*
X144585865Y-101478321D01*
X144593333Y-101547790D01*
X144585865Y-101573219D01*
X144557263Y-101642275D01*
X144557262Y-101642278D01*
X144557260Y-101642283D01*
X144526500Y-101796925D01*
X144526500Y-101954618D01*
X144557260Y-102109260D01*
X144557262Y-102109265D01*
X144557263Y-102109269D01*
X144575471Y-102153227D01*
X144585865Y-102178321D01*
X144593333Y-102247790D01*
X144585865Y-102273219D01*
X144557263Y-102342275D01*
X144557262Y-102342278D01*
X144557260Y-102342283D01*
X144526500Y-102496925D01*
X144526500Y-102654618D01*
X144557261Y-102809261D01*
X144557264Y-102809273D01*
X144617602Y-102954944D01*
X144617609Y-102954957D01*
X144705210Y-103086060D01*
X144705213Y-103086064D01*
X144816707Y-103197558D01*
X144816711Y-103197561D01*
X144947814Y-103285162D01*
X144947827Y-103285169D01*
X145093498Y-103345507D01*
X145093503Y-103345509D01*
X145215295Y-103369735D01*
X145248153Y-103376271D01*
X145248156Y-103376272D01*
X145248158Y-103376272D01*
X145405844Y-103376272D01*
X145405845Y-103376271D01*
X145560497Y-103345509D01*
X145706179Y-103285166D01*
X145837289Y-103197561D01*
X145913697Y-103121153D01*
X149999500Y-103121153D01*
X149999500Y-103278846D01*
X150030261Y-103433489D01*
X150030264Y-103433501D01*
X150090602Y-103579172D01*
X150090609Y-103579185D01*
X150178210Y-103710288D01*
X150178213Y-103710292D01*
X150289707Y-103821786D01*
X150289711Y-103821789D01*
X150420814Y-103909390D01*
X150420827Y-103909397D01*
X150553937Y-103964532D01*
X150566503Y-103969737D01*
X150717569Y-103999786D01*
X150721153Y-104000499D01*
X150721156Y-104000500D01*
X150721158Y-104000500D01*
X150878844Y-104000500D01*
X150878845Y-104000499D01*
X151033497Y-103969737D01*
X151179179Y-103909394D01*
X151310289Y-103821789D01*
X151421789Y-103710289D01*
X151509394Y-103579179D01*
X151569737Y-103433497D01*
X151600500Y-103278842D01*
X151600500Y-103121158D01*
X151600500Y-103121155D01*
X151600499Y-103121153D01*
X151593519Y-103086061D01*
X151569737Y-102966503D01*
X151554730Y-102930272D01*
X151509397Y-102820827D01*
X151509390Y-102820814D01*
X151421789Y-102689711D01*
X151421786Y-102689707D01*
X151310292Y-102578213D01*
X151310288Y-102578210D01*
X151224897Y-102521153D01*
X152699500Y-102521153D01*
X152699500Y-102678846D01*
X152730261Y-102833489D01*
X152730264Y-102833501D01*
X152790602Y-102979172D01*
X152790609Y-102979185D01*
X152878210Y-103110288D01*
X152878213Y-103110292D01*
X152989707Y-103221786D01*
X152989711Y-103221789D01*
X153120814Y-103309390D01*
X153120827Y-103309397D01*
X153208013Y-103345510D01*
X153266503Y-103369737D01*
X153421153Y-103400499D01*
X153421156Y-103400500D01*
X153421158Y-103400500D01*
X153578844Y-103400500D01*
X153578845Y-103400499D01*
X153733497Y-103369737D01*
X153879179Y-103309394D01*
X154010289Y-103221789D01*
X154121789Y-103110289D01*
X154209394Y-102979179D01*
X154219430Y-102954951D01*
X154269735Y-102833501D01*
X154269737Y-102833497D01*
X154300500Y-102678842D01*
X154300500Y-102521158D01*
X154300500Y-102521155D01*
X154300499Y-102521153D01*
X154282419Y-102430261D01*
X154269737Y-102366503D01*
X154259705Y-102342283D01*
X154209397Y-102220827D01*
X154209390Y-102220814D01*
X154121789Y-102089711D01*
X154121786Y-102089707D01*
X154010292Y-101978213D01*
X154010288Y-101978210D01*
X153879185Y-101890609D01*
X153879172Y-101890602D01*
X153733501Y-101830264D01*
X153733489Y-101830261D01*
X153578845Y-101799500D01*
X153578842Y-101799500D01*
X153421158Y-101799500D01*
X153421155Y-101799500D01*
X153266510Y-101830261D01*
X153266498Y-101830264D01*
X153120827Y-101890602D01*
X153120814Y-101890609D01*
X152989711Y-101978210D01*
X152989707Y-101978213D01*
X152878213Y-102089707D01*
X152878210Y-102089711D01*
X152790609Y-102220814D01*
X152790602Y-102220827D01*
X152730264Y-102366498D01*
X152730261Y-102366510D01*
X152699500Y-102521153D01*
X151224897Y-102521153D01*
X151179185Y-102490609D01*
X151179172Y-102490602D01*
X151033501Y-102430264D01*
X151033489Y-102430261D01*
X150878845Y-102399500D01*
X150878842Y-102399500D01*
X150721158Y-102399500D01*
X150721155Y-102399500D01*
X150566510Y-102430261D01*
X150566498Y-102430264D01*
X150420827Y-102490602D01*
X150420814Y-102490609D01*
X150289711Y-102578210D01*
X150289707Y-102578213D01*
X150178213Y-102689707D01*
X150178210Y-102689711D01*
X150090609Y-102820814D01*
X150090602Y-102820827D01*
X150030264Y-102966498D01*
X150030261Y-102966510D01*
X149999500Y-103121153D01*
X145913697Y-103121153D01*
X145948789Y-103086061D01*
X146036394Y-102954951D01*
X146096737Y-102809269D01*
X146127500Y-102654614D01*
X146127500Y-102496930D01*
X146127500Y-102496927D01*
X146127499Y-102496925D01*
X146120730Y-102462895D01*
X146096737Y-102342275D01*
X146068134Y-102273222D01*
X146060666Y-102203756D01*
X146068133Y-102178324D01*
X146096737Y-102109269D01*
X146127500Y-101954614D01*
X146127500Y-101796930D01*
X146127500Y-101796927D01*
X146127499Y-101796925D01*
X146123845Y-101778556D01*
X146096737Y-101642275D01*
X146068134Y-101573222D01*
X146060666Y-101503756D01*
X146068133Y-101478324D01*
X146096737Y-101409269D01*
X146127500Y-101254614D01*
X146127500Y-101096930D01*
X146127500Y-101096927D01*
X146127499Y-101096925D01*
X146096737Y-100942275D01*
X146068134Y-100873222D01*
X146060666Y-100803756D01*
X146068133Y-100778324D01*
X146096737Y-100709269D01*
X146127500Y-100554614D01*
X146127500Y-100396930D01*
X146127500Y-100396927D01*
X146127499Y-100396925D01*
X146126275Y-100390772D01*
X146096737Y-100242275D01*
X146068134Y-100173222D01*
X146065528Y-100148980D01*
X146058696Y-100125573D01*
X146061501Y-100111527D01*
X146060666Y-100103756D01*
X146063775Y-100090646D01*
X146065627Y-100084374D01*
X146096737Y-100009269D01*
X146108022Y-99952538D01*
X152306734Y-99952538D01*
X152306734Y-100110231D01*
X152337495Y-100264874D01*
X152337498Y-100264886D01*
X152397836Y-100410557D01*
X152397843Y-100410570D01*
X152485444Y-100541673D01*
X152485447Y-100541677D01*
X152596941Y-100653171D01*
X152596945Y-100653174D01*
X152728048Y-100740775D01*
X152728061Y-100740782D01*
X152873732Y-100801120D01*
X152873737Y-100801122D01*
X152997660Y-100825772D01*
X153028387Y-100831884D01*
X153028390Y-100831885D01*
X153028392Y-100831885D01*
X153186078Y-100831885D01*
X153186079Y-100831884D01*
X153340731Y-100801122D01*
X153486413Y-100740779D01*
X153486422Y-100740773D01*
X153492785Y-100736522D01*
X153492787Y-100736521D01*
X153567967Y-100686286D01*
X153617523Y-100653174D01*
X153729023Y-100541674D01*
X153816628Y-100410564D01*
X153876971Y-100264882D01*
X153907734Y-100110227D01*
X153907734Y-99952543D01*
X153907734Y-99952540D01*
X153907733Y-99952538D01*
X153888255Y-99854616D01*
X153876971Y-99797888D01*
X153840582Y-99710036D01*
X153816631Y-99652212D01*
X153816624Y-99652199D01*
X153729023Y-99521096D01*
X153729020Y-99521092D01*
X153617526Y-99409598D01*
X153617522Y-99409595D01*
X153486419Y-99321994D01*
X153486406Y-99321987D01*
X153340735Y-99261649D01*
X153340723Y-99261646D01*
X153186079Y-99230885D01*
X153186076Y-99230885D01*
X153028392Y-99230885D01*
X153028389Y-99230885D01*
X152873744Y-99261646D01*
X152873732Y-99261649D01*
X152728061Y-99321987D01*
X152728048Y-99321994D01*
X152596945Y-99409595D01*
X152596941Y-99409598D01*
X152485447Y-99521092D01*
X152485444Y-99521096D01*
X152397843Y-99652199D01*
X152397836Y-99652212D01*
X152337498Y-99797883D01*
X152337495Y-99797895D01*
X152306734Y-99952538D01*
X146108022Y-99952538D01*
X146127500Y-99854614D01*
X146127500Y-99696930D01*
X146127500Y-99696927D01*
X146127499Y-99696925D01*
X146110094Y-99609424D01*
X146096737Y-99542275D01*
X146096735Y-99542270D01*
X146036397Y-99396599D01*
X146036390Y-99396586D01*
X145948789Y-99265483D01*
X145948786Y-99265479D01*
X145837292Y-99153985D01*
X145837288Y-99153982D01*
X145706185Y-99066381D01*
X145706172Y-99066374D01*
X145560501Y-99006036D01*
X145560489Y-99006033D01*
X145405845Y-98975272D01*
X145405842Y-98975272D01*
X145248158Y-98975272D01*
X145248155Y-98975272D01*
X145093510Y-99006033D01*
X145093498Y-99006036D01*
X144947827Y-99066374D01*
X144947814Y-99066381D01*
X144816711Y-99153982D01*
X144816707Y-99153985D01*
X144705213Y-99265479D01*
X144705210Y-99265483D01*
X144617609Y-99396586D01*
X144617602Y-99396599D01*
X144557264Y-99542270D01*
X144557261Y-99542282D01*
X144526500Y-99696925D01*
X137526821Y-99696925D01*
X137379786Y-99549890D01*
X137207820Y-99424951D01*
X137207115Y-99424591D01*
X137199054Y-99420485D01*
X137148259Y-99372512D01*
X137131463Y-99304692D01*
X137153999Y-99238556D01*
X137199054Y-99199515D01*
X137207816Y-99195051D01*
X137364966Y-99080876D01*
X137379786Y-99070109D01*
X137379788Y-99070106D01*
X137379792Y-99070104D01*
X137530104Y-98919792D01*
X137530106Y-98919788D01*
X137530109Y-98919786D01*
X137655048Y-98747820D01*
X137655047Y-98747820D01*
X137655051Y-98747816D01*
X137751557Y-98558412D01*
X137817246Y-98356243D01*
X137850500Y-98146287D01*
X137850500Y-97933713D01*
X137817246Y-97723757D01*
X137751557Y-97521588D01*
X137655051Y-97332184D01*
X137622913Y-97287950D01*
X137622913Y-97287948D01*
X137574384Y-97221153D01*
X140799500Y-97221153D01*
X140799500Y-97378846D01*
X140830261Y-97533489D01*
X140830264Y-97533501D01*
X140890602Y-97679172D01*
X140890609Y-97679185D01*
X140978210Y-97810288D01*
X140978213Y-97810292D01*
X141089707Y-97921786D01*
X141089711Y-97921789D01*
X141220814Y-98009390D01*
X141220827Y-98009397D01*
X141366498Y-98069735D01*
X141366503Y-98069737D01*
X141521153Y-98100499D01*
X141521156Y-98100500D01*
X141521158Y-98100500D01*
X141678844Y-98100500D01*
X141678845Y-98100499D01*
X141833497Y-98069737D01*
X141979179Y-98009394D01*
X141997840Y-97996925D01*
X147726500Y-97996925D01*
X147726500Y-98154618D01*
X147757261Y-98309261D01*
X147757264Y-98309273D01*
X147817602Y-98454944D01*
X147817609Y-98454957D01*
X147905210Y-98586060D01*
X147905213Y-98586064D01*
X148016707Y-98697558D01*
X148016711Y-98697561D01*
X148147814Y-98785162D01*
X148147827Y-98785169D01*
X148293498Y-98845507D01*
X148293503Y-98845509D01*
X148448153Y-98876271D01*
X148448156Y-98876272D01*
X148448158Y-98876272D01*
X148605844Y-98876272D01*
X148605845Y-98876271D01*
X148760497Y-98845509D01*
X148906179Y-98785166D01*
X149037289Y-98697561D01*
X149148789Y-98586061D01*
X149190900Y-98523036D01*
X149244511Y-98478232D01*
X149313836Y-98469525D01*
X149318136Y-98470300D01*
X149348158Y-98476272D01*
X149348160Y-98476272D01*
X149505844Y-98476272D01*
X149505845Y-98476271D01*
X149660497Y-98445509D01*
X149806179Y-98385166D01*
X149937289Y-98297561D01*
X150048789Y-98186061D01*
X150136394Y-98054951D01*
X150196737Y-97909269D01*
X150216425Y-97810292D01*
X150216650Y-97809160D01*
X152687265Y-97809160D01*
X152687265Y-97966853D01*
X152718026Y-98121496D01*
X152718029Y-98121508D01*
X152778367Y-98267179D01*
X152778374Y-98267192D01*
X152865975Y-98398295D01*
X152865978Y-98398299D01*
X152977472Y-98509793D01*
X152977476Y-98509796D01*
X153108579Y-98597397D01*
X153108592Y-98597404D01*
X153254263Y-98657742D01*
X153254268Y-98657744D01*
X153408918Y-98688506D01*
X153408921Y-98688507D01*
X153408923Y-98688507D01*
X153566609Y-98688507D01*
X153566610Y-98688506D01*
X153721262Y-98657744D01*
X153866944Y-98597401D01*
X153998054Y-98509796D01*
X154109554Y-98398296D01*
X154197159Y-98267186D01*
X154257502Y-98121504D01*
X154288265Y-97966849D01*
X154288265Y-97809165D01*
X154288265Y-97809162D01*
X154288264Y-97809160D01*
X154262409Y-97679179D01*
X154257502Y-97654510D01*
X154220626Y-97565483D01*
X154197162Y-97508834D01*
X154197155Y-97508821D01*
X154109554Y-97377718D01*
X154109551Y-97377714D01*
X153998057Y-97266220D01*
X153998053Y-97266217D01*
X153866950Y-97178616D01*
X153866937Y-97178609D01*
X153721266Y-97118271D01*
X153721254Y-97118268D01*
X153566610Y-97087507D01*
X153566607Y-97087507D01*
X153408923Y-97087507D01*
X153408920Y-97087507D01*
X153254275Y-97118268D01*
X153254263Y-97118271D01*
X153108592Y-97178609D01*
X153108579Y-97178616D01*
X152977476Y-97266217D01*
X152977472Y-97266220D01*
X152865978Y-97377714D01*
X152865975Y-97377718D01*
X152778374Y-97508821D01*
X152778367Y-97508834D01*
X152718029Y-97654505D01*
X152718026Y-97654517D01*
X152687265Y-97809160D01*
X150216650Y-97809160D01*
X150222673Y-97778882D01*
X150222673Y-97778880D01*
X150227500Y-97754615D01*
X150227500Y-97596927D01*
X150227499Y-97596925D01*
X150196739Y-97442283D01*
X150196737Y-97442277D01*
X150196737Y-97442275D01*
X150189377Y-97424507D01*
X150181908Y-97355042D01*
X150200835Y-97308166D01*
X150236394Y-97254951D01*
X150296737Y-97109269D01*
X150327500Y-96954614D01*
X150327500Y-96796930D01*
X150327500Y-96796927D01*
X150327499Y-96796925D01*
X150317094Y-96744618D01*
X150296737Y-96642275D01*
X150296735Y-96642270D01*
X150236397Y-96496599D01*
X150236390Y-96496586D01*
X150148789Y-96365483D01*
X150148786Y-96365479D01*
X150037292Y-96253985D01*
X150037288Y-96253982D01*
X149906185Y-96166381D01*
X149906172Y-96166374D01*
X149760501Y-96106036D01*
X149760489Y-96106033D01*
X149605845Y-96075272D01*
X149605842Y-96075272D01*
X149448158Y-96075272D01*
X149448155Y-96075272D01*
X149293502Y-96106034D01*
X149292377Y-96106376D01*
X149291758Y-96106381D01*
X149287528Y-96107223D01*
X149287368Y-96106420D01*
X149222510Y-96106998D01*
X149168703Y-96075396D01*
X149137292Y-96043985D01*
X149137288Y-96043982D01*
X149006185Y-95956381D01*
X149006172Y-95956374D01*
X148860501Y-95896036D01*
X148860489Y-95896033D01*
X148705845Y-95865272D01*
X148705842Y-95865272D01*
X148548158Y-95865272D01*
X148548155Y-95865272D01*
X148393510Y-95896033D01*
X148393498Y-95896036D01*
X148247827Y-95956374D01*
X148247814Y-95956381D01*
X148116711Y-96043982D01*
X148116707Y-96043985D01*
X148005213Y-96155479D01*
X148005210Y-96155483D01*
X147917609Y-96286586D01*
X147917602Y-96286599D01*
X147857264Y-96432270D01*
X147857261Y-96432282D01*
X147826500Y-96586925D01*
X147826500Y-96744618D01*
X147857261Y-96899261D01*
X147857264Y-96899273D01*
X147917602Y-97044943D01*
X147917607Y-97044952D01*
X147917980Y-97045510D01*
X147918085Y-97045846D01*
X147920479Y-97050325D01*
X147919629Y-97050778D01*
X147938856Y-97112188D01*
X147936493Y-97138590D01*
X147907825Y-97282711D01*
X147907825Y-97440404D01*
X147916377Y-97483398D01*
X147910150Y-97552990D01*
X147897862Y-97576480D01*
X147817609Y-97696586D01*
X147817602Y-97696599D01*
X147757264Y-97842270D01*
X147757261Y-97842282D01*
X147726500Y-97996925D01*
X141997840Y-97996925D01*
X142110289Y-97921789D01*
X142110292Y-97921786D01*
X142128922Y-97903157D01*
X142221786Y-97810292D01*
X142221789Y-97810289D01*
X142309394Y-97679179D01*
X142369737Y-97533497D01*
X142400500Y-97378842D01*
X142400500Y-97221158D01*
X142400500Y-97221155D01*
X142400499Y-97221153D01*
X142388376Y-97160208D01*
X142369737Y-97066503D01*
X142361181Y-97045846D01*
X142309397Y-96920827D01*
X142309390Y-96920814D01*
X142221789Y-96789711D01*
X142221786Y-96789707D01*
X142110292Y-96678213D01*
X142110288Y-96678210D01*
X141979185Y-96590609D01*
X141979172Y-96590602D01*
X141833501Y-96530264D01*
X141833489Y-96530261D01*
X141678845Y-96499500D01*
X141678842Y-96499500D01*
X141521158Y-96499500D01*
X141521155Y-96499500D01*
X141366510Y-96530261D01*
X141366498Y-96530264D01*
X141220827Y-96590602D01*
X141220814Y-96590609D01*
X141089711Y-96678210D01*
X141089707Y-96678213D01*
X140978213Y-96789707D01*
X140978210Y-96789711D01*
X140890609Y-96920814D01*
X140890602Y-96920827D01*
X140830264Y-97066498D01*
X140830261Y-97066510D01*
X140799500Y-97221153D01*
X137574384Y-97221153D01*
X137530109Y-97160214D01*
X137530105Y-97160209D01*
X137379786Y-97009890D01*
X137207820Y-96884951D01*
X137207115Y-96884591D01*
X137199054Y-96880485D01*
X137148259Y-96832512D01*
X137131463Y-96764692D01*
X137153999Y-96698556D01*
X137199054Y-96659515D01*
X137207816Y-96655051D01*
X137229789Y-96639086D01*
X137379786Y-96530109D01*
X137379788Y-96530106D01*
X137379792Y-96530104D01*
X137530104Y-96379792D01*
X137530106Y-96379788D01*
X137530109Y-96379786D01*
X137655048Y-96207820D01*
X137655047Y-96207820D01*
X137655051Y-96207816D01*
X137751557Y-96018412D01*
X137817246Y-95816243D01*
X137850500Y-95606287D01*
X137850500Y-95393713D01*
X137817246Y-95183757D01*
X137751557Y-94981588D01*
X137655051Y-94792184D01*
X137655049Y-94792181D01*
X137655048Y-94792179D01*
X137530109Y-94620213D01*
X137379786Y-94469890D01*
X137207820Y-94344951D01*
X137207115Y-94344591D01*
X137199054Y-94340485D01*
X137148259Y-94292512D01*
X137131463Y-94224692D01*
X137153999Y-94158556D01*
X137199054Y-94119515D01*
X137207816Y-94115051D01*
X137301814Y-94046758D01*
X137379786Y-93990109D01*
X137379788Y-93990106D01*
X137379792Y-93990104D01*
X137530104Y-93839792D01*
X137530106Y-93839788D01*
X137530109Y-93839786D01*
X137655048Y-93667820D01*
X137655047Y-93667820D01*
X137655051Y-93667816D01*
X137678827Y-93621153D01*
X141699500Y-93621153D01*
X141699500Y-93778846D01*
X141730261Y-93933489D01*
X141730264Y-93933501D01*
X141790602Y-94079172D01*
X141790609Y-94079185D01*
X141878210Y-94210288D01*
X141878213Y-94210292D01*
X141989707Y-94321786D01*
X141989711Y-94321789D01*
X142120814Y-94409390D01*
X142120827Y-94409397D01*
X142266498Y-94469735D01*
X142266503Y-94469737D01*
X142421153Y-94500499D01*
X142421156Y-94500500D01*
X142421158Y-94500500D01*
X142578844Y-94500500D01*
X142578845Y-94500499D01*
X142733497Y-94469737D01*
X142879179Y-94409394D01*
X143010289Y-94321789D01*
X143121789Y-94210289D01*
X143209394Y-94079179D01*
X143269737Y-93933497D01*
X143300500Y-93778842D01*
X143300500Y-93621158D01*
X143300500Y-93621155D01*
X143300499Y-93621153D01*
X143280734Y-93521789D01*
X143269737Y-93466503D01*
X143217959Y-93341498D01*
X143209397Y-93320827D01*
X143209390Y-93320814D01*
X143121789Y-93189711D01*
X143121786Y-93189707D01*
X143010292Y-93078213D01*
X143010288Y-93078210D01*
X142879185Y-92990609D01*
X142879172Y-92990602D01*
X142733501Y-92930264D01*
X142733489Y-92930261D01*
X142578845Y-92899500D01*
X142578842Y-92899500D01*
X142421158Y-92899500D01*
X142421155Y-92899500D01*
X142266510Y-92930261D01*
X142266498Y-92930264D01*
X142120827Y-92990602D01*
X142120814Y-92990609D01*
X141989711Y-93078210D01*
X141989707Y-93078213D01*
X141878213Y-93189707D01*
X141878210Y-93189711D01*
X141790609Y-93320814D01*
X141790602Y-93320827D01*
X141730264Y-93466498D01*
X141730261Y-93466510D01*
X141699500Y-93621153D01*
X137678827Y-93621153D01*
X137751557Y-93478412D01*
X137817246Y-93276243D01*
X137850500Y-93066287D01*
X137850500Y-92853713D01*
X137845343Y-92821153D01*
X148199500Y-92821153D01*
X148199500Y-92978846D01*
X148230261Y-93133489D01*
X148230264Y-93133501D01*
X148290602Y-93279172D01*
X148290609Y-93279185D01*
X148378210Y-93410288D01*
X148378213Y-93410292D01*
X148489707Y-93521786D01*
X148489711Y-93521789D01*
X148620814Y-93609390D01*
X148620827Y-93609397D01*
X148728138Y-93653846D01*
X148766503Y-93669737D01*
X148921153Y-93700499D01*
X148921156Y-93700500D01*
X148921158Y-93700500D01*
X149078844Y-93700500D01*
X149078845Y-93700499D01*
X149233497Y-93669737D01*
X149379179Y-93609394D01*
X149510289Y-93521789D01*
X149621789Y-93410289D01*
X149709394Y-93279179D01*
X149769737Y-93133497D01*
X149794424Y-93009390D01*
X149800579Y-92978446D01*
X149832964Y-92916535D01*
X149893679Y-92881961D01*
X149963449Y-92885700D01*
X150009877Y-92914956D01*
X150016707Y-92921786D01*
X150016711Y-92921789D01*
X150147814Y-93009390D01*
X150147826Y-93009397D01*
X150277304Y-93063027D01*
X150331708Y-93106867D01*
X150353773Y-93173161D01*
X150351469Y-93201779D01*
X150324500Y-93337362D01*
X150324500Y-93495055D01*
X150355261Y-93649698D01*
X150355264Y-93649710D01*
X150415602Y-93795381D01*
X150415609Y-93795394D01*
X150503210Y-93926497D01*
X150503213Y-93926501D01*
X150614707Y-94037995D01*
X150614711Y-94037998D01*
X150718569Y-94107394D01*
X150763374Y-94161006D01*
X150771295Y-94186304D01*
X150797203Y-94316549D01*
X150797206Y-94316559D01*
X150857544Y-94462230D01*
X150857551Y-94462243D01*
X150945152Y-94593346D01*
X150945155Y-94593350D01*
X151056649Y-94704844D01*
X151056653Y-94704847D01*
X151187756Y-94792448D01*
X151187769Y-94792455D01*
X151333440Y-94852793D01*
X151333445Y-94852795D01*
X151488095Y-94883557D01*
X151488098Y-94883558D01*
X151488100Y-94883558D01*
X151645786Y-94883558D01*
X151645787Y-94883557D01*
X151800439Y-94852795D01*
X151946121Y-94792452D01*
X152077231Y-94704847D01*
X152188731Y-94593347D01*
X152276336Y-94462237D01*
X152336679Y-94316555D01*
X152367442Y-94161900D01*
X152367442Y-94004216D01*
X152367442Y-94004213D01*
X152367441Y-94004211D01*
X152357488Y-93954173D01*
X152336679Y-93849561D01*
X152328233Y-93829170D01*
X152276339Y-93703885D01*
X152276332Y-93703872D01*
X152188731Y-93572769D01*
X152188728Y-93572765D01*
X152077234Y-93461271D01*
X152077230Y-93461268D01*
X151973372Y-93391872D01*
X151928567Y-93338260D01*
X151920646Y-93312962D01*
X151894738Y-93182717D01*
X151894737Y-93182716D01*
X151894737Y-93182712D01*
X151890781Y-93173161D01*
X151834397Y-93037036D01*
X151834390Y-93037023D01*
X151746789Y-92905920D01*
X151746786Y-92905916D01*
X151635292Y-92794422D01*
X151635288Y-92794419D01*
X151504185Y-92706818D01*
X151504176Y-92706813D01*
X151416814Y-92670627D01*
X151362411Y-92626786D01*
X151340346Y-92560492D01*
X151357625Y-92492792D01*
X151408763Y-92445182D01*
X151416774Y-92441522D01*
X151554697Y-92384394D01*
X151685807Y-92296789D01*
X151797307Y-92185289D01*
X151884912Y-92054179D01*
X151929524Y-91946475D01*
X151973362Y-91892076D01*
X152039656Y-91870010D01*
X152091535Y-91879370D01*
X152208440Y-91927793D01*
X152208445Y-91927795D01*
X152363095Y-91958557D01*
X152363098Y-91958558D01*
X152363100Y-91958558D01*
X152520786Y-91958558D01*
X152520787Y-91958557D01*
X152675439Y-91927795D01*
X152807143Y-91873242D01*
X152821114Y-91867455D01*
X152821114Y-91867454D01*
X152821121Y-91867452D01*
X152952231Y-91779847D01*
X153063731Y-91668347D01*
X153151336Y-91537237D01*
X153211679Y-91391555D01*
X153242442Y-91236900D01*
X153242442Y-91079216D01*
X153242442Y-91079213D01*
X153217340Y-90953020D01*
X153223567Y-90883428D01*
X153266430Y-90828251D01*
X153332319Y-90805006D01*
X153400317Y-90821074D01*
X153407849Y-90825727D01*
X153420813Y-90834389D01*
X153420815Y-90834390D01*
X153420821Y-90834394D01*
X153420823Y-90834395D01*
X153420827Y-90834397D01*
X153566498Y-90894735D01*
X153566503Y-90894737D01*
X153716437Y-90924561D01*
X153721153Y-90925499D01*
X153721156Y-90925500D01*
X153721158Y-90925500D01*
X153878844Y-90925500D01*
X153878845Y-90925499D01*
X154033497Y-90894737D01*
X154179179Y-90834394D01*
X154310289Y-90746789D01*
X154421789Y-90635289D01*
X154509394Y-90504179D01*
X154520217Y-90478051D01*
X154532389Y-90448664D01*
X154569737Y-90358497D01*
X154600500Y-90203842D01*
X154600500Y-90046158D01*
X154600500Y-90046155D01*
X154600499Y-90046153D01*
X154587328Y-89979940D01*
X154569737Y-89891503D01*
X154553544Y-89852410D01*
X154509397Y-89745827D01*
X154509390Y-89745814D01*
X154421789Y-89614711D01*
X154421786Y-89614707D01*
X154310292Y-89503213D01*
X154310288Y-89503210D01*
X154187482Y-89421153D01*
X154799500Y-89421153D01*
X154799500Y-89578846D01*
X154830261Y-89733489D01*
X154830264Y-89733501D01*
X154890602Y-89879172D01*
X154890609Y-89879185D01*
X154978210Y-90010288D01*
X154978213Y-90010292D01*
X155089707Y-90121786D01*
X155089711Y-90121789D01*
X155220814Y-90209390D01*
X155220827Y-90209397D01*
X155366498Y-90269735D01*
X155366503Y-90269737D01*
X155521153Y-90300499D01*
X155521156Y-90300500D01*
X155521158Y-90300500D01*
X155678844Y-90300500D01*
X155678845Y-90300499D01*
X155833497Y-90269737D01*
X155979179Y-90209394D01*
X156110289Y-90121789D01*
X156218654Y-90013423D01*
X156279975Y-89979940D01*
X156349667Y-89984924D01*
X156405601Y-90026795D01*
X156430018Y-90092259D01*
X156428807Y-90120504D01*
X156396500Y-90324485D01*
X156396500Y-90537058D01*
X156429717Y-90746786D01*
X156429754Y-90747015D01*
X156487747Y-90925499D01*
X156495444Y-90949186D01*
X156591951Y-91138592D01*
X156716890Y-91310558D01*
X156867213Y-91460881D01*
X157039182Y-91585822D01*
X157047946Y-91590288D01*
X157098742Y-91638263D01*
X157115536Y-91706084D01*
X157092998Y-91772219D01*
X157047946Y-91811256D01*
X157039182Y-91815721D01*
X156867213Y-91940662D01*
X156716890Y-92090985D01*
X156591951Y-92262951D01*
X156495444Y-92452357D01*
X156429753Y-92654532D01*
X156405844Y-92805488D01*
X156375915Y-92868623D01*
X156316603Y-92905554D01*
X156246741Y-92904556D01*
X156214482Y-92889193D01*
X156179188Y-92865611D01*
X156179172Y-92865602D01*
X156033501Y-92805264D01*
X156033489Y-92805261D01*
X155878845Y-92774500D01*
X155878842Y-92774500D01*
X155721158Y-92774500D01*
X155721155Y-92774500D01*
X155566510Y-92805261D01*
X155566498Y-92805264D01*
X155420827Y-92865602D01*
X155420814Y-92865609D01*
X155289711Y-92953210D01*
X155289707Y-92953213D01*
X155178213Y-93064707D01*
X155178210Y-93064711D01*
X155090609Y-93195814D01*
X155090602Y-93195827D01*
X155030264Y-93341498D01*
X155030261Y-93341510D01*
X154999500Y-93496153D01*
X154999500Y-93653846D01*
X155030261Y-93808489D01*
X155030264Y-93808501D01*
X155090602Y-93954172D01*
X155090609Y-93954185D01*
X155178210Y-94085288D01*
X155178213Y-94085292D01*
X155289707Y-94196786D01*
X155289711Y-94196789D01*
X155420814Y-94284390D01*
X155420827Y-94284397D01*
X155511101Y-94321789D01*
X155566503Y-94344737D01*
X155721153Y-94375499D01*
X155721156Y-94375500D01*
X155721158Y-94375500D01*
X155878844Y-94375500D01*
X155878845Y-94375499D01*
X156033497Y-94344737D01*
X156179179Y-94284394D01*
X156310289Y-94196789D01*
X156421789Y-94085289D01*
X156509394Y-93954179D01*
X156509395Y-93954176D01*
X156509397Y-93954173D01*
X156529500Y-93905639D01*
X156573340Y-93851235D01*
X156639634Y-93829170D01*
X156707334Y-93846449D01*
X156731742Y-93865410D01*
X156867213Y-94000881D01*
X157039182Y-94125822D01*
X157047946Y-94130288D01*
X157098742Y-94178263D01*
X157115536Y-94246084D01*
X157092998Y-94312219D01*
X157047946Y-94351256D01*
X157039182Y-94355721D01*
X156867213Y-94480662D01*
X156716890Y-94630985D01*
X156591951Y-94802951D01*
X156495444Y-94992357D01*
X156429753Y-95194532D01*
X156398206Y-95393713D01*
X156396500Y-95404485D01*
X156396500Y-95617059D01*
X156429754Y-95827015D01*
X156471785Y-95956374D01*
X156495444Y-96029186D01*
X156591951Y-96218592D01*
X156716890Y-96390558D01*
X156867213Y-96540881D01*
X157039182Y-96665822D01*
X157047946Y-96670288D01*
X157098742Y-96718263D01*
X157115536Y-96786084D01*
X157092998Y-96852219D01*
X157047946Y-96891256D01*
X157039182Y-96895721D01*
X156867213Y-97020662D01*
X156716890Y-97170985D01*
X156591951Y-97342951D01*
X156495444Y-97532357D01*
X156429753Y-97734532D01*
X156412687Y-97842282D01*
X156396500Y-97944485D01*
X156396500Y-98157059D01*
X156401094Y-98186064D01*
X156420608Y-98309273D01*
X156429754Y-98367015D01*
X156480449Y-98523038D01*
X156495444Y-98569186D01*
X156591951Y-98758592D01*
X156716890Y-98930558D01*
X156867213Y-99080881D01*
X157039179Y-99205820D01*
X157039181Y-99205821D01*
X157039184Y-99205823D01*
X157228588Y-99302329D01*
X157430757Y-99368018D01*
X157640713Y-99401272D01*
X157640714Y-99401272D01*
X157853286Y-99401272D01*
X157853287Y-99401272D01*
X158063243Y-99368018D01*
X158265412Y-99302329D01*
X158454816Y-99205823D01*
X158476789Y-99189858D01*
X158626786Y-99080881D01*
X158626788Y-99080878D01*
X158626792Y-99080876D01*
X158777104Y-98930564D01*
X158777106Y-98930560D01*
X158777109Y-98930558D01*
X158902048Y-98758592D01*
X158902047Y-98758592D01*
X158902051Y-98758588D01*
X158998557Y-98569184D01*
X159064246Y-98367015D01*
X159097500Y-98157059D01*
X159097500Y-97944485D01*
X159064246Y-97734529D01*
X158998557Y-97532360D01*
X158902051Y-97342956D01*
X158902049Y-97342953D01*
X158902048Y-97342951D01*
X158777109Y-97170985D01*
X158626786Y-97020662D01*
X158454820Y-96895723D01*
X158454115Y-96895363D01*
X158446054Y-96891257D01*
X158395259Y-96843284D01*
X158378463Y-96775464D01*
X158400999Y-96709328D01*
X158446054Y-96670287D01*
X158454816Y-96665823D01*
X158558340Y-96590609D01*
X158626786Y-96540881D01*
X158626788Y-96540878D01*
X158626792Y-96540876D01*
X158777104Y-96390564D01*
X158777106Y-96390560D01*
X158777109Y-96390558D01*
X158902048Y-96218592D01*
X158902047Y-96218592D01*
X158902051Y-96218588D01*
X158998557Y-96029184D01*
X159064246Y-95827015D01*
X159097500Y-95617059D01*
X159097500Y-95404485D01*
X159064246Y-95194529D01*
X158998557Y-94992360D01*
X158902051Y-94802956D01*
X158902049Y-94802953D01*
X158902048Y-94802951D01*
X158777109Y-94630985D01*
X158626786Y-94480662D01*
X158454820Y-94355723D01*
X158454115Y-94355363D01*
X158446054Y-94351257D01*
X158395259Y-94303284D01*
X158378463Y-94235464D01*
X158400999Y-94169328D01*
X158446054Y-94130287D01*
X158454816Y-94125823D01*
X158519008Y-94079185D01*
X158626786Y-94000881D01*
X158626788Y-94000878D01*
X158626792Y-94000876D01*
X158777104Y-93850564D01*
X158777106Y-93850560D01*
X158777109Y-93850558D01*
X158902048Y-93678592D01*
X158902047Y-93678592D01*
X158902051Y-93678588D01*
X158998557Y-93489184D01*
X159064246Y-93287015D01*
X159097500Y-93077059D01*
X159097500Y-92864485D01*
X159064246Y-92654529D01*
X158998557Y-92452360D01*
X158902051Y-92262956D01*
X158902049Y-92262953D01*
X158902048Y-92262951D01*
X158777109Y-92090985D01*
X158626786Y-91940662D01*
X158454820Y-91815723D01*
X158454115Y-91815363D01*
X158446054Y-91811257D01*
X158395259Y-91763284D01*
X158378463Y-91695464D01*
X158400999Y-91629328D01*
X158446054Y-91590287D01*
X158454816Y-91585823D01*
X158521681Y-91537243D01*
X158626786Y-91460881D01*
X158626788Y-91460878D01*
X158626792Y-91460876D01*
X158777104Y-91310564D01*
X158777106Y-91310560D01*
X158777109Y-91310558D01*
X158902048Y-91138592D01*
X158902047Y-91138592D01*
X158902051Y-91138588D01*
X158998557Y-90949184D01*
X159064246Y-90747015D01*
X159097500Y-90537059D01*
X159097500Y-90324485D01*
X159064246Y-90114529D01*
X158998557Y-89912360D01*
X158902051Y-89722956D01*
X158902049Y-89722953D01*
X158902048Y-89722951D01*
X158777109Y-89550985D01*
X158626786Y-89400662D01*
X158454820Y-89275723D01*
X158454115Y-89275363D01*
X158446054Y-89271257D01*
X158395259Y-89223284D01*
X158378463Y-89155464D01*
X158400999Y-89089328D01*
X158446054Y-89050287D01*
X158454816Y-89045823D01*
X158532054Y-88989707D01*
X158626786Y-88920881D01*
X158626788Y-88920878D01*
X158626792Y-88920876D01*
X158777104Y-88770564D01*
X158777106Y-88770560D01*
X158777109Y-88770558D01*
X158902048Y-88598592D01*
X158902047Y-88598592D01*
X158902051Y-88598588D01*
X158998557Y-88409184D01*
X159064246Y-88207015D01*
X159097500Y-87997059D01*
X159097500Y-87784485D01*
X159064246Y-87574529D01*
X158998557Y-87372360D01*
X158902051Y-87182956D01*
X158902049Y-87182953D01*
X158902048Y-87182951D01*
X158777109Y-87010985D01*
X158626786Y-86860662D01*
X158454820Y-86735723D01*
X158454115Y-86735363D01*
X158446054Y-86731257D01*
X158395259Y-86683284D01*
X158378463Y-86615464D01*
X158400999Y-86549328D01*
X158446054Y-86510287D01*
X158454816Y-86505823D01*
X158476789Y-86489858D01*
X158626786Y-86380881D01*
X158626788Y-86380878D01*
X158626792Y-86380876D01*
X158777104Y-86230564D01*
X158777106Y-86230560D01*
X158777109Y-86230558D01*
X158902048Y-86058592D01*
X158902047Y-86058592D01*
X158902051Y-86058588D01*
X158998557Y-85869184D01*
X159064246Y-85667015D01*
X159097500Y-85457059D01*
X159097500Y-85244485D01*
X159064246Y-85034529D01*
X158998557Y-84832360D01*
X158902051Y-84642956D01*
X158902049Y-84642953D01*
X158902048Y-84642951D01*
X158777109Y-84470985D01*
X158626786Y-84320662D01*
X158454820Y-84195723D01*
X158454115Y-84195363D01*
X158446054Y-84191257D01*
X158395259Y-84143284D01*
X158378463Y-84075464D01*
X158400999Y-84009328D01*
X158446054Y-83970287D01*
X158454816Y-83965823D01*
X158480696Y-83947020D01*
X158626786Y-83840881D01*
X158626788Y-83840878D01*
X158626792Y-83840876D01*
X158777104Y-83690564D01*
X158777106Y-83690560D01*
X158777109Y-83690558D01*
X158902048Y-83518592D01*
X158902047Y-83518592D01*
X158902051Y-83518588D01*
X158998557Y-83329184D01*
X159064246Y-83127015D01*
X159097500Y-82917059D01*
X159097500Y-82704485D01*
X159064246Y-82494529D01*
X158998557Y-82292360D01*
X158902051Y-82102956D01*
X158902049Y-82102953D01*
X158902048Y-82102951D01*
X158777109Y-81930985D01*
X158626786Y-81780662D01*
X158454820Y-81655723D01*
X158454115Y-81655363D01*
X158446054Y-81651257D01*
X158395259Y-81603284D01*
X158378463Y-81535464D01*
X158400999Y-81469328D01*
X158446054Y-81430287D01*
X158454816Y-81425823D01*
X158524394Y-81375272D01*
X158626786Y-81300881D01*
X158626788Y-81300878D01*
X158626792Y-81300876D01*
X158777104Y-81150564D01*
X158777106Y-81150560D01*
X158777109Y-81150558D01*
X158902048Y-80978592D01*
X158902047Y-80978592D01*
X158902051Y-80978588D01*
X158998557Y-80789184D01*
X159064246Y-80587015D01*
X159097500Y-80377059D01*
X159097500Y-80164485D01*
X159064246Y-79954529D01*
X158998557Y-79752360D01*
X158902051Y-79562956D01*
X158902049Y-79562953D01*
X158902048Y-79562951D01*
X158777109Y-79390985D01*
X158663569Y-79277445D01*
X158630084Y-79216122D01*
X158635068Y-79146430D01*
X158676940Y-79090497D01*
X158707915Y-79073582D01*
X158839331Y-79024568D01*
X158954546Y-78938318D01*
X159040796Y-78823103D01*
X159091091Y-78688255D01*
X159097500Y-78628645D01*
X159097499Y-76832900D01*
X159091091Y-76773289D01*
X159086152Y-76760048D01*
X159040797Y-76638443D01*
X159040793Y-76638436D01*
X158954547Y-76523227D01*
X158954544Y-76523224D01*
X158839335Y-76436978D01*
X158839328Y-76436974D01*
X158704482Y-76386680D01*
X158704483Y-76386680D01*
X158644883Y-76380273D01*
X158644881Y-76380272D01*
X158644873Y-76380272D01*
X158644864Y-76380272D01*
X156849129Y-76380272D01*
X156849123Y-76380273D01*
X156789516Y-76386680D01*
X156654671Y-76436974D01*
X156654664Y-76436978D01*
X156539455Y-76523224D01*
X156539452Y-76523227D01*
X156453206Y-76638436D01*
X156453202Y-76638443D01*
X156402908Y-76773289D01*
X156396501Y-76832888D01*
X156396501Y-76832895D01*
X156396500Y-76832907D01*
X156396500Y-78628642D01*
X156396501Y-78628648D01*
X156402908Y-78688255D01*
X156453202Y-78823100D01*
X156453206Y-78823107D01*
X156539452Y-78938316D01*
X156539455Y-78938319D01*
X156654664Y-79024565D01*
X156654671Y-79024569D01*
X156786082Y-79073582D01*
X156842016Y-79115453D01*
X156866433Y-79180917D01*
X156851582Y-79249190D01*
X156830431Y-79277445D01*
X156716889Y-79390987D01*
X156591951Y-79562951D01*
X156495444Y-79752357D01*
X156429753Y-79954532D01*
X156405783Y-80105876D01*
X156396500Y-80164485D01*
X156396500Y-80377059D01*
X156404215Y-80425771D01*
X156429753Y-80587011D01*
X156495444Y-80789186D01*
X156591951Y-80978592D01*
X156716890Y-81150558D01*
X156867213Y-81300881D01*
X157039182Y-81425822D01*
X157047946Y-81430288D01*
X157098742Y-81478263D01*
X157115536Y-81546084D01*
X157092998Y-81612219D01*
X157047946Y-81651256D01*
X157039182Y-81655721D01*
X156867213Y-81780662D01*
X156716890Y-81930985D01*
X156591951Y-82102951D01*
X156495444Y-82292357D01*
X156429753Y-82494532D01*
X156420185Y-82554944D01*
X156396500Y-82704485D01*
X156396500Y-82917059D01*
X156429754Y-83127015D01*
X156489303Y-83310288D01*
X156495444Y-83329186D01*
X156591951Y-83518592D01*
X156716890Y-83690558D01*
X156867213Y-83840881D01*
X157039182Y-83965822D01*
X157047946Y-83970288D01*
X157098742Y-84018263D01*
X157115536Y-84086084D01*
X157092998Y-84152219D01*
X157047946Y-84191256D01*
X157039182Y-84195721D01*
X156867213Y-84320662D01*
X156716890Y-84470985D01*
X156591951Y-84642951D01*
X156495444Y-84832357D01*
X156429753Y-85034532D01*
X156396500Y-85244485D01*
X156396500Y-85457058D01*
X156422437Y-85620821D01*
X156429754Y-85667015D01*
X156492058Y-85858767D01*
X156495444Y-85869186D01*
X156591951Y-86058592D01*
X156716890Y-86230558D01*
X156867213Y-86380881D01*
X157039182Y-86505822D01*
X157047946Y-86510288D01*
X157098742Y-86558263D01*
X157115536Y-86626084D01*
X157092998Y-86692219D01*
X157047946Y-86731256D01*
X157039182Y-86735721D01*
X156867213Y-86860662D01*
X156716890Y-87010985D01*
X156591951Y-87182951D01*
X156495444Y-87372357D01*
X156429753Y-87574532D01*
X156398206Y-87773713D01*
X156396500Y-87784485D01*
X156396500Y-87997059D01*
X156429754Y-88207015D01*
X156492621Y-88400500D01*
X156495444Y-88409186D01*
X156591951Y-88598592D01*
X156716890Y-88770558D01*
X156867213Y-88920881D01*
X157039182Y-89045822D01*
X157047946Y-89050288D01*
X157098742Y-89098263D01*
X157115536Y-89166084D01*
X157092998Y-89232219D01*
X157047946Y-89271256D01*
X157039182Y-89275721D01*
X156867213Y-89400662D01*
X156716894Y-89550981D01*
X156716890Y-89550986D01*
X156621045Y-89682906D01*
X156565715Y-89725572D01*
X156496102Y-89731551D01*
X156434307Y-89698945D01*
X156399950Y-89638107D01*
X156399111Y-89585824D01*
X156400500Y-89578842D01*
X156400500Y-89421155D01*
X156400499Y-89421153D01*
X156396423Y-89400662D01*
X156369737Y-89266503D01*
X156351835Y-89223284D01*
X156309397Y-89120827D01*
X156309390Y-89120814D01*
X156221789Y-88989711D01*
X156221786Y-88989707D01*
X156110292Y-88878213D01*
X156110288Y-88878210D01*
X155979185Y-88790609D01*
X155979172Y-88790602D01*
X155833501Y-88730264D01*
X155833489Y-88730261D01*
X155678845Y-88699500D01*
X155678842Y-88699500D01*
X155521158Y-88699500D01*
X155521155Y-88699500D01*
X155366510Y-88730261D01*
X155366498Y-88730264D01*
X155220827Y-88790602D01*
X155220814Y-88790609D01*
X155089711Y-88878210D01*
X155089707Y-88878213D01*
X154978213Y-88989707D01*
X154978210Y-88989711D01*
X154890609Y-89120814D01*
X154890602Y-89120827D01*
X154830264Y-89266498D01*
X154830261Y-89266510D01*
X154799500Y-89421153D01*
X154187482Y-89421153D01*
X154179185Y-89415609D01*
X154179172Y-89415602D01*
X154033501Y-89355264D01*
X154033489Y-89355261D01*
X153878845Y-89324500D01*
X153878842Y-89324500D01*
X153721158Y-89324500D01*
X153721155Y-89324500D01*
X153566510Y-89355261D01*
X153566498Y-89355264D01*
X153420827Y-89415602D01*
X153420814Y-89415609D01*
X153289711Y-89503210D01*
X153289707Y-89503213D01*
X153178213Y-89614707D01*
X153178210Y-89614711D01*
X153090609Y-89745814D01*
X153090602Y-89745827D01*
X153030264Y-89891498D01*
X153030261Y-89891510D01*
X152999500Y-90046153D01*
X152999500Y-90203846D01*
X153024601Y-90330038D01*
X153018374Y-90399630D01*
X152975511Y-90454807D01*
X152909621Y-90478051D01*
X152841624Y-90461983D01*
X152834093Y-90457331D01*
X152821127Y-90448667D01*
X152821114Y-90448660D01*
X152675443Y-90388322D01*
X152675431Y-90388319D01*
X152520787Y-90357558D01*
X152520784Y-90357558D01*
X152363100Y-90357558D01*
X152363097Y-90357558D01*
X152208452Y-90388319D01*
X152208440Y-90388322D01*
X152062769Y-90448660D01*
X152062756Y-90448667D01*
X151931653Y-90536268D01*
X151931649Y-90536271D01*
X151820155Y-90647765D01*
X151820152Y-90647769D01*
X151732551Y-90778872D01*
X151732546Y-90778881D01*
X151687937Y-90886579D01*
X151644096Y-90940982D01*
X151577802Y-90963047D01*
X151525924Y-90953687D01*
X151409019Y-90905264D01*
X151409007Y-90905261D01*
X151254363Y-90874500D01*
X151254360Y-90874500D01*
X151096676Y-90874500D01*
X151096673Y-90874500D01*
X150942028Y-90905261D01*
X150942016Y-90905264D01*
X150796345Y-90965602D01*
X150796332Y-90965609D01*
X150665229Y-91053210D01*
X150665225Y-91053213D01*
X150553731Y-91164707D01*
X150553728Y-91164711D01*
X150466127Y-91295814D01*
X150466120Y-91295827D01*
X150403450Y-91447130D01*
X150402265Y-91446639D01*
X150367606Y-91499517D01*
X150311447Y-91526692D01*
X150293512Y-91530260D01*
X150293500Y-91530263D01*
X150147827Y-91590602D01*
X150147814Y-91590609D01*
X150016711Y-91678210D01*
X150016707Y-91678213D01*
X149905213Y-91789707D01*
X149905210Y-91789711D01*
X149817609Y-91920814D01*
X149817602Y-91920827D01*
X149757264Y-92066498D01*
X149757261Y-92066508D01*
X149726420Y-92221554D01*
X149694035Y-92283465D01*
X149633319Y-92318039D01*
X149563549Y-92314298D01*
X149517122Y-92285043D01*
X149510292Y-92278213D01*
X149510288Y-92278210D01*
X149379185Y-92190609D01*
X149379172Y-92190602D01*
X149233501Y-92130264D01*
X149233489Y-92130261D01*
X149078845Y-92099500D01*
X149078842Y-92099500D01*
X148921158Y-92099500D01*
X148921155Y-92099500D01*
X148766510Y-92130261D01*
X148766498Y-92130264D01*
X148620827Y-92190602D01*
X148620814Y-92190609D01*
X148489711Y-92278210D01*
X148489707Y-92278213D01*
X148378213Y-92389707D01*
X148378210Y-92389711D01*
X148290609Y-92520814D01*
X148290602Y-92520827D01*
X148230264Y-92666498D01*
X148230261Y-92666510D01*
X148199500Y-92821153D01*
X137845343Y-92821153D01*
X137817246Y-92643757D01*
X137751557Y-92441588D01*
X137655051Y-92252184D01*
X137655049Y-92252181D01*
X137655048Y-92252179D01*
X137530109Y-92080213D01*
X137379786Y-91929890D01*
X137207820Y-91804951D01*
X137203916Y-91802962D01*
X137199054Y-91800485D01*
X137148259Y-91752512D01*
X137131463Y-91684692D01*
X137153999Y-91618556D01*
X137199054Y-91579515D01*
X137207816Y-91575051D01*
X137274377Y-91526692D01*
X137379786Y-91450109D01*
X137379788Y-91450106D01*
X137379792Y-91450104D01*
X137530104Y-91299792D01*
X137530106Y-91299788D01*
X137530109Y-91299786D01*
X137655048Y-91127820D01*
X137655047Y-91127820D01*
X137655051Y-91127816D01*
X137751557Y-90938412D01*
X137817246Y-90736243D01*
X137850500Y-90526287D01*
X137850500Y-90313713D01*
X137817246Y-90103757D01*
X137751557Y-89901588D01*
X137655051Y-89712184D01*
X137655049Y-89712181D01*
X137655048Y-89712179D01*
X137530109Y-89540213D01*
X137379786Y-89389890D01*
X137207820Y-89264951D01*
X137207115Y-89264591D01*
X137199054Y-89260485D01*
X137148259Y-89212512D01*
X137131463Y-89144692D01*
X137153999Y-89078556D01*
X137199054Y-89039515D01*
X137207816Y-89035051D01*
X137364966Y-88920876D01*
X137379786Y-88910109D01*
X137379788Y-88910106D01*
X137379792Y-88910104D01*
X137530104Y-88759792D01*
X137530106Y-88759788D01*
X137530109Y-88759786D01*
X137655048Y-88587820D01*
X137655047Y-88587820D01*
X137655051Y-88587816D01*
X137751557Y-88398412D01*
X137817246Y-88196243D01*
X137850500Y-87986287D01*
X137850500Y-87773713D01*
X137817246Y-87563757D01*
X137751557Y-87361588D01*
X137655051Y-87172184D01*
X137655049Y-87172181D01*
X137655048Y-87172179D01*
X137530109Y-87000213D01*
X137379786Y-86849890D01*
X137207820Y-86724951D01*
X137207115Y-86724591D01*
X137199054Y-86720485D01*
X137148259Y-86672512D01*
X137131463Y-86604692D01*
X137153999Y-86538556D01*
X137199054Y-86499515D01*
X137207816Y-86495051D01*
X137364966Y-86380876D01*
X137379786Y-86370109D01*
X137379788Y-86370106D01*
X137379792Y-86370104D01*
X137530104Y-86219792D01*
X137530106Y-86219788D01*
X137530109Y-86219786D01*
X137655048Y-86047820D01*
X137655047Y-86047820D01*
X137655051Y-86047816D01*
X137719589Y-85921153D01*
X142499500Y-85921153D01*
X142499500Y-86078846D01*
X142530261Y-86233489D01*
X142530264Y-86233501D01*
X142590602Y-86379172D01*
X142590609Y-86379185D01*
X142678210Y-86510288D01*
X142678213Y-86510292D01*
X142789707Y-86621786D01*
X142789711Y-86621789D01*
X142920814Y-86709390D01*
X142920827Y-86709397D01*
X142984380Y-86735721D01*
X143066503Y-86769737D01*
X143203211Y-86796930D01*
X143221153Y-86800499D01*
X143221156Y-86800500D01*
X143221158Y-86800500D01*
X143378844Y-86800500D01*
X143378845Y-86800499D01*
X143396813Y-86796925D01*
X151526500Y-86796925D01*
X151526500Y-86954618D01*
X151557261Y-87109261D01*
X151557264Y-87109273D01*
X151617602Y-87254944D01*
X151617609Y-87254957D01*
X151705210Y-87386060D01*
X151705213Y-87386064D01*
X151816707Y-87497558D01*
X151816711Y-87497561D01*
X151947814Y-87585162D01*
X151947827Y-87585169D01*
X152093498Y-87645507D01*
X152093503Y-87645509D01*
X152248153Y-87676271D01*
X152248156Y-87676272D01*
X152248158Y-87676272D01*
X152405844Y-87676272D01*
X152405845Y-87676271D01*
X152560497Y-87645509D01*
X152706179Y-87585166D01*
X152801981Y-87521153D01*
X154299500Y-87521153D01*
X154299500Y-87678846D01*
X154330261Y-87833489D01*
X154330264Y-87833501D01*
X154390602Y-87979172D01*
X154390609Y-87979185D01*
X154478210Y-88110288D01*
X154478213Y-88110292D01*
X154589707Y-88221786D01*
X154589711Y-88221789D01*
X154720814Y-88309390D01*
X154720827Y-88309397D01*
X154866498Y-88369735D01*
X154866503Y-88369737D01*
X155010661Y-88398412D01*
X155021153Y-88400499D01*
X155021156Y-88400500D01*
X155021158Y-88400500D01*
X155178844Y-88400500D01*
X155178845Y-88400499D01*
X155333497Y-88369737D01*
X155479179Y-88309394D01*
X155610289Y-88221789D01*
X155721789Y-88110289D01*
X155809394Y-87979179D01*
X155869737Y-87833497D01*
X155900500Y-87678842D01*
X155900500Y-87521158D01*
X155900500Y-87521155D01*
X155900499Y-87521153D01*
X155869738Y-87366510D01*
X155869737Y-87366503D01*
X155847331Y-87312410D01*
X155809397Y-87220827D01*
X155809390Y-87220814D01*
X155721789Y-87089711D01*
X155721786Y-87089707D01*
X155610292Y-86978213D01*
X155610288Y-86978210D01*
X155479185Y-86890609D01*
X155479172Y-86890602D01*
X155333501Y-86830264D01*
X155333489Y-86830261D01*
X155178845Y-86799500D01*
X155178842Y-86799500D01*
X155021158Y-86799500D01*
X155021155Y-86799500D01*
X154866510Y-86830261D01*
X154866498Y-86830264D01*
X154720827Y-86890602D01*
X154720814Y-86890609D01*
X154589711Y-86978210D01*
X154589707Y-86978213D01*
X154478213Y-87089707D01*
X154478210Y-87089711D01*
X154390609Y-87220814D01*
X154390602Y-87220827D01*
X154330264Y-87366498D01*
X154330261Y-87366510D01*
X154299500Y-87521153D01*
X152801981Y-87521153D01*
X152837289Y-87497561D01*
X152837292Y-87497558D01*
X152907466Y-87427385D01*
X152948786Y-87386064D01*
X152948789Y-87386061D01*
X153036394Y-87254951D01*
X153096737Y-87109269D01*
X153127500Y-86954614D01*
X153127500Y-86796930D01*
X153127500Y-86796927D01*
X153127499Y-86796925D01*
X153122091Y-86769737D01*
X153096737Y-86642275D01*
X153090031Y-86626084D01*
X153036397Y-86496599D01*
X153036390Y-86496586D01*
X152948789Y-86365483D01*
X152948786Y-86365479D01*
X152837292Y-86253985D01*
X152837288Y-86253982D01*
X152706185Y-86166381D01*
X152706172Y-86166374D01*
X152560501Y-86106036D01*
X152560489Y-86106033D01*
X152405845Y-86075272D01*
X152405842Y-86075272D01*
X152248158Y-86075272D01*
X152248155Y-86075272D01*
X152093510Y-86106033D01*
X152093498Y-86106036D01*
X151947827Y-86166374D01*
X151947814Y-86166381D01*
X151816711Y-86253982D01*
X151816707Y-86253985D01*
X151705213Y-86365479D01*
X151705210Y-86365483D01*
X151617609Y-86496586D01*
X151617602Y-86496599D01*
X151557264Y-86642270D01*
X151557261Y-86642282D01*
X151526500Y-86796925D01*
X143396813Y-86796925D01*
X143533497Y-86769737D01*
X143679179Y-86709394D01*
X143704883Y-86692219D01*
X143711593Y-86687736D01*
X143779619Y-86642282D01*
X143810289Y-86621789D01*
X143921789Y-86510289D01*
X144009394Y-86379179D01*
X144069737Y-86233497D01*
X144100500Y-86078842D01*
X144100500Y-85921158D01*
X144100500Y-85921155D01*
X144100499Y-85921153D01*
X144088090Y-85858771D01*
X144069737Y-85766503D01*
X144028528Y-85667015D01*
X144009397Y-85620827D01*
X144009390Y-85620814D01*
X143921789Y-85489711D01*
X143921786Y-85489707D01*
X143810292Y-85378213D01*
X143810288Y-85378210D01*
X143679185Y-85290609D01*
X143679172Y-85290602D01*
X143533501Y-85230264D01*
X143533489Y-85230261D01*
X143378845Y-85199500D01*
X143378842Y-85199500D01*
X143221158Y-85199500D01*
X143221155Y-85199500D01*
X143066510Y-85230261D01*
X143066498Y-85230264D01*
X142920827Y-85290602D01*
X142920814Y-85290609D01*
X142789711Y-85378210D01*
X142789707Y-85378213D01*
X142678213Y-85489707D01*
X142678210Y-85489711D01*
X142590609Y-85620814D01*
X142590602Y-85620827D01*
X142530264Y-85766498D01*
X142530261Y-85766510D01*
X142499500Y-85921153D01*
X137719589Y-85921153D01*
X137751557Y-85858412D01*
X137817246Y-85656243D01*
X137850500Y-85446287D01*
X137850500Y-85233713D01*
X137817246Y-85023757D01*
X137751557Y-84821588D01*
X137655051Y-84632184D01*
X137655049Y-84632181D01*
X137655048Y-84632179D01*
X137530109Y-84460213D01*
X137379786Y-84309890D01*
X137207820Y-84184951D01*
X137207115Y-84184591D01*
X137199054Y-84180485D01*
X137148259Y-84132512D01*
X137131463Y-84064692D01*
X137153999Y-83998556D01*
X137155881Y-83996925D01*
X145426500Y-83996925D01*
X145426500Y-84154618D01*
X145457261Y-84309261D01*
X145457264Y-84309273D01*
X145517602Y-84454944D01*
X145517609Y-84454957D01*
X145605210Y-84586060D01*
X145605213Y-84586064D01*
X145716707Y-84697558D01*
X145716711Y-84697561D01*
X145847814Y-84785162D01*
X145847827Y-84785169D01*
X145935752Y-84821588D01*
X145993503Y-84845509D01*
X146148153Y-84876271D01*
X146148156Y-84876272D01*
X146148158Y-84876272D01*
X146305844Y-84876272D01*
X146305845Y-84876271D01*
X146460497Y-84845509D01*
X146606179Y-84785166D01*
X146737289Y-84697561D01*
X146837925Y-84596925D01*
X147526500Y-84596925D01*
X147526500Y-84754618D01*
X147557261Y-84909261D01*
X147557264Y-84909273D01*
X147617602Y-85054944D01*
X147617609Y-85054957D01*
X147705210Y-85186060D01*
X147705213Y-85186064D01*
X147816707Y-85297558D01*
X147816711Y-85297561D01*
X147947814Y-85385162D01*
X147947827Y-85385169D01*
X148093498Y-85445507D01*
X148093503Y-85445509D01*
X148248153Y-85476271D01*
X148248156Y-85476272D01*
X148248158Y-85476272D01*
X148405844Y-85476272D01*
X148405845Y-85476271D01*
X148560497Y-85445509D01*
X148706179Y-85385166D01*
X148837289Y-85297561D01*
X148948789Y-85186061D01*
X149036394Y-85054951D01*
X149096737Y-84909269D01*
X149127500Y-84754614D01*
X149127500Y-84596930D01*
X149127500Y-84596927D01*
X149127499Y-84596925D01*
X149104237Y-84479980D01*
X149096737Y-84442275D01*
X149068626Y-84374408D01*
X149036397Y-84296599D01*
X149036390Y-84296586D01*
X148948789Y-84165483D01*
X148948786Y-84165479D01*
X148837292Y-84053985D01*
X148837288Y-84053982D01*
X148706185Y-83966381D01*
X148706172Y-83966374D01*
X148560501Y-83906036D01*
X148560489Y-83906033D01*
X148405845Y-83875272D01*
X148405842Y-83875272D01*
X148248158Y-83875272D01*
X148248155Y-83875272D01*
X148093510Y-83906033D01*
X148093498Y-83906036D01*
X147947827Y-83966374D01*
X147947814Y-83966381D01*
X147816711Y-84053982D01*
X147816707Y-84053985D01*
X147705213Y-84165479D01*
X147705210Y-84165483D01*
X147617609Y-84296586D01*
X147617602Y-84296599D01*
X147557264Y-84442270D01*
X147557261Y-84442282D01*
X147526500Y-84596925D01*
X146837925Y-84596925D01*
X146848789Y-84586061D01*
X146925681Y-84470985D01*
X146936390Y-84454957D01*
X146936390Y-84454956D01*
X146936394Y-84454951D01*
X146996737Y-84309269D01*
X147027500Y-84154614D01*
X147027500Y-83996930D01*
X147027500Y-83996927D01*
X147027499Y-83996925D01*
X146996737Y-83842275D01*
X146978844Y-83799077D01*
X146936397Y-83696599D01*
X146936390Y-83696586D01*
X146848789Y-83565483D01*
X146848786Y-83565479D01*
X146737292Y-83453985D01*
X146737288Y-83453982D01*
X146606185Y-83366381D01*
X146606172Y-83366374D01*
X146460501Y-83306036D01*
X146460489Y-83306033D01*
X146305845Y-83275272D01*
X146305842Y-83275272D01*
X146148158Y-83275272D01*
X146148155Y-83275272D01*
X145993510Y-83306033D01*
X145993498Y-83306036D01*
X145847827Y-83366374D01*
X145847814Y-83366381D01*
X145716711Y-83453982D01*
X145716707Y-83453985D01*
X145605213Y-83565479D01*
X145605210Y-83565483D01*
X145517609Y-83696586D01*
X145517602Y-83696599D01*
X145457264Y-83842270D01*
X145457261Y-83842282D01*
X145426500Y-83996925D01*
X137155881Y-83996925D01*
X137199054Y-83959515D01*
X137207816Y-83955051D01*
X137288094Y-83896726D01*
X137379786Y-83830109D01*
X137379788Y-83830106D01*
X137379792Y-83830104D01*
X137530104Y-83679792D01*
X137530106Y-83679788D01*
X137530109Y-83679786D01*
X137653902Y-83509397D01*
X137655051Y-83507816D01*
X137751557Y-83318412D01*
X137817246Y-83116243D01*
X137850500Y-82906287D01*
X137850500Y-82693713D01*
X137817246Y-82483757D01*
X137751557Y-82281588D01*
X137655051Y-82092184D01*
X137655049Y-82092181D01*
X137655048Y-82092179D01*
X137530109Y-81920213D01*
X137416569Y-81806673D01*
X137383084Y-81745350D01*
X137388068Y-81675658D01*
X137429940Y-81619725D01*
X137460915Y-81602810D01*
X137592331Y-81553796D01*
X137707546Y-81467546D01*
X137793796Y-81352331D01*
X137844091Y-81217483D01*
X137850500Y-81157873D01*
X137850499Y-79956642D01*
X138290931Y-79956642D01*
X138290931Y-80169215D01*
X138315973Y-80327327D01*
X138324185Y-80379172D01*
X138339326Y-80425772D01*
X138389875Y-80581343D01*
X138486382Y-80770749D01*
X138611321Y-80942715D01*
X138724861Y-81056255D01*
X138758346Y-81117578D01*
X138753362Y-81187270D01*
X138711490Y-81243203D01*
X138680514Y-81260118D01*
X138549100Y-81309132D01*
X138549095Y-81309135D01*
X138433886Y-81395381D01*
X138433883Y-81395384D01*
X138347637Y-81510593D01*
X138347633Y-81510600D01*
X138297339Y-81645446D01*
X138290932Y-81705045D01*
X138290932Y-81705052D01*
X138290931Y-81705064D01*
X138290931Y-83500799D01*
X138290932Y-83500805D01*
X138297339Y-83560412D01*
X138347633Y-83695257D01*
X138347637Y-83695264D01*
X138433883Y-83810473D01*
X138433886Y-83810476D01*
X138549095Y-83896722D01*
X138549102Y-83896726D01*
X138683948Y-83947020D01*
X138683947Y-83947020D01*
X138690875Y-83947764D01*
X138743558Y-83953429D01*
X140539303Y-83953428D01*
X140598914Y-83947020D01*
X140733762Y-83896725D01*
X140733810Y-83896688D01*
X140740648Y-83891571D01*
X140740648Y-83891570D01*
X140806488Y-83842282D01*
X140848977Y-83810475D01*
X140935227Y-83695260D01*
X140985522Y-83560412D01*
X140991931Y-83500802D01*
X140991930Y-82721153D01*
X148999500Y-82721153D01*
X148999500Y-82878846D01*
X149030261Y-83033489D01*
X149030264Y-83033501D01*
X149090602Y-83179172D01*
X149090609Y-83179185D01*
X149178210Y-83310288D01*
X149178213Y-83310292D01*
X149289707Y-83421786D01*
X149289711Y-83421789D01*
X149420814Y-83509390D01*
X149420827Y-83509397D01*
X149543988Y-83560411D01*
X149566503Y-83569737D01*
X149721153Y-83600499D01*
X149721156Y-83600500D01*
X149721158Y-83600500D01*
X149878844Y-83600500D01*
X149878845Y-83600499D01*
X150033497Y-83569737D01*
X150179179Y-83509394D01*
X150310289Y-83421789D01*
X150421789Y-83310289D01*
X150509394Y-83179179D01*
X150569737Y-83033497D01*
X150600500Y-82878842D01*
X150600500Y-82721158D01*
X150600500Y-82721155D01*
X150600499Y-82721153D01*
X150599288Y-82715066D01*
X150569737Y-82566503D01*
X150535463Y-82483757D01*
X150509397Y-82420827D01*
X150509390Y-82420814D01*
X150421789Y-82289711D01*
X150421786Y-82289707D01*
X150310292Y-82178213D01*
X150310288Y-82178210D01*
X150188637Y-82096925D01*
X151626500Y-82096925D01*
X151626500Y-82254618D01*
X151657261Y-82409261D01*
X151657264Y-82409273D01*
X151717602Y-82554944D01*
X151717609Y-82554957D01*
X151805210Y-82686060D01*
X151805213Y-82686064D01*
X151916707Y-82797558D01*
X151916711Y-82797561D01*
X152047814Y-82885162D01*
X152047827Y-82885169D01*
X152193498Y-82945507D01*
X152193503Y-82945509D01*
X152348153Y-82976271D01*
X152348156Y-82976272D01*
X152348158Y-82976272D01*
X152505844Y-82976272D01*
X152505845Y-82976271D01*
X152660497Y-82945509D01*
X152806179Y-82885166D01*
X152937289Y-82797561D01*
X153048789Y-82686061D01*
X153136394Y-82554951D01*
X153196737Y-82409269D01*
X153227500Y-82254614D01*
X153227500Y-82096930D01*
X153227500Y-82096927D01*
X153227499Y-82096925D01*
X153214239Y-82030263D01*
X153196737Y-81942275D01*
X153192061Y-81930985D01*
X153136397Y-81796599D01*
X153136390Y-81796586D01*
X153048789Y-81665483D01*
X153048786Y-81665479D01*
X152937292Y-81553985D01*
X152937288Y-81553982D01*
X152806185Y-81466381D01*
X152806172Y-81466374D01*
X152660501Y-81406036D01*
X152660489Y-81406033D01*
X152505845Y-81375272D01*
X152505842Y-81375272D01*
X152348158Y-81375272D01*
X152348155Y-81375272D01*
X152193510Y-81406033D01*
X152193498Y-81406036D01*
X152047827Y-81466374D01*
X152047814Y-81466381D01*
X151916711Y-81553982D01*
X151916707Y-81553985D01*
X151805213Y-81665479D01*
X151805210Y-81665483D01*
X151717609Y-81796586D01*
X151717602Y-81796599D01*
X151657264Y-81942270D01*
X151657261Y-81942282D01*
X151626500Y-82096925D01*
X150188637Y-82096925D01*
X150179185Y-82090609D01*
X150179172Y-82090602D01*
X150033501Y-82030264D01*
X150033489Y-82030261D01*
X149878845Y-81999500D01*
X149878842Y-81999500D01*
X149721158Y-81999500D01*
X149721155Y-81999500D01*
X149566510Y-82030261D01*
X149566498Y-82030264D01*
X149420827Y-82090602D01*
X149420814Y-82090609D01*
X149289711Y-82178210D01*
X149289707Y-82178213D01*
X149178213Y-82289707D01*
X149178210Y-82289711D01*
X149090609Y-82420814D01*
X149090602Y-82420827D01*
X149030264Y-82566498D01*
X149030261Y-82566510D01*
X148999500Y-82721153D01*
X140991930Y-82721153D01*
X140991930Y-82566510D01*
X140991930Y-81705058D01*
X140991929Y-81705052D01*
X140991928Y-81705045D01*
X140985522Y-81645446D01*
X140951409Y-81553985D01*
X140935228Y-81510600D01*
X140935224Y-81510593D01*
X140848978Y-81395384D01*
X140848975Y-81395381D01*
X140733766Y-81309135D01*
X140733759Y-81309131D01*
X140602348Y-81260118D01*
X140546414Y-81218247D01*
X140521997Y-81152782D01*
X140536849Y-81084509D01*
X140557994Y-81056261D01*
X140671535Y-80942721D01*
X140796482Y-80770745D01*
X140892988Y-80581341D01*
X140958677Y-80379172D01*
X140991931Y-80169216D01*
X140991931Y-79956642D01*
X140958677Y-79746686D01*
X140892988Y-79544517D01*
X140796482Y-79355113D01*
X140796480Y-79355110D01*
X140796479Y-79355108D01*
X140671540Y-79183142D01*
X140521217Y-79032819D01*
X140434044Y-78969485D01*
X143256500Y-78969485D01*
X143256500Y-79182058D01*
X143289590Y-79390985D01*
X143289754Y-79392015D01*
X143345296Y-79562956D01*
X143355444Y-79594186D01*
X143451951Y-79783592D01*
X143576890Y-79955558D01*
X143727213Y-80105881D01*
X143899179Y-80230820D01*
X143899181Y-80230821D01*
X143899184Y-80230823D01*
X144088588Y-80327329D01*
X144290757Y-80393018D01*
X144500713Y-80426272D01*
X144500714Y-80426272D01*
X144713286Y-80426272D01*
X144713287Y-80426272D01*
X144923243Y-80393018D01*
X145125412Y-80327329D01*
X145314816Y-80230823D01*
X145336789Y-80214858D01*
X145486786Y-80105881D01*
X145486788Y-80105878D01*
X145486792Y-80105876D01*
X145637104Y-79955564D01*
X145637106Y-79955560D01*
X145637109Y-79955558D01*
X145762048Y-79783592D01*
X145762047Y-79783592D01*
X145762051Y-79783588D01*
X145766514Y-79774826D01*
X145814488Y-79724031D01*
X145882308Y-79707235D01*
X145948444Y-79729771D01*
X145987486Y-79774828D01*
X145991951Y-79783592D01*
X146116890Y-79955558D01*
X146267213Y-80105881D01*
X146439179Y-80230820D01*
X146439181Y-80230821D01*
X146439184Y-80230823D01*
X146628588Y-80327329D01*
X146830757Y-80393018D01*
X147040713Y-80426272D01*
X147040714Y-80426272D01*
X147253286Y-80426272D01*
X147253287Y-80426272D01*
X147463243Y-80393018D01*
X147665412Y-80327329D01*
X147854816Y-80230823D01*
X147876789Y-80214858D01*
X148026786Y-80105881D01*
X148026788Y-80105878D01*
X148026792Y-80105876D01*
X148177104Y-79955564D01*
X148177106Y-79955560D01*
X148177109Y-79955558D01*
X148302048Y-79783592D01*
X148302047Y-79783592D01*
X148302051Y-79783588D01*
X148306514Y-79774826D01*
X148354488Y-79724031D01*
X148422308Y-79707235D01*
X148488444Y-79729771D01*
X148527486Y-79774828D01*
X148531951Y-79783592D01*
X148656890Y-79955558D01*
X148807213Y-80105881D01*
X148979179Y-80230820D01*
X148979181Y-80230821D01*
X148979184Y-80230823D01*
X149168588Y-80327329D01*
X149370757Y-80393018D01*
X149580713Y-80426272D01*
X149580714Y-80426272D01*
X149793286Y-80426272D01*
X149793287Y-80426272D01*
X150003243Y-80393018D01*
X150205412Y-80327329D01*
X150394816Y-80230823D01*
X150481478Y-80167860D01*
X150566784Y-80105882D01*
X150566784Y-80105881D01*
X150566792Y-80105876D01*
X150680717Y-79991950D01*
X150742036Y-79958468D01*
X150811728Y-79963452D01*
X150867662Y-80005323D01*
X150884577Y-80036300D01*
X150933646Y-80167860D01*
X150933649Y-80167865D01*
X151019809Y-80282959D01*
X151019812Y-80282962D01*
X151134906Y-80369122D01*
X151134913Y-80369126D01*
X151269620Y-80419368D01*
X151269627Y-80419370D01*
X151329155Y-80425771D01*
X151329172Y-80425772D01*
X151977000Y-80425772D01*
X151977000Y-79508784D01*
X152034007Y-79541697D01*
X152161174Y-79575772D01*
X152292826Y-79575772D01*
X152419993Y-79541697D01*
X152477000Y-79508784D01*
X152477000Y-80425772D01*
X153124828Y-80425772D01*
X153124844Y-80425771D01*
X153184372Y-80419370D01*
X153184379Y-80419368D01*
X153319086Y-80369126D01*
X153319093Y-80369122D01*
X153434187Y-80282962D01*
X153434190Y-80282959D01*
X153520350Y-80167865D01*
X153520354Y-80167858D01*
X153570596Y-80033151D01*
X153570598Y-80033144D01*
X153576999Y-79973616D01*
X153577000Y-79973599D01*
X153577000Y-79325772D01*
X152660012Y-79325772D01*
X152692925Y-79268765D01*
X152727000Y-79141598D01*
X152727000Y-79009946D01*
X152692925Y-78882779D01*
X152660012Y-78825772D01*
X153577000Y-78825772D01*
X153577000Y-78177944D01*
X153576999Y-78177927D01*
X153570598Y-78118399D01*
X153570596Y-78118392D01*
X153520354Y-77983685D01*
X153520350Y-77983678D01*
X153434190Y-77868584D01*
X153434187Y-77868581D01*
X153319093Y-77782421D01*
X153319086Y-77782417D01*
X153184379Y-77732175D01*
X153184372Y-77732173D01*
X153124844Y-77725772D01*
X152477000Y-77725772D01*
X152477000Y-78642760D01*
X152419993Y-78609847D01*
X152292826Y-78575772D01*
X152161174Y-78575772D01*
X152034007Y-78609847D01*
X151977000Y-78642760D01*
X151977000Y-77725772D01*
X151329155Y-77725772D01*
X151269627Y-77732173D01*
X151269620Y-77732175D01*
X151134913Y-77782417D01*
X151134906Y-77782421D01*
X151019812Y-77868581D01*
X151019809Y-77868584D01*
X150933649Y-77983678D01*
X150933646Y-77983684D01*
X150884577Y-78115243D01*
X150842705Y-78171176D01*
X150777241Y-78195593D01*
X150708968Y-78180741D01*
X150680714Y-78159590D01*
X150566786Y-78045662D01*
X150394820Y-77920723D01*
X150205414Y-77824216D01*
X150205413Y-77824215D01*
X150205412Y-77824215D01*
X150003243Y-77758526D01*
X150003241Y-77758525D01*
X150003240Y-77758525D01*
X149841957Y-77732980D01*
X149793287Y-77725272D01*
X149580713Y-77725272D01*
X149532042Y-77732980D01*
X149370760Y-77758525D01*
X149168585Y-77824216D01*
X148979179Y-77920723D01*
X148807213Y-78045662D01*
X148656890Y-78195985D01*
X148531949Y-78367954D01*
X148527484Y-78376718D01*
X148479509Y-78427514D01*
X148411688Y-78444308D01*
X148345553Y-78421770D01*
X148306516Y-78376718D01*
X148302050Y-78367954D01*
X148177109Y-78195985D01*
X148026786Y-78045662D01*
X147854820Y-77920723D01*
X147665414Y-77824216D01*
X147665413Y-77824215D01*
X147665412Y-77824215D01*
X147463243Y-77758526D01*
X147463241Y-77758525D01*
X147463240Y-77758525D01*
X147301957Y-77732980D01*
X147253287Y-77725272D01*
X147040713Y-77725272D01*
X146992042Y-77732980D01*
X146830760Y-77758525D01*
X146628585Y-77824216D01*
X146439179Y-77920723D01*
X146267213Y-78045662D01*
X146116890Y-78195985D01*
X145991949Y-78367954D01*
X145987484Y-78376718D01*
X145939509Y-78427514D01*
X145871688Y-78444308D01*
X145805553Y-78421770D01*
X145766516Y-78376718D01*
X145762050Y-78367954D01*
X145637109Y-78195985D01*
X145486786Y-78045662D01*
X145314820Y-77920723D01*
X145125414Y-77824216D01*
X145125413Y-77824215D01*
X145125412Y-77824215D01*
X144923243Y-77758526D01*
X144923241Y-77758525D01*
X144923240Y-77758525D01*
X144761957Y-77732980D01*
X144713287Y-77725272D01*
X144500713Y-77725272D01*
X144452042Y-77732980D01*
X144290760Y-77758525D01*
X144088585Y-77824216D01*
X143899179Y-77920723D01*
X143727213Y-78045662D01*
X143576890Y-78195985D01*
X143451951Y-78367951D01*
X143355444Y-78557357D01*
X143289753Y-78759532D01*
X143256500Y-78969485D01*
X140434044Y-78969485D01*
X140349248Y-78907878D01*
X140339935Y-78903133D01*
X140289138Y-78855159D01*
X140272343Y-78787338D01*
X140294880Y-78721203D01*
X140339938Y-78682161D01*
X140348989Y-78677549D01*
X140520890Y-78552656D01*
X140520895Y-78552652D01*
X140671154Y-78402393D01*
X140671158Y-78402388D01*
X140796051Y-78230486D01*
X140892526Y-78041146D01*
X140958188Y-77839058D01*
X140958188Y-77839055D01*
X140968662Y-77772929D01*
X140074443Y-77772929D01*
X140107356Y-77715922D01*
X140141431Y-77588755D01*
X140141431Y-77457103D01*
X140107356Y-77329936D01*
X140074443Y-77272929D01*
X140968662Y-77272929D01*
X140958188Y-77206802D01*
X140958188Y-77206799D01*
X140892526Y-77004711D01*
X140796051Y-76815371D01*
X140671158Y-76643469D01*
X140671154Y-76643464D01*
X140520895Y-76493205D01*
X140520890Y-76493201D01*
X140348988Y-76368308D01*
X140159646Y-76271832D01*
X139957555Y-76206170D01*
X139891431Y-76195697D01*
X139891431Y-77089917D01*
X139834424Y-77057004D01*
X139707257Y-77022929D01*
X139575605Y-77022929D01*
X139448438Y-77057004D01*
X139391431Y-77089917D01*
X139391431Y-76195697D01*
X139391430Y-76195697D01*
X139325306Y-76206170D01*
X139123215Y-76271832D01*
X138933873Y-76368308D01*
X138761971Y-76493201D01*
X138761966Y-76493205D01*
X138611707Y-76643464D01*
X138611703Y-76643469D01*
X138486810Y-76815371D01*
X138390335Y-77004711D01*
X138324673Y-77206799D01*
X138324673Y-77206802D01*
X138314200Y-77272929D01*
X139208419Y-77272929D01*
X139175506Y-77329936D01*
X139141431Y-77457103D01*
X139141431Y-77588755D01*
X139175506Y-77715922D01*
X139208419Y-77772929D01*
X138314200Y-77772929D01*
X138324673Y-77839055D01*
X138324673Y-77839058D01*
X138390335Y-78041146D01*
X138486810Y-78230486D01*
X138611703Y-78402388D01*
X138611707Y-78402393D01*
X138761966Y-78552652D01*
X138761971Y-78552656D01*
X138933875Y-78677551D01*
X138942926Y-78682163D01*
X138993723Y-78730137D01*
X139010518Y-78797958D01*
X138987981Y-78864093D01*
X138942930Y-78903131D01*
X138933613Y-78907878D01*
X138761644Y-79032819D01*
X138611321Y-79183142D01*
X138486382Y-79355108D01*
X138389875Y-79544514D01*
X138389874Y-79544516D01*
X138389874Y-79544517D01*
X138357029Y-79645601D01*
X138324184Y-79746689D01*
X138290931Y-79956642D01*
X137850499Y-79956642D01*
X137850499Y-79362128D01*
X137844091Y-79302517D01*
X137831502Y-79268765D01*
X137793797Y-79167671D01*
X137793793Y-79167664D01*
X137707547Y-79052455D01*
X137707544Y-79052452D01*
X137592335Y-78966206D01*
X137592328Y-78966202D01*
X137457482Y-78915908D01*
X137457483Y-78915908D01*
X137397883Y-78909501D01*
X137397881Y-78909500D01*
X137397873Y-78909500D01*
X137397865Y-78909500D01*
X136560727Y-78909500D01*
X136493688Y-78889815D01*
X136447933Y-78837011D01*
X136437989Y-78767853D01*
X136467014Y-78704297D01*
X136502285Y-78676136D01*
X136506171Y-78674057D01*
X136506179Y-78674055D01*
X136637289Y-78586450D01*
X136748789Y-78474950D01*
X136836394Y-78343840D01*
X136896737Y-78198158D01*
X136927500Y-78043503D01*
X136927500Y-77885819D01*
X136927500Y-77885816D01*
X136927499Y-77885814D01*
X136924071Y-77868581D01*
X136896737Y-77731164D01*
X136894504Y-77725772D01*
X136836397Y-77585488D01*
X136836390Y-77585475D01*
X136748789Y-77454372D01*
X136748786Y-77454368D01*
X136637292Y-77342874D01*
X136637288Y-77342871D01*
X136506185Y-77255270D01*
X136506172Y-77255263D01*
X136360501Y-77194925D01*
X136360489Y-77194922D01*
X136205845Y-77164161D01*
X136205842Y-77164161D01*
X136048158Y-77164161D01*
X136048155Y-77164161D01*
X135893510Y-77194922D01*
X135893498Y-77194925D01*
X135747827Y-77255263D01*
X135747814Y-77255270D01*
X135616711Y-77342871D01*
X135616707Y-77342874D01*
X135589181Y-77370401D01*
X135527858Y-77403886D01*
X135458166Y-77398902D01*
X135402233Y-77357030D01*
X135377816Y-77291566D01*
X135377500Y-77282720D01*
X135377500Y-73671153D01*
X137249500Y-73671153D01*
X137249500Y-73828846D01*
X137280261Y-73983489D01*
X137280264Y-73983501D01*
X137340602Y-74129172D01*
X137340609Y-74129185D01*
X137428210Y-74260288D01*
X137428213Y-74260292D01*
X137539707Y-74371786D01*
X137539711Y-74371789D01*
X137670814Y-74459390D01*
X137670827Y-74459397D01*
X137759855Y-74496273D01*
X137816503Y-74519737D01*
X137971153Y-74550499D01*
X137971156Y-74550500D01*
X137971158Y-74550500D01*
X138128844Y-74550500D01*
X138128845Y-74550499D01*
X138283497Y-74519737D01*
X138396166Y-74473067D01*
X138429172Y-74459397D01*
X138429172Y-74459396D01*
X138429179Y-74459394D01*
X138560289Y-74371789D01*
X138660925Y-74271153D01*
X140574500Y-74271153D01*
X140574500Y-74428846D01*
X140605261Y-74583489D01*
X140605264Y-74583501D01*
X140665602Y-74729172D01*
X140665609Y-74729185D01*
X140753210Y-74860288D01*
X140753213Y-74860292D01*
X140864707Y-74971786D01*
X140864711Y-74971789D01*
X140995814Y-75059390D01*
X140995827Y-75059397D01*
X141141498Y-75119735D01*
X141141503Y-75119737D01*
X141296153Y-75150499D01*
X141296156Y-75150500D01*
X141296158Y-75150500D01*
X141453844Y-75150500D01*
X141453845Y-75150499D01*
X141608497Y-75119737D01*
X141739479Y-75065483D01*
X141754172Y-75059397D01*
X141754172Y-75059396D01*
X141754179Y-75059394D01*
X141885289Y-74971789D01*
X141996789Y-74860289D01*
X142084394Y-74729179D01*
X142139175Y-74596925D01*
X143326500Y-74596925D01*
X143326500Y-74754618D01*
X143357261Y-74909261D01*
X143357264Y-74909273D01*
X143417602Y-75054944D01*
X143417609Y-75054957D01*
X143505210Y-75186060D01*
X143505213Y-75186064D01*
X143616707Y-75297558D01*
X143616711Y-75297561D01*
X143747814Y-75385162D01*
X143747827Y-75385169D01*
X143893498Y-75445507D01*
X143893503Y-75445509D01*
X144048153Y-75476271D01*
X144048156Y-75476272D01*
X144048158Y-75476272D01*
X144205844Y-75476272D01*
X144205845Y-75476271D01*
X144360497Y-75445509D01*
X144506179Y-75385166D01*
X144637289Y-75297561D01*
X144748789Y-75186061D01*
X144836394Y-75054951D01*
X144896737Y-74909269D01*
X144927500Y-74754614D01*
X144927500Y-74596930D01*
X144927500Y-74596927D01*
X144927499Y-74596925D01*
X144919482Y-74556620D01*
X144896737Y-74442275D01*
X144860569Y-74354957D01*
X144836397Y-74296599D01*
X144836390Y-74296586D01*
X144748789Y-74165483D01*
X144748786Y-74165479D01*
X144637292Y-74053985D01*
X144637288Y-74053982D01*
X144506185Y-73966381D01*
X144506172Y-73966374D01*
X144360501Y-73906036D01*
X144360489Y-73906033D01*
X144205845Y-73875272D01*
X144205842Y-73875272D01*
X144048158Y-73875272D01*
X143893503Y-73906035D01*
X143868852Y-73916245D01*
X143868846Y-73916247D01*
X143747823Y-73966376D01*
X143747814Y-73966381D01*
X143616711Y-74053982D01*
X143616707Y-74053985D01*
X143505213Y-74165479D01*
X143505210Y-74165483D01*
X143417609Y-74296586D01*
X143417602Y-74296599D01*
X143357264Y-74442270D01*
X143357261Y-74442282D01*
X143326500Y-74596925D01*
X142139175Y-74596925D01*
X142144737Y-74583497D01*
X142175500Y-74428842D01*
X142175500Y-74271158D01*
X142175500Y-74271155D01*
X142175499Y-74271153D01*
X142154595Y-74166062D01*
X142144737Y-74116503D01*
X142119102Y-74054614D01*
X142084397Y-73970827D01*
X142084390Y-73970814D01*
X141996789Y-73839711D01*
X141996786Y-73839707D01*
X141885292Y-73728213D01*
X141885288Y-73728210D01*
X141754185Y-73640609D01*
X141754172Y-73640602D01*
X141608501Y-73580264D01*
X141608489Y-73580261D01*
X141453845Y-73549500D01*
X141453842Y-73549500D01*
X141296158Y-73549500D01*
X141296155Y-73549500D01*
X141141510Y-73580261D01*
X141141498Y-73580264D01*
X140995827Y-73640602D01*
X140995814Y-73640609D01*
X140864711Y-73728210D01*
X140864707Y-73728213D01*
X140753213Y-73839707D01*
X140753210Y-73839711D01*
X140665609Y-73970814D01*
X140665602Y-73970827D01*
X140605264Y-74116498D01*
X140605261Y-74116510D01*
X140574500Y-74271153D01*
X138660925Y-74271153D01*
X138671789Y-74260289D01*
X138735137Y-74165483D01*
X138759390Y-74129185D01*
X138759390Y-74129184D01*
X138759394Y-74129179D01*
X138819737Y-73983497D01*
X138850500Y-73828842D01*
X138850500Y-73671158D01*
X138850500Y-73671155D01*
X138850499Y-73671153D01*
X138837093Y-73603756D01*
X138819737Y-73516503D01*
X138774674Y-73407710D01*
X138759397Y-73370827D01*
X138759390Y-73370814D01*
X138671789Y-73239711D01*
X138671786Y-73239707D01*
X138560292Y-73128213D01*
X138560288Y-73128210D01*
X138429185Y-73040609D01*
X138429172Y-73040602D01*
X138283501Y-72980264D01*
X138283489Y-72980261D01*
X138128845Y-72949500D01*
X138128842Y-72949500D01*
X137971158Y-72949500D01*
X137971155Y-72949500D01*
X137816510Y-72980261D01*
X137816498Y-72980264D01*
X137670827Y-73040602D01*
X137670814Y-73040609D01*
X137539711Y-73128210D01*
X137539707Y-73128213D01*
X137428213Y-73239707D01*
X137428210Y-73239711D01*
X137340609Y-73370814D01*
X137340602Y-73370827D01*
X137280264Y-73516498D01*
X137280261Y-73516510D01*
X137249500Y-73671153D01*
X135377500Y-73671153D01*
X135377500Y-72796925D01*
X142926500Y-72796925D01*
X142926500Y-72954618D01*
X142957261Y-73109261D01*
X142957264Y-73109273D01*
X143017602Y-73254944D01*
X143017609Y-73254957D01*
X143105210Y-73386060D01*
X143105213Y-73386064D01*
X143216707Y-73497558D01*
X143216711Y-73497561D01*
X143347814Y-73585162D01*
X143347827Y-73585169D01*
X143445853Y-73625772D01*
X143493503Y-73645509D01*
X143632830Y-73673223D01*
X143648153Y-73676271D01*
X143648156Y-73676272D01*
X143648158Y-73676272D01*
X143805750Y-73676272D01*
X143805842Y-73676272D01*
X143960497Y-73645509D01*
X144061298Y-73603756D01*
X144106173Y-73585169D01*
X144106176Y-73585167D01*
X144106179Y-73585166D01*
X144237289Y-73497561D01*
X144348789Y-73386061D01*
X144436394Y-73254951D01*
X144460429Y-73196925D01*
X151826500Y-73196925D01*
X151826500Y-73354618D01*
X151857260Y-73509260D01*
X151857262Y-73509265D01*
X151857263Y-73509269D01*
X151885864Y-73578319D01*
X151885865Y-73578321D01*
X151893333Y-73647790D01*
X151885865Y-73673219D01*
X151857263Y-73742275D01*
X151857262Y-73742278D01*
X151857260Y-73742283D01*
X151826500Y-73896925D01*
X151826500Y-74054618D01*
X151857261Y-74209261D01*
X151857264Y-74209273D01*
X151917602Y-74354944D01*
X151917609Y-74354957D01*
X152005210Y-74486060D01*
X152005213Y-74486064D01*
X152116707Y-74597558D01*
X152116711Y-74597561D01*
X152247814Y-74685162D01*
X152247827Y-74685169D01*
X152354093Y-74729185D01*
X152393503Y-74745509D01*
X152519432Y-74770558D01*
X152548153Y-74776271D01*
X152548156Y-74776272D01*
X152548158Y-74776272D01*
X152705844Y-74776272D01*
X152705845Y-74776271D01*
X152860497Y-74745509D01*
X153006179Y-74685166D01*
X153137289Y-74597561D01*
X153248789Y-74486061D01*
X153336394Y-74354951D01*
X153396737Y-74209269D01*
X153427500Y-74054614D01*
X153427500Y-73896930D01*
X153427500Y-73896927D01*
X153427499Y-73896925D01*
X153416118Y-73839711D01*
X153396737Y-73742275D01*
X153368134Y-73673222D01*
X153360666Y-73603756D01*
X153368133Y-73578324D01*
X153396737Y-73509269D01*
X153427500Y-73354614D01*
X153427500Y-73196930D01*
X153427500Y-73196927D01*
X153427499Y-73196925D01*
X153413831Y-73128211D01*
X153396737Y-73042275D01*
X153386328Y-73017146D01*
X153336397Y-72896599D01*
X153336390Y-72896586D01*
X153248789Y-72765483D01*
X153248786Y-72765479D01*
X153137292Y-72653985D01*
X153137288Y-72653982D01*
X153006185Y-72566381D01*
X153006172Y-72566374D01*
X152860501Y-72506036D01*
X152860489Y-72506033D01*
X152705845Y-72475272D01*
X152705842Y-72475272D01*
X152548158Y-72475272D01*
X152548155Y-72475272D01*
X152393510Y-72506033D01*
X152393498Y-72506036D01*
X152247827Y-72566374D01*
X152247814Y-72566381D01*
X152116711Y-72653982D01*
X152116707Y-72653985D01*
X152005213Y-72765479D01*
X152005210Y-72765483D01*
X151917609Y-72896586D01*
X151917602Y-72896599D01*
X151857264Y-73042270D01*
X151857261Y-73042282D01*
X151826500Y-73196925D01*
X144460429Y-73196925D01*
X144482603Y-73143393D01*
X144482605Y-73143386D01*
X144496737Y-73109269D01*
X144527500Y-72954614D01*
X144527500Y-72796930D01*
X144527500Y-72796927D01*
X144527499Y-72796925D01*
X144499066Y-72653983D01*
X144496737Y-72642275D01*
X144465298Y-72566374D01*
X144436397Y-72496599D01*
X144436390Y-72496586D01*
X144348789Y-72365483D01*
X144348786Y-72365479D01*
X144237292Y-72253985D01*
X144237288Y-72253982D01*
X144106185Y-72166381D01*
X144106172Y-72166374D01*
X143960501Y-72106036D01*
X143960489Y-72106033D01*
X143805845Y-72075272D01*
X143805842Y-72075272D01*
X143648158Y-72075272D01*
X143648155Y-72075272D01*
X143493510Y-72106033D01*
X143493498Y-72106036D01*
X143347827Y-72166374D01*
X143347814Y-72166381D01*
X143216711Y-72253982D01*
X143216707Y-72253985D01*
X143105213Y-72365479D01*
X143105210Y-72365483D01*
X143017609Y-72496586D01*
X143017602Y-72496599D01*
X142957264Y-72642270D01*
X142957261Y-72642282D01*
X142926500Y-72796925D01*
X135377500Y-72796925D01*
X135377500Y-71796925D01*
X144826500Y-71796925D01*
X144826500Y-71954618D01*
X144857261Y-72109261D01*
X144857264Y-72109273D01*
X144917602Y-72254944D01*
X144917609Y-72254957D01*
X145005210Y-72386060D01*
X145005213Y-72386064D01*
X145116707Y-72497558D01*
X145116711Y-72497561D01*
X145247814Y-72585162D01*
X145247827Y-72585169D01*
X145385683Y-72642270D01*
X145393503Y-72645509D01*
X145548153Y-72676271D01*
X145548156Y-72676272D01*
X145548158Y-72676272D01*
X145705844Y-72676272D01*
X145705845Y-72676271D01*
X145860497Y-72645509D01*
X146006179Y-72585166D01*
X146137289Y-72497561D01*
X146248789Y-72386061D01*
X146336394Y-72254951D01*
X146396737Y-72109269D01*
X146401820Y-72083712D01*
X146405383Y-72065805D01*
X146437768Y-72003894D01*
X146498483Y-71969320D01*
X146568253Y-71973059D01*
X146624925Y-72013926D01*
X146648617Y-72065805D01*
X146657261Y-72109261D01*
X146657264Y-72109273D01*
X146717602Y-72254944D01*
X146717609Y-72254957D01*
X146805210Y-72386060D01*
X146805213Y-72386064D01*
X146916707Y-72497558D01*
X146916711Y-72497561D01*
X147047814Y-72585162D01*
X147047827Y-72585169D01*
X147185683Y-72642270D01*
X147193503Y-72645509D01*
X147348153Y-72676271D01*
X147348156Y-72676272D01*
X147348158Y-72676272D01*
X147505844Y-72676272D01*
X147505845Y-72676271D01*
X147660497Y-72645509D01*
X147806179Y-72585166D01*
X147937289Y-72497561D01*
X148048789Y-72386061D01*
X148136394Y-72254951D01*
X148196737Y-72109269D01*
X148227500Y-71954614D01*
X148227500Y-71796930D01*
X148227500Y-71796927D01*
X148227499Y-71796925D01*
X148626500Y-71796925D01*
X148626500Y-71954618D01*
X148657261Y-72109261D01*
X148657264Y-72109273D01*
X148717602Y-72254944D01*
X148717609Y-72254957D01*
X148805210Y-72386060D01*
X148805213Y-72386064D01*
X148916707Y-72497558D01*
X148916711Y-72497561D01*
X149047814Y-72585162D01*
X149047827Y-72585169D01*
X149185683Y-72642270D01*
X149193503Y-72645509D01*
X149348153Y-72676271D01*
X149348156Y-72676272D01*
X149348158Y-72676272D01*
X149505844Y-72676272D01*
X149505845Y-72676271D01*
X149660497Y-72645509D01*
X149806179Y-72585166D01*
X149937289Y-72497561D01*
X150048789Y-72386061D01*
X150136394Y-72254951D01*
X150196737Y-72109269D01*
X150227500Y-71954614D01*
X150227500Y-71796930D01*
X150227500Y-71796927D01*
X150227499Y-71796925D01*
X150223831Y-71778484D01*
X150196737Y-71642275D01*
X150177955Y-71596930D01*
X150177953Y-71596925D01*
X156726500Y-71596925D01*
X156726500Y-71754618D01*
X156757261Y-71909261D01*
X156757264Y-71909273D01*
X156817602Y-72054944D01*
X156817609Y-72054957D01*
X156905210Y-72186060D01*
X156905213Y-72186064D01*
X157016707Y-72297558D01*
X157016711Y-72297561D01*
X157147814Y-72385162D01*
X157147827Y-72385169D01*
X157293498Y-72445507D01*
X157293503Y-72445509D01*
X157443131Y-72475272D01*
X157448153Y-72476271D01*
X157448156Y-72476272D01*
X157448158Y-72476272D01*
X157605844Y-72476272D01*
X157605845Y-72476271D01*
X157760497Y-72445509D01*
X157906179Y-72385166D01*
X158037289Y-72297561D01*
X158148789Y-72186061D01*
X158236394Y-72054951D01*
X158296737Y-71909269D01*
X158327500Y-71754614D01*
X158327500Y-71596930D01*
X158327500Y-71596927D01*
X158327499Y-71596925D01*
X158307543Y-71496599D01*
X158296737Y-71442275D01*
X158264929Y-71365483D01*
X158236397Y-71296599D01*
X158236390Y-71296586D01*
X158148789Y-71165483D01*
X158148786Y-71165479D01*
X158037292Y-71053985D01*
X158037288Y-71053982D01*
X157906185Y-70966381D01*
X157906172Y-70966374D01*
X157760501Y-70906036D01*
X157760489Y-70906033D01*
X157605845Y-70875272D01*
X157605842Y-70875272D01*
X157448158Y-70875272D01*
X157448155Y-70875272D01*
X157293510Y-70906033D01*
X157293498Y-70906036D01*
X157147827Y-70966374D01*
X157147814Y-70966381D01*
X157016711Y-71053982D01*
X157016707Y-71053985D01*
X156905213Y-71165479D01*
X156905210Y-71165483D01*
X156817609Y-71296586D01*
X156817602Y-71296599D01*
X156757264Y-71442270D01*
X156757261Y-71442282D01*
X156726500Y-71596925D01*
X150177953Y-71596925D01*
X150136397Y-71496599D01*
X150136390Y-71496586D01*
X150048789Y-71365483D01*
X150048786Y-71365479D01*
X149937292Y-71253985D01*
X149937288Y-71253982D01*
X149806185Y-71166381D01*
X149806172Y-71166374D01*
X149660501Y-71106036D01*
X149660489Y-71106033D01*
X149505845Y-71075272D01*
X149505842Y-71075272D01*
X149348158Y-71075272D01*
X149348155Y-71075272D01*
X149193510Y-71106033D01*
X149193498Y-71106036D01*
X149047827Y-71166374D01*
X149047814Y-71166381D01*
X148916711Y-71253982D01*
X148916707Y-71253985D01*
X148805213Y-71365479D01*
X148805210Y-71365483D01*
X148717609Y-71496586D01*
X148717602Y-71496599D01*
X148657264Y-71642270D01*
X148657261Y-71642282D01*
X148626500Y-71796925D01*
X148227499Y-71796925D01*
X148223831Y-71778484D01*
X148196737Y-71642275D01*
X148177955Y-71596930D01*
X148136397Y-71496599D01*
X148136390Y-71496586D01*
X148048789Y-71365483D01*
X148048786Y-71365479D01*
X147937292Y-71253985D01*
X147937288Y-71253982D01*
X147806185Y-71166381D01*
X147806172Y-71166374D01*
X147660501Y-71106036D01*
X147660489Y-71106033D01*
X147505845Y-71075272D01*
X147505842Y-71075272D01*
X147348158Y-71075272D01*
X147348155Y-71075272D01*
X147193510Y-71106033D01*
X147193498Y-71106036D01*
X147047827Y-71166374D01*
X147047814Y-71166381D01*
X146916711Y-71253982D01*
X146916707Y-71253985D01*
X146805213Y-71365479D01*
X146805210Y-71365483D01*
X146717609Y-71496586D01*
X146717602Y-71496599D01*
X146657264Y-71642270D01*
X146657261Y-71642280D01*
X146648617Y-71685739D01*
X146616232Y-71747650D01*
X146555516Y-71782224D01*
X146485747Y-71778484D01*
X146429075Y-71737617D01*
X146405383Y-71685739D01*
X146396738Y-71642280D01*
X146396737Y-71642279D01*
X146396737Y-71642275D01*
X146377955Y-71596930D01*
X146336397Y-71496599D01*
X146336390Y-71496586D01*
X146248789Y-71365483D01*
X146248786Y-71365479D01*
X146137292Y-71253985D01*
X146137288Y-71253982D01*
X146006185Y-71166381D01*
X146006172Y-71166374D01*
X145860501Y-71106036D01*
X145860489Y-71106033D01*
X145705845Y-71075272D01*
X145705842Y-71075272D01*
X145548158Y-71075272D01*
X145548155Y-71075272D01*
X145393510Y-71106033D01*
X145393498Y-71106036D01*
X145247827Y-71166374D01*
X145247814Y-71166381D01*
X145116711Y-71253982D01*
X145116707Y-71253985D01*
X145005213Y-71365479D01*
X145005210Y-71365483D01*
X144917609Y-71496586D01*
X144917602Y-71496599D01*
X144857264Y-71642270D01*
X144857261Y-71642282D01*
X144826500Y-71796925D01*
X135377500Y-71796925D01*
X135377500Y-68196925D01*
X141526500Y-68196925D01*
X141526500Y-68354618D01*
X141557261Y-68509261D01*
X141557264Y-68509273D01*
X141617602Y-68654944D01*
X141617609Y-68654957D01*
X141705210Y-68786060D01*
X141705213Y-68786064D01*
X141816707Y-68897558D01*
X141816711Y-68897561D01*
X141947814Y-68985162D01*
X141947827Y-68985169D01*
X142093498Y-69045507D01*
X142093503Y-69045509D01*
X142248153Y-69076271D01*
X142248156Y-69076272D01*
X142248158Y-69076272D01*
X142405844Y-69076272D01*
X142405845Y-69076271D01*
X142560497Y-69045509D01*
X142706179Y-68985166D01*
X142837289Y-68897561D01*
X142948789Y-68786061D01*
X143036394Y-68654951D01*
X143096737Y-68509269D01*
X143127500Y-68354614D01*
X143127500Y-68196930D01*
X143127500Y-68196927D01*
X143127499Y-68196925D01*
X143119148Y-68154944D01*
X143096737Y-68042275D01*
X143079668Y-68001066D01*
X143036397Y-67896599D01*
X143036390Y-67896586D01*
X142948789Y-67765483D01*
X142948786Y-67765479D01*
X142837292Y-67653985D01*
X142837288Y-67653982D01*
X142706185Y-67566381D01*
X142706172Y-67566374D01*
X142560501Y-67506036D01*
X142560489Y-67506033D01*
X142405845Y-67475272D01*
X142405842Y-67475272D01*
X142248158Y-67475272D01*
X142248155Y-67475272D01*
X142093510Y-67506033D01*
X142093498Y-67506036D01*
X141947827Y-67566374D01*
X141947814Y-67566381D01*
X141816711Y-67653982D01*
X141816707Y-67653985D01*
X141705213Y-67765479D01*
X141705210Y-67765483D01*
X141617609Y-67896586D01*
X141617602Y-67896599D01*
X141557264Y-68042270D01*
X141557261Y-68042282D01*
X141526500Y-68196925D01*
X135377500Y-68196925D01*
X135377500Y-67913269D01*
X135397185Y-67846230D01*
X135449989Y-67800475D01*
X135519147Y-67790531D01*
X135582703Y-67819556D01*
X135589181Y-67825588D01*
X135616707Y-67853114D01*
X135616711Y-67853117D01*
X135747814Y-67940718D01*
X135747827Y-67940725D01*
X135893498Y-68001063D01*
X135893503Y-68001065D01*
X136048153Y-68031827D01*
X136048156Y-68031828D01*
X136048158Y-68031828D01*
X136205844Y-68031828D01*
X136205845Y-68031827D01*
X136360497Y-68001065D01*
X136506179Y-67940722D01*
X136637289Y-67853117D01*
X136748789Y-67741617D01*
X136836394Y-67610507D01*
X136839439Y-67603157D01*
X136850067Y-67577494D01*
X136896737Y-67464825D01*
X136927500Y-67310170D01*
X136927500Y-67152486D01*
X136927500Y-67152483D01*
X136927499Y-67152481D01*
X136914108Y-67085162D01*
X136896737Y-66997831D01*
X136850441Y-66886061D01*
X136836397Y-66852155D01*
X136836390Y-66852142D01*
X136748789Y-66721039D01*
X136748786Y-66721035D01*
X136637292Y-66609541D01*
X136637288Y-66609538D01*
X136506185Y-66521937D01*
X136506172Y-66521930D01*
X136360501Y-66461592D01*
X136360489Y-66461589D01*
X136205845Y-66430828D01*
X136205842Y-66430828D01*
X136048158Y-66430828D01*
X136048155Y-66430828D01*
X135893510Y-66461589D01*
X135893498Y-66461592D01*
X135747827Y-66521930D01*
X135747814Y-66521937D01*
X135616711Y-66609538D01*
X135616707Y-66609541D01*
X135589181Y-66637068D01*
X135527858Y-66670553D01*
X135458166Y-66665569D01*
X135402233Y-66623697D01*
X135377816Y-66558233D01*
X135377500Y-66549387D01*
X135377500Y-66196925D01*
X143326500Y-66196925D01*
X143326500Y-66354618D01*
X143357261Y-66509261D01*
X143357264Y-66509273D01*
X143417602Y-66654944D01*
X143417609Y-66654957D01*
X143505210Y-66786060D01*
X143505213Y-66786064D01*
X143616707Y-66897558D01*
X143616711Y-66897561D01*
X143747814Y-66985162D01*
X143747827Y-66985169D01*
X143893498Y-67045507D01*
X143893503Y-67045509D01*
X144048153Y-67076271D01*
X144048156Y-67076272D01*
X144048158Y-67076272D01*
X144205844Y-67076272D01*
X144205845Y-67076271D01*
X144360497Y-67045509D01*
X144506179Y-66985166D01*
X144637289Y-66897561D01*
X144748789Y-66786061D01*
X144836394Y-66654951D01*
X144896737Y-66509269D01*
X144927500Y-66354614D01*
X144927500Y-66196930D01*
X144927500Y-66196927D01*
X144927499Y-66196925D01*
X144911147Y-66114718D01*
X144896737Y-66042275D01*
X144883178Y-66009541D01*
X144836397Y-65896599D01*
X144836390Y-65896586D01*
X144748789Y-65765483D01*
X144748786Y-65765479D01*
X144637292Y-65653985D01*
X144637288Y-65653982D01*
X144506185Y-65566381D01*
X144506172Y-65566374D01*
X144360501Y-65506036D01*
X144360489Y-65506033D01*
X144205845Y-65475272D01*
X144205842Y-65475272D01*
X144048158Y-65475272D01*
X144048155Y-65475272D01*
X143893510Y-65506033D01*
X143893498Y-65506036D01*
X143747827Y-65566374D01*
X143747814Y-65566381D01*
X143616711Y-65653982D01*
X143616707Y-65653985D01*
X143505213Y-65765479D01*
X143505210Y-65765483D01*
X143417609Y-65896586D01*
X143417602Y-65896599D01*
X143357264Y-66042270D01*
X143357261Y-66042282D01*
X143326500Y-66196925D01*
X135377500Y-66196925D01*
X135377500Y-65296925D01*
X146726500Y-65296925D01*
X146726500Y-65454618D01*
X146757261Y-65609261D01*
X146757264Y-65609273D01*
X146817602Y-65754944D01*
X146817609Y-65754957D01*
X146905210Y-65886060D01*
X146905213Y-65886064D01*
X147016707Y-65997558D01*
X147016711Y-65997561D01*
X147147814Y-66085162D01*
X147147827Y-66085169D01*
X147257796Y-66130719D01*
X147312200Y-66174559D01*
X147334265Y-66240853D01*
X147331962Y-66269470D01*
X147326500Y-66296931D01*
X147326500Y-66454618D01*
X147357261Y-66609261D01*
X147357264Y-66609273D01*
X147417602Y-66754944D01*
X147417609Y-66754957D01*
X147505210Y-66886060D01*
X147505213Y-66886064D01*
X147616707Y-66997558D01*
X147616711Y-66997561D01*
X147747814Y-67085162D01*
X147747827Y-67085169D01*
X147884104Y-67141616D01*
X147893503Y-67145509D01*
X148048153Y-67176271D01*
X148048156Y-67176272D01*
X148048158Y-67176272D01*
X148205844Y-67176272D01*
X148205845Y-67176271D01*
X148360497Y-67145509D01*
X148506179Y-67085166D01*
X148637289Y-66997561D01*
X148712925Y-66921925D01*
X152026500Y-66921925D01*
X152026500Y-67079618D01*
X152057261Y-67234261D01*
X152057264Y-67234273D01*
X152117602Y-67379944D01*
X152117609Y-67379957D01*
X152205210Y-67511060D01*
X152205213Y-67511064D01*
X152316707Y-67622558D01*
X152316711Y-67622561D01*
X152447814Y-67710162D01*
X152447827Y-67710169D01*
X152523758Y-67741620D01*
X152593503Y-67770509D01*
X152744151Y-67800475D01*
X152748153Y-67801271D01*
X152748156Y-67801272D01*
X152748158Y-67801272D01*
X152905844Y-67801272D01*
X152905845Y-67801271D01*
X153060497Y-67770509D01*
X153174734Y-67723191D01*
X153206172Y-67710169D01*
X153206172Y-67710168D01*
X153206179Y-67710166D01*
X153225996Y-67696925D01*
X153726500Y-67696925D01*
X153726500Y-67854618D01*
X153757261Y-68009261D01*
X153757264Y-68009273D01*
X153817602Y-68154944D01*
X153817609Y-68154957D01*
X153905210Y-68286060D01*
X153905213Y-68286064D01*
X154016707Y-68397558D01*
X154016711Y-68397561D01*
X154147814Y-68485162D01*
X154147827Y-68485169D01*
X154293498Y-68545507D01*
X154293503Y-68545509D01*
X154448153Y-68576271D01*
X154448156Y-68576272D01*
X154448158Y-68576272D01*
X154605844Y-68576272D01*
X154605845Y-68576271D01*
X154760497Y-68545509D01*
X154906179Y-68485166D01*
X154906184Y-68485162D01*
X154906187Y-68485161D01*
X154936180Y-68465119D01*
X154988196Y-68430363D01*
X155054872Y-68409485D01*
X155122252Y-68427969D01*
X155168943Y-68479947D01*
X155178704Y-68509273D01*
X155208857Y-68660859D01*
X155208860Y-68660869D01*
X155269198Y-68806540D01*
X155269205Y-68806553D01*
X155356806Y-68937656D01*
X155356809Y-68937660D01*
X155468303Y-69049154D01*
X155468307Y-69049157D01*
X155599410Y-69136758D01*
X155599423Y-69136765D01*
X155727830Y-69189952D01*
X155745099Y-69197105D01*
X155899749Y-69227867D01*
X155899752Y-69227868D01*
X155899754Y-69227868D01*
X156057440Y-69227868D01*
X156057441Y-69227867D01*
X156212093Y-69197105D01*
X156357775Y-69136762D01*
X156488885Y-69049157D01*
X156600385Y-68937657D01*
X156687990Y-68806547D01*
X156748333Y-68660865D01*
X156779096Y-68506210D01*
X156779096Y-68348526D01*
X156779096Y-68348523D01*
X156779095Y-68348521D01*
X156766671Y-68286061D01*
X156748333Y-68193871D01*
X156745369Y-68186715D01*
X156687993Y-68048195D01*
X156687986Y-68048182D01*
X156600385Y-67917079D01*
X156600382Y-67917075D01*
X156488888Y-67805581D01*
X156488884Y-67805578D01*
X156357781Y-67717977D01*
X156357768Y-67717970D01*
X156212097Y-67657632D01*
X156212085Y-67657629D01*
X156057441Y-67626868D01*
X156057438Y-67626868D01*
X155899754Y-67626868D01*
X155899751Y-67626868D01*
X155745106Y-67657629D01*
X155745094Y-67657632D01*
X155599423Y-67717970D01*
X155599410Y-67717977D01*
X155517399Y-67772776D01*
X155450721Y-67793654D01*
X155383341Y-67775169D01*
X155336651Y-67723191D01*
X155326891Y-67693865D01*
X155307869Y-67598241D01*
X155296737Y-67542275D01*
X155283808Y-67511061D01*
X155236397Y-67396599D01*
X155236390Y-67396586D01*
X155148789Y-67265483D01*
X155148786Y-67265479D01*
X155037292Y-67153985D01*
X155037288Y-67153982D01*
X154906185Y-67066381D01*
X154906172Y-67066374D01*
X154760501Y-67006036D01*
X154760489Y-67006033D01*
X154605845Y-66975272D01*
X154605842Y-66975272D01*
X154448158Y-66975272D01*
X154448155Y-66975272D01*
X154293510Y-67006033D01*
X154293498Y-67006036D01*
X154147827Y-67066374D01*
X154147814Y-67066381D01*
X154016711Y-67153982D01*
X154016707Y-67153985D01*
X153905213Y-67265479D01*
X153905210Y-67265483D01*
X153817609Y-67396586D01*
X153817602Y-67396599D01*
X153757264Y-67542270D01*
X153757261Y-67542282D01*
X153726500Y-67696925D01*
X153225996Y-67696925D01*
X153337289Y-67622561D01*
X153344847Y-67615003D01*
X153356694Y-67603157D01*
X153448786Y-67511064D01*
X153448789Y-67511061D01*
X153536394Y-67379951D01*
X153545206Y-67358678D01*
X153596735Y-67234273D01*
X153596737Y-67234269D01*
X153627500Y-67079614D01*
X153627500Y-66921930D01*
X153627500Y-66921927D01*
X153627499Y-66921925D01*
X153613621Y-66852155D01*
X153596737Y-66767275D01*
X153556674Y-66670553D01*
X153536397Y-66621599D01*
X153536390Y-66621586D01*
X153448789Y-66490483D01*
X153448786Y-66490479D01*
X153337292Y-66378985D01*
X153337288Y-66378982D01*
X153206185Y-66291381D01*
X153206172Y-66291374D01*
X153060501Y-66231036D01*
X153060489Y-66231033D01*
X152905845Y-66200272D01*
X152905842Y-66200272D01*
X152748158Y-66200272D01*
X152748155Y-66200272D01*
X152593510Y-66231033D01*
X152593498Y-66231036D01*
X152447827Y-66291374D01*
X152447814Y-66291381D01*
X152316711Y-66378982D01*
X152316707Y-66378985D01*
X152205213Y-66490479D01*
X152205210Y-66490483D01*
X152117609Y-66621586D01*
X152117602Y-66621599D01*
X152057264Y-66767270D01*
X152057261Y-66767282D01*
X152026500Y-66921925D01*
X148712925Y-66921925D01*
X148748789Y-66886061D01*
X148836394Y-66754951D01*
X148896737Y-66609269D01*
X148927500Y-66454614D01*
X148927500Y-66296930D01*
X148927500Y-66296927D01*
X148927499Y-66296925D01*
X148918591Y-66252142D01*
X148896737Y-66142275D01*
X148873080Y-66085162D01*
X148836397Y-65996599D01*
X148836390Y-65996586D01*
X148748789Y-65865483D01*
X148748786Y-65865479D01*
X148637292Y-65753985D01*
X148637288Y-65753982D01*
X148506185Y-65666381D01*
X148506176Y-65666376D01*
X148396202Y-65620824D01*
X148341799Y-65576983D01*
X148319734Y-65510689D01*
X148319737Y-65501750D01*
X148320098Y-65491823D01*
X148327500Y-65454614D01*
X148327500Y-65296930D01*
X148327499Y-65296925D01*
X148926500Y-65296925D01*
X148926500Y-65454618D01*
X148957261Y-65609261D01*
X148957264Y-65609273D01*
X149017602Y-65754944D01*
X149017609Y-65754957D01*
X149105210Y-65886060D01*
X149105213Y-65886064D01*
X149216707Y-65997558D01*
X149216711Y-65997561D01*
X149347814Y-66085162D01*
X149347827Y-66085169D01*
X149474549Y-66137658D01*
X149493503Y-66145509D01*
X149639546Y-66174559D01*
X149648153Y-66176271D01*
X149648156Y-66176272D01*
X149648158Y-66176272D01*
X149805844Y-66176272D01*
X149805845Y-66176271D01*
X149960497Y-66145509D01*
X150036924Y-66113851D01*
X150106392Y-66106383D01*
X150168872Y-66137658D01*
X150187478Y-66159523D01*
X150205207Y-66186056D01*
X150205213Y-66186064D01*
X150316707Y-66297558D01*
X150316711Y-66297561D01*
X150447814Y-66385162D01*
X150447827Y-66385169D01*
X150593498Y-66445507D01*
X150593503Y-66445509D01*
X150748153Y-66476271D01*
X150748156Y-66476272D01*
X150748158Y-66476272D01*
X150905844Y-66476272D01*
X150905845Y-66476271D01*
X151060497Y-66445509D01*
X151206179Y-66385166D01*
X151337289Y-66297561D01*
X151448789Y-66186061D01*
X151466520Y-66159523D01*
X151520130Y-66114718D01*
X151589455Y-66106009D01*
X151617075Y-66113852D01*
X151674549Y-66137658D01*
X151693503Y-66145509D01*
X151839546Y-66174559D01*
X151848153Y-66176271D01*
X151848156Y-66176272D01*
X151848158Y-66176272D01*
X152005844Y-66176272D01*
X152005845Y-66176271D01*
X152160497Y-66145509D01*
X152306179Y-66085166D01*
X152437289Y-65997561D01*
X152548789Y-65886061D01*
X152636394Y-65754951D01*
X152696737Y-65609269D01*
X152727500Y-65454614D01*
X152727500Y-65296930D01*
X152727500Y-65296927D01*
X152727499Y-65296925D01*
X152696738Y-65142282D01*
X152696737Y-65142275D01*
X152696735Y-65142270D01*
X152636397Y-64996599D01*
X152636390Y-64996586D01*
X152548789Y-64865483D01*
X152548786Y-64865479D01*
X152437292Y-64753985D01*
X152437288Y-64753982D01*
X152306185Y-64666381D01*
X152306172Y-64666374D01*
X152160501Y-64606036D01*
X152160489Y-64606033D01*
X152005845Y-64575272D01*
X152005842Y-64575272D01*
X151848158Y-64575272D01*
X151848155Y-64575272D01*
X151693510Y-64606033D01*
X151693498Y-64606036D01*
X151547827Y-64666374D01*
X151547814Y-64666381D01*
X151416711Y-64753982D01*
X151416707Y-64753985D01*
X151305217Y-64865476D01*
X151305212Y-64865481D01*
X151287476Y-64892024D01*
X151233862Y-64936828D01*
X151164537Y-64945533D01*
X151136924Y-64937691D01*
X151060501Y-64906036D01*
X151060489Y-64906033D01*
X150905845Y-64875272D01*
X150905842Y-64875272D01*
X150748158Y-64875272D01*
X150748155Y-64875272D01*
X150593510Y-64906033D01*
X150593503Y-64906035D01*
X150517074Y-64937692D01*
X150447605Y-64945159D01*
X150385126Y-64913884D01*
X150366520Y-64892020D01*
X150348787Y-64865480D01*
X150237292Y-64753985D01*
X150237288Y-64753982D01*
X150106185Y-64666381D01*
X150106172Y-64666374D01*
X149960501Y-64606036D01*
X149960489Y-64606033D01*
X149805845Y-64575272D01*
X149805842Y-64575272D01*
X149648158Y-64575272D01*
X149648155Y-64575272D01*
X149493510Y-64606033D01*
X149493498Y-64606036D01*
X149347827Y-64666374D01*
X149347814Y-64666381D01*
X149216711Y-64753982D01*
X149216707Y-64753985D01*
X149105213Y-64865479D01*
X149105210Y-64865483D01*
X149017609Y-64996586D01*
X149017602Y-64996599D01*
X148957264Y-65142270D01*
X148957261Y-65142282D01*
X148926500Y-65296925D01*
X148327499Y-65296925D01*
X148296737Y-65142275D01*
X148296735Y-65142270D01*
X148236397Y-64996599D01*
X148236390Y-64996586D01*
X148148789Y-64865483D01*
X148148786Y-64865479D01*
X148037292Y-64753985D01*
X148037288Y-64753982D01*
X147906185Y-64666381D01*
X147906172Y-64666374D01*
X147760501Y-64606036D01*
X147760489Y-64606033D01*
X147605845Y-64575272D01*
X147605842Y-64575272D01*
X147448158Y-64575272D01*
X147448155Y-64575272D01*
X147293510Y-64606033D01*
X147293498Y-64606036D01*
X147147827Y-64666374D01*
X147147814Y-64666381D01*
X147016711Y-64753982D01*
X147016707Y-64753985D01*
X146905213Y-64865479D01*
X146905210Y-64865483D01*
X146817609Y-64996586D01*
X146817602Y-64996599D01*
X146757264Y-65142270D01*
X146757261Y-65142282D01*
X146726500Y-65296925D01*
X135377500Y-65296925D01*
X135377500Y-63600272D01*
X135397185Y-63533233D01*
X135449989Y-63487478D01*
X135501500Y-63476272D01*
X139732832Y-63476272D01*
X139799871Y-63495957D01*
G37*
%TD.AperFunction*%
%TD*%
M02*
